<?xml version="1.0" encoding="utf-8" standalone="no"?>
<!DOCTYPE svg PUBLIC "-//W3C//DTD SVG 1.1//EN"
  "http://www.w3.org/Graphics/SVG/1.1/DTD/svg11.dtd">
<!-- Created with matplotlib (https://matplotlib.org/) -->
<svg height="288pt" version="1.1" viewBox="0 0 432 288" width="432pt" xmlns="http://www.w3.org/2000/svg" xmlns:xlink="http://www.w3.org/1999/xlink">
 <defs>
  <style type="text/css">
*{stroke-linecap:butt;stroke-linejoin:round;}
  </style>
 </defs>
 <g id="figure_1">
  <g id="patch_1">
   <path d="M 0 288 
L 432 288 
L 432 0 
L 0 0 
z
" style="fill:#ffffff;"/>
  </g>
  <g id="axes_1">
   <g id="patch_2">
    <path d="M 54 252 
L 388.8 252 
L 388.8 34.56 
L 54 34.56 
z
" style="fill:#eaeaf2;"/>
   </g>
   <g id="axes_2">
    <g id="patch_3">
     <path d="M 388.8 252 
L 388.8 252 
L 388.8 34.56 
L 388.8 34.56 
z
" style="fill:#eaeaf2;"/>
    </g>
    <g id="matplotlib.axis_1"/>
    <g id="matplotlib.axis_2">
     <g id="ytick_1">
      <g id="line2d_1">
       <path clip-path="url(#p0b7b4db15a)" d="M 388.8 247.049719 
L 388.8 247.049719 
" style="fill:none;stroke:#ffffff;stroke-linecap:round;"/>
      </g>
      <g id="line2d_2">
       <defs>
        <path d="M 0 0 
L 6 0 
" id="m8840db3ca7" style="stroke:#262626;stroke-width:1.25;"/>
       </defs>
       <g>
        <use style="fill:#262626;stroke:#262626;stroke-width:1.25;" x="388.8" xlink:href="#m8840db3ca7" y="247.049719"/>
       </g>
      </g>
      <g id="text_1">
       <!-- −4.62 -->
       <defs>
        <path d="M 52.828125 31.203125 
L 5.5625 31.203125 
L 5.5625 39.40625 
L 52.828125 39.40625 
z
" id="ArialMT-8722"/>
        <path d="M 32.328125 0 
L 32.328125 17.140625 
L 1.265625 17.140625 
L 1.265625 25.203125 
L 33.9375 71.578125 
L 41.109375 71.578125 
L 41.109375 25.203125 
L 50.78125 25.203125 
L 50.78125 17.140625 
L 41.109375 17.140625 
L 41.109375 0 
z
M 32.328125 25.203125 
L 32.328125 57.46875 
L 9.90625 25.203125 
z
" id="ArialMT-52"/>
        <path d="M 9.078125 0 
L 9.078125 10.015625 
L 19.09375 10.015625 
L 19.09375 0 
z
" id="ArialMT-46"/>
        <path d="M 49.75 54.046875 
L 41.015625 53.375 
Q 39.84375 58.546875 37.703125 60.890625 
Q 34.125 64.65625 28.90625 64.65625 
Q 24.703125 64.65625 21.53125 62.3125 
Q 17.390625 59.28125 14.984375 53.46875 
Q 12.59375 47.65625 12.5 36.921875 
Q 15.671875 41.75 20.265625 44.09375 
Q 24.859375 46.4375 29.890625 46.4375 
Q 38.671875 46.4375 44.84375 39.96875 
Q 51.03125 33.5 51.03125 23.25 
Q 51.03125 16.5 48.125 10.71875 
Q 45.21875 4.9375 40.140625 1.859375 
Q 35.0625 -1.21875 28.609375 -1.21875 
Q 17.625 -1.21875 10.6875 6.859375 
Q 3.765625 14.9375 3.765625 33.5 
Q 3.765625 54.25 11.421875 63.671875 
Q 18.109375 71.875 29.4375 71.875 
Q 37.890625 71.875 43.28125 67.140625 
Q 48.6875 62.40625 49.75 54.046875 
z
M 13.875 23.1875 
Q 13.875 18.65625 15.796875 14.5 
Q 17.71875 10.359375 21.1875 8.171875 
Q 24.65625 6 28.46875 6 
Q 34.03125 6 38.03125 10.484375 
Q 42.046875 14.984375 42.046875 22.703125 
Q 42.046875 30.125 38.078125 34.390625 
Q 34.125 38.671875 28.125 38.671875 
Q 22.171875 38.671875 18.015625 34.390625 
Q 13.875 30.125 13.875 23.1875 
z
" id="ArialMT-54"/>
        <path d="M 50.34375 8.453125 
L 50.34375 0 
L 3.03125 0 
Q 2.9375 3.171875 4.046875 6.109375 
Q 5.859375 10.9375 9.828125 15.625 
Q 13.8125 20.3125 21.34375 26.46875 
Q 33.015625 36.03125 37.109375 41.625 
Q 41.21875 47.21875 41.21875 52.203125 
Q 41.21875 57.421875 37.46875 61 
Q 33.734375 64.59375 27.734375 64.59375 
Q 21.390625 64.59375 17.578125 60.78125 
Q 13.765625 56.984375 13.71875 50.25 
L 4.6875 51.171875 
Q 5.609375 61.28125 11.65625 66.578125 
Q 17.71875 71.875 27.9375 71.875 
Q 38.234375 71.875 44.234375 66.15625 
Q 50.25 60.453125 50.25 52 
Q 50.25 47.703125 48.484375 43.546875 
Q 46.734375 39.40625 42.65625 34.8125 
Q 38.578125 30.21875 29.109375 22.21875 
Q 21.1875 15.578125 18.9375 13.203125 
Q 16.703125 10.84375 15.234375 8.453125 
z
" id="ArialMT-50"/>
       </defs>
       <g style="fill:#262626;" transform="translate(398.3 250.986516)scale(0.11 -0.11)">
        <use xlink:href="#ArialMT-8722"/>
        <use x="58.398438" xlink:href="#ArialMT-52"/>
        <use x="114.013672" xlink:href="#ArialMT-46"/>
        <use x="141.796875" xlink:href="#ArialMT-54"/>
        <use x="197.412109" xlink:href="#ArialMT-50"/>
       </g>
      </g>
     </g>
     <g id="ytick_2">
      <g id="line2d_3">
       <path clip-path="url(#p0b7b4db15a)" d="M 388.8 233.391228 
L 388.8 233.391228 
" style="fill:none;stroke:#ffffff;stroke-linecap:round;"/>
      </g>
      <g id="line2d_4">
       <g>
        <use style="fill:#262626;stroke:#262626;stroke-width:1.25;" x="388.8" xlink:href="#m8840db3ca7" y="233.391228"/>
       </g>
      </g>
      <g id="text_2">
       <!-- −5.55 -->
       <defs>
        <path d="M 4.15625 18.75 
L 13.375 19.53125 
Q 14.40625 12.796875 18.140625 9.390625 
Q 21.875 6 27.15625 6 
Q 33.5 6 37.890625 10.78125 
Q 42.28125 15.578125 42.28125 23.484375 
Q 42.28125 31 38.0625 35.34375 
Q 33.84375 39.703125 27 39.703125 
Q 22.75 39.703125 19.328125 37.765625 
Q 15.921875 35.84375 13.96875 32.765625 
L 5.71875 33.84375 
L 12.640625 70.609375 
L 48.25 70.609375 
L 48.25 62.203125 
L 19.671875 62.203125 
L 15.828125 42.96875 
Q 22.265625 47.46875 29.34375 47.46875 
Q 38.71875 47.46875 45.15625 40.96875 
Q 51.609375 34.46875 51.609375 24.265625 
Q 51.609375 14.546875 45.953125 7.46875 
Q 39.0625 -1.21875 27.15625 -1.21875 
Q 17.390625 -1.21875 11.203125 4.25 
Q 5.03125 9.71875 4.15625 18.75 
z
" id="ArialMT-53"/>
       </defs>
       <g style="fill:#262626;" transform="translate(398.3 237.328025)scale(0.11 -0.11)">
        <use xlink:href="#ArialMT-8722"/>
        <use x="58.398438" xlink:href="#ArialMT-53"/>
        <use x="114.013672" xlink:href="#ArialMT-46"/>
        <use x="141.796875" xlink:href="#ArialMT-53"/>
        <use x="197.412109" xlink:href="#ArialMT-53"/>
       </g>
      </g>
     </g>
     <g id="ytick_3">
      <g id="line2d_5">
       <path clip-path="url(#p0b7b4db15a)" d="M 388.8 219.732737 
L 388.8 219.732737 
" style="fill:none;stroke:#ffffff;stroke-linecap:round;"/>
      </g>
      <g id="line2d_6">
       <g>
        <use style="fill:#262626;stroke:#262626;stroke-width:1.25;" x="388.8" xlink:href="#m8840db3ca7" y="219.732737"/>
       </g>
      </g>
      <g id="text_3">
       <!-- −6.93 -->
       <defs>
        <path d="M 5.46875 16.546875 
L 13.921875 17.328125 
Q 14.984375 11.375 18.015625 8.6875 
Q 21.046875 6 25.78125 6 
Q 29.828125 6 32.875 7.859375 
Q 35.9375 9.71875 37.890625 12.8125 
Q 39.84375 15.921875 41.15625 21.1875 
Q 42.484375 26.46875 42.484375 31.9375 
Q 42.484375 32.515625 42.4375 33.6875 
Q 39.796875 29.5 35.234375 26.875 
Q 30.671875 24.265625 25.34375 24.265625 
Q 16.453125 24.265625 10.296875 30.703125 
Q 4.15625 37.15625 4.15625 47.703125 
Q 4.15625 58.59375 10.578125 65.234375 
Q 17 71.875 26.65625 71.875 
Q 33.640625 71.875 39.421875 68.109375 
Q 45.21875 64.359375 48.21875 57.390625 
Q 51.21875 50.4375 51.21875 37.25 
Q 51.21875 23.53125 48.234375 15.40625 
Q 45.265625 7.28125 39.375 3.03125 
Q 33.5 -1.21875 25.59375 -1.21875 
Q 17.1875 -1.21875 11.859375 3.4375 
Q 6.546875 8.109375 5.46875 16.546875 
z
M 41.453125 48.140625 
Q 41.453125 55.71875 37.421875 60.15625 
Q 33.40625 64.59375 27.734375 64.59375 
Q 21.875 64.59375 17.53125 59.8125 
Q 13.1875 55.03125 13.1875 47.40625 
Q 13.1875 40.578125 17.3125 36.296875 
Q 21.4375 32.03125 27.484375 32.03125 
Q 33.59375 32.03125 37.515625 36.296875 
Q 41.453125 40.578125 41.453125 48.140625 
z
" id="ArialMT-57"/>
        <path d="M 4.203125 18.890625 
L 12.984375 20.0625 
Q 14.5 12.59375 18.140625 9.296875 
Q 21.78125 6 27 6 
Q 33.203125 6 37.46875 10.296875 
Q 41.75 14.59375 41.75 20.953125 
Q 41.75 27 37.796875 30.921875 
Q 33.84375 34.859375 27.734375 34.859375 
Q 25.25 34.859375 21.53125 33.890625 
L 22.515625 41.609375 
Q 23.390625 41.5 23.921875 41.5 
Q 29.546875 41.5 34.03125 44.421875 
Q 38.53125 47.359375 38.53125 53.46875 
Q 38.53125 58.296875 35.25 61.46875 
Q 31.984375 64.65625 26.8125 64.65625 
Q 21.6875 64.65625 18.265625 61.421875 
Q 14.84375 58.203125 13.875 51.765625 
L 5.078125 53.328125 
Q 6.6875 62.15625 12.390625 67.015625 
Q 18.109375 71.875 26.609375 71.875 
Q 32.46875 71.875 37.390625 69.359375 
Q 42.328125 66.84375 44.9375 62.5 
Q 47.5625 58.15625 47.5625 53.265625 
Q 47.5625 48.640625 45.0625 44.828125 
Q 42.578125 41.015625 37.703125 38.765625 
Q 44.046875 37.3125 47.5625 32.6875 
Q 51.078125 28.078125 51.078125 21.140625 
Q 51.078125 11.765625 44.234375 5.25 
Q 37.40625 -1.265625 26.953125 -1.265625 
Q 17.53125 -1.265625 11.296875 4.34375 
Q 5.078125 9.96875 4.203125 18.890625 
z
" id="ArialMT-51"/>
       </defs>
       <g style="fill:#262626;" transform="translate(398.3 223.669534)scale(0.11 -0.11)">
        <use xlink:href="#ArialMT-8722"/>
        <use x="58.398438" xlink:href="#ArialMT-54"/>
        <use x="114.013672" xlink:href="#ArialMT-46"/>
        <use x="141.796875" xlink:href="#ArialMT-57"/>
        <use x="197.412109" xlink:href="#ArialMT-51"/>
       </g>
      </g>
     </g>
     <g id="ytick_4">
      <g id="line2d_7">
       <path clip-path="url(#p0b7b4db15a)" d="M 388.8 206.074246 
L 388.8 206.074246 
" style="fill:none;stroke:#ffffff;stroke-linecap:round;"/>
      </g>
      <g id="line2d_8">
       <g>
        <use style="fill:#262626;stroke:#262626;stroke-width:1.25;" x="388.8" xlink:href="#m8840db3ca7" y="206.074246"/>
       </g>
      </g>
      <g id="text_4">
       <!-- −9.24 -->
       <g style="fill:#262626;" transform="translate(398.3 210.011043)scale(0.11 -0.11)">
        <use xlink:href="#ArialMT-8722"/>
        <use x="58.398438" xlink:href="#ArialMT-57"/>
        <use x="114.013672" xlink:href="#ArialMT-46"/>
        <use x="141.796875" xlink:href="#ArialMT-50"/>
        <use x="197.412109" xlink:href="#ArialMT-52"/>
       </g>
      </g>
     </g>
     <g id="ytick_5">
      <g id="line2d_9">
       <path clip-path="url(#p0b7b4db15a)" d="M 388.8 192.415755 
L 388.8 192.415755 
" style="fill:none;stroke:#ffffff;stroke-linecap:round;"/>
      </g>
      <g id="line2d_10">
       <g>
        <use style="fill:#262626;stroke:#262626;stroke-width:1.25;" x="388.8" xlink:href="#m8840db3ca7" y="192.415755"/>
       </g>
      </g>
      <g id="text_5">
       <!-- −13.86 -->
       <defs>
        <path d="M 37.25 0 
L 28.46875 0 
L 28.46875 56 
Q 25.296875 52.984375 20.140625 49.953125 
Q 14.984375 46.921875 10.890625 45.40625 
L 10.890625 53.90625 
Q 18.265625 57.375 23.78125 62.296875 
Q 29.296875 67.234375 31.59375 71.875 
L 37.25 71.875 
z
" id="ArialMT-49"/>
        <path d="M 17.671875 38.8125 
Q 12.203125 40.828125 9.5625 44.53125 
Q 6.9375 48.25 6.9375 53.421875 
Q 6.9375 61.234375 12.546875 66.546875 
Q 18.171875 71.875 27.484375 71.875 
Q 36.859375 71.875 42.578125 66.421875 
Q 48.296875 60.984375 48.296875 53.171875 
Q 48.296875 48.1875 45.671875 44.5 
Q 43.0625 40.828125 37.75 38.8125 
Q 44.34375 36.671875 47.78125 31.875 
Q 51.21875 27.09375 51.21875 20.453125 
Q 51.21875 11.28125 44.71875 5.03125 
Q 38.234375 -1.21875 27.640625 -1.21875 
Q 17.046875 -1.21875 10.546875 5.046875 
Q 4.046875 11.328125 4.046875 20.703125 
Q 4.046875 27.6875 7.59375 32.390625 
Q 11.140625 37.109375 17.671875 38.8125 
z
M 15.921875 53.71875 
Q 15.921875 48.640625 19.1875 45.40625 
Q 22.46875 42.1875 27.6875 42.1875 
Q 32.765625 42.1875 36.015625 45.375 
Q 39.265625 48.578125 39.265625 53.21875 
Q 39.265625 58.0625 35.90625 61.359375 
Q 32.5625 64.65625 27.59375 64.65625 
Q 22.5625 64.65625 19.234375 61.421875 
Q 15.921875 58.203125 15.921875 53.71875 
z
M 13.09375 20.65625 
Q 13.09375 16.890625 14.875 13.375 
Q 16.65625 9.859375 20.171875 7.921875 
Q 23.6875 6 27.734375 6 
Q 34.03125 6 38.125 10.046875 
Q 42.234375 14.109375 42.234375 20.359375 
Q 42.234375 26.703125 38.015625 30.859375 
Q 33.796875 35.015625 27.4375 35.015625 
Q 21.234375 35.015625 17.15625 30.90625 
Q 13.09375 26.8125 13.09375 20.65625 
z
" id="ArialMT-56"/>
       </defs>
       <g style="fill:#262626;" transform="translate(398.3 196.352552)scale(0.11 -0.11)">
        <use xlink:href="#ArialMT-8722"/>
        <use x="58.398438" xlink:href="#ArialMT-49"/>
        <use x="114.013672" xlink:href="#ArialMT-51"/>
        <use x="169.628906" xlink:href="#ArialMT-46"/>
        <use x="197.412109" xlink:href="#ArialMT-56"/>
        <use x="253.027344" xlink:href="#ArialMT-54"/>
       </g>
      </g>
     </g>
     <g id="ytick_6">
      <g id="line2d_11">
       <path clip-path="url(#p0b7b4db15a)" d="M 388.8 178.757264 
L 388.8 178.757264 
" style="fill:none;stroke:#ffffff;stroke-linecap:round;"/>
      </g>
      <g id="line2d_12">
       <g>
        <use style="fill:#262626;stroke:#262626;stroke-width:1.25;" x="388.8" xlink:href="#m8840db3ca7" y="178.757264"/>
       </g>
      </g>
      <g id="text_6">
       <!-- −27.73 -->
       <defs>
        <path d="M 4.734375 62.203125 
L 4.734375 70.65625 
L 51.078125 70.65625 
L 51.078125 63.8125 
Q 44.234375 56.546875 37.515625 44.484375 
Q 30.8125 32.421875 27.15625 19.671875 
Q 24.515625 10.6875 23.78125 0 
L 14.75 0 
Q 14.890625 8.453125 18.0625 20.40625 
Q 21.234375 32.375 27.171875 43.484375 
Q 33.109375 54.59375 39.796875 62.203125 
z
" id="ArialMT-55"/>
       </defs>
       <g style="fill:#262626;" transform="translate(398.3 182.694061)scale(0.11 -0.11)">
        <use xlink:href="#ArialMT-8722"/>
        <use x="58.398438" xlink:href="#ArialMT-50"/>
        <use x="114.013672" xlink:href="#ArialMT-55"/>
        <use x="169.628906" xlink:href="#ArialMT-46"/>
        <use x="197.412109" xlink:href="#ArialMT-55"/>
        <use x="253.027344" xlink:href="#ArialMT-51"/>
       </g>
      </g>
     </g>
     <g id="ytick_7">
      <g id="line2d_13">
       <path clip-path="url(#p0b7b4db15a)" d="M 388.8 151.440282 
L 388.8 151.440282 
" style="fill:none;stroke:#ffffff;stroke-linecap:round;"/>
      </g>
      <g id="line2d_14">
       <g>
        <use style="fill:#262626;stroke:#262626;stroke-width:1.25;" x="388.8" xlink:href="#m8840db3ca7" y="151.440282"/>
       </g>
      </g>
      <g id="text_7">
       <!-- 27.73 -->
       <g style="fill:#262626;" transform="translate(398.3 155.377079)scale(0.11 -0.11)">
        <use xlink:href="#ArialMT-50"/>
        <use x="55.615234" xlink:href="#ArialMT-55"/>
        <use x="111.230469" xlink:href="#ArialMT-46"/>
        <use x="139.013672" xlink:href="#ArialMT-55"/>
        <use x="194.628906" xlink:href="#ArialMT-51"/>
       </g>
      </g>
     </g>
     <g id="ytick_8">
      <g id="line2d_15">
       <path clip-path="url(#p0b7b4db15a)" d="M 388.8 137.781791 
L 388.8 137.781791 
" style="fill:none;stroke:#ffffff;stroke-linecap:round;"/>
      </g>
      <g id="line2d_16">
       <g>
        <use style="fill:#262626;stroke:#262626;stroke-width:1.25;" x="388.8" xlink:href="#m8840db3ca7" y="137.781791"/>
       </g>
      </g>
      <g id="text_8">
       <!-- 13.86 -->
       <g style="fill:#262626;" transform="translate(398.3 141.718588)scale(0.11 -0.11)">
        <use xlink:href="#ArialMT-49"/>
        <use x="55.615234" xlink:href="#ArialMT-51"/>
        <use x="111.230469" xlink:href="#ArialMT-46"/>
        <use x="139.013672" xlink:href="#ArialMT-56"/>
        <use x="194.628906" xlink:href="#ArialMT-54"/>
       </g>
      </g>
     </g>
     <g id="ytick_9">
      <g id="line2d_17">
       <path clip-path="url(#p0b7b4db15a)" d="M 388.8 124.1233 
L 388.8 124.1233 
" style="fill:none;stroke:#ffffff;stroke-linecap:round;"/>
      </g>
      <g id="line2d_18">
       <g>
        <use style="fill:#262626;stroke:#262626;stroke-width:1.25;" x="388.8" xlink:href="#m8840db3ca7" y="124.1233"/>
       </g>
      </g>
      <g id="text_9">
       <!-- 9.24 -->
       <g style="fill:#262626;" transform="translate(398.3 128.060097)scale(0.11 -0.11)">
        <use xlink:href="#ArialMT-57"/>
        <use x="55.615234" xlink:href="#ArialMT-46"/>
        <use x="83.398438" xlink:href="#ArialMT-50"/>
        <use x="139.013672" xlink:href="#ArialMT-52"/>
       </g>
      </g>
     </g>
     <g id="ytick_10">
      <g id="line2d_19">
       <path clip-path="url(#p0b7b4db15a)" d="M 388.8 110.464809 
L 388.8 110.464809 
" style="fill:none;stroke:#ffffff;stroke-linecap:round;"/>
      </g>
      <g id="line2d_20">
       <g>
        <use style="fill:#262626;stroke:#262626;stroke-width:1.25;" x="388.8" xlink:href="#m8840db3ca7" y="110.464809"/>
       </g>
      </g>
      <g id="text_10">
       <!-- 6.93 -->
       <g style="fill:#262626;" transform="translate(398.3 114.401606)scale(0.11 -0.11)">
        <use xlink:href="#ArialMT-54"/>
        <use x="55.615234" xlink:href="#ArialMT-46"/>
        <use x="83.398438" xlink:href="#ArialMT-57"/>
        <use x="139.013672" xlink:href="#ArialMT-51"/>
       </g>
      </g>
     </g>
     <g id="ytick_11">
      <g id="line2d_21">
       <path clip-path="url(#p0b7b4db15a)" d="M 388.8 96.806318 
L 388.8 96.806318 
" style="fill:none;stroke:#ffffff;stroke-linecap:round;"/>
      </g>
      <g id="line2d_22">
       <g>
        <use style="fill:#262626;stroke:#262626;stroke-width:1.25;" x="388.8" xlink:href="#m8840db3ca7" y="96.806318"/>
       </g>
      </g>
      <g id="text_11">
       <!-- 5.55 -->
       <g style="fill:#262626;" transform="translate(398.3 100.743115)scale(0.11 -0.11)">
        <use xlink:href="#ArialMT-53"/>
        <use x="55.615234" xlink:href="#ArialMT-46"/>
        <use x="83.398438" xlink:href="#ArialMT-53"/>
        <use x="139.013672" xlink:href="#ArialMT-53"/>
       </g>
      </g>
     </g>
     <g id="ytick_12">
      <g id="line2d_23">
       <path clip-path="url(#p0b7b4db15a)" d="M 388.8 83.147827 
L 388.8 83.147827 
" style="fill:none;stroke:#ffffff;stroke-linecap:round;"/>
      </g>
      <g id="line2d_24">
       <g>
        <use style="fill:#262626;stroke:#262626;stroke-width:1.25;" x="388.8" xlink:href="#m8840db3ca7" y="83.147827"/>
       </g>
      </g>
      <g id="text_12">
       <!-- 4.62 -->
       <g style="fill:#262626;" transform="translate(398.3 87.084624)scale(0.11 -0.11)">
        <use xlink:href="#ArialMT-52"/>
        <use x="55.615234" xlink:href="#ArialMT-46"/>
        <use x="83.398438" xlink:href="#ArialMT-54"/>
        <use x="139.013672" xlink:href="#ArialMT-50"/>
       </g>
      </g>
     </g>
     <g id="ytick_13">
      <g id="line2d_25">
       <path clip-path="url(#p0b7b4db15a)" d="M 388.8 69.489336 
L 388.8 69.489336 
" style="fill:none;stroke:#ffffff;stroke-linecap:round;"/>
      </g>
      <g id="line2d_26">
       <g>
        <use style="fill:#262626;stroke:#262626;stroke-width:1.25;" x="388.8" xlink:href="#m8840db3ca7" y="69.489336"/>
       </g>
      </g>
      <g id="text_13">
       <!-- 3.96 -->
       <g style="fill:#262626;" transform="translate(398.3 73.426133)scale(0.11 -0.11)">
        <use xlink:href="#ArialMT-51"/>
        <use x="55.615234" xlink:href="#ArialMT-46"/>
        <use x="83.398438" xlink:href="#ArialMT-57"/>
        <use x="139.013672" xlink:href="#ArialMT-54"/>
       </g>
      </g>
     </g>
     <g id="ytick_14">
      <g id="line2d_27">
       <path clip-path="url(#p0b7b4db15a)" d="M 388.8 55.830845 
L 388.8 55.830845 
" style="fill:none;stroke:#ffffff;stroke-linecap:round;"/>
      </g>
      <g id="line2d_28">
       <g>
        <use style="fill:#262626;stroke:#262626;stroke-width:1.25;" x="388.8" xlink:href="#m8840db3ca7" y="55.830845"/>
       </g>
      </g>
      <g id="text_14">
       <!-- 3.47 -->
       <g style="fill:#262626;" transform="translate(398.3 59.767642)scale(0.11 -0.11)">
        <use xlink:href="#ArialMT-51"/>
        <use x="55.615234" xlink:href="#ArialMT-46"/>
        <use x="83.398438" xlink:href="#ArialMT-52"/>
        <use x="139.013672" xlink:href="#ArialMT-55"/>
       </g>
      </g>
     </g>
     <g id="ytick_15">
      <g id="line2d_29">
       <path clip-path="url(#p0b7b4db15a)" d="M 388.8 42.172354 
L 388.8 42.172354 
" style="fill:none;stroke:#ffffff;stroke-linecap:round;"/>
      </g>
      <g id="line2d_30">
       <g>
        <use style="fill:#262626;stroke:#262626;stroke-width:1.25;" x="388.8" xlink:href="#m8840db3ca7" y="42.172354"/>
       </g>
      </g>
      <g id="text_15">
       <!-- 3.08 -->
       <defs>
        <path d="M 4.15625 35.296875 
Q 4.15625 48 6.765625 55.734375 
Q 9.375 63.484375 14.515625 67.671875 
Q 19.671875 71.875 27.484375 71.875 
Q 33.25 71.875 37.59375 69.546875 
Q 41.9375 67.234375 44.765625 62.859375 
Q 47.609375 58.5 49.21875 52.21875 
Q 50.828125 45.953125 50.828125 35.296875 
Q 50.828125 22.703125 48.234375 14.96875 
Q 45.65625 7.234375 40.5 3 
Q 35.359375 -1.21875 27.484375 -1.21875 
Q 17.140625 -1.21875 11.234375 6.203125 
Q 4.15625 15.140625 4.15625 35.296875 
z
M 13.1875 35.296875 
Q 13.1875 17.671875 17.3125 11.828125 
Q 21.4375 6 27.484375 6 
Q 33.546875 6 37.671875 11.859375 
Q 41.796875 17.71875 41.796875 35.296875 
Q 41.796875 52.984375 37.671875 58.78125 
Q 33.546875 64.59375 27.390625 64.59375 
Q 21.34375 64.59375 17.71875 59.46875 
Q 13.1875 52.9375 13.1875 35.296875 
z
" id="ArialMT-48"/>
       </defs>
       <g style="fill:#262626;" transform="translate(398.3 46.109151)scale(0.11 -0.11)">
        <use xlink:href="#ArialMT-51"/>
        <use x="55.615234" xlink:href="#ArialMT-46"/>
        <use x="83.398438" xlink:href="#ArialMT-48"/>
        <use x="139.013672" xlink:href="#ArialMT-56"/>
       </g>
      </g>
     </g>
     <g id="text_16">
      <!-- Halving / doubling times (days) -->
      <defs>
       <path d="M 8.015625 0 
L 8.015625 71.578125 
L 17.484375 71.578125 
L 17.484375 42.1875 
L 54.6875 42.1875 
L 54.6875 71.578125 
L 64.15625 71.578125 
L 64.15625 0 
L 54.6875 0 
L 54.6875 33.734375 
L 17.484375 33.734375 
L 17.484375 0 
z
" id="ArialMT-72"/>
       <path d="M 40.4375 6.390625 
Q 35.546875 2.25 31.03125 0.53125 
Q 26.515625 -1.171875 21.34375 -1.171875 
Q 12.796875 -1.171875 8.203125 3 
Q 3.609375 7.171875 3.609375 13.671875 
Q 3.609375 17.484375 5.34375 20.625 
Q 7.078125 23.78125 9.890625 25.6875 
Q 12.703125 27.59375 16.21875 28.5625 
Q 18.796875 29.25 24.03125 29.890625 
Q 34.671875 31.15625 39.703125 32.90625 
Q 39.75 34.71875 39.75 35.203125 
Q 39.75 40.578125 37.25 42.78125 
Q 33.890625 45.75 27.25 45.75 
Q 21.046875 45.75 18.09375 43.578125 
Q 15.140625 41.40625 13.71875 35.890625 
L 5.125 37.0625 
Q 6.296875 42.578125 8.984375 45.96875 
Q 11.671875 49.359375 16.75 51.1875 
Q 21.828125 53.03125 28.515625 53.03125 
Q 35.15625 53.03125 39.296875 51.46875 
Q 43.453125 49.90625 45.40625 47.53125 
Q 47.359375 45.171875 48.140625 41.546875 
Q 48.578125 39.3125 48.578125 33.453125 
L 48.578125 21.734375 
Q 48.578125 9.46875 49.140625 6.21875 
Q 49.703125 2.984375 51.375 0 
L 42.1875 0 
Q 40.828125 2.734375 40.4375 6.390625 
z
M 39.703125 26.03125 
Q 34.90625 24.078125 25.34375 22.703125 
Q 19.921875 21.921875 17.671875 20.9375 
Q 15.4375 19.96875 14.203125 18.09375 
Q 12.984375 16.21875 12.984375 13.921875 
Q 12.984375 10.40625 15.640625 8.0625 
Q 18.3125 5.71875 23.4375 5.71875 
Q 28.515625 5.71875 32.46875 7.9375 
Q 36.421875 10.15625 38.28125 14.015625 
Q 39.703125 17 39.703125 22.796875 
z
" id="ArialMT-97"/>
       <path d="M 6.390625 0 
L 6.390625 71.578125 
L 15.1875 71.578125 
L 15.1875 0 
z
" id="ArialMT-108"/>
       <path d="M 21 0 
L 1.265625 51.859375 
L 10.546875 51.859375 
L 21.6875 20.796875 
Q 23.484375 15.765625 25 10.359375 
Q 26.171875 14.453125 28.265625 20.21875 
L 39.796875 51.859375 
L 48.828125 51.859375 
L 29.203125 0 
z
" id="ArialMT-118"/>
       <path d="M 6.640625 61.46875 
L 6.640625 71.578125 
L 15.4375 71.578125 
L 15.4375 61.46875 
z
M 6.640625 0 
L 6.640625 51.859375 
L 15.4375 51.859375 
L 15.4375 0 
z
" id="ArialMT-105"/>
       <path d="M 6.59375 0 
L 6.59375 51.859375 
L 14.5 51.859375 
L 14.5 44.484375 
Q 20.21875 53.03125 31 53.03125 
Q 35.6875 53.03125 39.625 51.34375 
Q 43.5625 49.65625 45.515625 46.921875 
Q 47.46875 44.1875 48.25 40.4375 
Q 48.734375 37.984375 48.734375 31.890625 
L 48.734375 0 
L 39.9375 0 
L 39.9375 31.546875 
Q 39.9375 36.921875 38.90625 39.578125 
Q 37.890625 42.234375 35.28125 43.8125 
Q 32.671875 45.40625 29.15625 45.40625 
Q 23.53125 45.40625 19.453125 41.84375 
Q 15.375 38.28125 15.375 28.328125 
L 15.375 0 
z
" id="ArialMT-110"/>
       <path d="M 4.984375 -4.296875 
L 13.53125 -5.5625 
Q 14.0625 -9.515625 16.5 -11.328125 
Q 19.78125 -13.765625 25.4375 -13.765625 
Q 31.546875 -13.765625 34.859375 -11.328125 
Q 38.1875 -8.890625 39.359375 -4.5 
Q 40.046875 -1.8125 39.984375 6.78125 
Q 34.234375 0 25.640625 0 
Q 14.9375 0 9.078125 7.71875 
Q 3.21875 15.4375 3.21875 26.21875 
Q 3.21875 33.640625 5.90625 39.90625 
Q 8.59375 46.1875 13.6875 49.609375 
Q 18.796875 53.03125 25.6875 53.03125 
Q 34.859375 53.03125 40.828125 45.609375 
L 40.828125 51.859375 
L 48.921875 51.859375 
L 48.921875 7.03125 
Q 48.921875 -5.078125 46.453125 -10.125 
Q 44 -15.1875 38.640625 -18.109375 
Q 33.296875 -21.046875 25.484375 -21.046875 
Q 16.21875 -21.046875 10.5 -16.875 
Q 4.78125 -12.703125 4.984375 -4.296875 
z
M 12.25 26.859375 
Q 12.25 16.65625 16.296875 11.96875 
Q 20.359375 7.28125 26.46875 7.28125 
Q 32.515625 7.28125 36.609375 11.9375 
Q 40.71875 16.609375 40.71875 26.5625 
Q 40.71875 36.078125 36.5 40.90625 
Q 32.28125 45.75 26.3125 45.75 
Q 20.453125 45.75 16.34375 40.984375 
Q 12.25 36.234375 12.25 26.859375 
z
" id="ArialMT-103"/>
       <path id="ArialMT-32"/>
       <path d="M 0 -1.21875 
L 20.75 72.796875 
L 27.78125 72.796875 
L 7.078125 -1.21875 
z
" id="ArialMT-47"/>
       <path d="M 40.234375 0 
L 40.234375 6.546875 
Q 35.296875 -1.171875 25.734375 -1.171875 
Q 19.53125 -1.171875 14.328125 2.25 
Q 9.125 5.671875 6.265625 11.796875 
Q 3.421875 17.921875 3.421875 25.875 
Q 3.421875 33.640625 6 39.96875 
Q 8.59375 46.296875 13.765625 49.65625 
Q 18.953125 53.03125 25.34375 53.03125 
Q 30.03125 53.03125 33.6875 51.046875 
Q 37.359375 49.078125 39.65625 45.90625 
L 39.65625 71.578125 
L 48.390625 71.578125 
L 48.390625 0 
z
M 12.453125 25.875 
Q 12.453125 15.921875 16.640625 10.984375 
Q 20.84375 6.0625 26.5625 6.0625 
Q 32.328125 6.0625 36.34375 10.765625 
Q 40.375 15.484375 40.375 25.140625 
Q 40.375 35.796875 36.265625 40.765625 
Q 32.171875 45.75 26.171875 45.75 
Q 20.3125 45.75 16.375 40.96875 
Q 12.453125 36.1875 12.453125 25.875 
z
" id="ArialMT-100"/>
       <path d="M 3.328125 25.921875 
Q 3.328125 40.328125 11.328125 47.265625 
Q 18.015625 53.03125 27.640625 53.03125 
Q 38.328125 53.03125 45.109375 46.015625 
Q 51.90625 39.015625 51.90625 26.65625 
Q 51.90625 16.65625 48.90625 10.90625 
Q 45.90625 5.171875 40.15625 2 
Q 34.421875 -1.171875 27.640625 -1.171875 
Q 16.75 -1.171875 10.03125 5.8125 
Q 3.328125 12.796875 3.328125 25.921875 
z
M 12.359375 25.921875 
Q 12.359375 15.96875 16.703125 11.015625 
Q 21.046875 6.0625 27.640625 6.0625 
Q 34.1875 6.0625 38.53125 11.03125 
Q 42.875 16.015625 42.875 26.21875 
Q 42.875 35.84375 38.5 40.796875 
Q 34.125 45.75 27.640625 45.75 
Q 21.046875 45.75 16.703125 40.8125 
Q 12.359375 35.890625 12.359375 25.921875 
z
" id="ArialMT-111"/>
       <path d="M 40.578125 0 
L 40.578125 7.625 
Q 34.515625 -1.171875 24.125 -1.171875 
Q 19.53125 -1.171875 15.546875 0.578125 
Q 11.578125 2.34375 9.640625 5 
Q 7.71875 7.671875 6.9375 11.53125 
Q 6.390625 14.109375 6.390625 19.734375 
L 6.390625 51.859375 
L 15.1875 51.859375 
L 15.1875 23.09375 
Q 15.1875 16.21875 15.71875 13.8125 
Q 16.546875 10.359375 19.234375 8.375 
Q 21.921875 6.390625 25.875 6.390625 
Q 29.828125 6.390625 33.296875 8.421875 
Q 36.765625 10.453125 38.203125 13.9375 
Q 39.65625 17.4375 39.65625 24.078125 
L 39.65625 51.859375 
L 48.4375 51.859375 
L 48.4375 0 
z
" id="ArialMT-117"/>
       <path d="M 14.703125 0 
L 6.546875 0 
L 6.546875 71.578125 
L 15.328125 71.578125 
L 15.328125 46.046875 
Q 20.90625 53.03125 29.546875 53.03125 
Q 34.328125 53.03125 38.59375 51.09375 
Q 42.875 49.171875 45.625 45.671875 
Q 48.390625 42.1875 49.953125 37.25 
Q 51.515625 32.328125 51.515625 26.703125 
Q 51.515625 13.375 44.921875 6.09375 
Q 38.328125 -1.171875 29.109375 -1.171875 
Q 19.921875 -1.171875 14.703125 6.5 
z
M 14.59375 26.3125 
Q 14.59375 17 17.140625 12.84375 
Q 21.296875 6.0625 28.375 6.0625 
Q 34.125 6.0625 38.328125 11.0625 
Q 42.53125 16.0625 42.53125 25.984375 
Q 42.53125 36.140625 38.5 40.96875 
Q 34.46875 45.796875 28.765625 45.796875 
Q 23 45.796875 18.796875 40.796875 
Q 14.59375 35.796875 14.59375 26.3125 
z
" id="ArialMT-98"/>
       <path d="M 25.78125 7.859375 
L 27.046875 0.09375 
Q 23.34375 -0.6875 20.40625 -0.6875 
Q 15.625 -0.6875 12.984375 0.828125 
Q 10.359375 2.34375 9.28125 4.8125 
Q 8.203125 7.28125 8.203125 15.1875 
L 8.203125 45.015625 
L 1.765625 45.015625 
L 1.765625 51.859375 
L 8.203125 51.859375 
L 8.203125 64.703125 
L 16.9375 69.96875 
L 16.9375 51.859375 
L 25.78125 51.859375 
L 25.78125 45.015625 
L 16.9375 45.015625 
L 16.9375 14.703125 
Q 16.9375 10.9375 17.40625 9.859375 
Q 17.875 8.796875 18.921875 8.15625 
Q 19.96875 7.515625 21.921875 7.515625 
Q 23.390625 7.515625 25.78125 7.859375 
z
" id="ArialMT-116"/>
       <path d="M 6.59375 0 
L 6.59375 51.859375 
L 14.453125 51.859375 
L 14.453125 44.578125 
Q 16.890625 48.390625 20.9375 50.703125 
Q 25 53.03125 30.171875 53.03125 
Q 35.9375 53.03125 39.625 50.640625 
Q 43.3125 48.25 44.828125 43.953125 
Q 50.984375 53.03125 60.84375 53.03125 
Q 68.5625 53.03125 72.703125 48.75 
Q 76.859375 44.484375 76.859375 35.59375 
L 76.859375 0 
L 68.109375 0 
L 68.109375 32.671875 
Q 68.109375 37.9375 67.25 40.25 
Q 66.40625 42.578125 64.15625 43.984375 
Q 61.921875 45.40625 58.890625 45.40625 
Q 53.421875 45.40625 49.796875 41.765625 
Q 46.1875 38.140625 46.1875 30.125 
L 46.1875 0 
L 37.40625 0 
L 37.40625 33.6875 
Q 37.40625 39.546875 35.25 42.46875 
Q 33.109375 45.40625 28.21875 45.40625 
Q 24.515625 45.40625 21.359375 43.453125 
Q 18.21875 41.5 16.796875 37.734375 
Q 15.375 33.984375 15.375 26.90625 
L 15.375 0 
z
" id="ArialMT-109"/>
       <path d="M 42.09375 16.703125 
L 51.171875 15.578125 
Q 49.03125 7.625 43.21875 3.21875 
Q 37.40625 -1.171875 28.375 -1.171875 
Q 17 -1.171875 10.328125 5.828125 
Q 3.65625 12.84375 3.65625 25.484375 
Q 3.65625 38.578125 10.390625 45.796875 
Q 17.140625 53.03125 27.875 53.03125 
Q 38.28125 53.03125 44.875 45.953125 
Q 51.46875 38.875 51.46875 26.03125 
Q 51.46875 25.25 51.421875 23.6875 
L 12.75 23.6875 
Q 13.234375 15.140625 17.578125 10.59375 
Q 21.921875 6.0625 28.421875 6.0625 
Q 33.25 6.0625 36.671875 8.59375 
Q 40.09375 11.140625 42.09375 16.703125 
z
M 13.234375 30.90625 
L 42.1875 30.90625 
Q 41.609375 37.453125 38.875 40.71875 
Q 34.671875 45.796875 27.984375 45.796875 
Q 21.921875 45.796875 17.796875 41.75 
Q 13.671875 37.703125 13.234375 30.90625 
z
" id="ArialMT-101"/>
       <path d="M 3.078125 15.484375 
L 11.765625 16.84375 
Q 12.5 11.625 15.84375 8.84375 
Q 19.1875 6.0625 25.203125 6.0625 
Q 31.25 6.0625 34.171875 8.515625 
Q 37.109375 10.984375 37.109375 14.3125 
Q 37.109375 17.28125 34.515625 19 
Q 32.71875 20.171875 25.53125 21.96875 
Q 15.875 24.421875 12.140625 26.203125 
Q 8.40625 27.984375 6.46875 31.125 
Q 4.546875 34.28125 4.546875 38.09375 
Q 4.546875 41.546875 6.125 44.5 
Q 7.71875 47.46875 10.453125 49.421875 
Q 12.5 50.921875 16.03125 51.96875 
Q 19.578125 53.03125 23.640625 53.03125 
Q 29.734375 53.03125 34.34375 51.265625 
Q 38.96875 49.515625 41.15625 46.5 
Q 43.359375 43.5 44.1875 38.484375 
L 35.59375 37.3125 
Q 35.015625 41.3125 32.203125 43.546875 
Q 29.390625 45.796875 24.265625 45.796875 
Q 18.21875 45.796875 15.625 43.796875 
Q 13.03125 41.796875 13.03125 39.109375 
Q 13.03125 37.40625 14.109375 36.03125 
Q 15.1875 34.625 17.484375 33.6875 
Q 18.796875 33.203125 25.25 31.453125 
Q 34.578125 28.953125 38.25 27.359375 
Q 41.9375 25.78125 44.03125 22.75 
Q 46.140625 19.734375 46.140625 15.234375 
Q 46.140625 10.84375 43.578125 6.953125 
Q 41.015625 3.078125 36.171875 0.953125 
Q 31.34375 -1.171875 25.25 -1.171875 
Q 15.140625 -1.171875 9.84375 3.03125 
Q 4.546875 7.234375 3.078125 15.484375 
z
" id="ArialMT-115"/>
       <path d="M 23.390625 -21.046875 
Q 16.109375 -11.859375 11.078125 0.4375 
Q 6.0625 12.75 6.0625 25.921875 
Q 6.0625 37.546875 9.8125 48.1875 
Q 14.203125 60.546875 23.390625 72.796875 
L 29.6875 72.796875 
Q 23.78125 62.640625 21.875 58.296875 
Q 18.890625 51.5625 17.1875 44.234375 
Q 15.09375 35.109375 15.09375 25.875 
Q 15.09375 2.390625 29.6875 -21.046875 
z
" id="ArialMT-40"/>
       <path d="M 6.203125 -19.96875 
L 5.21875 -11.71875 
Q 8.109375 -12.5 10.25 -12.5 
Q 13.1875 -12.5 14.9375 -11.515625 
Q 16.703125 -10.546875 17.828125 -8.796875 
Q 18.65625 -7.46875 20.515625 -2.25 
Q 20.75 -1.515625 21.296875 -0.09375 
L 1.609375 51.859375 
L 11.078125 51.859375 
L 21.875 21.828125 
Q 23.96875 16.109375 25.640625 9.8125 
Q 27.15625 15.875 29.25 21.625 
L 40.328125 51.859375 
L 49.125 51.859375 
L 29.390625 -0.875 
Q 26.21875 -9.421875 24.46875 -12.640625 
Q 22.125 -17 19.09375 -19.015625 
Q 16.0625 -21.046875 11.859375 -21.046875 
Q 9.328125 -21.046875 6.203125 -19.96875 
z
" id="ArialMT-121"/>
       <path d="M 12.359375 -21.046875 
L 6.0625 -21.046875 
Q 20.65625 2.390625 20.65625 25.875 
Q 20.65625 35.0625 18.5625 44.09375 
Q 16.890625 51.421875 13.921875 58.15625 
Q 12.015625 62.546875 6.0625 72.796875 
L 12.359375 72.796875 
Q 21.53125 60.546875 25.921875 48.1875 
Q 29.6875 37.546875 29.6875 25.921875 
Q 29.6875 12.75 24.625 0.4375 
Q 19.578125 -11.859375 12.359375 -21.046875 
z
" id="ArialMT-41"/>
      </defs>
      <g style="fill:#262626;" transform="translate(444.984375 225.312188)rotate(-90)scale(0.12 -0.12)">
       <use xlink:href="#ArialMT-72"/>
       <use x="72.216797" xlink:href="#ArialMT-97"/>
       <use x="127.832031" xlink:href="#ArialMT-108"/>
       <use x="150.048828" xlink:href="#ArialMT-118"/>
       <use x="200.048828" xlink:href="#ArialMT-105"/>
       <use x="222.265625" xlink:href="#ArialMT-110"/>
       <use x="277.880859" xlink:href="#ArialMT-103"/>
       <use x="333.496094" xlink:href="#ArialMT-32"/>
       <use x="361.279297" xlink:href="#ArialMT-47"/>
       <use x="389.0625" xlink:href="#ArialMT-32"/>
       <use x="416.845703" xlink:href="#ArialMT-100"/>
       <use x="472.460938" xlink:href="#ArialMT-111"/>
       <use x="528.076172" xlink:href="#ArialMT-117"/>
       <use x="583.691406" xlink:href="#ArialMT-98"/>
       <use x="639.306641" xlink:href="#ArialMT-108"/>
       <use x="661.523438" xlink:href="#ArialMT-105"/>
       <use x="683.740234" xlink:href="#ArialMT-110"/>
       <use x="739.355469" xlink:href="#ArialMT-103"/>
       <use x="794.970703" xlink:href="#ArialMT-32"/>
       <use x="822.753906" xlink:href="#ArialMT-116"/>
       <use x="850.537109" xlink:href="#ArialMT-105"/>
       <use x="872.753906" xlink:href="#ArialMT-109"/>
       <use x="956.054688" xlink:href="#ArialMT-101"/>
       <use x="1011.669922" xlink:href="#ArialMT-115"/>
       <use x="1061.669922" xlink:href="#ArialMT-32"/>
       <use x="1089.453125" xlink:href="#ArialMT-40"/>
       <use x="1122.753906" xlink:href="#ArialMT-100"/>
       <use x="1178.369141" xlink:href="#ArialMT-97"/>
       <use x="1233.984375" xlink:href="#ArialMT-121"/>
       <use x="1283.984375" xlink:href="#ArialMT-115"/>
       <use x="1333.984375" xlink:href="#ArialMT-41"/>
      </g>
     </g>
    </g>
    <g id="patch_4">
     <path d="M 388.8 252 
L 388.8 34.56 
" style="fill:none;stroke:#ffffff;stroke-linecap:square;stroke-linejoin:miter;stroke-width:1.25;"/>
    </g>
   </g>
   <g id="matplotlib.axis_3">
    <g id="xtick_1">
     <g id="line2d_31">
      <path clip-path="url(#ped273ec149)" d="M 69.218182 252 
L 69.218182 34.56 
" style="fill:none;stroke:#ffffff;stroke-linecap:round;"/>
     </g>
     <g id="text_17">
      <!-- 0.0 -->
      <g style="fill:#262626;" transform="translate(61.573182 269.373594)scale(0.11 -0.11)">
       <use xlink:href="#ArialMT-48"/>
       <use x="55.615234" xlink:href="#ArialMT-46"/>
       <use x="83.398438" xlink:href="#ArialMT-48"/>
      </g>
     </g>
    </g>
    <g id="xtick_2">
     <g id="line2d_32">
      <path clip-path="url(#ped273ec149)" d="M 136.854545 252 
L 136.854545 34.56 
" style="fill:none;stroke:#ffffff;stroke-linecap:round;"/>
     </g>
     <g id="text_18">
      <!-- 0.2 -->
      <g style="fill:#262626;" transform="translate(129.209545 269.373594)scale(0.11 -0.11)">
       <use xlink:href="#ArialMT-48"/>
       <use x="55.615234" xlink:href="#ArialMT-46"/>
       <use x="83.398438" xlink:href="#ArialMT-50"/>
      </g>
     </g>
    </g>
    <g id="xtick_3">
     <g id="line2d_33">
      <path clip-path="url(#ped273ec149)" d="M 204.490909 252 
L 204.490909 34.56 
" style="fill:none;stroke:#ffffff;stroke-linecap:round;"/>
     </g>
     <g id="text_19">
      <!-- 0.4 -->
      <g style="fill:#262626;" transform="translate(196.845909 269.373594)scale(0.11 -0.11)">
       <use xlink:href="#ArialMT-48"/>
       <use x="55.615234" xlink:href="#ArialMT-46"/>
       <use x="83.398438" xlink:href="#ArialMT-52"/>
      </g>
     </g>
    </g>
    <g id="xtick_4">
     <g id="line2d_34">
      <path clip-path="url(#ped273ec149)" d="M 272.127273 252 
L 272.127273 34.56 
" style="fill:none;stroke:#ffffff;stroke-linecap:round;"/>
     </g>
     <g id="text_20">
      <!-- 0.6 -->
      <g style="fill:#262626;" transform="translate(264.482273 269.373594)scale(0.11 -0.11)">
       <use xlink:href="#ArialMT-48"/>
       <use x="55.615234" xlink:href="#ArialMT-46"/>
       <use x="83.398438" xlink:href="#ArialMT-54"/>
      </g>
     </g>
    </g>
    <g id="xtick_5">
     <g id="line2d_35">
      <path clip-path="url(#ped273ec149)" d="M 339.763636 252 
L 339.763636 34.56 
" style="fill:none;stroke:#ffffff;stroke-linecap:round;"/>
     </g>
     <g id="text_21">
      <!-- 0.8 -->
      <g style="fill:#262626;" transform="translate(332.118636 269.373594)scale(0.11 -0.11)">
       <use xlink:href="#ArialMT-48"/>
       <use x="55.615234" xlink:href="#ArialMT-46"/>
       <use x="83.398438" xlink:href="#ArialMT-56"/>
      </g>
     </g>
    </g>
    <g id="text_22">
     <!-- % Reduction in global contacts -->
     <defs>
      <path d="M 5.8125 54.390625 
Q 5.8125 62.0625 9.671875 67.421875 
Q 13.53125 72.796875 20.84375 72.796875 
Q 27.59375 72.796875 32 67.984375 
Q 36.421875 63.1875 36.421875 53.859375 
Q 36.421875 44.78125 31.953125 39.875 
Q 27.484375 34.96875 20.953125 34.96875 
Q 14.453125 34.96875 10.125 39.796875 
Q 5.8125 44.625 5.8125 54.390625 
z
M 21.09375 66.75 
Q 17.828125 66.75 15.65625 63.90625 
Q 13.484375 61.078125 13.484375 53.515625 
Q 13.484375 46.625 15.671875 43.8125 
Q 17.875 41.015625 21.09375 41.015625 
Q 24.421875 41.015625 26.59375 43.84375 
Q 28.765625 46.6875 28.765625 54.203125 
Q 28.765625 61.140625 26.5625 63.9375 
Q 24.359375 66.75 21.09375 66.75 
z
M 21.140625 -2.640625 
L 60.296875 72.796875 
L 67.4375 72.796875 
L 28.421875 -2.640625 
z
M 52.09375 16.796875 
Q 52.09375 24.515625 55.953125 29.859375 
Q 59.8125 35.203125 67.1875 35.203125 
Q 73.921875 35.203125 78.34375 30.390625 
Q 82.765625 25.59375 82.765625 16.265625 
Q 82.765625 7.171875 78.296875 2.265625 
Q 73.828125 -2.640625 67.234375 -2.640625 
Q 60.75 -2.640625 56.421875 2.21875 
Q 52.09375 7.078125 52.09375 16.796875 
z
M 67.4375 29.15625 
Q 64.109375 29.15625 61.9375 26.3125 
Q 59.765625 23.484375 59.765625 15.921875 
Q 59.765625 9.078125 61.953125 6.25 
Q 64.15625 3.421875 67.390625 3.421875 
Q 70.75 3.421875 72.921875 6.25 
Q 75.09375 9.078125 75.09375 16.609375 
Q 75.09375 23.53125 72.890625 26.34375 
Q 70.703125 29.15625 67.4375 29.15625 
z
" id="ArialMT-37"/>
      <path d="M 7.859375 0 
L 7.859375 71.578125 
L 39.59375 71.578125 
Q 49.171875 71.578125 54.140625 69.640625 
Q 59.125 67.71875 62.109375 62.828125 
Q 65.09375 57.953125 65.09375 52.046875 
Q 65.09375 44.4375 60.15625 39.203125 
Q 55.21875 33.984375 44.921875 32.5625 
Q 48.6875 30.765625 50.640625 29 
Q 54.78125 25.203125 58.5 19.484375 
L 70.953125 0 
L 59.03125 0 
L 49.5625 14.890625 
Q 45.40625 21.34375 42.71875 24.75 
Q 40.046875 28.171875 37.921875 29.53125 
Q 35.796875 30.90625 33.59375 31.453125 
Q 31.984375 31.78125 28.328125 31.78125 
L 17.328125 31.78125 
L 17.328125 0 
z
M 17.328125 39.984375 
L 37.703125 39.984375 
Q 44.1875 39.984375 47.84375 41.328125 
Q 51.515625 42.671875 53.421875 45.625 
Q 55.328125 48.578125 55.328125 52.046875 
Q 55.328125 57.125 51.640625 60.390625 
Q 47.953125 63.671875 39.984375 63.671875 
L 17.328125 63.671875 
z
" id="ArialMT-82"/>
      <path d="M 40.4375 19 
L 49.078125 17.875 
Q 47.65625 8.9375 41.8125 3.875 
Q 35.984375 -1.171875 27.484375 -1.171875 
Q 16.84375 -1.171875 10.375 5.78125 
Q 3.90625 12.75 3.90625 25.734375 
Q 3.90625 34.125 6.6875 40.421875 
Q 9.46875 46.734375 15.15625 49.875 
Q 20.84375 53.03125 27.546875 53.03125 
Q 35.984375 53.03125 41.359375 48.75 
Q 46.734375 44.484375 48.25 36.625 
L 39.703125 35.296875 
Q 38.484375 40.53125 35.375 43.15625 
Q 32.28125 45.796875 27.875 45.796875 
Q 21.234375 45.796875 17.078125 41.03125 
Q 12.9375 36.28125 12.9375 25.984375 
Q 12.9375 15.53125 16.9375 10.796875 
Q 20.953125 6.0625 27.390625 6.0625 
Q 32.5625 6.0625 36.03125 9.234375 
Q 39.5 12.40625 40.4375 19 
z
" id="ArialMT-99"/>
     </defs>
     <g style="fill:#262626;" transform="translate(139.355625 284.295469)scale(0.12 -0.12)">
      <use xlink:href="#ArialMT-37"/>
      <use x="88.916016" xlink:href="#ArialMT-32"/>
      <use x="116.699219" xlink:href="#ArialMT-82"/>
      <use x="188.916016" xlink:href="#ArialMT-101"/>
      <use x="244.53125" xlink:href="#ArialMT-100"/>
      <use x="300.146484" xlink:href="#ArialMT-117"/>
      <use x="355.761719" xlink:href="#ArialMT-99"/>
      <use x="405.761719" xlink:href="#ArialMT-116"/>
      <use x="433.544922" xlink:href="#ArialMT-105"/>
      <use x="455.761719" xlink:href="#ArialMT-111"/>
      <use x="511.376953" xlink:href="#ArialMT-110"/>
      <use x="566.992188" xlink:href="#ArialMT-32"/>
      <use x="594.775391" xlink:href="#ArialMT-105"/>
      <use x="616.992188" xlink:href="#ArialMT-110"/>
      <use x="672.607422" xlink:href="#ArialMT-32"/>
      <use x="700.390625" xlink:href="#ArialMT-103"/>
      <use x="756.005859" xlink:href="#ArialMT-108"/>
      <use x="778.222656" xlink:href="#ArialMT-111"/>
      <use x="833.837891" xlink:href="#ArialMT-98"/>
      <use x="889.453125" xlink:href="#ArialMT-97"/>
      <use x="945.068359" xlink:href="#ArialMT-108"/>
      <use x="967.285156" xlink:href="#ArialMT-32"/>
      <use x="995.068359" xlink:href="#ArialMT-99"/>
      <use x="1045.068359" xlink:href="#ArialMT-111"/>
      <use x="1100.683594" xlink:href="#ArialMT-110"/>
      <use x="1156.298828" xlink:href="#ArialMT-116"/>
      <use x="1184.082031" xlink:href="#ArialMT-97"/>
      <use x="1239.697266" xlink:href="#ArialMT-99"/>
      <use x="1289.697266" xlink:href="#ArialMT-116"/>
      <use x="1317.480469" xlink:href="#ArialMT-115"/>
     </g>
    </g>
   </g>
   <g id="matplotlib.axis_4">
    <g id="ytick_16">
     <g id="line2d_36">
      <path clip-path="url(#ped273ec149)" d="M 54 247.049719 
L 388.8 247.049719 
" style="fill:none;stroke:#ffffff;stroke-linecap:round;"/>
     </g>
     <g id="text_23">
      <!-- −0.15 -->
      <g style="fill:#262626;" transform="translate(16.668281 250.986516)scale(0.11 -0.11)">
       <use xlink:href="#ArialMT-8722"/>
       <use x="58.398438" xlink:href="#ArialMT-48"/>
       <use x="114.013672" xlink:href="#ArialMT-46"/>
       <use x="141.796875" xlink:href="#ArialMT-49"/>
       <use x="197.412109" xlink:href="#ArialMT-53"/>
      </g>
     </g>
    </g>
    <g id="ytick_17">
     <g id="line2d_37">
      <path clip-path="url(#ped273ec149)" d="M 54 219.732737 
L 388.8 219.732737 
" style="fill:none;stroke:#ffffff;stroke-linecap:round;"/>
     </g>
     <g id="text_24">
      <!-- −0.10 -->
      <g style="fill:#262626;" transform="translate(16.668281 223.669534)scale(0.11 -0.11)">
       <use xlink:href="#ArialMT-8722"/>
       <use x="58.398438" xlink:href="#ArialMT-48"/>
       <use x="114.013672" xlink:href="#ArialMT-46"/>
       <use x="141.796875" xlink:href="#ArialMT-49"/>
       <use x="197.412109" xlink:href="#ArialMT-48"/>
      </g>
     </g>
    </g>
    <g id="ytick_18">
     <g id="line2d_38">
      <path clip-path="url(#ped273ec149)" d="M 54 192.415755 
L 388.8 192.415755 
" style="fill:none;stroke:#ffffff;stroke-linecap:round;"/>
     </g>
     <g id="text_25">
      <!-- −0.05 -->
      <g style="fill:#262626;" transform="translate(16.668281 196.352552)scale(0.11 -0.11)">
       <use xlink:href="#ArialMT-8722"/>
       <use x="58.398438" xlink:href="#ArialMT-48"/>
       <use x="114.013672" xlink:href="#ArialMT-46"/>
       <use x="141.796875" xlink:href="#ArialMT-48"/>
       <use x="197.412109" xlink:href="#ArialMT-53"/>
      </g>
     </g>
    </g>
    <g id="ytick_19">
     <g id="line2d_39">
      <path clip-path="url(#ped273ec149)" d="M 54 165.098773 
L 388.8 165.098773 
" style="fill:none;stroke:#ffffff;stroke-linecap:round;"/>
     </g>
     <g id="text_26">
      <!-- 0.00 -->
      <g style="fill:#262626;" transform="translate(23.092969 169.03557)scale(0.11 -0.11)">
       <use xlink:href="#ArialMT-48"/>
       <use x="55.615234" xlink:href="#ArialMT-46"/>
       <use x="83.398438" xlink:href="#ArialMT-48"/>
       <use x="139.013672" xlink:href="#ArialMT-48"/>
      </g>
     </g>
    </g>
    <g id="ytick_20">
     <g id="line2d_40">
      <path clip-path="url(#ped273ec149)" d="M 54 137.781791 
L 388.8 137.781791 
" style="fill:none;stroke:#ffffff;stroke-linecap:round;"/>
     </g>
     <g id="text_27">
      <!-- 0.05 -->
      <g style="fill:#262626;" transform="translate(23.092969 141.718588)scale(0.11 -0.11)">
       <use xlink:href="#ArialMT-48"/>
       <use x="55.615234" xlink:href="#ArialMT-46"/>
       <use x="83.398438" xlink:href="#ArialMT-48"/>
       <use x="139.013672" xlink:href="#ArialMT-53"/>
      </g>
     </g>
    </g>
    <g id="ytick_21">
     <g id="line2d_41">
      <path clip-path="url(#ped273ec149)" d="M 54 110.464809 
L 388.8 110.464809 
" style="fill:none;stroke:#ffffff;stroke-linecap:round;"/>
     </g>
     <g id="text_28">
      <!-- 0.10 -->
      <g style="fill:#262626;" transform="translate(23.092969 114.401606)scale(0.11 -0.11)">
       <use xlink:href="#ArialMT-48"/>
       <use x="55.615234" xlink:href="#ArialMT-46"/>
       <use x="83.398438" xlink:href="#ArialMT-49"/>
       <use x="139.013672" xlink:href="#ArialMT-48"/>
      </g>
     </g>
    </g>
    <g id="ytick_22">
     <g id="line2d_42">
      <path clip-path="url(#ped273ec149)" d="M 54 83.147827 
L 388.8 83.147827 
" style="fill:none;stroke:#ffffff;stroke-linecap:round;"/>
     </g>
     <g id="text_29">
      <!-- 0.15 -->
      <g style="fill:#262626;" transform="translate(23.092969 87.084624)scale(0.11 -0.11)">
       <use xlink:href="#ArialMT-48"/>
       <use x="55.615234" xlink:href="#ArialMT-46"/>
       <use x="83.398438" xlink:href="#ArialMT-49"/>
       <use x="139.013672" xlink:href="#ArialMT-53"/>
      </g>
     </g>
    </g>
    <g id="ytick_23">
     <g id="line2d_43">
      <path clip-path="url(#ped273ec149)" d="M 54 55.830845 
L 388.8 55.830845 
" style="fill:none;stroke:#ffffff;stroke-linecap:round;"/>
     </g>
     <g id="text_30">
      <!-- 0.20 -->
      <g style="fill:#262626;" transform="translate(23.092969 59.767642)scale(0.11 -0.11)">
       <use xlink:href="#ArialMT-48"/>
       <use x="55.615234" xlink:href="#ArialMT-46"/>
       <use x="83.398438" xlink:href="#ArialMT-50"/>
       <use x="139.013672" xlink:href="#ArialMT-48"/>
      </g>
     </g>
    </g>
    <g id="text_31">
     <!-- Growth rate -->
     <defs>
      <path d="M 41.21875 28.078125 
L 41.21875 36.46875 
L 71.53125 36.53125 
L 71.53125 9.96875 
Q 64.546875 4.390625 57.125 1.578125 
Q 49.703125 -1.21875 41.890625 -1.21875 
Q 31.34375 -1.21875 22.71875 3.296875 
Q 14.109375 7.8125 9.71875 16.359375 
Q 5.328125 24.90625 5.328125 35.453125 
Q 5.328125 45.90625 9.6875 54.953125 
Q 14.0625 64.015625 22.265625 68.40625 
Q 30.46875 72.796875 41.15625 72.796875 
Q 48.921875 72.796875 55.1875 70.28125 
Q 61.46875 67.78125 65.03125 63.28125 
Q 68.609375 58.796875 70.453125 51.5625 
L 61.921875 49.21875 
Q 60.296875 54.6875 57.90625 57.8125 
Q 55.515625 60.9375 51.0625 62.8125 
Q 46.625 64.703125 41.21875 64.703125 
Q 34.71875 64.703125 29.984375 62.71875 
Q 25.25 60.75 22.34375 57.515625 
Q 19.4375 54.296875 17.828125 50.4375 
Q 15.09375 43.796875 15.09375 36.03125 
Q 15.09375 26.46875 18.390625 20.015625 
Q 21.6875 13.578125 27.984375 10.453125 
Q 34.28125 7.328125 41.359375 7.328125 
Q 47.515625 7.328125 53.375 9.6875 
Q 59.234375 12.0625 62.25 14.75 
L 62.25 28.078125 
z
" id="ArialMT-71"/>
      <path d="M 6.5 0 
L 6.5 51.859375 
L 14.40625 51.859375 
L 14.40625 44 
Q 17.4375 49.515625 20 51.265625 
Q 22.5625 53.03125 25.640625 53.03125 
Q 30.078125 53.03125 34.671875 50.203125 
L 31.640625 42.046875 
Q 28.421875 43.953125 25.203125 43.953125 
Q 22.3125 43.953125 20.015625 42.21875 
Q 17.71875 40.484375 16.75 37.40625 
Q 15.28125 32.71875 15.28125 27.15625 
L 15.28125 0 
z
" id="ArialMT-114"/>
      <path d="M 16.15625 0 
L 0.296875 51.859375 
L 9.375 51.859375 
L 17.625 21.921875 
L 20.703125 10.796875 
Q 20.90625 11.625 23.390625 21.484375 
L 31.640625 51.859375 
L 40.671875 51.859375 
L 48.4375 21.78125 
L 51.03125 11.859375 
L 54 21.875 
L 62.890625 51.859375 
L 71.4375 51.859375 
L 55.21875 0 
L 46.09375 0 
L 37.84375 31.0625 
L 35.84375 39.890625 
L 25.34375 0 
z
" id="ArialMT-119"/>
      <path d="M 6.59375 0 
L 6.59375 71.578125 
L 15.375 71.578125 
L 15.375 45.90625 
Q 21.53125 53.03125 30.90625 53.03125 
Q 36.671875 53.03125 40.921875 50.75 
Q 45.171875 48.484375 47 44.484375 
Q 48.828125 40.484375 48.828125 32.859375 
L 48.828125 0 
L 40.046875 0 
L 40.046875 32.859375 
Q 40.046875 39.453125 37.1875 42.453125 
Q 34.328125 45.453125 29.109375 45.453125 
Q 25.203125 45.453125 21.75 43.421875 
Q 18.3125 41.40625 16.84375 37.9375 
Q 15.375 34.46875 15.375 28.375 
L 15.375 0 
z
" id="ArialMT-104"/>
     </defs>
     <g style="fill:#262626;" transform="translate(10.283281 174.6225)rotate(-90)scale(0.12 -0.12)">
      <use xlink:href="#ArialMT-71"/>
      <use x="77.783203" xlink:href="#ArialMT-114"/>
      <use x="111.083984" xlink:href="#ArialMT-111"/>
      <use x="166.699219" xlink:href="#ArialMT-119"/>
      <use x="238.916016" xlink:href="#ArialMT-116"/>
      <use x="266.699219" xlink:href="#ArialMT-104"/>
      <use x="322.314453" xlink:href="#ArialMT-32"/>
      <use x="350.097656" xlink:href="#ArialMT-114"/>
      <use x="383.398438" xlink:href="#ArialMT-97"/>
      <use x="439.013672" xlink:href="#ArialMT-116"/>
      <use x="466.796875" xlink:href="#ArialMT-101"/>
     </g>
    </g>
   </g>
   <g id="line2d_44">
    <path clip-path="url(#ped273ec149)" d="M 69.218182 44.951564 
L 75.429685 47.413349 
L 81.641187 48.472732 
L 87.85269 50.710933 
L 94.064193 52.845277 
L 100.275696 54.528374 
L 106.487199 57.435971 
L 112.698701 59.736768 
L 118.910204 61.70457 
L 125.121707 63.602951 
L 131.33321 66.806269 
L 137.544712 68.677854 
L 143.756215 70.803106 
L 149.967718 73.210847 
L 156.179221 76.416295 
L 162.390724 78.138348 
L 168.602226 81.01578 
L 174.813729 83.873022 
L 181.025232 86.86839 
L 187.236735 88.923485 
L 193.448237 91.231301 
L 199.65974 93.962144 
L 205.871243 97.375593 
L 212.082746 100.562034 
L 218.294249 103.113733 
L 224.505751 107.026773 
L 230.717254 107.019352 
L 236.928757 115.060345 
L 243.14026 116.981724 
L 249.351763 121.063751 
L 255.563265 122.881124 
L 261.774768 126.001592 
L 267.986271 131.23899 
L 274.197774 133.419529 
L 280.409276 139.396232 
L 286.620779 139.64543 
L 292.832282 144.775597 
L 299.043785 150.999518 
L 305.255288 154.116308 
L 311.46679 157.9092 
L 317.678293 163.555311 
L 323.889796 166.905111 
L 330.101299 172.276576 
L 336.312801 182.114057 
L 342.524304 189.050053 
L 348.735807 192.123176 
L 354.94731 197.46602 
L 361.158813 208.214008 
L 367.370315 218.398143 
L 373.581818 228.038575 
" style="fill:none;stroke:#4c72b0;stroke-linecap:round;stroke-width:1.5;"/>
   </g>
   <g id="line2d_45">
    <path clip-path="url(#ped273ec149)" d="M 69.218182 44.60356 
L 75.429685 46.751484 
L 81.641187 48.626606 
L 87.85269 51.071705 
L 94.064193 52.277232 
L 100.275696 54.985155 
L 106.487199 57.334187 
L 112.698701 59.740692 
L 118.910204 62.044962 
L 125.121707 64.493193 
L 131.33321 66.451637 
L 137.544712 69.151142 
L 143.756215 71.176163 
L 149.967718 73.579595 
L 156.179221 76.227632 
L 162.390724 79.297156 
L 168.602226 81.553341 
L 174.813729 85.264766 
L 181.025232 86.459339 
L 187.236735 89.627991 
L 193.448237 92.942669 
L 199.65974 95.172853 
L 205.871243 98.382529 
L 212.082746 102.465411 
L 218.294249 105.23638 
L 224.505751 107.846601 
L 230.717254 111.796755 
L 236.928757 113.18138 
L 243.14026 117.10582 
L 249.351763 121.285947 
L 255.563265 125.054282 
L 261.774768 128.610189 
L 267.986271 131.577098 
L 274.197774 135.318204 
L 280.409276 138.237945 
L 286.620779 143.141185 
L 292.832282 146.486411 
L 299.043785 153.459266 
L 305.255288 156.809827 
L 311.46679 164.805089 
L 317.678293 167.493512 
L 323.889796 171.44311 
L 330.101299 180.180428 
L 336.312801 181.576877 
L 342.524304 195.041168 
L 348.735807 198.506371 
L 354.94731 202.631469 
L 361.158813 208.646902 
L 367.370315 222.434712 
L 373.581818 219.58008 
" style="fill:none;stroke:#dd8452;stroke-linecap:round;stroke-width:1.5;"/>
   </g>
   <g id="line2d_46">
    <path clip-path="url(#ped273ec149)" d="M 69.218182 44.770928 
L 75.429685 46.063682 
L 81.641187 48.577257 
L 87.85269 51.021522 
L 94.064193 53.096322 
L 100.275696 55.521774 
L 106.487199 57.550739 
L 112.698701 60.251157 
L 118.910204 62.719321 
L 125.121707 64.526014 
L 131.33321 67.894684 
L 137.544712 69.225258 
L 143.756215 71.888926 
L 149.967718 74.427302 
L 156.179221 76.774425 
L 162.390724 80.379817 
L 168.602226 82.332737 
L 174.813729 85.58672 
L 181.025232 88.727858 
L 187.236735 92.371524 
L 193.448237 95.306922 
L 199.65974 96.605778 
L 205.871243 99.665082 
L 212.082746 103.593794 
L 218.294249 104.378934 
L 224.505751 111.372308 
L 230.717254 110.451547 
L 236.928757 116.188591 
L 243.14026 119.761531 
L 249.351763 123.942424 
L 255.563265 125.108534 
L 261.774768 129.617342 
L 267.986271 134.659335 
L 274.197774 136.053948 
L 280.409276 139.596287 
L 286.620779 146.778484 
L 292.832282 151.446403 
L 299.043785 158.022737 
L 305.255288 159.868001 
L 311.46679 166.862439 
L 317.678293 171.517813 
L 323.889796 178.808032 
L 330.101299 174.963316 
L 336.312801 190.329788 
L 342.524304 195.103584 
L 348.735807 199.194637 
L 354.94731 206.527735 
L 361.158813 214.215246 
L 367.370315 221.750275 
L 373.581818 234.506029 
" style="fill:none;stroke:#55a868;stroke-linecap:round;stroke-width:1.5;"/>
   </g>
   <g id="line2d_47">
    <path clip-path="url(#ped273ec149)" d="M 69.218182 44.83631 
L 75.429685 46.692143 
L 81.641187 49.108335 
L 87.85269 50.561271 
L 94.064193 54.473049 
L 100.275696 55.845316 
L 106.487199 57.575591 
L 112.698701 61.059514 
L 118.910204 63.21729 
L 125.121707 64.755963 
L 131.33321 67.741974 
L 137.544712 70.676995 
L 143.756215 72.004451 
L 149.967718 75.084055 
L 156.179221 78.357722 
L 162.390724 81.768062 
L 168.602226 83.103636 
L 174.813729 86.607399 
L 181.025232 88.709825 
L 187.236735 91.466939 
L 193.448237 95.056712 
L 199.65974 98.506565 
L 205.871243 101.007844 
L 212.082746 103.124962 
L 218.294249 105.72013 
L 224.505751 110.193801 
L 230.717254 115.891665 
L 236.928757 120.2276 
L 243.14026 121.770623 
L 249.351763 123.516298 
L 255.563265 129.67203 
L 261.774768 132.011142 
L 267.986271 135.999578 
L 274.197774 139.74506 
L 280.409276 146.519623 
L 286.620779 148.928153 
L 292.832282 153.854599 
L 299.043785 158.316906 
L 305.255288 160.452716 
L 311.46679 167.874128 
L 317.678293 175.168722 
L 323.889796 179.199842 
L 330.101299 181.804465 
L 336.312801 195.080328 
L 342.524304 196.973306 
L 348.735807 205.915249 
L 354.94731 213.573507 
L 361.158813 221.807391 
L 367.370315 228.805138 
L 373.581818 239.466242 
" style="fill:none;stroke:#c44e52;stroke-linecap:round;stroke-width:1.5;"/>
   </g>
   <g id="line2d_48">
    <path clip-path="url(#ped273ec149)" d="M 69.218182 44.443636 
L 75.429685 46.351982 
L 81.641187 49.354106 
L 87.85269 51.768598 
L 94.064193 53.841144 
L 100.275696 56.909447 
L 106.487199 58.731366 
L 112.698701 61.883268 
L 118.910204 62.938623 
L 125.121707 66.278984 
L 131.33321 67.883302 
L 137.544712 71.01069 
L 143.756215 74.152036 
L 149.967718 76.413121 
L 156.179221 79.937749 
L 162.390724 81.699431 
L 168.602226 84.82397 
L 174.813729 87.416962 
L 181.025232 90.697867 
L 187.236735 93.753276 
L 193.448237 96.195426 
L 199.65974 99.758835 
L 205.871243 104.435365 
L 212.082746 106.318119 
L 218.294249 110.527254 
L 224.505751 114.386809 
L 230.717254 118.507614 
L 236.928757 120.645835 
L 243.14026 123.833428 
L 249.351763 125.344712 
L 255.563265 131.584761 
L 261.774768 134.444983 
L 267.986271 138.8375 
L 274.197774 142.510755 
L 280.409276 149.203224 
L 286.620779 153.525609 
L 292.832282 154.212952 
L 299.043785 163.643644 
L 305.255288 166.658387 
L 311.46679 173.34716 
L 317.678293 176.008317 
L 323.889796 181.107968 
L 330.101299 187.608338 
L 336.312801 196.318305 
L 342.524304 204.599371 
L 348.735807 207.707444 
L 354.94731 212.117824 
L 361.158813 222.730614 
L 367.370315 232.638554 
L 373.581818 242.116364 
" style="fill:none;stroke:#8172b3;stroke-linecap:round;stroke-width:1.5;"/>
   </g>
   <g id="patch_5">
    <path d="M 54 252 
L 54 34.56 
" style="fill:none;stroke:#ffffff;stroke-linecap:square;stroke-linejoin:miter;stroke-width:1.25;"/>
   </g>
   <g id="patch_6">
    <path d="M 388.8 252 
L 388.8 34.56 
" style="fill:none;stroke:#ffffff;stroke-linecap:square;stroke-linejoin:miter;stroke-width:1.25;"/>
   </g>
   <g id="patch_7">
    <path d="M 54 252 
L 388.8 252 
" style="fill:none;stroke:#ffffff;stroke-linecap:square;stroke-linejoin:miter;stroke-width:1.25;"/>
   </g>
   <g id="patch_8">
    <path d="M 54 34.56 
L 388.8 34.56 
" style="fill:none;stroke:#ffffff;stroke-linecap:square;stroke-linejoin:miter;stroke-width:1.25;"/>
   </g>
   <g id="text_32">
    <!-- Global contact reduction vs growth rate -->
    <g style="fill:#262626;" transform="translate(117.353438 15.551625)scale(0.12 -0.12)">
     <use xlink:href="#ArialMT-71"/>
     <use x="77.783203" xlink:href="#ArialMT-108"/>
     <use x="100" xlink:href="#ArialMT-111"/>
     <use x="155.615234" xlink:href="#ArialMT-98"/>
     <use x="211.230469" xlink:href="#ArialMT-97"/>
     <use x="266.845703" xlink:href="#ArialMT-108"/>
     <use x="289.0625" xlink:href="#ArialMT-32"/>
     <use x="316.845703" xlink:href="#ArialMT-99"/>
     <use x="366.845703" xlink:href="#ArialMT-111"/>
     <use x="422.460938" xlink:href="#ArialMT-110"/>
     <use x="478.076172" xlink:href="#ArialMT-116"/>
     <use x="505.859375" xlink:href="#ArialMT-97"/>
     <use x="561.474609" xlink:href="#ArialMT-99"/>
     <use x="611.474609" xlink:href="#ArialMT-116"/>
     <use x="639.257812" xlink:href="#ArialMT-32"/>
     <use x="667.041016" xlink:href="#ArialMT-114"/>
     <use x="700.341797" xlink:href="#ArialMT-101"/>
     <use x="755.957031" xlink:href="#ArialMT-100"/>
     <use x="811.572266" xlink:href="#ArialMT-117"/>
     <use x="867.1875" xlink:href="#ArialMT-99"/>
     <use x="917.1875" xlink:href="#ArialMT-116"/>
     <use x="944.970703" xlink:href="#ArialMT-105"/>
     <use x="967.1875" xlink:href="#ArialMT-111"/>
     <use x="1022.802734" xlink:href="#ArialMT-110"/>
     <use x="1078.417969" xlink:href="#ArialMT-32"/>
     <use x="1106.201172" xlink:href="#ArialMT-118"/>
     <use x="1156.201172" xlink:href="#ArialMT-115"/>
     <use x="1206.201172" xlink:href="#ArialMT-32"/>
     <use x="1233.984375" xlink:href="#ArialMT-103"/>
     <use x="1289.599609" xlink:href="#ArialMT-114"/>
     <use x="1322.900391" xlink:href="#ArialMT-111"/>
     <use x="1378.515625" xlink:href="#ArialMT-119"/>
     <use x="1450.732422" xlink:href="#ArialMT-116"/>
     <use x="1478.515625" xlink:href="#ArialMT-104"/>
     <use x="1534.130859" xlink:href="#ArialMT-32"/>
     <use x="1561.914062" xlink:href="#ArialMT-114"/>
     <use x="1595.214844" xlink:href="#ArialMT-97"/>
     <use x="1650.830078" xlink:href="#ArialMT-116"/>
     <use x="1678.613281" xlink:href="#ArialMT-101"/>
    </g>
    <!-- (no tracing) (household quarantines) -->
    <defs>
     <path d="M 39.65625 -19.875 
L 39.65625 5.515625 
Q 37.59375 2.640625 33.90625 0.734375 
Q 30.21875 -1.171875 26.078125 -1.171875 
Q 16.84375 -1.171875 10.171875 6.203125 
Q 3.515625 13.578125 3.515625 26.421875 
Q 3.515625 34.234375 6.21875 40.421875 
Q 8.9375 46.625 14.078125 49.828125 
Q 19.234375 53.03125 25.390625 53.03125 
Q 35.015625 53.03125 40.53125 44.921875 
L 40.53125 51.859375 
L 48.4375 51.859375 
L 48.4375 -19.875 
z
M 12.546875 26.078125 
Q 12.546875 16.0625 16.75 11.0625 
Q 20.953125 6.0625 26.8125 6.0625 
Q 32.421875 6.0625 36.46875 10.8125 
Q 40.53125 15.578125 40.53125 25.296875 
Q 40.53125 35.640625 36.25 40.859375 
Q 31.984375 46.09375 26.21875 46.09375 
Q 20.515625 46.09375 16.53125 41.234375 
Q 12.546875 36.375 12.546875 26.078125 
z
" id="ArialMT-113"/>
    </defs>
    <g style="fill:#262626;" transform="translate(124.684688 28.56)scale(0.12 -0.12)">
     <use xlink:href="#ArialMT-40"/>
     <use x="33.300781" xlink:href="#ArialMT-110"/>
     <use x="88.916016" xlink:href="#ArialMT-111"/>
     <use x="144.53125" xlink:href="#ArialMT-32"/>
     <use x="172.314453" xlink:href="#ArialMT-116"/>
     <use x="200.097656" xlink:href="#ArialMT-114"/>
     <use x="233.398438" xlink:href="#ArialMT-97"/>
     <use x="289.013672" xlink:href="#ArialMT-99"/>
     <use x="339.013672" xlink:href="#ArialMT-105"/>
     <use x="361.230469" xlink:href="#ArialMT-110"/>
     <use x="416.845703" xlink:href="#ArialMT-103"/>
     <use x="472.460938" xlink:href="#ArialMT-41"/>
     <use x="505.761719" xlink:href="#ArialMT-32"/>
     <use x="533.544922" xlink:href="#ArialMT-40"/>
     <use x="566.845703" xlink:href="#ArialMT-104"/>
     <use x="622.460938" xlink:href="#ArialMT-111"/>
     <use x="678.076172" xlink:href="#ArialMT-117"/>
     <use x="733.691406" xlink:href="#ArialMT-115"/>
     <use x="783.691406" xlink:href="#ArialMT-101"/>
     <use x="839.306641" xlink:href="#ArialMT-104"/>
     <use x="894.921875" xlink:href="#ArialMT-111"/>
     <use x="950.537109" xlink:href="#ArialMT-108"/>
     <use x="972.753906" xlink:href="#ArialMT-100"/>
     <use x="1028.369141" xlink:href="#ArialMT-32"/>
     <use x="1056.152344" xlink:href="#ArialMT-113"/>
     <use x="1111.767578" xlink:href="#ArialMT-117"/>
     <use x="1167.382812" xlink:href="#ArialMT-97"/>
     <use x="1222.998047" xlink:href="#ArialMT-114"/>
     <use x="1256.298828" xlink:href="#ArialMT-97"/>
     <use x="1311.914062" xlink:href="#ArialMT-110"/>
     <use x="1367.529297" xlink:href="#ArialMT-116"/>
     <use x="1395.3125" xlink:href="#ArialMT-105"/>
     <use x="1417.529297" xlink:href="#ArialMT-110"/>
     <use x="1473.144531" xlink:href="#ArialMT-101"/>
     <use x="1528.759766" xlink:href="#ArialMT-115"/>
     <use x="1578.759766" xlink:href="#ArialMT-41"/>
    </g>
   </g>
   <g id="legend_1">
    <g id="patch_9">
     <path d="M 61.7 246.5 
L 198.081094 246.5 
Q 200.281094 246.5 200.281094 244.3 
L 200.281094 166.792969 
Q 200.281094 164.592969 198.081094 164.592969 
L 61.7 164.592969 
Q 59.5 164.592969 59.5 166.792969 
L 59.5 244.3 
Q 59.5 246.5 61.7 246.5 
z
" style="fill:#eaeaf2;opacity:0.8;stroke:#cccccc;stroke-linejoin:miter;"/>
    </g>
    <g id="line2d_49">
     <path d="M 63.9 173.049219 
L 85.9 173.049219 
" style="fill:none;stroke:#4c72b0;stroke-linecap:round;stroke-width:1.5;"/>
    </g>
    <g id="line2d_50"/>
    <g id="text_33">
     <!-- Discovery prob = 0.1 -->
     <defs>
      <path d="M 7.71875 0 
L 7.71875 71.578125 
L 32.375 71.578125 
Q 40.71875 71.578125 45.125 70.5625 
Q 51.265625 69.140625 55.609375 65.4375 
Q 61.28125 60.640625 64.078125 53.1875 
Q 66.890625 45.75 66.890625 36.1875 
Q 66.890625 28.03125 64.984375 21.734375 
Q 63.09375 15.4375 60.109375 11.296875 
Q 57.125 7.171875 53.578125 4.796875 
Q 50.046875 2.4375 45.046875 1.21875 
Q 40.046875 0 33.546875 0 
z
M 17.1875 8.453125 
L 32.46875 8.453125 
Q 39.546875 8.453125 43.578125 9.765625 
Q 47.609375 11.078125 50 13.484375 
Q 53.375 16.84375 55.25 22.53125 
Q 57.125 28.21875 57.125 36.328125 
Q 57.125 47.5625 53.4375 53.59375 
Q 49.75 59.625 44.484375 61.671875 
Q 40.671875 63.140625 32.234375 63.140625 
L 17.1875 63.140625 
z
" id="ArialMT-68"/>
      <path d="M 6.59375 -19.875 
L 6.59375 51.859375 
L 14.59375 51.859375 
L 14.59375 45.125 
Q 17.4375 49.078125 21 51.046875 
Q 24.5625 53.03125 29.640625 53.03125 
Q 36.28125 53.03125 41.359375 49.609375 
Q 46.4375 46.1875 49.015625 39.953125 
Q 51.609375 33.734375 51.609375 26.3125 
Q 51.609375 18.359375 48.75 11.984375 
Q 45.90625 5.609375 40.453125 2.21875 
Q 35.015625 -1.171875 29 -1.171875 
Q 24.609375 -1.171875 21.109375 0.6875 
Q 17.625 2.546875 15.375 5.375 
L 15.375 -19.875 
z
M 14.546875 25.640625 
Q 14.546875 15.625 18.59375 10.84375 
Q 22.65625 6.0625 28.421875 6.0625 
Q 34.28125 6.0625 38.453125 11.015625 
Q 42.625 15.96875 42.625 26.375 
Q 42.625 36.28125 38.546875 41.203125 
Q 34.46875 46.140625 28.8125 46.140625 
Q 23.1875 46.140625 18.859375 40.890625 
Q 14.546875 35.640625 14.546875 25.640625 
z
" id="ArialMT-112"/>
      <path d="M 52.828125 42.09375 
L 5.5625 42.09375 
L 5.5625 50.296875 
L 52.828125 50.296875 
z
M 52.828125 20.359375 
L 5.5625 20.359375 
L 5.5625 28.5625 
L 52.828125 28.5625 
z
" id="ArialMT-61"/>
     </defs>
     <g style="fill:#262626;" transform="translate(94.7 176.899219)scale(0.11 -0.11)">
      <use xlink:href="#ArialMT-68"/>
      <use x="72.216797" xlink:href="#ArialMT-105"/>
      <use x="94.433594" xlink:href="#ArialMT-115"/>
      <use x="144.433594" xlink:href="#ArialMT-99"/>
      <use x="194.433594" xlink:href="#ArialMT-111"/>
      <use x="250.048828" xlink:href="#ArialMT-118"/>
      <use x="300.048828" xlink:href="#ArialMT-101"/>
      <use x="355.664062" xlink:href="#ArialMT-114"/>
      <use x="388.964844" xlink:href="#ArialMT-121"/>
      <use x="438.964844" xlink:href="#ArialMT-32"/>
      <use x="466.748047" xlink:href="#ArialMT-112"/>
      <use x="522.363281" xlink:href="#ArialMT-114"/>
      <use x="555.664062" xlink:href="#ArialMT-111"/>
      <use x="611.279297" xlink:href="#ArialMT-98"/>
      <use x="666.894531" xlink:href="#ArialMT-32"/>
      <use x="694.677734" xlink:href="#ArialMT-61"/>
      <use x="753.076172" xlink:href="#ArialMT-32"/>
      <use x="780.859375" xlink:href="#ArialMT-48"/>
      <use x="836.474609" xlink:href="#ArialMT-46"/>
      <use x="864.257812" xlink:href="#ArialMT-49"/>
     </g>
    </g>
    <g id="line2d_51">
     <path d="M 63.9 188.770625 
L 85.9 188.770625 
" style="fill:none;stroke:#dd8452;stroke-linecap:round;stroke-width:1.5;"/>
    </g>
    <g id="line2d_52"/>
    <g id="text_34">
     <!-- Discovery prob = 0.2 -->
     <g style="fill:#262626;" transform="translate(94.7 192.620625)scale(0.11 -0.11)">
      <use xlink:href="#ArialMT-68"/>
      <use x="72.216797" xlink:href="#ArialMT-105"/>
      <use x="94.433594" xlink:href="#ArialMT-115"/>
      <use x="144.433594" xlink:href="#ArialMT-99"/>
      <use x="194.433594" xlink:href="#ArialMT-111"/>
      <use x="250.048828" xlink:href="#ArialMT-118"/>
      <use x="300.048828" xlink:href="#ArialMT-101"/>
      <use x="355.664062" xlink:href="#ArialMT-114"/>
      <use x="388.964844" xlink:href="#ArialMT-121"/>
      <use x="438.964844" xlink:href="#ArialMT-32"/>
      <use x="466.748047" xlink:href="#ArialMT-112"/>
      <use x="522.363281" xlink:href="#ArialMT-114"/>
      <use x="555.664062" xlink:href="#ArialMT-111"/>
      <use x="611.279297" xlink:href="#ArialMT-98"/>
      <use x="666.894531" xlink:href="#ArialMT-32"/>
      <use x="694.677734" xlink:href="#ArialMT-61"/>
      <use x="753.076172" xlink:href="#ArialMT-32"/>
      <use x="780.859375" xlink:href="#ArialMT-48"/>
      <use x="836.474609" xlink:href="#ArialMT-46"/>
      <use x="864.257812" xlink:href="#ArialMT-50"/>
     </g>
    </g>
    <g id="line2d_53">
     <path d="M 63.9 204.492031 
L 85.9 204.492031 
" style="fill:none;stroke:#55a868;stroke-linecap:round;stroke-width:1.5;"/>
    </g>
    <g id="line2d_54"/>
    <g id="text_35">
     <!-- Discovery prob = 0.3 -->
     <g style="fill:#262626;" transform="translate(94.7 208.342031)scale(0.11 -0.11)">
      <use xlink:href="#ArialMT-68"/>
      <use x="72.216797" xlink:href="#ArialMT-105"/>
      <use x="94.433594" xlink:href="#ArialMT-115"/>
      <use x="144.433594" xlink:href="#ArialMT-99"/>
      <use x="194.433594" xlink:href="#ArialMT-111"/>
      <use x="250.048828" xlink:href="#ArialMT-118"/>
      <use x="300.048828" xlink:href="#ArialMT-101"/>
      <use x="355.664062" xlink:href="#ArialMT-114"/>
      <use x="388.964844" xlink:href="#ArialMT-121"/>
      <use x="438.964844" xlink:href="#ArialMT-32"/>
      <use x="466.748047" xlink:href="#ArialMT-112"/>
      <use x="522.363281" xlink:href="#ArialMT-114"/>
      <use x="555.664062" xlink:href="#ArialMT-111"/>
      <use x="611.279297" xlink:href="#ArialMT-98"/>
      <use x="666.894531" xlink:href="#ArialMT-32"/>
      <use x="694.677734" xlink:href="#ArialMT-61"/>
      <use x="753.076172" xlink:href="#ArialMT-32"/>
      <use x="780.859375" xlink:href="#ArialMT-48"/>
      <use x="836.474609" xlink:href="#ArialMT-46"/>
      <use x="864.257812" xlink:href="#ArialMT-51"/>
     </g>
    </g>
    <g id="line2d_55">
     <path d="M 63.9 220.213437 
L 85.9 220.213437 
" style="fill:none;stroke:#c44e52;stroke-linecap:round;stroke-width:1.5;"/>
    </g>
    <g id="line2d_56"/>
    <g id="text_36">
     <!-- Discovery prob = 0.4 -->
     <g style="fill:#262626;" transform="translate(94.7 224.063437)scale(0.11 -0.11)">
      <use xlink:href="#ArialMT-68"/>
      <use x="72.216797" xlink:href="#ArialMT-105"/>
      <use x="94.433594" xlink:href="#ArialMT-115"/>
      <use x="144.433594" xlink:href="#ArialMT-99"/>
      <use x="194.433594" xlink:href="#ArialMT-111"/>
      <use x="250.048828" xlink:href="#ArialMT-118"/>
      <use x="300.048828" xlink:href="#ArialMT-101"/>
      <use x="355.664062" xlink:href="#ArialMT-114"/>
      <use x="388.964844" xlink:href="#ArialMT-121"/>
      <use x="438.964844" xlink:href="#ArialMT-32"/>
      <use x="466.748047" xlink:href="#ArialMT-112"/>
      <use x="522.363281" xlink:href="#ArialMT-114"/>
      <use x="555.664062" xlink:href="#ArialMT-111"/>
      <use x="611.279297" xlink:href="#ArialMT-98"/>
      <use x="666.894531" xlink:href="#ArialMT-32"/>
      <use x="694.677734" xlink:href="#ArialMT-61"/>
      <use x="753.076172" xlink:href="#ArialMT-32"/>
      <use x="780.859375" xlink:href="#ArialMT-48"/>
      <use x="836.474609" xlink:href="#ArialMT-46"/>
      <use x="864.257812" xlink:href="#ArialMT-52"/>
     </g>
    </g>
    <g id="line2d_57">
     <path d="M 63.9 235.934844 
L 85.9 235.934844 
" style="fill:none;stroke:#8172b3;stroke-linecap:round;stroke-width:1.5;"/>
    </g>
    <g id="line2d_58"/>
    <g id="text_37">
     <!-- Discovery prob = 0.5 -->
     <g style="fill:#262626;" transform="translate(94.7 239.784844)scale(0.11 -0.11)">
      <use xlink:href="#ArialMT-68"/>
      <use x="72.216797" xlink:href="#ArialMT-105"/>
      <use x="94.433594" xlink:href="#ArialMT-115"/>
      <use x="144.433594" xlink:href="#ArialMT-99"/>
      <use x="194.433594" xlink:href="#ArialMT-111"/>
      <use x="250.048828" xlink:href="#ArialMT-118"/>
      <use x="300.048828" xlink:href="#ArialMT-101"/>
      <use x="355.664062" xlink:href="#ArialMT-114"/>
      <use x="388.964844" xlink:href="#ArialMT-121"/>
      <use x="438.964844" xlink:href="#ArialMT-32"/>
      <use x="466.748047" xlink:href="#ArialMT-112"/>
      <use x="522.363281" xlink:href="#ArialMT-114"/>
      <use x="555.664062" xlink:href="#ArialMT-111"/>
      <use x="611.279297" xlink:href="#ArialMT-98"/>
      <use x="666.894531" xlink:href="#ArialMT-32"/>
      <use x="694.677734" xlink:href="#ArialMT-61"/>
      <use x="753.076172" xlink:href="#ArialMT-32"/>
      <use x="780.859375" xlink:href="#ArialMT-48"/>
      <use x="836.474609" xlink:href="#ArialMT-46"/>
      <use x="864.257812" xlink:href="#ArialMT-53"/>
     </g>
    </g>
   </g>
  </g>
 </g>
 <defs>
  <clipPath id="p0b7b4db15a">
   <rect height="217.44" width="0" x="388.8" y="34.56"/>
  </clipPath>
  <clipPath id="ped273ec149">
   <rect height="217.44" width="334.8" x="54" y="34.56"/>
  </clipPath>
 </defs>
</svg>
