<?xml version="1.0" encoding="utf-8" standalone="no"?>
<!DOCTYPE svg PUBLIC "-//W3C//DTD SVG 1.1//EN"
  "http://www.w3.org/Graphics/SVG/1.1/DTD/svg11.dtd">
<!-- Created with matplotlib (https://matplotlib.org/) -->
<svg height="288pt" version="1.1" viewBox="0 0 432 288" width="432pt" xmlns="http://www.w3.org/2000/svg" xmlns:xlink="http://www.w3.org/1999/xlink">
 <defs>
  <style type="text/css">
*{stroke-linecap:butt;stroke-linejoin:round;}
  </style>
 </defs>
 <g id="figure_1">
  <g id="patch_1">
   <path d="M 0 288 
L 432 288 
L 432 0 
L 0 0 
z
" style="fill:#ffffff;"/>
  </g>
  <g id="axes_1">
   <g id="patch_2">
    <path d="M 54 252 
L 388.8 252 
L 388.8 34.56 
L 54 34.56 
z
" style="fill:#eaeaf2;"/>
   </g>
   <g id="axes_2">
    <g id="patch_3">
     <path d="M 388.8 252 
L 388.8 252 
L 388.8 34.56 
L 388.8 34.56 
z
" style="fill:#eaeaf2;"/>
    </g>
    <g id="matplotlib.axis_1"/>
    <g id="matplotlib.axis_2">
     <g id="ytick_1">
      <g id="line2d_1">
       <path clip-path="url(#p685f1ff903)" d="M 388.8 239.96998 
L 388.8 239.96998 
" style="fill:none;stroke:#ffffff;stroke-linecap:round;"/>
      </g>
      <g id="line2d_2">
       <defs>
        <path d="M 0 0 
L 6 0 
" id="m2f408ce587" style="stroke:#262626;stroke-width:1.25;"/>
       </defs>
       <g>
        <use style="fill:#262626;stroke:#262626;stroke-width:1.25;" x="388.8" xlink:href="#m2f408ce587" y="239.96998"/>
       </g>
      </g>
      <g id="text_1">
       <!-- −4.62 -->
       <defs>
        <path d="M 52.828125 31.203125 
L 5.5625 31.203125 
L 5.5625 39.40625 
L 52.828125 39.40625 
z
" id="ArialMT-8722"/>
        <path d="M 32.328125 0 
L 32.328125 17.140625 
L 1.265625 17.140625 
L 1.265625 25.203125 
L 33.9375 71.578125 
L 41.109375 71.578125 
L 41.109375 25.203125 
L 50.78125 25.203125 
L 50.78125 17.140625 
L 41.109375 17.140625 
L 41.109375 0 
z
M 32.328125 25.203125 
L 32.328125 57.46875 
L 9.90625 25.203125 
z
" id="ArialMT-52"/>
        <path d="M 9.078125 0 
L 9.078125 10.015625 
L 19.09375 10.015625 
L 19.09375 0 
z
" id="ArialMT-46"/>
        <path d="M 49.75 54.046875 
L 41.015625 53.375 
Q 39.84375 58.546875 37.703125 60.890625 
Q 34.125 64.65625 28.90625 64.65625 
Q 24.703125 64.65625 21.53125 62.3125 
Q 17.390625 59.28125 14.984375 53.46875 
Q 12.59375 47.65625 12.5 36.921875 
Q 15.671875 41.75 20.265625 44.09375 
Q 24.859375 46.4375 29.890625 46.4375 
Q 38.671875 46.4375 44.84375 39.96875 
Q 51.03125 33.5 51.03125 23.25 
Q 51.03125 16.5 48.125 10.71875 
Q 45.21875 4.9375 40.140625 1.859375 
Q 35.0625 -1.21875 28.609375 -1.21875 
Q 17.625 -1.21875 10.6875 6.859375 
Q 3.765625 14.9375 3.765625 33.5 
Q 3.765625 54.25 11.421875 63.671875 
Q 18.109375 71.875 29.4375 71.875 
Q 37.890625 71.875 43.28125 67.140625 
Q 48.6875 62.40625 49.75 54.046875 
z
M 13.875 23.1875 
Q 13.875 18.65625 15.796875 14.5 
Q 17.71875 10.359375 21.1875 8.171875 
Q 24.65625 6 28.46875 6 
Q 34.03125 6 38.03125 10.484375 
Q 42.046875 14.984375 42.046875 22.703125 
Q 42.046875 30.125 38.078125 34.390625 
Q 34.125 38.671875 28.125 38.671875 
Q 22.171875 38.671875 18.015625 34.390625 
Q 13.875 30.125 13.875 23.1875 
z
" id="ArialMT-54"/>
        <path d="M 50.34375 8.453125 
L 50.34375 0 
L 3.03125 0 
Q 2.9375 3.171875 4.046875 6.109375 
Q 5.859375 10.9375 9.828125 15.625 
Q 13.8125 20.3125 21.34375 26.46875 
Q 33.015625 36.03125 37.109375 41.625 
Q 41.21875 47.21875 41.21875 52.203125 
Q 41.21875 57.421875 37.46875 61 
Q 33.734375 64.59375 27.734375 64.59375 
Q 21.390625 64.59375 17.578125 60.78125 
Q 13.765625 56.984375 13.71875 50.25 
L 4.6875 51.171875 
Q 5.609375 61.28125 11.65625 66.578125 
Q 17.71875 71.875 27.9375 71.875 
Q 38.234375 71.875 44.234375 66.15625 
Q 50.25 60.453125 50.25 52 
Q 50.25 47.703125 48.484375 43.546875 
Q 46.734375 39.40625 42.65625 34.8125 
Q 38.578125 30.21875 29.109375 22.21875 
Q 21.1875 15.578125 18.9375 13.203125 
Q 16.703125 10.84375 15.234375 8.453125 
z
" id="ArialMT-50"/>
       </defs>
       <g style="fill:#262626;" transform="translate(398.3 243.906777)scale(0.11 -0.11)">
        <use xlink:href="#ArialMT-8722"/>
        <use x="58.398438" xlink:href="#ArialMT-52"/>
        <use x="114.013672" xlink:href="#ArialMT-46"/>
        <use x="141.796875" xlink:href="#ArialMT-54"/>
        <use x="197.412109" xlink:href="#ArialMT-50"/>
       </g>
      </g>
     </g>
     <g id="ytick_2">
      <g id="line2d_3">
       <path clip-path="url(#p685f1ff903)" d="M 388.8 227.382161 
L 388.8 227.382161 
" style="fill:none;stroke:#ffffff;stroke-linecap:round;"/>
      </g>
      <g id="line2d_4">
       <g>
        <use style="fill:#262626;stroke:#262626;stroke-width:1.25;" x="388.8" xlink:href="#m2f408ce587" y="227.382161"/>
       </g>
      </g>
      <g id="text_2">
       <!-- −5.55 -->
       <defs>
        <path d="M 4.15625 18.75 
L 13.375 19.53125 
Q 14.40625 12.796875 18.140625 9.390625 
Q 21.875 6 27.15625 6 
Q 33.5 6 37.890625 10.78125 
Q 42.28125 15.578125 42.28125 23.484375 
Q 42.28125 31 38.0625 35.34375 
Q 33.84375 39.703125 27 39.703125 
Q 22.75 39.703125 19.328125 37.765625 
Q 15.921875 35.84375 13.96875 32.765625 
L 5.71875 33.84375 
L 12.640625 70.609375 
L 48.25 70.609375 
L 48.25 62.203125 
L 19.671875 62.203125 
L 15.828125 42.96875 
Q 22.265625 47.46875 29.34375 47.46875 
Q 38.71875 47.46875 45.15625 40.96875 
Q 51.609375 34.46875 51.609375 24.265625 
Q 51.609375 14.546875 45.953125 7.46875 
Q 39.0625 -1.21875 27.15625 -1.21875 
Q 17.390625 -1.21875 11.203125 4.25 
Q 5.03125 9.71875 4.15625 18.75 
z
" id="ArialMT-53"/>
       </defs>
       <g style="fill:#262626;" transform="translate(398.3 231.318958)scale(0.11 -0.11)">
        <use xlink:href="#ArialMT-8722"/>
        <use x="58.398438" xlink:href="#ArialMT-53"/>
        <use x="114.013672" xlink:href="#ArialMT-46"/>
        <use x="141.796875" xlink:href="#ArialMT-53"/>
        <use x="197.412109" xlink:href="#ArialMT-53"/>
       </g>
      </g>
     </g>
     <g id="ytick_3">
      <g id="line2d_5">
       <path clip-path="url(#p685f1ff903)" d="M 388.8 214.794342 
L 388.8 214.794342 
" style="fill:none;stroke:#ffffff;stroke-linecap:round;"/>
      </g>
      <g id="line2d_6">
       <g>
        <use style="fill:#262626;stroke:#262626;stroke-width:1.25;" x="388.8" xlink:href="#m2f408ce587" y="214.794342"/>
       </g>
      </g>
      <g id="text_3">
       <!-- −6.93 -->
       <defs>
        <path d="M 5.46875 16.546875 
L 13.921875 17.328125 
Q 14.984375 11.375 18.015625 8.6875 
Q 21.046875 6 25.78125 6 
Q 29.828125 6 32.875 7.859375 
Q 35.9375 9.71875 37.890625 12.8125 
Q 39.84375 15.921875 41.15625 21.1875 
Q 42.484375 26.46875 42.484375 31.9375 
Q 42.484375 32.515625 42.4375 33.6875 
Q 39.796875 29.5 35.234375 26.875 
Q 30.671875 24.265625 25.34375 24.265625 
Q 16.453125 24.265625 10.296875 30.703125 
Q 4.15625 37.15625 4.15625 47.703125 
Q 4.15625 58.59375 10.578125 65.234375 
Q 17 71.875 26.65625 71.875 
Q 33.640625 71.875 39.421875 68.109375 
Q 45.21875 64.359375 48.21875 57.390625 
Q 51.21875 50.4375 51.21875 37.25 
Q 51.21875 23.53125 48.234375 15.40625 
Q 45.265625 7.28125 39.375 3.03125 
Q 33.5 -1.21875 25.59375 -1.21875 
Q 17.1875 -1.21875 11.859375 3.4375 
Q 6.546875 8.109375 5.46875 16.546875 
z
M 41.453125 48.140625 
Q 41.453125 55.71875 37.421875 60.15625 
Q 33.40625 64.59375 27.734375 64.59375 
Q 21.875 64.59375 17.53125 59.8125 
Q 13.1875 55.03125 13.1875 47.40625 
Q 13.1875 40.578125 17.3125 36.296875 
Q 21.4375 32.03125 27.484375 32.03125 
Q 33.59375 32.03125 37.515625 36.296875 
Q 41.453125 40.578125 41.453125 48.140625 
z
" id="ArialMT-57"/>
        <path d="M 4.203125 18.890625 
L 12.984375 20.0625 
Q 14.5 12.59375 18.140625 9.296875 
Q 21.78125 6 27 6 
Q 33.203125 6 37.46875 10.296875 
Q 41.75 14.59375 41.75 20.953125 
Q 41.75 27 37.796875 30.921875 
Q 33.84375 34.859375 27.734375 34.859375 
Q 25.25 34.859375 21.53125 33.890625 
L 22.515625 41.609375 
Q 23.390625 41.5 23.921875 41.5 
Q 29.546875 41.5 34.03125 44.421875 
Q 38.53125 47.359375 38.53125 53.46875 
Q 38.53125 58.296875 35.25 61.46875 
Q 31.984375 64.65625 26.8125 64.65625 
Q 21.6875 64.65625 18.265625 61.421875 
Q 14.84375 58.203125 13.875 51.765625 
L 5.078125 53.328125 
Q 6.6875 62.15625 12.390625 67.015625 
Q 18.109375 71.875 26.609375 71.875 
Q 32.46875 71.875 37.390625 69.359375 
Q 42.328125 66.84375 44.9375 62.5 
Q 47.5625 58.15625 47.5625 53.265625 
Q 47.5625 48.640625 45.0625 44.828125 
Q 42.578125 41.015625 37.703125 38.765625 
Q 44.046875 37.3125 47.5625 32.6875 
Q 51.078125 28.078125 51.078125 21.140625 
Q 51.078125 11.765625 44.234375 5.25 
Q 37.40625 -1.265625 26.953125 -1.265625 
Q 17.53125 -1.265625 11.296875 4.34375 
Q 5.078125 9.96875 4.203125 18.890625 
z
" id="ArialMT-51"/>
       </defs>
       <g style="fill:#262626;" transform="translate(398.3 218.731139)scale(0.11 -0.11)">
        <use xlink:href="#ArialMT-8722"/>
        <use x="58.398438" xlink:href="#ArialMT-54"/>
        <use x="114.013672" xlink:href="#ArialMT-46"/>
        <use x="141.796875" xlink:href="#ArialMT-57"/>
        <use x="197.412109" xlink:href="#ArialMT-51"/>
       </g>
      </g>
     </g>
     <g id="ytick_4">
      <g id="line2d_7">
       <path clip-path="url(#p685f1ff903)" d="M 388.8 202.206523 
L 388.8 202.206523 
" style="fill:none;stroke:#ffffff;stroke-linecap:round;"/>
      </g>
      <g id="line2d_8">
       <g>
        <use style="fill:#262626;stroke:#262626;stroke-width:1.25;" x="388.8" xlink:href="#m2f408ce587" y="202.206523"/>
       </g>
      </g>
      <g id="text_4">
       <!-- −9.24 -->
       <g style="fill:#262626;" transform="translate(398.3 206.14332)scale(0.11 -0.11)">
        <use xlink:href="#ArialMT-8722"/>
        <use x="58.398438" xlink:href="#ArialMT-57"/>
        <use x="114.013672" xlink:href="#ArialMT-46"/>
        <use x="141.796875" xlink:href="#ArialMT-50"/>
        <use x="197.412109" xlink:href="#ArialMT-52"/>
       </g>
      </g>
     </g>
     <g id="ytick_5">
      <g id="line2d_9">
       <path clip-path="url(#p685f1ff903)" d="M 388.8 189.618704 
L 388.8 189.618704 
" style="fill:none;stroke:#ffffff;stroke-linecap:round;"/>
      </g>
      <g id="line2d_10">
       <g>
        <use style="fill:#262626;stroke:#262626;stroke-width:1.25;" x="388.8" xlink:href="#m2f408ce587" y="189.618704"/>
       </g>
      </g>
      <g id="text_5">
       <!-- −13.86 -->
       <defs>
        <path d="M 37.25 0 
L 28.46875 0 
L 28.46875 56 
Q 25.296875 52.984375 20.140625 49.953125 
Q 14.984375 46.921875 10.890625 45.40625 
L 10.890625 53.90625 
Q 18.265625 57.375 23.78125 62.296875 
Q 29.296875 67.234375 31.59375 71.875 
L 37.25 71.875 
z
" id="ArialMT-49"/>
        <path d="M 17.671875 38.8125 
Q 12.203125 40.828125 9.5625 44.53125 
Q 6.9375 48.25 6.9375 53.421875 
Q 6.9375 61.234375 12.546875 66.546875 
Q 18.171875 71.875 27.484375 71.875 
Q 36.859375 71.875 42.578125 66.421875 
Q 48.296875 60.984375 48.296875 53.171875 
Q 48.296875 48.1875 45.671875 44.5 
Q 43.0625 40.828125 37.75 38.8125 
Q 44.34375 36.671875 47.78125 31.875 
Q 51.21875 27.09375 51.21875 20.453125 
Q 51.21875 11.28125 44.71875 5.03125 
Q 38.234375 -1.21875 27.640625 -1.21875 
Q 17.046875 -1.21875 10.546875 5.046875 
Q 4.046875 11.328125 4.046875 20.703125 
Q 4.046875 27.6875 7.59375 32.390625 
Q 11.140625 37.109375 17.671875 38.8125 
z
M 15.921875 53.71875 
Q 15.921875 48.640625 19.1875 45.40625 
Q 22.46875 42.1875 27.6875 42.1875 
Q 32.765625 42.1875 36.015625 45.375 
Q 39.265625 48.578125 39.265625 53.21875 
Q 39.265625 58.0625 35.90625 61.359375 
Q 32.5625 64.65625 27.59375 64.65625 
Q 22.5625 64.65625 19.234375 61.421875 
Q 15.921875 58.203125 15.921875 53.71875 
z
M 13.09375 20.65625 
Q 13.09375 16.890625 14.875 13.375 
Q 16.65625 9.859375 20.171875 7.921875 
Q 23.6875 6 27.734375 6 
Q 34.03125 6 38.125 10.046875 
Q 42.234375 14.109375 42.234375 20.359375 
Q 42.234375 26.703125 38.015625 30.859375 
Q 33.796875 35.015625 27.4375 35.015625 
Q 21.234375 35.015625 17.15625 30.90625 
Q 13.09375 26.8125 13.09375 20.65625 
z
" id="ArialMT-56"/>
       </defs>
       <g style="fill:#262626;" transform="translate(398.3 193.555501)scale(0.11 -0.11)">
        <use xlink:href="#ArialMT-8722"/>
        <use x="58.398438" xlink:href="#ArialMT-49"/>
        <use x="114.013672" xlink:href="#ArialMT-51"/>
        <use x="169.628906" xlink:href="#ArialMT-46"/>
        <use x="197.412109" xlink:href="#ArialMT-56"/>
        <use x="253.027344" xlink:href="#ArialMT-54"/>
       </g>
      </g>
     </g>
     <g id="ytick_6">
      <g id="line2d_11">
       <path clip-path="url(#p685f1ff903)" d="M 388.8 177.030885 
L 388.8 177.030885 
" style="fill:none;stroke:#ffffff;stroke-linecap:round;"/>
      </g>
      <g id="line2d_12">
       <g>
        <use style="fill:#262626;stroke:#262626;stroke-width:1.25;" x="388.8" xlink:href="#m2f408ce587" y="177.030885"/>
       </g>
      </g>
      <g id="text_6">
       <!-- −27.73 -->
       <defs>
        <path d="M 4.734375 62.203125 
L 4.734375 70.65625 
L 51.078125 70.65625 
L 51.078125 63.8125 
Q 44.234375 56.546875 37.515625 44.484375 
Q 30.8125 32.421875 27.15625 19.671875 
Q 24.515625 10.6875 23.78125 0 
L 14.75 0 
Q 14.890625 8.453125 18.0625 20.40625 
Q 21.234375 32.375 27.171875 43.484375 
Q 33.109375 54.59375 39.796875 62.203125 
z
" id="ArialMT-55"/>
       </defs>
       <g style="fill:#262626;" transform="translate(398.3 180.967682)scale(0.11 -0.11)">
        <use xlink:href="#ArialMT-8722"/>
        <use x="58.398438" xlink:href="#ArialMT-50"/>
        <use x="114.013672" xlink:href="#ArialMT-55"/>
        <use x="169.628906" xlink:href="#ArialMT-46"/>
        <use x="197.412109" xlink:href="#ArialMT-55"/>
        <use x="253.027344" xlink:href="#ArialMT-51"/>
       </g>
      </g>
     </g>
     <g id="ytick_7">
      <g id="line2d_13">
       <path clip-path="url(#p685f1ff903)" d="M 388.8 151.855247 
L 388.8 151.855247 
" style="fill:none;stroke:#ffffff;stroke-linecap:round;"/>
      </g>
      <g id="line2d_14">
       <g>
        <use style="fill:#262626;stroke:#262626;stroke-width:1.25;" x="388.8" xlink:href="#m2f408ce587" y="151.855247"/>
       </g>
      </g>
      <g id="text_7">
       <!-- 27.73 -->
       <g style="fill:#262626;" transform="translate(398.3 155.792044)scale(0.11 -0.11)">
        <use xlink:href="#ArialMT-50"/>
        <use x="55.615234" xlink:href="#ArialMT-55"/>
        <use x="111.230469" xlink:href="#ArialMT-46"/>
        <use x="139.013672" xlink:href="#ArialMT-55"/>
        <use x="194.628906" xlink:href="#ArialMT-51"/>
       </g>
      </g>
     </g>
     <g id="ytick_8">
      <g id="line2d_15">
       <path clip-path="url(#p685f1ff903)" d="M 388.8 139.267428 
L 388.8 139.267428 
" style="fill:none;stroke:#ffffff;stroke-linecap:round;"/>
      </g>
      <g id="line2d_16">
       <g>
        <use style="fill:#262626;stroke:#262626;stroke-width:1.25;" x="388.8" xlink:href="#m2f408ce587" y="139.267428"/>
       </g>
      </g>
      <g id="text_8">
       <!-- 13.86 -->
       <g style="fill:#262626;" transform="translate(398.3 143.204225)scale(0.11 -0.11)">
        <use xlink:href="#ArialMT-49"/>
        <use x="55.615234" xlink:href="#ArialMT-51"/>
        <use x="111.230469" xlink:href="#ArialMT-46"/>
        <use x="139.013672" xlink:href="#ArialMT-56"/>
        <use x="194.628906" xlink:href="#ArialMT-54"/>
       </g>
      </g>
     </g>
     <g id="ytick_9">
      <g id="line2d_17">
       <path clip-path="url(#p685f1ff903)" d="M 388.8 126.679609 
L 388.8 126.679609 
" style="fill:none;stroke:#ffffff;stroke-linecap:round;"/>
      </g>
      <g id="line2d_18">
       <g>
        <use style="fill:#262626;stroke:#262626;stroke-width:1.25;" x="388.8" xlink:href="#m2f408ce587" y="126.679609"/>
       </g>
      </g>
      <g id="text_9">
       <!-- 9.24 -->
       <g style="fill:#262626;" transform="translate(398.3 130.616406)scale(0.11 -0.11)">
        <use xlink:href="#ArialMT-57"/>
        <use x="55.615234" xlink:href="#ArialMT-46"/>
        <use x="83.398438" xlink:href="#ArialMT-50"/>
        <use x="139.013672" xlink:href="#ArialMT-52"/>
       </g>
      </g>
     </g>
     <g id="ytick_10">
      <g id="line2d_19">
       <path clip-path="url(#p685f1ff903)" d="M 388.8 114.09179 
L 388.8 114.09179 
" style="fill:none;stroke:#ffffff;stroke-linecap:round;"/>
      </g>
      <g id="line2d_20">
       <g>
        <use style="fill:#262626;stroke:#262626;stroke-width:1.25;" x="388.8" xlink:href="#m2f408ce587" y="114.09179"/>
       </g>
      </g>
      <g id="text_10">
       <!-- 6.93 -->
       <g style="fill:#262626;" transform="translate(398.3 118.028587)scale(0.11 -0.11)">
        <use xlink:href="#ArialMT-54"/>
        <use x="55.615234" xlink:href="#ArialMT-46"/>
        <use x="83.398438" xlink:href="#ArialMT-57"/>
        <use x="139.013672" xlink:href="#ArialMT-51"/>
       </g>
      </g>
     </g>
     <g id="ytick_11">
      <g id="line2d_21">
       <path clip-path="url(#p685f1ff903)" d="M 388.8 101.503971 
L 388.8 101.503971 
" style="fill:none;stroke:#ffffff;stroke-linecap:round;"/>
      </g>
      <g id="line2d_22">
       <g>
        <use style="fill:#262626;stroke:#262626;stroke-width:1.25;" x="388.8" xlink:href="#m2f408ce587" y="101.503971"/>
       </g>
      </g>
      <g id="text_11">
       <!-- 5.55 -->
       <g style="fill:#262626;" transform="translate(398.3 105.440768)scale(0.11 -0.11)">
        <use xlink:href="#ArialMT-53"/>
        <use x="55.615234" xlink:href="#ArialMT-46"/>
        <use x="83.398438" xlink:href="#ArialMT-53"/>
        <use x="139.013672" xlink:href="#ArialMT-53"/>
       </g>
      </g>
     </g>
     <g id="ytick_12">
      <g id="line2d_23">
       <path clip-path="url(#p685f1ff903)" d="M 388.8 88.916152 
L 388.8 88.916152 
" style="fill:none;stroke:#ffffff;stroke-linecap:round;"/>
      </g>
      <g id="line2d_24">
       <g>
        <use style="fill:#262626;stroke:#262626;stroke-width:1.25;" x="388.8" xlink:href="#m2f408ce587" y="88.916152"/>
       </g>
      </g>
      <g id="text_12">
       <!-- 4.62 -->
       <g style="fill:#262626;" transform="translate(398.3 92.852949)scale(0.11 -0.11)">
        <use xlink:href="#ArialMT-52"/>
        <use x="55.615234" xlink:href="#ArialMT-46"/>
        <use x="83.398438" xlink:href="#ArialMT-54"/>
        <use x="139.013672" xlink:href="#ArialMT-50"/>
       </g>
      </g>
     </g>
     <g id="ytick_13">
      <g id="line2d_25">
       <path clip-path="url(#p685f1ff903)" d="M 388.8 76.328333 
L 388.8 76.328333 
" style="fill:none;stroke:#ffffff;stroke-linecap:round;"/>
      </g>
      <g id="line2d_26">
       <g>
        <use style="fill:#262626;stroke:#262626;stroke-width:1.25;" x="388.8" xlink:href="#m2f408ce587" y="76.328333"/>
       </g>
      </g>
      <g id="text_13">
       <!-- 3.96 -->
       <g style="fill:#262626;" transform="translate(398.3 80.26513)scale(0.11 -0.11)">
        <use xlink:href="#ArialMT-51"/>
        <use x="55.615234" xlink:href="#ArialMT-46"/>
        <use x="83.398438" xlink:href="#ArialMT-57"/>
        <use x="139.013672" xlink:href="#ArialMT-54"/>
       </g>
      </g>
     </g>
     <g id="ytick_14">
      <g id="line2d_27">
       <path clip-path="url(#p685f1ff903)" d="M 388.8 63.740514 
L 388.8 63.740514 
" style="fill:none;stroke:#ffffff;stroke-linecap:round;"/>
      </g>
      <g id="line2d_28">
       <g>
        <use style="fill:#262626;stroke:#262626;stroke-width:1.25;" x="388.8" xlink:href="#m2f408ce587" y="63.740514"/>
       </g>
      </g>
      <g id="text_14">
       <!-- 3.47 -->
       <g style="fill:#262626;" transform="translate(398.3 67.677311)scale(0.11 -0.11)">
        <use xlink:href="#ArialMT-51"/>
        <use x="55.615234" xlink:href="#ArialMT-46"/>
        <use x="83.398438" xlink:href="#ArialMT-52"/>
        <use x="139.013672" xlink:href="#ArialMT-55"/>
       </g>
      </g>
     </g>
     <g id="ytick_15">
      <g id="line2d_29">
       <path clip-path="url(#p685f1ff903)" d="M 388.8 51.152695 
L 388.8 51.152695 
" style="fill:none;stroke:#ffffff;stroke-linecap:round;"/>
      </g>
      <g id="line2d_30">
       <g>
        <use style="fill:#262626;stroke:#262626;stroke-width:1.25;" x="388.8" xlink:href="#m2f408ce587" y="51.152695"/>
       </g>
      </g>
      <g id="text_15">
       <!-- 3.08 -->
       <defs>
        <path d="M 4.15625 35.296875 
Q 4.15625 48 6.765625 55.734375 
Q 9.375 63.484375 14.515625 67.671875 
Q 19.671875 71.875 27.484375 71.875 
Q 33.25 71.875 37.59375 69.546875 
Q 41.9375 67.234375 44.765625 62.859375 
Q 47.609375 58.5 49.21875 52.21875 
Q 50.828125 45.953125 50.828125 35.296875 
Q 50.828125 22.703125 48.234375 14.96875 
Q 45.65625 7.234375 40.5 3 
Q 35.359375 -1.21875 27.484375 -1.21875 
Q 17.140625 -1.21875 11.234375 6.203125 
Q 4.15625 15.140625 4.15625 35.296875 
z
M 13.1875 35.296875 
Q 13.1875 17.671875 17.3125 11.828125 
Q 21.4375 6 27.484375 6 
Q 33.546875 6 37.671875 11.859375 
Q 41.796875 17.71875 41.796875 35.296875 
Q 41.796875 52.984375 37.671875 58.78125 
Q 33.546875 64.59375 27.390625 64.59375 
Q 21.34375 64.59375 17.71875 59.46875 
Q 13.1875 52.9375 13.1875 35.296875 
z
" id="ArialMT-48"/>
       </defs>
       <g style="fill:#262626;" transform="translate(398.3 55.089492)scale(0.11 -0.11)">
        <use xlink:href="#ArialMT-51"/>
        <use x="55.615234" xlink:href="#ArialMT-46"/>
        <use x="83.398438" xlink:href="#ArialMT-48"/>
        <use x="139.013672" xlink:href="#ArialMT-56"/>
       </g>
      </g>
     </g>
     <g id="ytick_16">
      <g id="line2d_31">
       <path clip-path="url(#p685f1ff903)" d="M 388.8 38.564876 
L 388.8 38.564876 
" style="fill:none;stroke:#ffffff;stroke-linecap:round;"/>
      </g>
      <g id="line2d_32">
       <g>
        <use style="fill:#262626;stroke:#262626;stroke-width:1.25;" x="388.8" xlink:href="#m2f408ce587" y="38.564876"/>
       </g>
      </g>
      <g id="text_16">
       <!-- 2.77 -->
       <g style="fill:#262626;" transform="translate(398.3 42.501673)scale(0.11 -0.11)">
        <use xlink:href="#ArialMT-50"/>
        <use x="55.615234" xlink:href="#ArialMT-46"/>
        <use x="83.398438" xlink:href="#ArialMT-55"/>
        <use x="139.013672" xlink:href="#ArialMT-55"/>
       </g>
      </g>
     </g>
     <g id="text_17">
      <!-- Halving / doubling times (days) -->
      <defs>
       <path d="M 8.015625 0 
L 8.015625 71.578125 
L 17.484375 71.578125 
L 17.484375 42.1875 
L 54.6875 42.1875 
L 54.6875 71.578125 
L 64.15625 71.578125 
L 64.15625 0 
L 54.6875 0 
L 54.6875 33.734375 
L 17.484375 33.734375 
L 17.484375 0 
z
" id="ArialMT-72"/>
       <path d="M 40.4375 6.390625 
Q 35.546875 2.25 31.03125 0.53125 
Q 26.515625 -1.171875 21.34375 -1.171875 
Q 12.796875 -1.171875 8.203125 3 
Q 3.609375 7.171875 3.609375 13.671875 
Q 3.609375 17.484375 5.34375 20.625 
Q 7.078125 23.78125 9.890625 25.6875 
Q 12.703125 27.59375 16.21875 28.5625 
Q 18.796875 29.25 24.03125 29.890625 
Q 34.671875 31.15625 39.703125 32.90625 
Q 39.75 34.71875 39.75 35.203125 
Q 39.75 40.578125 37.25 42.78125 
Q 33.890625 45.75 27.25 45.75 
Q 21.046875 45.75 18.09375 43.578125 
Q 15.140625 41.40625 13.71875 35.890625 
L 5.125 37.0625 
Q 6.296875 42.578125 8.984375 45.96875 
Q 11.671875 49.359375 16.75 51.1875 
Q 21.828125 53.03125 28.515625 53.03125 
Q 35.15625 53.03125 39.296875 51.46875 
Q 43.453125 49.90625 45.40625 47.53125 
Q 47.359375 45.171875 48.140625 41.546875 
Q 48.578125 39.3125 48.578125 33.453125 
L 48.578125 21.734375 
Q 48.578125 9.46875 49.140625 6.21875 
Q 49.703125 2.984375 51.375 0 
L 42.1875 0 
Q 40.828125 2.734375 40.4375 6.390625 
z
M 39.703125 26.03125 
Q 34.90625 24.078125 25.34375 22.703125 
Q 19.921875 21.921875 17.671875 20.9375 
Q 15.4375 19.96875 14.203125 18.09375 
Q 12.984375 16.21875 12.984375 13.921875 
Q 12.984375 10.40625 15.640625 8.0625 
Q 18.3125 5.71875 23.4375 5.71875 
Q 28.515625 5.71875 32.46875 7.9375 
Q 36.421875 10.15625 38.28125 14.015625 
Q 39.703125 17 39.703125 22.796875 
z
" id="ArialMT-97"/>
       <path d="M 6.390625 0 
L 6.390625 71.578125 
L 15.1875 71.578125 
L 15.1875 0 
z
" id="ArialMT-108"/>
       <path d="M 21 0 
L 1.265625 51.859375 
L 10.546875 51.859375 
L 21.6875 20.796875 
Q 23.484375 15.765625 25 10.359375 
Q 26.171875 14.453125 28.265625 20.21875 
L 39.796875 51.859375 
L 48.828125 51.859375 
L 29.203125 0 
z
" id="ArialMT-118"/>
       <path d="M 6.640625 61.46875 
L 6.640625 71.578125 
L 15.4375 71.578125 
L 15.4375 61.46875 
z
M 6.640625 0 
L 6.640625 51.859375 
L 15.4375 51.859375 
L 15.4375 0 
z
" id="ArialMT-105"/>
       <path d="M 6.59375 0 
L 6.59375 51.859375 
L 14.5 51.859375 
L 14.5 44.484375 
Q 20.21875 53.03125 31 53.03125 
Q 35.6875 53.03125 39.625 51.34375 
Q 43.5625 49.65625 45.515625 46.921875 
Q 47.46875 44.1875 48.25 40.4375 
Q 48.734375 37.984375 48.734375 31.890625 
L 48.734375 0 
L 39.9375 0 
L 39.9375 31.546875 
Q 39.9375 36.921875 38.90625 39.578125 
Q 37.890625 42.234375 35.28125 43.8125 
Q 32.671875 45.40625 29.15625 45.40625 
Q 23.53125 45.40625 19.453125 41.84375 
Q 15.375 38.28125 15.375 28.328125 
L 15.375 0 
z
" id="ArialMT-110"/>
       <path d="M 4.984375 -4.296875 
L 13.53125 -5.5625 
Q 14.0625 -9.515625 16.5 -11.328125 
Q 19.78125 -13.765625 25.4375 -13.765625 
Q 31.546875 -13.765625 34.859375 -11.328125 
Q 38.1875 -8.890625 39.359375 -4.5 
Q 40.046875 -1.8125 39.984375 6.78125 
Q 34.234375 0 25.640625 0 
Q 14.9375 0 9.078125 7.71875 
Q 3.21875 15.4375 3.21875 26.21875 
Q 3.21875 33.640625 5.90625 39.90625 
Q 8.59375 46.1875 13.6875 49.609375 
Q 18.796875 53.03125 25.6875 53.03125 
Q 34.859375 53.03125 40.828125 45.609375 
L 40.828125 51.859375 
L 48.921875 51.859375 
L 48.921875 7.03125 
Q 48.921875 -5.078125 46.453125 -10.125 
Q 44 -15.1875 38.640625 -18.109375 
Q 33.296875 -21.046875 25.484375 -21.046875 
Q 16.21875 -21.046875 10.5 -16.875 
Q 4.78125 -12.703125 4.984375 -4.296875 
z
M 12.25 26.859375 
Q 12.25 16.65625 16.296875 11.96875 
Q 20.359375 7.28125 26.46875 7.28125 
Q 32.515625 7.28125 36.609375 11.9375 
Q 40.71875 16.609375 40.71875 26.5625 
Q 40.71875 36.078125 36.5 40.90625 
Q 32.28125 45.75 26.3125 45.75 
Q 20.453125 45.75 16.34375 40.984375 
Q 12.25 36.234375 12.25 26.859375 
z
" id="ArialMT-103"/>
       <path id="ArialMT-32"/>
       <path d="M 0 -1.21875 
L 20.75 72.796875 
L 27.78125 72.796875 
L 7.078125 -1.21875 
z
" id="ArialMT-47"/>
       <path d="M 40.234375 0 
L 40.234375 6.546875 
Q 35.296875 -1.171875 25.734375 -1.171875 
Q 19.53125 -1.171875 14.328125 2.25 
Q 9.125 5.671875 6.265625 11.796875 
Q 3.421875 17.921875 3.421875 25.875 
Q 3.421875 33.640625 6 39.96875 
Q 8.59375 46.296875 13.765625 49.65625 
Q 18.953125 53.03125 25.34375 53.03125 
Q 30.03125 53.03125 33.6875 51.046875 
Q 37.359375 49.078125 39.65625 45.90625 
L 39.65625 71.578125 
L 48.390625 71.578125 
L 48.390625 0 
z
M 12.453125 25.875 
Q 12.453125 15.921875 16.640625 10.984375 
Q 20.84375 6.0625 26.5625 6.0625 
Q 32.328125 6.0625 36.34375 10.765625 
Q 40.375 15.484375 40.375 25.140625 
Q 40.375 35.796875 36.265625 40.765625 
Q 32.171875 45.75 26.171875 45.75 
Q 20.3125 45.75 16.375 40.96875 
Q 12.453125 36.1875 12.453125 25.875 
z
" id="ArialMT-100"/>
       <path d="M 3.328125 25.921875 
Q 3.328125 40.328125 11.328125 47.265625 
Q 18.015625 53.03125 27.640625 53.03125 
Q 38.328125 53.03125 45.109375 46.015625 
Q 51.90625 39.015625 51.90625 26.65625 
Q 51.90625 16.65625 48.90625 10.90625 
Q 45.90625 5.171875 40.15625 2 
Q 34.421875 -1.171875 27.640625 -1.171875 
Q 16.75 -1.171875 10.03125 5.8125 
Q 3.328125 12.796875 3.328125 25.921875 
z
M 12.359375 25.921875 
Q 12.359375 15.96875 16.703125 11.015625 
Q 21.046875 6.0625 27.640625 6.0625 
Q 34.1875 6.0625 38.53125 11.03125 
Q 42.875 16.015625 42.875 26.21875 
Q 42.875 35.84375 38.5 40.796875 
Q 34.125 45.75 27.640625 45.75 
Q 21.046875 45.75 16.703125 40.8125 
Q 12.359375 35.890625 12.359375 25.921875 
z
" id="ArialMT-111"/>
       <path d="M 40.578125 0 
L 40.578125 7.625 
Q 34.515625 -1.171875 24.125 -1.171875 
Q 19.53125 -1.171875 15.546875 0.578125 
Q 11.578125 2.34375 9.640625 5 
Q 7.71875 7.671875 6.9375 11.53125 
Q 6.390625 14.109375 6.390625 19.734375 
L 6.390625 51.859375 
L 15.1875 51.859375 
L 15.1875 23.09375 
Q 15.1875 16.21875 15.71875 13.8125 
Q 16.546875 10.359375 19.234375 8.375 
Q 21.921875 6.390625 25.875 6.390625 
Q 29.828125 6.390625 33.296875 8.421875 
Q 36.765625 10.453125 38.203125 13.9375 
Q 39.65625 17.4375 39.65625 24.078125 
L 39.65625 51.859375 
L 48.4375 51.859375 
L 48.4375 0 
z
" id="ArialMT-117"/>
       <path d="M 14.703125 0 
L 6.546875 0 
L 6.546875 71.578125 
L 15.328125 71.578125 
L 15.328125 46.046875 
Q 20.90625 53.03125 29.546875 53.03125 
Q 34.328125 53.03125 38.59375 51.09375 
Q 42.875 49.171875 45.625 45.671875 
Q 48.390625 42.1875 49.953125 37.25 
Q 51.515625 32.328125 51.515625 26.703125 
Q 51.515625 13.375 44.921875 6.09375 
Q 38.328125 -1.171875 29.109375 -1.171875 
Q 19.921875 -1.171875 14.703125 6.5 
z
M 14.59375 26.3125 
Q 14.59375 17 17.140625 12.84375 
Q 21.296875 6.0625 28.375 6.0625 
Q 34.125 6.0625 38.328125 11.0625 
Q 42.53125 16.0625 42.53125 25.984375 
Q 42.53125 36.140625 38.5 40.96875 
Q 34.46875 45.796875 28.765625 45.796875 
Q 23 45.796875 18.796875 40.796875 
Q 14.59375 35.796875 14.59375 26.3125 
z
" id="ArialMT-98"/>
       <path d="M 25.78125 7.859375 
L 27.046875 0.09375 
Q 23.34375 -0.6875 20.40625 -0.6875 
Q 15.625 -0.6875 12.984375 0.828125 
Q 10.359375 2.34375 9.28125 4.8125 
Q 8.203125 7.28125 8.203125 15.1875 
L 8.203125 45.015625 
L 1.765625 45.015625 
L 1.765625 51.859375 
L 8.203125 51.859375 
L 8.203125 64.703125 
L 16.9375 69.96875 
L 16.9375 51.859375 
L 25.78125 51.859375 
L 25.78125 45.015625 
L 16.9375 45.015625 
L 16.9375 14.703125 
Q 16.9375 10.9375 17.40625 9.859375 
Q 17.875 8.796875 18.921875 8.15625 
Q 19.96875 7.515625 21.921875 7.515625 
Q 23.390625 7.515625 25.78125 7.859375 
z
" id="ArialMT-116"/>
       <path d="M 6.59375 0 
L 6.59375 51.859375 
L 14.453125 51.859375 
L 14.453125 44.578125 
Q 16.890625 48.390625 20.9375 50.703125 
Q 25 53.03125 30.171875 53.03125 
Q 35.9375 53.03125 39.625 50.640625 
Q 43.3125 48.25 44.828125 43.953125 
Q 50.984375 53.03125 60.84375 53.03125 
Q 68.5625 53.03125 72.703125 48.75 
Q 76.859375 44.484375 76.859375 35.59375 
L 76.859375 0 
L 68.109375 0 
L 68.109375 32.671875 
Q 68.109375 37.9375 67.25 40.25 
Q 66.40625 42.578125 64.15625 43.984375 
Q 61.921875 45.40625 58.890625 45.40625 
Q 53.421875 45.40625 49.796875 41.765625 
Q 46.1875 38.140625 46.1875 30.125 
L 46.1875 0 
L 37.40625 0 
L 37.40625 33.6875 
Q 37.40625 39.546875 35.25 42.46875 
Q 33.109375 45.40625 28.21875 45.40625 
Q 24.515625 45.40625 21.359375 43.453125 
Q 18.21875 41.5 16.796875 37.734375 
Q 15.375 33.984375 15.375 26.90625 
L 15.375 0 
z
" id="ArialMT-109"/>
       <path d="M 42.09375 16.703125 
L 51.171875 15.578125 
Q 49.03125 7.625 43.21875 3.21875 
Q 37.40625 -1.171875 28.375 -1.171875 
Q 17 -1.171875 10.328125 5.828125 
Q 3.65625 12.84375 3.65625 25.484375 
Q 3.65625 38.578125 10.390625 45.796875 
Q 17.140625 53.03125 27.875 53.03125 
Q 38.28125 53.03125 44.875 45.953125 
Q 51.46875 38.875 51.46875 26.03125 
Q 51.46875 25.25 51.421875 23.6875 
L 12.75 23.6875 
Q 13.234375 15.140625 17.578125 10.59375 
Q 21.921875 6.0625 28.421875 6.0625 
Q 33.25 6.0625 36.671875 8.59375 
Q 40.09375 11.140625 42.09375 16.703125 
z
M 13.234375 30.90625 
L 42.1875 30.90625 
Q 41.609375 37.453125 38.875 40.71875 
Q 34.671875 45.796875 27.984375 45.796875 
Q 21.921875 45.796875 17.796875 41.75 
Q 13.671875 37.703125 13.234375 30.90625 
z
" id="ArialMT-101"/>
       <path d="M 3.078125 15.484375 
L 11.765625 16.84375 
Q 12.5 11.625 15.84375 8.84375 
Q 19.1875 6.0625 25.203125 6.0625 
Q 31.25 6.0625 34.171875 8.515625 
Q 37.109375 10.984375 37.109375 14.3125 
Q 37.109375 17.28125 34.515625 19 
Q 32.71875 20.171875 25.53125 21.96875 
Q 15.875 24.421875 12.140625 26.203125 
Q 8.40625 27.984375 6.46875 31.125 
Q 4.546875 34.28125 4.546875 38.09375 
Q 4.546875 41.546875 6.125 44.5 
Q 7.71875 47.46875 10.453125 49.421875 
Q 12.5 50.921875 16.03125 51.96875 
Q 19.578125 53.03125 23.640625 53.03125 
Q 29.734375 53.03125 34.34375 51.265625 
Q 38.96875 49.515625 41.15625 46.5 
Q 43.359375 43.5 44.1875 38.484375 
L 35.59375 37.3125 
Q 35.015625 41.3125 32.203125 43.546875 
Q 29.390625 45.796875 24.265625 45.796875 
Q 18.21875 45.796875 15.625 43.796875 
Q 13.03125 41.796875 13.03125 39.109375 
Q 13.03125 37.40625 14.109375 36.03125 
Q 15.1875 34.625 17.484375 33.6875 
Q 18.796875 33.203125 25.25 31.453125 
Q 34.578125 28.953125 38.25 27.359375 
Q 41.9375 25.78125 44.03125 22.75 
Q 46.140625 19.734375 46.140625 15.234375 
Q 46.140625 10.84375 43.578125 6.953125 
Q 41.015625 3.078125 36.171875 0.953125 
Q 31.34375 -1.171875 25.25 -1.171875 
Q 15.140625 -1.171875 9.84375 3.03125 
Q 4.546875 7.234375 3.078125 15.484375 
z
" id="ArialMT-115"/>
       <path d="M 23.390625 -21.046875 
Q 16.109375 -11.859375 11.078125 0.4375 
Q 6.0625 12.75 6.0625 25.921875 
Q 6.0625 37.546875 9.8125 48.1875 
Q 14.203125 60.546875 23.390625 72.796875 
L 29.6875 72.796875 
Q 23.78125 62.640625 21.875 58.296875 
Q 18.890625 51.5625 17.1875 44.234375 
Q 15.09375 35.109375 15.09375 25.875 
Q 15.09375 2.390625 29.6875 -21.046875 
z
" id="ArialMT-40"/>
       <path d="M 6.203125 -19.96875 
L 5.21875 -11.71875 
Q 8.109375 -12.5 10.25 -12.5 
Q 13.1875 -12.5 14.9375 -11.515625 
Q 16.703125 -10.546875 17.828125 -8.796875 
Q 18.65625 -7.46875 20.515625 -2.25 
Q 20.75 -1.515625 21.296875 -0.09375 
L 1.609375 51.859375 
L 11.078125 51.859375 
L 21.875 21.828125 
Q 23.96875 16.109375 25.640625 9.8125 
Q 27.15625 15.875 29.25 21.625 
L 40.328125 51.859375 
L 49.125 51.859375 
L 29.390625 -0.875 
Q 26.21875 -9.421875 24.46875 -12.640625 
Q 22.125 -17 19.09375 -19.015625 
Q 16.0625 -21.046875 11.859375 -21.046875 
Q 9.328125 -21.046875 6.203125 -19.96875 
z
" id="ArialMT-121"/>
       <path d="M 12.359375 -21.046875 
L 6.0625 -21.046875 
Q 20.65625 2.390625 20.65625 25.875 
Q 20.65625 35.0625 18.5625 44.09375 
Q 16.890625 51.421875 13.921875 58.15625 
Q 12.015625 62.546875 6.0625 72.796875 
L 12.359375 72.796875 
Q 21.53125 60.546875 25.921875 48.1875 
Q 29.6875 37.546875 29.6875 25.921875 
Q 29.6875 12.75 24.625 0.4375 
Q 19.578125 -11.859375 12.359375 -21.046875 
z
" id="ArialMT-41"/>
      </defs>
      <g style="fill:#262626;" transform="translate(444.984375 225.312188)rotate(-90)scale(0.12 -0.12)">
       <use xlink:href="#ArialMT-72"/>
       <use x="72.216797" xlink:href="#ArialMT-97"/>
       <use x="127.832031" xlink:href="#ArialMT-108"/>
       <use x="150.048828" xlink:href="#ArialMT-118"/>
       <use x="200.048828" xlink:href="#ArialMT-105"/>
       <use x="222.265625" xlink:href="#ArialMT-110"/>
       <use x="277.880859" xlink:href="#ArialMT-103"/>
       <use x="333.496094" xlink:href="#ArialMT-32"/>
       <use x="361.279297" xlink:href="#ArialMT-47"/>
       <use x="389.0625" xlink:href="#ArialMT-32"/>
       <use x="416.845703" xlink:href="#ArialMT-100"/>
       <use x="472.460938" xlink:href="#ArialMT-111"/>
       <use x="528.076172" xlink:href="#ArialMT-117"/>
       <use x="583.691406" xlink:href="#ArialMT-98"/>
       <use x="639.306641" xlink:href="#ArialMT-108"/>
       <use x="661.523438" xlink:href="#ArialMT-105"/>
       <use x="683.740234" xlink:href="#ArialMT-110"/>
       <use x="739.355469" xlink:href="#ArialMT-103"/>
       <use x="794.970703" xlink:href="#ArialMT-32"/>
       <use x="822.753906" xlink:href="#ArialMT-116"/>
       <use x="850.537109" xlink:href="#ArialMT-105"/>
       <use x="872.753906" xlink:href="#ArialMT-109"/>
       <use x="956.054688" xlink:href="#ArialMT-101"/>
       <use x="1011.669922" xlink:href="#ArialMT-115"/>
       <use x="1061.669922" xlink:href="#ArialMT-32"/>
       <use x="1089.453125" xlink:href="#ArialMT-40"/>
       <use x="1122.753906" xlink:href="#ArialMT-100"/>
       <use x="1178.369141" xlink:href="#ArialMT-97"/>
       <use x="1233.984375" xlink:href="#ArialMT-121"/>
       <use x="1283.984375" xlink:href="#ArialMT-115"/>
       <use x="1333.984375" xlink:href="#ArialMT-41"/>
      </g>
     </g>
    </g>
    <g id="patch_4">
     <path d="M 388.8 252 
L 388.8 34.56 
" style="fill:none;stroke:#ffffff;stroke-linecap:square;stroke-linejoin:miter;stroke-width:1.25;"/>
    </g>
   </g>
   <g id="matplotlib.axis_3">
    <g id="xtick_1">
     <g id="line2d_33">
      <path clip-path="url(#p8d85707c55)" d="M 69.049163 252 
L 69.049163 34.56 
" style="fill:none;stroke:#ffffff;stroke-linecap:round;"/>
     </g>
     <g id="text_18">
      <!-- 0.0 -->
      <g style="fill:#262626;" transform="translate(61.404163 269.373594)scale(0.11 -0.11)">
       <use xlink:href="#ArialMT-48"/>
       <use x="55.615234" xlink:href="#ArialMT-46"/>
       <use x="83.398438" xlink:href="#ArialMT-48"/>
      </g>
     </g>
    </g>
    <g id="xtick_2">
     <g id="line2d_34">
      <path clip-path="url(#p8d85707c55)" d="M 138.742751 252 
L 138.742751 34.56 
" style="fill:none;stroke:#ffffff;stroke-linecap:round;"/>
     </g>
     <g id="text_19">
      <!-- 0.2 -->
      <g style="fill:#262626;" transform="translate(131.097751 269.373594)scale(0.11 -0.11)">
       <use xlink:href="#ArialMT-48"/>
       <use x="55.615234" xlink:href="#ArialMT-46"/>
       <use x="83.398438" xlink:href="#ArialMT-50"/>
      </g>
     </g>
    </g>
    <g id="xtick_3">
     <g id="line2d_35">
      <path clip-path="url(#p8d85707c55)" d="M 208.436339 252 
L 208.436339 34.56 
" style="fill:none;stroke:#ffffff;stroke-linecap:round;"/>
     </g>
     <g id="text_20">
      <!-- 0.4 -->
      <g style="fill:#262626;" transform="translate(200.791339 269.373594)scale(0.11 -0.11)">
       <use xlink:href="#ArialMT-48"/>
       <use x="55.615234" xlink:href="#ArialMT-46"/>
       <use x="83.398438" xlink:href="#ArialMT-52"/>
      </g>
     </g>
    </g>
    <g id="xtick_4">
     <g id="line2d_36">
      <path clip-path="url(#p8d85707c55)" d="M 278.129927 252 
L 278.129927 34.56 
" style="fill:none;stroke:#ffffff;stroke-linecap:round;"/>
     </g>
     <g id="text_21">
      <!-- 0.6 -->
      <g style="fill:#262626;" transform="translate(270.484927 269.373594)scale(0.11 -0.11)">
       <use xlink:href="#ArialMT-48"/>
       <use x="55.615234" xlink:href="#ArialMT-46"/>
       <use x="83.398438" xlink:href="#ArialMT-54"/>
      </g>
     </g>
    </g>
    <g id="xtick_5">
     <g id="line2d_37">
      <path clip-path="url(#p8d85707c55)" d="M 347.823514 252 
L 347.823514 34.56 
" style="fill:none;stroke:#ffffff;stroke-linecap:round;"/>
     </g>
     <g id="text_22">
      <!-- 0.8 -->
      <g style="fill:#262626;" transform="translate(340.178514 269.373594)scale(0.11 -0.11)">
       <use xlink:href="#ArialMT-48"/>
       <use x="55.615234" xlink:href="#ArialMT-46"/>
       <use x="83.398438" xlink:href="#ArialMT-56"/>
      </g>
     </g>
    </g>
    <g id="text_23">
     <!-- % Reduction in global contacts -->
     <defs>
      <path d="M 5.8125 54.390625 
Q 5.8125 62.0625 9.671875 67.421875 
Q 13.53125 72.796875 20.84375 72.796875 
Q 27.59375 72.796875 32 67.984375 
Q 36.421875 63.1875 36.421875 53.859375 
Q 36.421875 44.78125 31.953125 39.875 
Q 27.484375 34.96875 20.953125 34.96875 
Q 14.453125 34.96875 10.125 39.796875 
Q 5.8125 44.625 5.8125 54.390625 
z
M 21.09375 66.75 
Q 17.828125 66.75 15.65625 63.90625 
Q 13.484375 61.078125 13.484375 53.515625 
Q 13.484375 46.625 15.671875 43.8125 
Q 17.875 41.015625 21.09375 41.015625 
Q 24.421875 41.015625 26.59375 43.84375 
Q 28.765625 46.6875 28.765625 54.203125 
Q 28.765625 61.140625 26.5625 63.9375 
Q 24.359375 66.75 21.09375 66.75 
z
M 21.140625 -2.640625 
L 60.296875 72.796875 
L 67.4375 72.796875 
L 28.421875 -2.640625 
z
M 52.09375 16.796875 
Q 52.09375 24.515625 55.953125 29.859375 
Q 59.8125 35.203125 67.1875 35.203125 
Q 73.921875 35.203125 78.34375 30.390625 
Q 82.765625 25.59375 82.765625 16.265625 
Q 82.765625 7.171875 78.296875 2.265625 
Q 73.828125 -2.640625 67.234375 -2.640625 
Q 60.75 -2.640625 56.421875 2.21875 
Q 52.09375 7.078125 52.09375 16.796875 
z
M 67.4375 29.15625 
Q 64.109375 29.15625 61.9375 26.3125 
Q 59.765625 23.484375 59.765625 15.921875 
Q 59.765625 9.078125 61.953125 6.25 
Q 64.15625 3.421875 67.390625 3.421875 
Q 70.75 3.421875 72.921875 6.25 
Q 75.09375 9.078125 75.09375 16.609375 
Q 75.09375 23.53125 72.890625 26.34375 
Q 70.703125 29.15625 67.4375 29.15625 
z
" id="ArialMT-37"/>
      <path d="M 7.859375 0 
L 7.859375 71.578125 
L 39.59375 71.578125 
Q 49.171875 71.578125 54.140625 69.640625 
Q 59.125 67.71875 62.109375 62.828125 
Q 65.09375 57.953125 65.09375 52.046875 
Q 65.09375 44.4375 60.15625 39.203125 
Q 55.21875 33.984375 44.921875 32.5625 
Q 48.6875 30.765625 50.640625 29 
Q 54.78125 25.203125 58.5 19.484375 
L 70.953125 0 
L 59.03125 0 
L 49.5625 14.890625 
Q 45.40625 21.34375 42.71875 24.75 
Q 40.046875 28.171875 37.921875 29.53125 
Q 35.796875 30.90625 33.59375 31.453125 
Q 31.984375 31.78125 28.328125 31.78125 
L 17.328125 31.78125 
L 17.328125 0 
z
M 17.328125 39.984375 
L 37.703125 39.984375 
Q 44.1875 39.984375 47.84375 41.328125 
Q 51.515625 42.671875 53.421875 45.625 
Q 55.328125 48.578125 55.328125 52.046875 
Q 55.328125 57.125 51.640625 60.390625 
Q 47.953125 63.671875 39.984375 63.671875 
L 17.328125 63.671875 
z
" id="ArialMT-82"/>
      <path d="M 40.4375 19 
L 49.078125 17.875 
Q 47.65625 8.9375 41.8125 3.875 
Q 35.984375 -1.171875 27.484375 -1.171875 
Q 16.84375 -1.171875 10.375 5.78125 
Q 3.90625 12.75 3.90625 25.734375 
Q 3.90625 34.125 6.6875 40.421875 
Q 9.46875 46.734375 15.15625 49.875 
Q 20.84375 53.03125 27.546875 53.03125 
Q 35.984375 53.03125 41.359375 48.75 
Q 46.734375 44.484375 48.25 36.625 
L 39.703125 35.296875 
Q 38.484375 40.53125 35.375 43.15625 
Q 32.28125 45.796875 27.875 45.796875 
Q 21.234375 45.796875 17.078125 41.03125 
Q 12.9375 36.28125 12.9375 25.984375 
Q 12.9375 15.53125 16.9375 10.796875 
Q 20.953125 6.0625 27.390625 6.0625 
Q 32.5625 6.0625 36.03125 9.234375 
Q 39.5 12.40625 40.4375 19 
z
" id="ArialMT-99"/>
     </defs>
     <g style="fill:#262626;" transform="translate(139.355625 284.295469)scale(0.12 -0.12)">
      <use xlink:href="#ArialMT-37"/>
      <use x="88.916016" xlink:href="#ArialMT-32"/>
      <use x="116.699219" xlink:href="#ArialMT-82"/>
      <use x="188.916016" xlink:href="#ArialMT-101"/>
      <use x="244.53125" xlink:href="#ArialMT-100"/>
      <use x="300.146484" xlink:href="#ArialMT-117"/>
      <use x="355.761719" xlink:href="#ArialMT-99"/>
      <use x="405.761719" xlink:href="#ArialMT-116"/>
      <use x="433.544922" xlink:href="#ArialMT-105"/>
      <use x="455.761719" xlink:href="#ArialMT-111"/>
      <use x="511.376953" xlink:href="#ArialMT-110"/>
      <use x="566.992188" xlink:href="#ArialMT-32"/>
      <use x="594.775391" xlink:href="#ArialMT-105"/>
      <use x="616.992188" xlink:href="#ArialMT-110"/>
      <use x="672.607422" xlink:href="#ArialMT-32"/>
      <use x="700.390625" xlink:href="#ArialMT-103"/>
      <use x="756.005859" xlink:href="#ArialMT-108"/>
      <use x="778.222656" xlink:href="#ArialMT-111"/>
      <use x="833.837891" xlink:href="#ArialMT-98"/>
      <use x="889.453125" xlink:href="#ArialMT-97"/>
      <use x="945.068359" xlink:href="#ArialMT-108"/>
      <use x="967.285156" xlink:href="#ArialMT-32"/>
      <use x="995.068359" xlink:href="#ArialMT-99"/>
      <use x="1045.068359" xlink:href="#ArialMT-111"/>
      <use x="1100.683594" xlink:href="#ArialMT-110"/>
      <use x="1156.298828" xlink:href="#ArialMT-116"/>
      <use x="1184.082031" xlink:href="#ArialMT-97"/>
      <use x="1239.697266" xlink:href="#ArialMT-99"/>
      <use x="1289.697266" xlink:href="#ArialMT-116"/>
      <use x="1317.480469" xlink:href="#ArialMT-115"/>
     </g>
    </g>
   </g>
   <g id="matplotlib.axis_4">
    <g id="ytick_17">
     <g id="line2d_38">
      <path clip-path="url(#p8d85707c55)" d="M 54 239.96998 
L 388.8 239.96998 
" style="fill:none;stroke:#ffffff;stroke-linecap:round;"/>
     </g>
     <g id="text_24">
      <!-- −0.15 -->
      <g style="fill:#262626;" transform="translate(16.668281 243.906777)scale(0.11 -0.11)">
       <use xlink:href="#ArialMT-8722"/>
       <use x="58.398438" xlink:href="#ArialMT-48"/>
       <use x="114.013672" xlink:href="#ArialMT-46"/>
       <use x="141.796875" xlink:href="#ArialMT-49"/>
       <use x="197.412109" xlink:href="#ArialMT-53"/>
      </g>
     </g>
    </g>
    <g id="ytick_18">
     <g id="line2d_39">
      <path clip-path="url(#p8d85707c55)" d="M 54 214.794342 
L 388.8 214.794342 
" style="fill:none;stroke:#ffffff;stroke-linecap:round;"/>
     </g>
     <g id="text_25">
      <!-- −0.10 -->
      <g style="fill:#262626;" transform="translate(16.668281 218.731139)scale(0.11 -0.11)">
       <use xlink:href="#ArialMT-8722"/>
       <use x="58.398438" xlink:href="#ArialMT-48"/>
       <use x="114.013672" xlink:href="#ArialMT-46"/>
       <use x="141.796875" xlink:href="#ArialMT-49"/>
       <use x="197.412109" xlink:href="#ArialMT-48"/>
      </g>
     </g>
    </g>
    <g id="ytick_19">
     <g id="line2d_40">
      <path clip-path="url(#p8d85707c55)" d="M 54 189.618704 
L 388.8 189.618704 
" style="fill:none;stroke:#ffffff;stroke-linecap:round;"/>
     </g>
     <g id="text_26">
      <!-- −0.05 -->
      <g style="fill:#262626;" transform="translate(16.668281 193.555501)scale(0.11 -0.11)">
       <use xlink:href="#ArialMT-8722"/>
       <use x="58.398438" xlink:href="#ArialMT-48"/>
       <use x="114.013672" xlink:href="#ArialMT-46"/>
       <use x="141.796875" xlink:href="#ArialMT-48"/>
       <use x="197.412109" xlink:href="#ArialMT-53"/>
      </g>
     </g>
    </g>
    <g id="ytick_20">
     <g id="line2d_41">
      <path clip-path="url(#p8d85707c55)" d="M 54 164.443066 
L 388.8 164.443066 
" style="fill:none;stroke:#ffffff;stroke-linecap:round;"/>
     </g>
     <g id="text_27">
      <!-- 0.00 -->
      <g style="fill:#262626;" transform="translate(23.092969 168.379863)scale(0.11 -0.11)">
       <use xlink:href="#ArialMT-48"/>
       <use x="55.615234" xlink:href="#ArialMT-46"/>
       <use x="83.398438" xlink:href="#ArialMT-48"/>
       <use x="139.013672" xlink:href="#ArialMT-48"/>
      </g>
     </g>
    </g>
    <g id="ytick_21">
     <g id="line2d_42">
      <path clip-path="url(#p8d85707c55)" d="M 54 139.267428 
L 388.8 139.267428 
" style="fill:none;stroke:#ffffff;stroke-linecap:round;"/>
     </g>
     <g id="text_28">
      <!-- 0.05 -->
      <g style="fill:#262626;" transform="translate(23.092969 143.204225)scale(0.11 -0.11)">
       <use xlink:href="#ArialMT-48"/>
       <use x="55.615234" xlink:href="#ArialMT-46"/>
       <use x="83.398438" xlink:href="#ArialMT-48"/>
       <use x="139.013672" xlink:href="#ArialMT-53"/>
      </g>
     </g>
    </g>
    <g id="ytick_22">
     <g id="line2d_43">
      <path clip-path="url(#p8d85707c55)" d="M 54 114.09179 
L 388.8 114.09179 
" style="fill:none;stroke:#ffffff;stroke-linecap:round;"/>
     </g>
     <g id="text_29">
      <!-- 0.10 -->
      <g style="fill:#262626;" transform="translate(23.092969 118.028587)scale(0.11 -0.11)">
       <use xlink:href="#ArialMT-48"/>
       <use x="55.615234" xlink:href="#ArialMT-46"/>
       <use x="83.398438" xlink:href="#ArialMT-49"/>
       <use x="139.013672" xlink:href="#ArialMT-48"/>
      </g>
     </g>
    </g>
    <g id="ytick_23">
     <g id="line2d_44">
      <path clip-path="url(#p8d85707c55)" d="M 54 88.916152 
L 388.8 88.916152 
" style="fill:none;stroke:#ffffff;stroke-linecap:round;"/>
     </g>
     <g id="text_30">
      <!-- 0.15 -->
      <g style="fill:#262626;" transform="translate(23.092969 92.852949)scale(0.11 -0.11)">
       <use xlink:href="#ArialMT-48"/>
       <use x="55.615234" xlink:href="#ArialMT-46"/>
       <use x="83.398438" xlink:href="#ArialMT-49"/>
       <use x="139.013672" xlink:href="#ArialMT-53"/>
      </g>
     </g>
    </g>
    <g id="ytick_24">
     <g id="line2d_45">
      <path clip-path="url(#p8d85707c55)" d="M 54 63.740514 
L 388.8 63.740514 
" style="fill:none;stroke:#ffffff;stroke-linecap:round;"/>
     </g>
     <g id="text_31">
      <!-- 0.20 -->
      <g style="fill:#262626;" transform="translate(23.092969 67.677311)scale(0.11 -0.11)">
       <use xlink:href="#ArialMT-48"/>
       <use x="55.615234" xlink:href="#ArialMT-46"/>
       <use x="83.398438" xlink:href="#ArialMT-50"/>
       <use x="139.013672" xlink:href="#ArialMT-48"/>
      </g>
     </g>
    </g>
    <g id="ytick_25">
     <g id="line2d_46">
      <path clip-path="url(#p8d85707c55)" d="M 54 38.564876 
L 388.8 38.564876 
" style="fill:none;stroke:#ffffff;stroke-linecap:round;"/>
     </g>
     <g id="text_32">
      <!-- 0.25 -->
      <g style="fill:#262626;" transform="translate(23.092969 42.501673)scale(0.11 -0.11)">
       <use xlink:href="#ArialMT-48"/>
       <use x="55.615234" xlink:href="#ArialMT-46"/>
       <use x="83.398438" xlink:href="#ArialMT-50"/>
       <use x="139.013672" xlink:href="#ArialMT-53"/>
      </g>
     </g>
    </g>
    <g id="text_33">
     <!-- Growth Rate -->
     <defs>
      <path d="M 41.21875 28.078125 
L 41.21875 36.46875 
L 71.53125 36.53125 
L 71.53125 9.96875 
Q 64.546875 4.390625 57.125 1.578125 
Q 49.703125 -1.21875 41.890625 -1.21875 
Q 31.34375 -1.21875 22.71875 3.296875 
Q 14.109375 7.8125 9.71875 16.359375 
Q 5.328125 24.90625 5.328125 35.453125 
Q 5.328125 45.90625 9.6875 54.953125 
Q 14.0625 64.015625 22.265625 68.40625 
Q 30.46875 72.796875 41.15625 72.796875 
Q 48.921875 72.796875 55.1875 70.28125 
Q 61.46875 67.78125 65.03125 63.28125 
Q 68.609375 58.796875 70.453125 51.5625 
L 61.921875 49.21875 
Q 60.296875 54.6875 57.90625 57.8125 
Q 55.515625 60.9375 51.0625 62.8125 
Q 46.625 64.703125 41.21875 64.703125 
Q 34.71875 64.703125 29.984375 62.71875 
Q 25.25 60.75 22.34375 57.515625 
Q 19.4375 54.296875 17.828125 50.4375 
Q 15.09375 43.796875 15.09375 36.03125 
Q 15.09375 26.46875 18.390625 20.015625 
Q 21.6875 13.578125 27.984375 10.453125 
Q 34.28125 7.328125 41.359375 7.328125 
Q 47.515625 7.328125 53.375 9.6875 
Q 59.234375 12.0625 62.25 14.75 
L 62.25 28.078125 
z
" id="ArialMT-71"/>
      <path d="M 6.5 0 
L 6.5 51.859375 
L 14.40625 51.859375 
L 14.40625 44 
Q 17.4375 49.515625 20 51.265625 
Q 22.5625 53.03125 25.640625 53.03125 
Q 30.078125 53.03125 34.671875 50.203125 
L 31.640625 42.046875 
Q 28.421875 43.953125 25.203125 43.953125 
Q 22.3125 43.953125 20.015625 42.21875 
Q 17.71875 40.484375 16.75 37.40625 
Q 15.28125 32.71875 15.28125 27.15625 
L 15.28125 0 
z
" id="ArialMT-114"/>
      <path d="M 16.15625 0 
L 0.296875 51.859375 
L 9.375 51.859375 
L 17.625 21.921875 
L 20.703125 10.796875 
Q 20.90625 11.625 23.390625 21.484375 
L 31.640625 51.859375 
L 40.671875 51.859375 
L 48.4375 21.78125 
L 51.03125 11.859375 
L 54 21.875 
L 62.890625 51.859375 
L 71.4375 51.859375 
L 55.21875 0 
L 46.09375 0 
L 37.84375 31.0625 
L 35.84375 39.890625 
L 25.34375 0 
z
" id="ArialMT-119"/>
      <path d="M 6.59375 0 
L 6.59375 71.578125 
L 15.375 71.578125 
L 15.375 45.90625 
Q 21.53125 53.03125 30.90625 53.03125 
Q 36.671875 53.03125 40.921875 50.75 
Q 45.171875 48.484375 47 44.484375 
Q 48.828125 40.484375 48.828125 32.859375 
L 48.828125 0 
L 40.046875 0 
L 40.046875 32.859375 
Q 40.046875 39.453125 37.1875 42.453125 
Q 34.328125 45.453125 29.109375 45.453125 
Q 25.203125 45.453125 21.75 43.421875 
Q 18.3125 41.40625 16.84375 37.9375 
Q 15.375 34.46875 15.375 28.375 
L 15.375 0 
z
" id="ArialMT-104"/>
     </defs>
     <g style="fill:#262626;" transform="translate(10.283281 176.957812)rotate(-90)scale(0.12 -0.12)">
      <use xlink:href="#ArialMT-71"/>
      <use x="77.783203" xlink:href="#ArialMT-114"/>
      <use x="111.083984" xlink:href="#ArialMT-111"/>
      <use x="166.699219" xlink:href="#ArialMT-119"/>
      <use x="238.916016" xlink:href="#ArialMT-116"/>
      <use x="266.699219" xlink:href="#ArialMT-104"/>
      <use x="322.314453" xlink:href="#ArialMT-32"/>
      <use x="350.097656" xlink:href="#ArialMT-82"/>
      <use x="422.314453" xlink:href="#ArialMT-97"/>
      <use x="477.929688" xlink:href="#ArialMT-116"/>
      <use x="505.712891" xlink:href="#ArialMT-101"/>
     </g>
    </g>
   </g>
   <g id="LineCollection_1">
    <path clip-path="url(#p8d85707c55)" d="M 69.218182 64.406181 
L 69.218182 51.505434 
" style="fill:none;stroke:#1a1a1a;stroke-opacity:0.7;"/>
    <path clip-path="url(#p8d85707c55)" d="M 69.726923 57.261811 
L 69.726923 44.443636 
" style="fill:none;stroke:#1a1a1a;stroke-opacity:0.7;"/>
    <path clip-path="url(#p8d85707c55)" d="M 70.24191 62.682839 
L 70.24191 49.655222 
" style="fill:none;stroke:#1a1a1a;stroke-opacity:0.7;"/>
    <path clip-path="url(#p8d85707c55)" d="M 70.659869 73.16115 
L 70.659869 60.444961 
" style="fill:none;stroke:#1a1a1a;stroke-opacity:0.7;"/>
    <path clip-path="url(#p8d85707c55)" d="M 71.545162 66.811898 
L 71.545162 54.105428 
" style="fill:none;stroke:#1a1a1a;stroke-opacity:0.7;"/>
    <path clip-path="url(#p8d85707c55)" d="M 74.360682 73.087149 
L 74.360682 60.459792 
" style="fill:none;stroke:#1a1a1a;stroke-opacity:0.7;"/>
    <path clip-path="url(#p8d85707c55)" d="M 75.700809 57.588067 
L 75.700809 44.767894 
" style="fill:none;stroke:#1a1a1a;stroke-opacity:0.7;"/>
    <path clip-path="url(#p8d85707c55)" d="M 82.550068 66.629458 
L 82.550068 53.800938 
" style="fill:none;stroke:#1a1a1a;stroke-opacity:0.7;"/>
    <path clip-path="url(#p8d85707c55)" d="M 84.075719 68.791537 
L 84.075719 56.227433 
" style="fill:none;stroke:#1a1a1a;stroke-opacity:0.7;"/>
    <path clip-path="url(#p8d85707c55)" d="M 85.021124 65.130921 
L 85.021124 52.412253 
" style="fill:none;stroke:#1a1a1a;stroke-opacity:0.7;"/>
    <path clip-path="url(#p8d85707c55)" d="M 96.781815 78.325012 
L 96.781815 65.846762 
" style="fill:none;stroke:#1a1a1a;stroke-opacity:0.7;"/>
    <path clip-path="url(#p8d85707c55)" d="M 97.173964 71.894318 
L 97.173964 59.238628 
" style="fill:none;stroke:#1a1a1a;stroke-opacity:0.7;"/>
    <path clip-path="url(#p8d85707c55)" d="M 100.198826 72.070772 
L 100.198826 59.686816 
" style="fill:none;stroke:#1a1a1a;stroke-opacity:0.7;"/>
    <path clip-path="url(#p8d85707c55)" d="M 103.654155 73.474747 
L 103.654155 60.992755 
" style="fill:none;stroke:#1a1a1a;stroke-opacity:0.7;"/>
    <path clip-path="url(#p8d85707c55)" d="M 104.674475 81.531476 
L 104.674475 69.210835 
" style="fill:none;stroke:#1a1a1a;stroke-opacity:0.7;"/>
    <path clip-path="url(#p8d85707c55)" d="M 114.22561 90.004196 
L 114.22561 77.680819 
" style="fill:none;stroke:#1a1a1a;stroke-opacity:0.7;"/>
    <path clip-path="url(#p8d85707c55)" d="M 120.297387 76.795137 
L 120.297387 64.463116 
" style="fill:none;stroke:#1a1a1a;stroke-opacity:0.7;"/>
    <path clip-path="url(#p8d85707c55)" d="M 121.048863 85.339756 
L 121.048863 72.688559 
" style="fill:none;stroke:#1a1a1a;stroke-opacity:0.7;"/>
    <path clip-path="url(#p8d85707c55)" d="M 131.663113 87.909515 
L 131.663113 75.571382 
" style="fill:none;stroke:#1a1a1a;stroke-opacity:0.7;"/>
    <path clip-path="url(#p8d85707c55)" d="M 134.997928 90.924239 
L 134.997928 78.463494 
" style="fill:none;stroke:#1a1a1a;stroke-opacity:0.7;"/>
    <path clip-path="url(#p8d85707c55)" d="M 137.079383 96.321137 
L 137.079383 83.443324 
" style="fill:none;stroke:#1a1a1a;stroke-opacity:0.7;"/>
    <path clip-path="url(#p8d85707c55)" d="M 143.41017 89.974401 
L 143.41017 77.81032 
" style="fill:none;stroke:#1a1a1a;stroke-opacity:0.7;"/>
    <path clip-path="url(#p8d85707c55)" d="M 149.994948 92.550564 
L 149.994948 80.328101 
" style="fill:none;stroke:#1a1a1a;stroke-opacity:0.7;"/>
    <path clip-path="url(#p8d85707c55)" d="M 154.268853 91.929829 
L 154.268853 79.351046 
" style="fill:none;stroke:#1a1a1a;stroke-opacity:0.7;"/>
    <path clip-path="url(#p8d85707c55)" d="M 154.572895 92.243412 
L 154.572895 80.038205 
" style="fill:none;stroke:#1a1a1a;stroke-opacity:0.7;"/>
    <path clip-path="url(#p8d85707c55)" d="M 160.797642 103.962915 
L 160.797642 91.681133 
" style="fill:none;stroke:#1a1a1a;stroke-opacity:0.7;"/>
    <path clip-path="url(#p8d85707c55)" d="M 162.18183 98.933495 
L 162.18183 86.631086 
" style="fill:none;stroke:#1a1a1a;stroke-opacity:0.7;"/>
    <path clip-path="url(#p8d85707c55)" d="M 164.503374 98.394753 
L 164.503374 85.90004 
" style="fill:none;stroke:#1a1a1a;stroke-opacity:0.7;"/>
    <path clip-path="url(#p8d85707c55)" d="M 166.715199 98.431038 
L 166.715199 86.300406 
" style="fill:none;stroke:#1a1a1a;stroke-opacity:0.7;"/>
    <path clip-path="url(#p8d85707c55)" d="M 166.900575 99.879644 
L 166.900575 87.767586 
" style="fill:none;stroke:#1a1a1a;stroke-opacity:0.7;"/>
    <path clip-path="url(#p8d85707c55)" d="M 168.06831 98.230686 
L 168.06831 86.022075 
" style="fill:none;stroke:#1a1a1a;stroke-opacity:0.7;"/>
    <path clip-path="url(#p8d85707c55)" d="M 168.464507 105.87506 
L 168.464507 93.65846 
" style="fill:none;stroke:#1a1a1a;stroke-opacity:0.7;"/>
    <path clip-path="url(#p8d85707c55)" d="M 168.910849 90.990263 
L 168.910849 78.72714 
" style="fill:none;stroke:#1a1a1a;stroke-opacity:0.7;"/>
    <path clip-path="url(#p8d85707c55)" d="M 171.963217 97.647224 
L 171.963217 85.405527 
" style="fill:none;stroke:#1a1a1a;stroke-opacity:0.7;"/>
    <path clip-path="url(#p8d85707c55)" d="M 174.163747 99.439711 
L 174.163747 87.254807 
" style="fill:none;stroke:#1a1a1a;stroke-opacity:0.7;"/>
    <path clip-path="url(#p8d85707c55)" d="M 174.447339 96.013998 
L 174.447339 83.798037 
" style="fill:none;stroke:#1a1a1a;stroke-opacity:0.7;"/>
    <path clip-path="url(#p8d85707c55)" d="M 177.073892 104.239486 
L 177.073892 91.753417 
" style="fill:none;stroke:#1a1a1a;stroke-opacity:0.7;"/>
    <path clip-path="url(#p8d85707c55)" d="M 178.627514 109.756301 
L 178.627514 97.008506 
" style="fill:none;stroke:#1a1a1a;stroke-opacity:0.7;"/>
    <path clip-path="url(#p8d85707c55)" d="M 179.117665 104.358796 
L 179.117665 92.175376 
" style="fill:none;stroke:#1a1a1a;stroke-opacity:0.7;"/>
    <path clip-path="url(#p8d85707c55)" d="M 182.157015 94.822578 
L 182.157015 82.21916 
" style="fill:none;stroke:#1a1a1a;stroke-opacity:0.7;"/>
    <path clip-path="url(#p8d85707c55)" d="M 183.196232 112.92952 
L 183.196232 100.649148 
" style="fill:none;stroke:#1a1a1a;stroke-opacity:0.7;"/>
    <path clip-path="url(#p8d85707c55)" d="M 185.374945 107.784342 
L 185.374945 95.408946 
" style="fill:none;stroke:#1a1a1a;stroke-opacity:0.7;"/>
    <path clip-path="url(#p8d85707c55)" d="M 186.652147 105.901492 
L 186.652147 93.575329 
" style="fill:none;stroke:#1a1a1a;stroke-opacity:0.7;"/>
    <path clip-path="url(#p8d85707c55)" d="M 193.73772 113.302306 
L 193.73772 101.111814 
" style="fill:none;stroke:#1a1a1a;stroke-opacity:0.7;"/>
    <path clip-path="url(#p8d85707c55)" d="M 195.961755 103.250613 
L 195.961755 90.921921 
" style="fill:none;stroke:#1a1a1a;stroke-opacity:0.7;"/>
    <path clip-path="url(#p8d85707c55)" d="M 199.436446 111.813119 
L 199.436446 99.36794 
" style="fill:none;stroke:#1a1a1a;stroke-opacity:0.7;"/>
    <path clip-path="url(#p8d85707c55)" d="M 199.50222 111.861266 
L 199.50222 99.643868 
" style="fill:none;stroke:#1a1a1a;stroke-opacity:0.7;"/>
    <path clip-path="url(#p8d85707c55)" d="M 199.628138 109.974407 
L 199.628138 97.935077 
" style="fill:none;stroke:#1a1a1a;stroke-opacity:0.7;"/>
    <path clip-path="url(#p8d85707c55)" d="M 201.443097 105.925756 
L 201.443097 93.63632 
" style="fill:none;stroke:#1a1a1a;stroke-opacity:0.7;"/>
    <path clip-path="url(#p8d85707c55)" d="M 208.317236 106.448093 
L 208.317236 94.127121 
" style="fill:none;stroke:#1a1a1a;stroke-opacity:0.7;"/>
    <path clip-path="url(#p8d85707c55)" d="M 208.367074 109.024992 
L 208.367074 96.555579 
" style="fill:none;stroke:#1a1a1a;stroke-opacity:0.7;"/>
    <path clip-path="url(#p8d85707c55)" d="M 210.908694 110.587835 
L 210.908694 97.934562 
" style="fill:none;stroke:#1a1a1a;stroke-opacity:0.7;"/>
    <path clip-path="url(#p8d85707c55)" d="M 211.081486 117.010607 
L 211.081486 104.94572 
" style="fill:none;stroke:#1a1a1a;stroke-opacity:0.7;"/>
    <path clip-path="url(#p8d85707c55)" d="M 212.764086 107.475648 
L 212.764086 95.01431 
" style="fill:none;stroke:#1a1a1a;stroke-opacity:0.7;"/>
    <path clip-path="url(#p8d85707c55)" d="M 217.936168 114.131276 
L 217.936168 102.06522 
" style="fill:none;stroke:#1a1a1a;stroke-opacity:0.7;"/>
    <path clip-path="url(#p8d85707c55)" d="M 221.017536 127.267563 
L 221.017536 114.994706 
" style="fill:none;stroke:#1a1a1a;stroke-opacity:0.7;"/>
    <path clip-path="url(#p8d85707c55)" d="M 222.919084 129.097357 
L 222.919084 116.666613 
" style="fill:none;stroke:#1a1a1a;stroke-opacity:0.7;"/>
    <path clip-path="url(#p8d85707c55)" d="M 232.669418 128.28944 
L 232.669418 116.145373 
" style="fill:none;stroke:#1a1a1a;stroke-opacity:0.7;"/>
    <path clip-path="url(#p8d85707c55)" d="M 241.001889 124.391529 
L 241.001889 112.068361 
" style="fill:none;stroke:#1a1a1a;stroke-opacity:0.7;"/>
    <path clip-path="url(#p8d85707c55)" d="M 244.796236 134.497596 
L 244.796236 122.259669 
" style="fill:none;stroke:#1a1a1a;stroke-opacity:0.7;"/>
    <path clip-path="url(#p8d85707c55)" d="M 259.255655 142.657586 
L 259.255655 130.297118 
" style="fill:none;stroke:#1a1a1a;stroke-opacity:0.7;"/>
    <path clip-path="url(#p8d85707c55)" d="M 268.379541 144.537738 
L 268.379541 132.022845 
" style="fill:none;stroke:#1a1a1a;stroke-opacity:0.7;"/>
    <path clip-path="url(#p8d85707c55)" d="M 273.519168 148.297664 
L 273.519168 135.9433 
" style="fill:none;stroke:#1a1a1a;stroke-opacity:0.7;"/>
    <path clip-path="url(#p8d85707c55)" d="M 274.72362 143.012302 
L 274.72362 130.513479 
" style="fill:none;stroke:#1a1a1a;stroke-opacity:0.7;"/>
    <path clip-path="url(#p8d85707c55)" d="M 280.988148 154.970388 
L 280.988148 142.685108 
" style="fill:none;stroke:#1a1a1a;stroke-opacity:0.7;"/>
    <path clip-path="url(#p8d85707c55)" d="M 280.995469 147.773613 
L 280.995469 135.306414 
" style="fill:none;stroke:#1a1a1a;stroke-opacity:0.7;"/>
    <path clip-path="url(#p8d85707c55)" d="M 282.981829 149.630665 
L 282.981829 137.3738 
" style="fill:none;stroke:#1a1a1a;stroke-opacity:0.7;"/>
    <path clip-path="url(#p8d85707c55)" d="M 283.090686 163.373674 
L 283.090686 150.825507 
" style="fill:none;stroke:#1a1a1a;stroke-opacity:0.7;"/>
    <path clip-path="url(#p8d85707c55)" d="M 284.259078 156.055914 
L 284.259078 143.741238 
" style="fill:none;stroke:#1a1a1a;stroke-opacity:0.7;"/>
    <path clip-path="url(#p8d85707c55)" d="M 288.887973 154.535267 
L 288.887973 142.226973 
" style="fill:none;stroke:#1a1a1a;stroke-opacity:0.7;"/>
    <path clip-path="url(#p8d85707c55)" d="M 293.796132 168.248552 
L 293.796132 155.579696 
" style="fill:none;stroke:#1a1a1a;stroke-opacity:0.7;"/>
    <path clip-path="url(#p8d85707c55)" d="M 296.953943 160.943021 
L 296.953943 148.395665 
" style="fill:none;stroke:#1a1a1a;stroke-opacity:0.7;"/>
    <path clip-path="url(#p8d85707c55)" d="M 298.391723 168.035896 
L 298.391723 155.738105 
" style="fill:none;stroke:#1a1a1a;stroke-opacity:0.7;"/>
    <path clip-path="url(#p8d85707c55)" d="M 306.450779 173.964827 
L 306.450779 161.464446 
" style="fill:none;stroke:#1a1a1a;stroke-opacity:0.7;"/>
    <path clip-path="url(#p8d85707c55)" d="M 307.791157 171.270532 
L 307.791157 158.760464 
" style="fill:none;stroke:#1a1a1a;stroke-opacity:0.7;"/>
    <path clip-path="url(#p8d85707c55)" d="M 308.31921 174.572159 
L 308.31921 162.413181 
" style="fill:none;stroke:#1a1a1a;stroke-opacity:0.7;"/>
    <path clip-path="url(#p8d85707c55)" d="M 310.166999 173.899969 
L 310.166999 161.780333 
" style="fill:none;stroke:#1a1a1a;stroke-opacity:0.7;"/>
    <path clip-path="url(#p8d85707c55)" d="M 323.109492 186.449752 
L 323.109492 174.250324 
" style="fill:none;stroke:#1a1a1a;stroke-opacity:0.7;"/>
    <path clip-path="url(#p8d85707c55)" d="M 324.086563 188.353023 
L 324.086563 175.72638 
" style="fill:none;stroke:#1a1a1a;stroke-opacity:0.7;"/>
    <path clip-path="url(#p8d85707c55)" d="M 324.993496 188.503397 
L 324.993496 176.048249 
" style="fill:none;stroke:#1a1a1a;stroke-opacity:0.7;"/>
    <path clip-path="url(#p8d85707c55)" d="M 326.31487 176.202056 
L 326.31487 163.948321 
" style="fill:none;stroke:#1a1a1a;stroke-opacity:0.7;"/>
    <path clip-path="url(#p8d85707c55)" d="M 328.165693 185.916392 
L 328.165693 173.580031 
" style="fill:none;stroke:#1a1a1a;stroke-opacity:0.7;"/>
    <path clip-path="url(#p8d85707c55)" d="M 329.632853 186.328417 
L 329.632853 173.835917 
" style="fill:none;stroke:#1a1a1a;stroke-opacity:0.7;"/>
    <path clip-path="url(#p8d85707c55)" d="M 332.382291 193.75599 
L 332.382291 181.411006 
" style="fill:none;stroke:#1a1a1a;stroke-opacity:0.7;"/>
    <path clip-path="url(#p8d85707c55)" d="M 341.685773 190.590948 
L 341.685773 178.28155 
" style="fill:none;stroke:#1a1a1a;stroke-opacity:0.7;"/>
    <path clip-path="url(#p8d85707c55)" d="M 345.943663 191.250643 
L 345.943663 178.890256 
" style="fill:none;stroke:#1a1a1a;stroke-opacity:0.7;"/>
    <path clip-path="url(#p8d85707c55)" d="M 346.168595 201.892613 
L 346.168595 189.342833 
" style="fill:none;stroke:#1a1a1a;stroke-opacity:0.7;"/>
    <path clip-path="url(#p8d85707c55)" d="M 348.405756 194.675217 
L 348.405756 182.322354 
" style="fill:none;stroke:#1a1a1a;stroke-opacity:0.7;"/>
    <path clip-path="url(#p8d85707c55)" d="M 350.612551 201.648513 
L 350.612551 189.229588 
" style="fill:none;stroke:#1a1a1a;stroke-opacity:0.7;"/>
    <path clip-path="url(#p8d85707c55)" d="M 354.12341 212.747465 
L 354.12341 200.255995 
" style="fill:none;stroke:#1a1a1a;stroke-opacity:0.7;"/>
    <path clip-path="url(#p8d85707c55)" d="M 356.586916 206.424546 
L 356.586916 193.966651 
" style="fill:none;stroke:#1a1a1a;stroke-opacity:0.7;"/>
    <path clip-path="url(#p8d85707c55)" d="M 357.695868 209.472875 
L 357.695868 196.720126 
" style="fill:none;stroke:#1a1a1a;stroke-opacity:0.7;"/>
    <path clip-path="url(#p8d85707c55)" d="M 360.578415 216.834818 
L 360.578415 204.426394 
" style="fill:none;stroke:#1a1a1a;stroke-opacity:0.7;"/>
    <path clip-path="url(#p8d85707c55)" d="M 360.999997 219.320301 
L 360.999997 206.895008 
" style="fill:none;stroke:#1a1a1a;stroke-opacity:0.7;"/>
    <path clip-path="url(#p8d85707c55)" d="M 361.234378 206.90723 
L 361.234378 194.376743 
" style="fill:none;stroke:#1a1a1a;stroke-opacity:0.7;"/>
    <path clip-path="url(#p8d85707c55)" d="M 363.130823 226.817148 
L 363.130823 214.163315 
" style="fill:none;stroke:#1a1a1a;stroke-opacity:0.7;"/>
    <path clip-path="url(#p8d85707c55)" d="M 364.303652 218.39082 
L 364.303652 205.699702 
" style="fill:none;stroke:#1a1a1a;stroke-opacity:0.7;"/>
    <path clip-path="url(#p8d85707c55)" d="M 366.969677 218.450479 
L 366.969677 206.009862 
" style="fill:none;stroke:#1a1a1a;stroke-opacity:0.7;"/>
    <path clip-path="url(#p8d85707c55)" d="M 370.09692 220.556725 
L 370.09692 208.049576 
" style="fill:none;stroke:#1a1a1a;stroke-opacity:0.7;"/>
    <path clip-path="url(#p8d85707c55)" d="M 373.581818 236.93353 
L 373.581818 224.025826 
" style="fill:none;stroke:#1a1a1a;stroke-opacity:0.7;"/>
   </g>
   <g id="line2d_47">
    <defs>
     <path d="M 0 3 
C 0.795609 3 1.55874 2.683901 2.12132 2.12132 
C 2.683901 1.55874 3 0.795609 3 0 
C 3 -0.795609 2.683901 -1.55874 2.12132 -2.12132 
C 1.55874 -2.683901 0.795609 -3 0 -3 
C -0.795609 -3 -1.55874 -2.683901 -2.12132 -2.12132 
C -2.683901 -1.55874 -3 -0.795609 -3 0 
C -3 0.795609 -2.683901 1.55874 -2.12132 2.12132 
C -1.55874 2.683901 -0.795609 3 0 3 
z
" id="m733272c846" style="stroke:#4c72b0;"/>
    </defs>
    <g clip-path="url(#p8d85707c55)">
     <use style="fill:#4c72b0;stroke:#4c72b0;" x="69.218182" xlink:href="#m733272c846" y="60.15293"/>
     <use style="fill:#4c72b0;stroke:#4c72b0;" x="69.726923" xlink:href="#m733272c846" y="56.41485"/>
     <use style="fill:#4c72b0;stroke:#4c72b0;" x="70.24191" xlink:href="#m733272c846" y="55.900805"/>
     <use style="fill:#4c72b0;stroke:#4c72b0;" x="70.659869" xlink:href="#m733272c846" y="62.945814"/>
     <use style="fill:#4c72b0;stroke:#4c72b0;" x="71.545162" xlink:href="#m733272c846" y="59.324234"/>
     <use style="fill:#4c72b0;stroke:#4c72b0;" x="74.360682" xlink:href="#m733272c846" y="62.23005"/>
     <use style="fill:#4c72b0;stroke:#4c72b0;" x="75.700809" xlink:href="#m733272c846" y="56.381122"/>
     <use style="fill:#4c72b0;stroke:#4c72b0;" x="82.550068" xlink:href="#m733272c846" y="61.080703"/>
     <use style="fill:#4c72b0;stroke:#4c72b0;" x="84.075719" xlink:href="#m733272c846" y="63.58662"/>
     <use style="fill:#4c72b0;stroke:#4c72b0;" x="85.021124" xlink:href="#m733272c846" y="61.656592"/>
     <use style="fill:#4c72b0;stroke:#4c72b0;" x="96.781815" xlink:href="#m733272c846" y="69.388193"/>
     <use style="fill:#4c72b0;stroke:#4c72b0;" x="97.173964" xlink:href="#m733272c846" y="65.700719"/>
     <use style="fill:#4c72b0;stroke:#4c72b0;" x="100.198826" xlink:href="#m733272c846" y="66.604477"/>
     <use style="fill:#4c72b0;stroke:#4c72b0;" x="103.654155" xlink:href="#m733272c846" y="67.716349"/>
     <use style="fill:#4c72b0;stroke:#4c72b0;" x="104.674475" xlink:href="#m733272c846" y="74.077071"/>
     <use style="fill:#4c72b0;stroke:#4c72b0;" x="114.22561" xlink:href="#m733272c846" y="81.563939"/>
     <use style="fill:#4c72b0;stroke:#4c72b0;" x="120.297387" xlink:href="#m733272c846" y="72.029441"/>
     <use style="fill:#4c72b0;stroke:#4c72b0;" x="121.048863" xlink:href="#m733272c846" y="73.816257"/>
     <use style="fill:#4c72b0;stroke:#4c72b0;" x="131.663113" xlink:href="#m733272c846" y="83.342263"/>
     <use style="fill:#4c72b0;stroke:#4c72b0;" x="134.997928" xlink:href="#m733272c846" y="85.24735"/>
     <use style="fill:#4c72b0;stroke:#4c72b0;" x="137.079383" xlink:href="#m733272c846" y="84.367398"/>
     <use style="fill:#4c72b0;stroke:#4c72b0;" x="143.41017" xlink:href="#m733272c846" y="82.630306"/>
     <use style="fill:#4c72b0;stroke:#4c72b0;" x="149.994948" xlink:href="#m733272c846" y="86.328038"/>
     <use style="fill:#4c72b0;stroke:#4c72b0;" x="154.268853" xlink:href="#m733272c846" y="84.922439"/>
     <use style="fill:#4c72b0;stroke:#4c72b0;" x="154.572895" xlink:href="#m733272c846" y="85.799125"/>
     <use style="fill:#4c72b0;stroke:#4c72b0;" x="160.797642" xlink:href="#m733272c846" y="94.79223"/>
     <use style="fill:#4c72b0;stroke:#4c72b0;" x="162.18183" xlink:href="#m733272c846" y="91.608288"/>
     <use style="fill:#4c72b0;stroke:#4c72b0;" x="164.503374" xlink:href="#m733272c846" y="91.771088"/>
     <use style="fill:#4c72b0;stroke:#4c72b0;" x="166.715199" xlink:href="#m733272c846" y="93.193645"/>
     <use style="fill:#4c72b0;stroke:#4c72b0;" x="166.900575" xlink:href="#m733272c846" y="91.857409"/>
     <use style="fill:#4c72b0;stroke:#4c72b0;" x="168.06831" xlink:href="#m733272c846" y="91.2501"/>
     <use style="fill:#4c72b0;stroke:#4c72b0;" x="168.464507" xlink:href="#m733272c846" y="97.606242"/>
     <use style="fill:#4c72b0;stroke:#4c72b0;" x="168.910849" xlink:href="#m733272c846" y="86.913748"/>
     <use style="fill:#4c72b0;stroke:#4c72b0;" x="171.963217" xlink:href="#m733272c846" y="93.123021"/>
     <use style="fill:#4c72b0;stroke:#4c72b0;" x="174.163747" xlink:href="#m733272c846" y="93.648734"/>
     <use style="fill:#4c72b0;stroke:#4c72b0;" x="174.447339" xlink:href="#m733272c846" y="91.698804"/>
     <use style="fill:#4c72b0;stroke:#4c72b0;" x="177.073892" xlink:href="#m733272c846" y="96.516359"/>
     <use style="fill:#4c72b0;stroke:#4c72b0;" x="178.627514" xlink:href="#m733272c846" y="100.727277"/>
     <use style="fill:#4c72b0;stroke:#4c72b0;" x="179.117665" xlink:href="#m733272c846" y="98.483259"/>
     <use style="fill:#4c72b0;stroke:#4c72b0;" x="182.157015" xlink:href="#m733272c846" y="91.685468"/>
     <use style="fill:#4c72b0;stroke:#4c72b0;" x="183.196232" xlink:href="#m733272c846" y="105.767838"/>
     <use style="fill:#4c72b0;stroke:#4c72b0;" x="185.374945" xlink:href="#m733272c846" y="99.512457"/>
     <use style="fill:#4c72b0;stroke:#4c72b0;" x="186.652147" xlink:href="#m733272c846" y="99.661292"/>
     <use style="fill:#4c72b0;stroke:#4c72b0;" x="193.73772" xlink:href="#m733272c846" y="107.845834"/>
     <use style="fill:#4c72b0;stroke:#4c72b0;" x="195.961755" xlink:href="#m733272c846" y="98.643524"/>
     <use style="fill:#4c72b0;stroke:#4c72b0;" x="199.436446" xlink:href="#m733272c846" y="106.486638"/>
     <use style="fill:#4c72b0;stroke:#4c72b0;" x="199.50222" xlink:href="#m733272c846" y="105.483803"/>
     <use style="fill:#4c72b0;stroke:#4c72b0;" x="199.628138" xlink:href="#m733272c846" y="106.21934"/>
     <use style="fill:#4c72b0;stroke:#4c72b0;" x="201.443097" xlink:href="#m733272c846" y="100.863757"/>
     <use style="fill:#4c72b0;stroke:#4c72b0;" x="208.317236" xlink:href="#m733272c846" y="102.869607"/>
     <use style="fill:#4c72b0;stroke:#4c72b0;" x="208.367074" xlink:href="#m733272c846" y="104.254363"/>
     <use style="fill:#4c72b0;stroke:#4c72b0;" x="210.908694" xlink:href="#m733272c846" y="103.820945"/>
     <use style="fill:#4c72b0;stroke:#4c72b0;" x="211.081486" xlink:href="#m733272c846" y="110.425419"/>
     <use style="fill:#4c72b0;stroke:#4c72b0;" x="212.764086" xlink:href="#m733272c846" y="104.488826"/>
     <use style="fill:#4c72b0;stroke:#4c72b0;" x="217.936168" xlink:href="#m733272c846" y="110.514019"/>
     <use style="fill:#4c72b0;stroke:#4c72b0;" x="221.017536" xlink:href="#m733272c846" y="121.141473"/>
     <use style="fill:#4c72b0;stroke:#4c72b0;" x="222.919084" xlink:href="#m733272c846" y="124.003447"/>
     <use style="fill:#4c72b0;stroke:#4c72b0;" x="232.669418" xlink:href="#m733272c846" y="122.976682"/>
     <use style="fill:#4c72b0;stroke:#4c72b0;" x="241.001889" xlink:href="#m733272c846" y="117.782248"/>
     <use style="fill:#4c72b0;stroke:#4c72b0;" x="244.796236" xlink:href="#m733272c846" y="129.559696"/>
     <use style="fill:#4c72b0;stroke:#4c72b0;" x="259.255655" xlink:href="#m733272c846" y="139.183309"/>
     <use style="fill:#4c72b0;stroke:#4c72b0;" x="268.379541" xlink:href="#m733272c846" y="139.434213"/>
     <use style="fill:#4c72b0;stroke:#4c72b0;" x="273.519168" xlink:href="#m733272c846" y="141.5148"/>
     <use style="fill:#4c72b0;stroke:#4c72b0;" x="274.72362" xlink:href="#m733272c846" y="138.446503"/>
     <use style="fill:#4c72b0;stroke:#4c72b0;" x="280.988148" xlink:href="#m733272c846" y="148.363335"/>
     <use style="fill:#4c72b0;stroke:#4c72b0;" x="280.995469" xlink:href="#m733272c846" y="142.899042"/>
     <use style="fill:#4c72b0;stroke:#4c72b0;" x="282.981829" xlink:href="#m733272c846" y="143.448942"/>
     <use style="fill:#4c72b0;stroke:#4c72b0;" x="283.090686" xlink:href="#m733272c846" y="160.14382"/>
     <use style="fill:#4c72b0;stroke:#4c72b0;" x="284.259078" xlink:href="#m733272c846" y="150.293471"/>
     <use style="fill:#4c72b0;stroke:#4c72b0;" x="288.887973" xlink:href="#m733272c846" y="145.672895"/>
     <use style="fill:#4c72b0;stroke:#4c72b0;" x="293.796132" xlink:href="#m733272c846" y="160.957712"/>
     <use style="fill:#4c72b0;stroke:#4c72b0;" x="296.953943" xlink:href="#m733272c846" y="150.614625"/>
     <use style="fill:#4c72b0;stroke:#4c72b0;" x="298.391723" xlink:href="#m733272c846" y="162.942883"/>
     <use style="fill:#4c72b0;stroke:#4c72b0;" x="306.450779" xlink:href="#m733272c846" y="167.617007"/>
     <use style="fill:#4c72b0;stroke:#4c72b0;" x="307.791157" xlink:href="#m733272c846" y="167.711323"/>
     <use style="fill:#4c72b0;stroke:#4c72b0;" x="308.31921" xlink:href="#m733272c846" y="169.420329"/>
     <use style="fill:#4c72b0;stroke:#4c72b0;" x="310.166999" xlink:href="#m733272c846" y="166.845521"/>
     <use style="fill:#4c72b0;stroke:#4c72b0;" x="323.109492" xlink:href="#m733272c846" y="181.381593"/>
     <use style="fill:#4c72b0;stroke:#4c72b0;" x="324.086563" xlink:href="#m733272c846" y="182.708717"/>
     <use style="fill:#4c72b0;stroke:#4c72b0;" x="324.993496" xlink:href="#m733272c846" y="182.269967"/>
     <use style="fill:#4c72b0;stroke:#4c72b0;" x="326.31487" xlink:href="#m733272c846" y="166.95469"/>
     <use style="fill:#4c72b0;stroke:#4c72b0;" x="328.165693" xlink:href="#m733272c846" y="178.911312"/>
     <use style="fill:#4c72b0;stroke:#4c72b0;" x="329.632853" xlink:href="#m733272c846" y="174.499495"/>
     <use style="fill:#4c72b0;stroke:#4c72b0;" x="332.382291" xlink:href="#m733272c846" y="189.504712"/>
     <use style="fill:#4c72b0;stroke:#4c72b0;" x="341.685773" xlink:href="#m733272c846" y="177.172372"/>
     <use style="fill:#4c72b0;stroke:#4c72b0;" x="345.943663" xlink:href="#m733272c846" y="181.113767"/>
     <use style="fill:#4c72b0;stroke:#4c72b0;" x="346.168595" xlink:href="#m733272c846" y="197.085278"/>
     <use style="fill:#4c72b0;stroke:#4c72b0;" x="348.405756" xlink:href="#m733272c846" y="182.55981"/>
     <use style="fill:#4c72b0;stroke:#4c72b0;" x="350.612551" xlink:href="#m733272c846" y="191.292763"/>
     <use style="fill:#4c72b0;stroke:#4c72b0;" x="354.12341" xlink:href="#m733272c846" y="207.991521"/>
     <use style="fill:#4c72b0;stroke:#4c72b0;" x="356.586916" xlink:href="#m733272c846" y="201.479263"/>
     <use style="fill:#4c72b0;stroke:#4c72b0;" x="357.695868" xlink:href="#m733272c846" y="202.706282"/>
     <use style="fill:#4c72b0;stroke:#4c72b0;" x="360.578415" xlink:href="#m733272c846" y="213.737247"/>
     <use style="fill:#4c72b0;stroke:#4c72b0;" x="360.999997" xlink:href="#m733272c846" y="215.558269"/>
     <use style="fill:#4c72b0;stroke:#4c72b0;" x="361.234378" xlink:href="#m733272c846" y="194.45904"/>
     <use style="fill:#4c72b0;stroke:#4c72b0;" x="363.130823" xlink:href="#m733272c846" y="226.853227"/>
     <use style="fill:#4c72b0;stroke:#4c72b0;" x="364.303652" xlink:href="#m733272c846" y="210.782769"/>
     <use style="fill:#4c72b0;stroke:#4c72b0;" x="366.969677" xlink:href="#m733272c846" y="212.571402"/>
     <use style="fill:#4c72b0;stroke:#4c72b0;" x="370.09692" xlink:href="#m733272c846" y="212.113486"/>
     <use style="fill:#4c72b0;stroke:#4c72b0;" x="373.581818" xlink:href="#m733272c846" y="242.116364"/>
    </g>
   </g>
   <g id="line2d_48">
    <defs>
     <path d="M 0 4.242641 
L 4.242641 0 
L 0 -4.242641 
L -4.242641 0 
z
" id="mb9697261f8" style="stroke:#c44e52;stroke-linejoin:miter;"/>
    </defs>
    <g clip-path="url(#p8d85707c55)">
     <use style="fill:#c44e52;stroke:#c44e52;stroke-linejoin:miter;" x="69.218182" xlink:href="#mb9697261f8" y="57.955807"/>
     <use style="fill:#c44e52;stroke:#c44e52;stroke-linejoin:miter;" x="69.726923" xlink:href="#mb9697261f8" y="50.852724"/>
     <use style="fill:#c44e52;stroke:#c44e52;stroke-linejoin:miter;" x="70.24191" xlink:href="#mb9697261f8" y="56.169031"/>
     <use style="fill:#c44e52;stroke:#c44e52;stroke-linejoin:miter;" x="70.659869" xlink:href="#mb9697261f8" y="66.803056"/>
     <use style="fill:#c44e52;stroke:#c44e52;stroke-linejoin:miter;" x="71.545162" xlink:href="#mb9697261f8" y="60.458663"/>
     <use style="fill:#c44e52;stroke:#c44e52;stroke-linejoin:miter;" x="74.360682" xlink:href="#mb9697261f8" y="66.77347"/>
     <use style="fill:#c44e52;stroke:#c44e52;stroke-linejoin:miter;" x="75.700809" xlink:href="#mb9697261f8" y="51.177981"/>
     <use style="fill:#c44e52;stroke:#c44e52;stroke-linejoin:miter;" x="82.550068" xlink:href="#mb9697261f8" y="60.215198"/>
     <use style="fill:#c44e52;stroke:#c44e52;stroke-linejoin:miter;" x="84.075719" xlink:href="#mb9697261f8" y="62.509485"/>
     <use style="fill:#c44e52;stroke:#c44e52;stroke-linejoin:miter;" x="85.021124" xlink:href="#mb9697261f8" y="58.771587"/>
     <use style="fill:#c44e52;stroke:#c44e52;stroke-linejoin:miter;" x="96.781815" xlink:href="#mb9697261f8" y="72.085887"/>
     <use style="fill:#c44e52;stroke:#c44e52;stroke-linejoin:miter;" x="97.173964" xlink:href="#mb9697261f8" y="65.566473"/>
     <use style="fill:#c44e52;stroke:#c44e52;stroke-linejoin:miter;" x="100.198826" xlink:href="#mb9697261f8" y="65.878794"/>
     <use style="fill:#c44e52;stroke:#c44e52;stroke-linejoin:miter;" x="103.654155" xlink:href="#mb9697261f8" y="67.233751"/>
     <use style="fill:#c44e52;stroke:#c44e52;stroke-linejoin:miter;" x="104.674475" xlink:href="#mb9697261f8" y="75.371155"/>
     <use style="fill:#c44e52;stroke:#c44e52;stroke-linejoin:miter;" x="114.22561" xlink:href="#mb9697261f8" y="83.842508"/>
     <use style="fill:#c44e52;stroke:#c44e52;stroke-linejoin:miter;" x="120.297387" xlink:href="#mb9697261f8" y="70.629126"/>
     <use style="fill:#c44e52;stroke:#c44e52;stroke-linejoin:miter;" x="121.048863" xlink:href="#mb9697261f8" y="79.014157"/>
     <use style="fill:#c44e52;stroke:#c44e52;stroke-linejoin:miter;" x="131.663113" xlink:href="#mb9697261f8" y="81.740448"/>
     <use style="fill:#c44e52;stroke:#c44e52;stroke-linejoin:miter;" x="134.997928" xlink:href="#mb9697261f8" y="84.693867"/>
     <use style="fill:#c44e52;stroke:#c44e52;stroke-linejoin:miter;" x="137.079383" xlink:href="#mb9697261f8" y="89.882231"/>
     <use style="fill:#c44e52;stroke:#c44e52;stroke-linejoin:miter;" x="143.41017" xlink:href="#mb9697261f8" y="83.892361"/>
     <use style="fill:#c44e52;stroke:#c44e52;stroke-linejoin:miter;" x="149.994948" xlink:href="#mb9697261f8" y="86.439333"/>
     <use style="fill:#c44e52;stroke:#c44e52;stroke-linejoin:miter;" x="154.268853" xlink:href="#mb9697261f8" y="85.640438"/>
     <use style="fill:#c44e52;stroke:#c44e52;stroke-linejoin:miter;" x="154.572895" xlink:href="#mb9697261f8" y="86.140809"/>
     <use style="fill:#c44e52;stroke:#c44e52;stroke-linejoin:miter;" x="160.797642" xlink:href="#mb9697261f8" y="97.822024"/>
     <use style="fill:#c44e52;stroke:#c44e52;stroke-linejoin:miter;" x="162.18183" xlink:href="#mb9697261f8" y="92.78229"/>
     <use style="fill:#c44e52;stroke:#c44e52;stroke-linejoin:miter;" x="164.503374" xlink:href="#mb9697261f8" y="92.147396"/>
     <use style="fill:#c44e52;stroke:#c44e52;stroke-linejoin:miter;" x="166.715199" xlink:href="#mb9697261f8" y="92.365722"/>
     <use style="fill:#c44e52;stroke:#c44e52;stroke-linejoin:miter;" x="166.900575" xlink:href="#mb9697261f8" y="93.823615"/>
     <use style="fill:#c44e52;stroke:#c44e52;stroke-linejoin:miter;" x="168.06831" xlink:href="#mb9697261f8" y="92.12638"/>
     <use style="fill:#c44e52;stroke:#c44e52;stroke-linejoin:miter;" x="168.464507" xlink:href="#mb9697261f8" y="99.76676"/>
     <use style="fill:#c44e52;stroke:#c44e52;stroke-linejoin:miter;" x="168.910849" xlink:href="#mb9697261f8" y="84.858701"/>
     <use style="fill:#c44e52;stroke:#c44e52;stroke-linejoin:miter;" x="171.963217" xlink:href="#mb9697261f8" y="91.526375"/>
     <use style="fill:#c44e52;stroke:#c44e52;stroke-linejoin:miter;" x="174.163747" xlink:href="#mb9697261f8" y="93.347259"/>
     <use style="fill:#c44e52;stroke:#c44e52;stroke-linejoin:miter;" x="174.447339" xlink:href="#mb9697261f8" y="89.906017"/>
     <use style="fill:#c44e52;stroke:#c44e52;stroke-linejoin:miter;" x="177.073892" xlink:href="#mb9697261f8" y="97.996452"/>
     <use style="fill:#c44e52;stroke:#c44e52;stroke-linejoin:miter;" x="178.627514" xlink:href="#mb9697261f8" y="103.382404"/>
     <use style="fill:#c44e52;stroke:#c44e52;stroke-linejoin:miter;" x="179.117665" xlink:href="#mb9697261f8" y="98.267086"/>
     <use style="fill:#c44e52;stroke:#c44e52;stroke-linejoin:miter;" x="182.157015" xlink:href="#mb9697261f8" y="88.520869"/>
     <use style="fill:#c44e52;stroke:#c44e52;stroke-linejoin:miter;" x="183.196232" xlink:href="#mb9697261f8" y="106.789334"/>
     <use style="fill:#c44e52;stroke:#c44e52;stroke-linejoin:miter;" x="185.374945" xlink:href="#mb9697261f8" y="101.596644"/>
     <use style="fill:#c44e52;stroke:#c44e52;stroke-linejoin:miter;" x="186.652147" xlink:href="#mb9697261f8" y="99.738411"/>
     <use style="fill:#c44e52;stroke:#c44e52;stroke-linejoin:miter;" x="193.73772" xlink:href="#mb9697261f8" y="107.20706"/>
     <use style="fill:#c44e52;stroke:#c44e52;stroke-linejoin:miter;" x="195.961755" xlink:href="#mb9697261f8" y="97.086267"/>
     <use style="fill:#c44e52;stroke:#c44e52;stroke-linejoin:miter;" x="199.436446" xlink:href="#mb9697261f8" y="105.590529"/>
     <use style="fill:#c44e52;stroke:#c44e52;stroke-linejoin:miter;" x="199.50222" xlink:href="#mb9697261f8" y="105.752567"/>
     <use style="fill:#c44e52;stroke:#c44e52;stroke-linejoin:miter;" x="199.628138" xlink:href="#mb9697261f8" y="103.954742"/>
     <use style="fill:#c44e52;stroke:#c44e52;stroke-linejoin:miter;" x="201.443097" xlink:href="#mb9697261f8" y="99.781038"/>
     <use style="fill:#c44e52;stroke:#c44e52;stroke-linejoin:miter;" x="208.317236" xlink:href="#mb9697261f8" y="100.287607"/>
     <use style="fill:#c44e52;stroke:#c44e52;stroke-linejoin:miter;" x="208.367074" xlink:href="#mb9697261f8" y="102.790286"/>
     <use style="fill:#c44e52;stroke:#c44e52;stroke-linejoin:miter;" x="210.908694" xlink:href="#mb9697261f8" y="104.261199"/>
     <use style="fill:#c44e52;stroke:#c44e52;stroke-linejoin:miter;" x="211.081486" xlink:href="#mb9697261f8" y="110.978163"/>
     <use style="fill:#c44e52;stroke:#c44e52;stroke-linejoin:miter;" x="212.764086" xlink:href="#mb9697261f8" y="101.244979"/>
     <use style="fill:#c44e52;stroke:#c44e52;stroke-linejoin:miter;" x="217.936168" xlink:href="#mb9697261f8" y="108.098248"/>
     <use style="fill:#c44e52;stroke:#c44e52;stroke-linejoin:miter;" x="221.017536" xlink:href="#mb9697261f8" y="121.131134"/>
     <use style="fill:#c44e52;stroke:#c44e52;stroke-linejoin:miter;" x="222.919084" xlink:href="#mb9697261f8" y="122.881985"/>
     <use style="fill:#c44e52;stroke:#c44e52;stroke-linejoin:miter;" x="232.669418" xlink:href="#mb9697261f8" y="122.217406"/>
     <use style="fill:#c44e52;stroke:#c44e52;stroke-linejoin:miter;" x="241.001889" xlink:href="#mb9697261f8" y="118.229945"/>
     <use style="fill:#c44e52;stroke:#c44e52;stroke-linejoin:miter;" x="244.796236" xlink:href="#mb9697261f8" y="128.378633"/>
     <use style="fill:#c44e52;stroke:#c44e52;stroke-linejoin:miter;" x="259.255655" xlink:href="#mb9697261f8" y="136.477352"/>
     <use style="fill:#c44e52;stroke:#c44e52;stroke-linejoin:miter;" x="268.379541" xlink:href="#mb9697261f8" y="138.280291"/>
     <use style="fill:#c44e52;stroke:#c44e52;stroke-linejoin:miter;" x="273.519168" xlink:href="#mb9697261f8" y="142.120482"/>
     <use style="fill:#c44e52;stroke:#c44e52;stroke-linejoin:miter;" x="274.72362" xlink:href="#mb9697261f8" y="136.762891"/>
     <use style="fill:#c44e52;stroke:#c44e52;stroke-linejoin:miter;" x="280.988148" xlink:href="#mb9697261f8" y="148.827748"/>
     <use style="fill:#c44e52;stroke:#c44e52;stroke-linejoin:miter;" x="280.995469" xlink:href="#mb9697261f8" y="141.540013"/>
     <use style="fill:#c44e52;stroke:#c44e52;stroke-linejoin:miter;" x="282.981829" xlink:href="#mb9697261f8" y="143.502233"/>
     <use style="fill:#c44e52;stroke:#c44e52;stroke-linejoin:miter;" x="283.090686" xlink:href="#mb9697261f8" y="157.09959"/>
     <use style="fill:#c44e52;stroke:#c44e52;stroke-linejoin:miter;" x="284.259078" xlink:href="#mb9697261f8" y="149.898576"/>
     <use style="fill:#c44e52;stroke:#c44e52;stroke-linejoin:miter;" x="288.887973" xlink:href="#mb9697261f8" y="148.38112"/>
     <use style="fill:#c44e52;stroke:#c44e52;stroke-linejoin:miter;" x="293.796132" xlink:href="#mb9697261f8" y="161.914124"/>
     <use style="fill:#c44e52;stroke:#c44e52;stroke-linejoin:miter;" x="296.953943" xlink:href="#mb9697261f8" y="154.669343"/>
     <use style="fill:#c44e52;stroke:#c44e52;stroke-linejoin:miter;" x="298.391723" xlink:href="#mb9697261f8" y="161.887001"/>
     <use style="fill:#c44e52;stroke:#c44e52;stroke-linejoin:miter;" x="306.450779" xlink:href="#mb9697261f8" y="167.714637"/>
     <use style="fill:#c44e52;stroke:#c44e52;stroke-linejoin:miter;" x="307.791157" xlink:href="#mb9697261f8" y="165.015498"/>
     <use style="fill:#c44e52;stroke:#c44e52;stroke-linejoin:miter;" x="308.31921" xlink:href="#mb9697261f8" y="168.49267"/>
     <use style="fill:#c44e52;stroke:#c44e52;stroke-linejoin:miter;" x="310.166999" xlink:href="#mb9697261f8" y="167.840151"/>
     <use style="fill:#c44e52;stroke:#c44e52;stroke-linejoin:miter;" x="323.109492" xlink:href="#mb9697261f8" y="180.350038"/>
     <use style="fill:#c44e52;stroke:#c44e52;stroke-linejoin:miter;" x="324.086563" xlink:href="#mb9697261f8" y="182.039702"/>
     <use style="fill:#c44e52;stroke:#c44e52;stroke-linejoin:miter;" x="324.993496" xlink:href="#mb9697261f8" y="182.275823"/>
     <use style="fill:#c44e52;stroke:#c44e52;stroke-linejoin:miter;" x="326.31487" xlink:href="#mb9697261f8" y="170.075188"/>
     <use style="fill:#c44e52;stroke:#c44e52;stroke-linejoin:miter;" x="328.165693" xlink:href="#mb9697261f8" y="179.748212"/>
     <use style="fill:#c44e52;stroke:#c44e52;stroke-linejoin:miter;" x="329.632853" xlink:href="#mb9697261f8" y="180.082167"/>
     <use style="fill:#c44e52;stroke:#c44e52;stroke-linejoin:miter;" x="332.382291" xlink:href="#mb9697261f8" y="187.583498"/>
     <use style="fill:#c44e52;stroke:#c44e52;stroke-linejoin:miter;" x="341.685773" xlink:href="#mb9697261f8" y="184.436249"/>
     <use style="fill:#c44e52;stroke:#c44e52;stroke-linejoin:miter;" x="345.943663" xlink:href="#mb9697261f8" y="185.07045"/>
     <use style="fill:#c44e52;stroke:#c44e52;stroke-linejoin:miter;" x="346.168595" xlink:href="#mb9697261f8" y="195.617723"/>
     <use style="fill:#c44e52;stroke:#c44e52;stroke-linejoin:miter;" x="348.405756" xlink:href="#mb9697261f8" y="188.498785"/>
     <use style="fill:#c44e52;stroke:#c44e52;stroke-linejoin:miter;" x="350.612551" xlink:href="#mb9697261f8" y="195.439051"/>
     <use style="fill:#c44e52;stroke:#c44e52;stroke-linejoin:miter;" x="354.12341" xlink:href="#mb9697261f8" y="206.50173"/>
     <use style="fill:#c44e52;stroke:#c44e52;stroke-linejoin:miter;" x="356.586916" xlink:href="#mb9697261f8" y="200.195599"/>
     <use style="fill:#c44e52;stroke:#c44e52;stroke-linejoin:miter;" x="357.695868" xlink:href="#mb9697261f8" y="203.0965"/>
     <use style="fill:#c44e52;stroke:#c44e52;stroke-linejoin:miter;" x="360.578415" xlink:href="#mb9697261f8" y="210.630606"/>
     <use style="fill:#c44e52;stroke:#c44e52;stroke-linejoin:miter;" x="360.999997" xlink:href="#mb9697261f8" y="213.107655"/>
     <use style="fill:#c44e52;stroke:#c44e52;stroke-linejoin:miter;" x="361.234378" xlink:href="#mb9697261f8" y="200.641986"/>
     <use style="fill:#c44e52;stroke:#c44e52;stroke-linejoin:miter;" x="363.130823" xlink:href="#mb9697261f8" y="220.490231"/>
     <use style="fill:#c44e52;stroke:#c44e52;stroke-linejoin:miter;" x="364.303652" xlink:href="#mb9697261f8" y="212.045261"/>
     <use style="fill:#c44e52;stroke:#c44e52;stroke-linejoin:miter;" x="366.969677" xlink:href="#mb9697261f8" y="212.23017"/>
     <use style="fill:#c44e52;stroke:#c44e52;stroke-linejoin:miter;" x="370.09692" xlink:href="#mb9697261f8" y="214.30315"/>
     <use style="fill:#c44e52;stroke:#c44e52;stroke-linejoin:miter;" x="373.581818" xlink:href="#mb9697261f8" y="230.479678"/>
    </g>
   </g>
   <g id="patch_5">
    <path d="M 54 252 
L 54 34.56 
" style="fill:none;stroke:#ffffff;stroke-linecap:square;stroke-linejoin:miter;stroke-width:1.25;"/>
   </g>
   <g id="patch_6">
    <path d="M 388.8 252 
L 388.8 34.56 
" style="fill:none;stroke:#ffffff;stroke-linecap:square;stroke-linejoin:miter;stroke-width:1.25;"/>
   </g>
   <g id="patch_7">
    <path d="M 54 252 
L 388.8 252 
" style="fill:none;stroke:#ffffff;stroke-linecap:square;stroke-linejoin:miter;stroke-width:1.25;"/>
   </g>
   <g id="patch_8">
    <path d="M 54 34.56 
L 388.8 34.56 
" style="fill:none;stroke:#ffffff;stroke-linecap:square;stroke-linejoin:miter;stroke-width:1.25;"/>
   </g>
   <g id="text_34">
    <!-- Reduction in global contacts vs growth rate -->
    <g style="fill:#262626;" transform="translate(107.011875 28.56)scale(0.12 -0.12)">
     <use xlink:href="#ArialMT-82"/>
     <use x="72.216797" xlink:href="#ArialMT-101"/>
     <use x="127.832031" xlink:href="#ArialMT-100"/>
     <use x="183.447266" xlink:href="#ArialMT-117"/>
     <use x="239.0625" xlink:href="#ArialMT-99"/>
     <use x="289.0625" xlink:href="#ArialMT-116"/>
     <use x="316.845703" xlink:href="#ArialMT-105"/>
     <use x="339.0625" xlink:href="#ArialMT-111"/>
     <use x="394.677734" xlink:href="#ArialMT-110"/>
     <use x="450.292969" xlink:href="#ArialMT-32"/>
     <use x="478.076172" xlink:href="#ArialMT-105"/>
     <use x="500.292969" xlink:href="#ArialMT-110"/>
     <use x="555.908203" xlink:href="#ArialMT-32"/>
     <use x="583.691406" xlink:href="#ArialMT-103"/>
     <use x="639.306641" xlink:href="#ArialMT-108"/>
     <use x="661.523438" xlink:href="#ArialMT-111"/>
     <use x="717.138672" xlink:href="#ArialMT-98"/>
     <use x="772.753906" xlink:href="#ArialMT-97"/>
     <use x="828.369141" xlink:href="#ArialMT-108"/>
     <use x="850.585938" xlink:href="#ArialMT-32"/>
     <use x="878.369141" xlink:href="#ArialMT-99"/>
     <use x="928.369141" xlink:href="#ArialMT-111"/>
     <use x="983.984375" xlink:href="#ArialMT-110"/>
     <use x="1039.599609" xlink:href="#ArialMT-116"/>
     <use x="1067.382812" xlink:href="#ArialMT-97"/>
     <use x="1122.998047" xlink:href="#ArialMT-99"/>
     <use x="1172.998047" xlink:href="#ArialMT-116"/>
     <use x="1200.78125" xlink:href="#ArialMT-115"/>
     <use x="1250.78125" xlink:href="#ArialMT-32"/>
     <use x="1278.564453" xlink:href="#ArialMT-118"/>
     <use x="1328.564453" xlink:href="#ArialMT-115"/>
     <use x="1378.564453" xlink:href="#ArialMT-32"/>
     <use x="1406.347656" xlink:href="#ArialMT-103"/>
     <use x="1461.962891" xlink:href="#ArialMT-114"/>
     <use x="1495.263672" xlink:href="#ArialMT-111"/>
     <use x="1550.878906" xlink:href="#ArialMT-119"/>
     <use x="1623.095703" xlink:href="#ArialMT-116"/>
     <use x="1650.878906" xlink:href="#ArialMT-104"/>
     <use x="1706.494141" xlink:href="#ArialMT-32"/>
     <use x="1734.277344" xlink:href="#ArialMT-114"/>
     <use x="1767.578125" xlink:href="#ArialMT-97"/>
     <use x="1823.193359" xlink:href="#ArialMT-116"/>
     <use x="1850.976562" xlink:href="#ArialMT-101"/>
    </g>
   </g>
   <g id="legend_1">
    <g id="patch_9">
     <path d="M 287.816562 74.608594 
L 381.1 74.608594 
Q 383.3 74.608594 383.3 72.408594 
L 383.3 42.26 
Q 383.3 40.06 381.1 40.06 
L 287.816562 40.06 
Q 285.616562 40.06 285.616562 42.26 
L 285.616562 72.408594 
Q 285.616562 74.608594 287.816562 74.608594 
z
" style="fill:#eaeaf2;opacity:0.8;stroke:#cccccc;stroke-linejoin:miter;"/>
    </g>
    <g id="line2d_49"/>
    <g id="line2d_50">
     <g>
      <use style="fill:#4c72b0;stroke:#4c72b0;" x="301.016562" xlink:href="#m733272c846" y="48.483594"/>
     </g>
    </g>
    <g id="text_35">
     <!-- growth_rate -->
     <defs>
      <path d="M -1.515625 -19.875 
L -1.515625 -13.53125 
L 56.734375 -13.53125 
L 56.734375 -19.875 
z
" id="ArialMT-95"/>
     </defs>
     <g style="fill:#262626;" transform="translate(320.816562 52.333594)scale(0.11 -0.11)">
      <use xlink:href="#ArialMT-103"/>
      <use x="55.615234" xlink:href="#ArialMT-114"/>
      <use x="88.916016" xlink:href="#ArialMT-111"/>
      <use x="144.53125" xlink:href="#ArialMT-119"/>
      <use x="216.748047" xlink:href="#ArialMT-116"/>
      <use x="244.53125" xlink:href="#ArialMT-104"/>
      <use x="300.146484" xlink:href="#ArialMT-95"/>
      <use x="355.761719" xlink:href="#ArialMT-114"/>
      <use x="389.0625" xlink:href="#ArialMT-97"/>
      <use x="444.677734" xlink:href="#ArialMT-116"/>
      <use x="472.460938" xlink:href="#ArialMT-101"/>
     </g>
    </g>
    <g id="line2d_51"/>
    <g id="line2d_52">
     <g>
      <use style="fill:#c44e52;stroke:#c44e52;stroke-linejoin:miter;" x="301.016562" xlink:href="#mb9697261f8" y="64.172344"/>
     </g>
    </g>
    <g id="text_36">
     <!-- fitted -->
     <defs>
      <path d="M 8.6875 0 
L 8.6875 45.015625 
L 0.921875 45.015625 
L 0.921875 51.859375 
L 8.6875 51.859375 
L 8.6875 57.375 
Q 8.6875 62.59375 9.625 65.140625 
Q 10.890625 68.5625 14.078125 70.671875 
Q 17.28125 72.796875 23.046875 72.796875 
Q 26.765625 72.796875 31.25 71.921875 
L 29.9375 64.265625 
Q 27.203125 64.75 24.75 64.75 
Q 20.75 64.75 19.09375 63.03125 
Q 17.4375 61.328125 17.4375 56.640625 
L 17.4375 51.859375 
L 27.546875 51.859375 
L 27.546875 45.015625 
L 17.4375 45.015625 
L 17.4375 0 
z
" id="ArialMT-102"/>
     </defs>
     <g style="fill:#262626;" transform="translate(320.816562 68.022344)scale(0.11 -0.11)">
      <use xlink:href="#ArialMT-102"/>
      <use x="27.783203" xlink:href="#ArialMT-105"/>
      <use x="50" xlink:href="#ArialMT-116"/>
      <use x="77.783203" xlink:href="#ArialMT-116"/>
      <use x="105.566406" xlink:href="#ArialMT-101"/>
      <use x="161.181641" xlink:href="#ArialMT-100"/>
     </g>
    </g>
   </g>
  </g>
 </g>
 <defs>
  <clipPath id="p685f1ff903">
   <rect height="217.44" width="0" x="388.8" y="34.56"/>
  </clipPath>
  <clipPath id="p8d85707c55">
   <rect height="217.44" width="334.8" x="54" y="34.56"/>
  </clipPath>
 </defs>
</svg>
