<?xml version="1.0" encoding="utf-8" standalone="no"?>
<!DOCTYPE svg PUBLIC "-//W3C//DTD SVG 1.1//EN"
  "http://www.w3.org/Graphics/SVG/1.1/DTD/svg11.dtd">
<!-- Created with matplotlib (https://matplotlib.org/) -->
<svg height="294.405094pt" version="1.1" viewBox="0 0 460.216094 294.405094" width="460.216094pt" xmlns="http://www.w3.org/2000/svg" xmlns:xlink="http://www.w3.org/1999/xlink">
 <defs>
  <style type="text/css">
*{stroke-linecap:butt;stroke-linejoin:round;}
  </style>
 </defs>
 <g id="figure_1">
  <g id="patch_1">
   <path d="M 0 294.405094 
L 460.216094 294.405094 
L 460.216094 0 
L 0 0 
z
" style="fill:#ffffff;"/>
  </g>
  <g id="axes_1">
   <g id="patch_2">
    <path d="M 59.506094 252.384 
L 394.306094 252.384 
L 394.306094 34.944 
L 59.506094 34.944 
z
" style="fill:#eaeaf2;"/>
   </g>
   <g id="axes_2">
    <g id="patch_3">
     <path d="M 394.306094 252.384 
L 394.306094 252.384 
L 394.306094 34.944 
L 394.306094 34.944 
z
" style="fill:#eaeaf2;"/>
    </g>
    <g id="matplotlib.axis_1"/>
    <g id="matplotlib.axis_2">
     <g id="ytick_1">
      <g id="line2d_1">
       <path clip-path="url(#p270c71d281)" d="M 394.306094 247.369062 
L 394.306094 247.369062 
" style="fill:none;stroke:#ffffff;stroke-linecap:round;"/>
      </g>
      <g id="line2d_2">
       <defs>
        <path d="M 0 0 
L 6 0 
" id="m514e2ac7a3" style="stroke:#262626;stroke-width:1.25;"/>
       </defs>
       <g>
        <use style="fill:#262626;stroke:#262626;stroke-width:1.25;" x="394.306094" xlink:href="#m514e2ac7a3" y="247.369062"/>
       </g>
      </g>
      <g id="text_1">
       <!-- −4.62 -->
       <defs>
        <path d="M 52.828125 31.203125 
L 5.5625 31.203125 
L 5.5625 39.40625 
L 52.828125 39.40625 
z
" id="ArialMT-8722"/>
        <path d="M 32.328125 0 
L 32.328125 17.140625 
L 1.265625 17.140625 
L 1.265625 25.203125 
L 33.9375 71.578125 
L 41.109375 71.578125 
L 41.109375 25.203125 
L 50.78125 25.203125 
L 50.78125 17.140625 
L 41.109375 17.140625 
L 41.109375 0 
z
M 32.328125 25.203125 
L 32.328125 57.46875 
L 9.90625 25.203125 
z
" id="ArialMT-52"/>
        <path d="M 9.078125 0 
L 9.078125 10.015625 
L 19.09375 10.015625 
L 19.09375 0 
z
" id="ArialMT-46"/>
        <path d="M 49.75 54.046875 
L 41.015625 53.375 
Q 39.84375 58.546875 37.703125 60.890625 
Q 34.125 64.65625 28.90625 64.65625 
Q 24.703125 64.65625 21.53125 62.3125 
Q 17.390625 59.28125 14.984375 53.46875 
Q 12.59375 47.65625 12.5 36.921875 
Q 15.671875 41.75 20.265625 44.09375 
Q 24.859375 46.4375 29.890625 46.4375 
Q 38.671875 46.4375 44.84375 39.96875 
Q 51.03125 33.5 51.03125 23.25 
Q 51.03125 16.5 48.125 10.71875 
Q 45.21875 4.9375 40.140625 1.859375 
Q 35.0625 -1.21875 28.609375 -1.21875 
Q 17.625 -1.21875 10.6875 6.859375 
Q 3.765625 14.9375 3.765625 33.5 
Q 3.765625 54.25 11.421875 63.671875 
Q 18.109375 71.875 29.4375 71.875 
Q 37.890625 71.875 43.28125 67.140625 
Q 48.6875 62.40625 49.75 54.046875 
z
M 13.875 23.1875 
Q 13.875 18.65625 15.796875 14.5 
Q 17.71875 10.359375 21.1875 8.171875 
Q 24.65625 6 28.46875 6 
Q 34.03125 6 38.03125 10.484375 
Q 42.046875 14.984375 42.046875 22.703125 
Q 42.046875 30.125 38.078125 34.390625 
Q 34.125 38.671875 28.125 38.671875 
Q 22.171875 38.671875 18.015625 34.390625 
Q 13.875 30.125 13.875 23.1875 
z
" id="ArialMT-54"/>
        <path d="M 50.34375 8.453125 
L 50.34375 0 
L 3.03125 0 
Q 2.9375 3.171875 4.046875 6.109375 
Q 5.859375 10.9375 9.828125 15.625 
Q 13.8125 20.3125 21.34375 26.46875 
Q 33.015625 36.03125 37.109375 41.625 
Q 41.21875 47.21875 41.21875 52.203125 
Q 41.21875 57.421875 37.46875 61 
Q 33.734375 64.59375 27.734375 64.59375 
Q 21.390625 64.59375 17.578125 60.78125 
Q 13.765625 56.984375 13.71875 50.25 
L 4.6875 51.171875 
Q 5.609375 61.28125 11.65625 66.578125 
Q 17.71875 71.875 27.9375 71.875 
Q 38.234375 71.875 44.234375 66.15625 
Q 50.25 60.453125 50.25 52 
Q 50.25 47.703125 48.484375 43.546875 
Q 46.734375 39.40625 42.65625 34.8125 
Q 38.578125 30.21875 29.109375 22.21875 
Q 21.1875 15.578125 18.9375 13.203125 
Q 16.703125 10.84375 15.234375 8.453125 
z
" id="ArialMT-50"/>
       </defs>
       <g style="fill:#262626;" transform="translate(403.806094 251.305859)scale(0.11 -0.11)">
        <use xlink:href="#ArialMT-8722"/>
        <use x="58.398438" xlink:href="#ArialMT-52"/>
        <use x="114.013672" xlink:href="#ArialMT-46"/>
        <use x="141.796875" xlink:href="#ArialMT-54"/>
        <use x="197.412109" xlink:href="#ArialMT-50"/>
       </g>
      </g>
     </g>
     <g id="ytick_2">
      <g id="line2d_3">
       <path clip-path="url(#p270c71d281)" d="M 394.306094 233.67964 
L 394.306094 233.67964 
" style="fill:none;stroke:#ffffff;stroke-linecap:round;"/>
      </g>
      <g id="line2d_4">
       <g>
        <use style="fill:#262626;stroke:#262626;stroke-width:1.25;" x="394.306094" xlink:href="#m514e2ac7a3" y="233.67964"/>
       </g>
      </g>
      <g id="text_2">
       <!-- −5.55 -->
       <defs>
        <path d="M 4.15625 18.75 
L 13.375 19.53125 
Q 14.40625 12.796875 18.140625 9.390625 
Q 21.875 6 27.15625 6 
Q 33.5 6 37.890625 10.78125 
Q 42.28125 15.578125 42.28125 23.484375 
Q 42.28125 31 38.0625 35.34375 
Q 33.84375 39.703125 27 39.703125 
Q 22.75 39.703125 19.328125 37.765625 
Q 15.921875 35.84375 13.96875 32.765625 
L 5.71875 33.84375 
L 12.640625 70.609375 
L 48.25 70.609375 
L 48.25 62.203125 
L 19.671875 62.203125 
L 15.828125 42.96875 
Q 22.265625 47.46875 29.34375 47.46875 
Q 38.71875 47.46875 45.15625 40.96875 
Q 51.609375 34.46875 51.609375 24.265625 
Q 51.609375 14.546875 45.953125 7.46875 
Q 39.0625 -1.21875 27.15625 -1.21875 
Q 17.390625 -1.21875 11.203125 4.25 
Q 5.03125 9.71875 4.15625 18.75 
z
" id="ArialMT-53"/>
       </defs>
       <g style="fill:#262626;" transform="translate(403.806094 237.616437)scale(0.11 -0.11)">
        <use xlink:href="#ArialMT-8722"/>
        <use x="58.398438" xlink:href="#ArialMT-53"/>
        <use x="114.013672" xlink:href="#ArialMT-46"/>
        <use x="141.796875" xlink:href="#ArialMT-53"/>
        <use x="197.412109" xlink:href="#ArialMT-53"/>
       </g>
      </g>
     </g>
     <g id="ytick_3">
      <g id="line2d_5">
       <path clip-path="url(#p270c71d281)" d="M 394.306094 219.990219 
L 394.306094 219.990219 
" style="fill:none;stroke:#ffffff;stroke-linecap:round;"/>
      </g>
      <g id="line2d_6">
       <g>
        <use style="fill:#262626;stroke:#262626;stroke-width:1.25;" x="394.306094" xlink:href="#m514e2ac7a3" y="219.990219"/>
       </g>
      </g>
      <g id="text_3">
       <!-- −6.93 -->
       <defs>
        <path d="M 5.46875 16.546875 
L 13.921875 17.328125 
Q 14.984375 11.375 18.015625 8.6875 
Q 21.046875 6 25.78125 6 
Q 29.828125 6 32.875 7.859375 
Q 35.9375 9.71875 37.890625 12.8125 
Q 39.84375 15.921875 41.15625 21.1875 
Q 42.484375 26.46875 42.484375 31.9375 
Q 42.484375 32.515625 42.4375 33.6875 
Q 39.796875 29.5 35.234375 26.875 
Q 30.671875 24.265625 25.34375 24.265625 
Q 16.453125 24.265625 10.296875 30.703125 
Q 4.15625 37.15625 4.15625 47.703125 
Q 4.15625 58.59375 10.578125 65.234375 
Q 17 71.875 26.65625 71.875 
Q 33.640625 71.875 39.421875 68.109375 
Q 45.21875 64.359375 48.21875 57.390625 
Q 51.21875 50.4375 51.21875 37.25 
Q 51.21875 23.53125 48.234375 15.40625 
Q 45.265625 7.28125 39.375 3.03125 
Q 33.5 -1.21875 25.59375 -1.21875 
Q 17.1875 -1.21875 11.859375 3.4375 
Q 6.546875 8.109375 5.46875 16.546875 
z
M 41.453125 48.140625 
Q 41.453125 55.71875 37.421875 60.15625 
Q 33.40625 64.59375 27.734375 64.59375 
Q 21.875 64.59375 17.53125 59.8125 
Q 13.1875 55.03125 13.1875 47.40625 
Q 13.1875 40.578125 17.3125 36.296875 
Q 21.4375 32.03125 27.484375 32.03125 
Q 33.59375 32.03125 37.515625 36.296875 
Q 41.453125 40.578125 41.453125 48.140625 
z
" id="ArialMT-57"/>
        <path d="M 4.203125 18.890625 
L 12.984375 20.0625 
Q 14.5 12.59375 18.140625 9.296875 
Q 21.78125 6 27 6 
Q 33.203125 6 37.46875 10.296875 
Q 41.75 14.59375 41.75 20.953125 
Q 41.75 27 37.796875 30.921875 
Q 33.84375 34.859375 27.734375 34.859375 
Q 25.25 34.859375 21.53125 33.890625 
L 22.515625 41.609375 
Q 23.390625 41.5 23.921875 41.5 
Q 29.546875 41.5 34.03125 44.421875 
Q 38.53125 47.359375 38.53125 53.46875 
Q 38.53125 58.296875 35.25 61.46875 
Q 31.984375 64.65625 26.8125 64.65625 
Q 21.6875 64.65625 18.265625 61.421875 
Q 14.84375 58.203125 13.875 51.765625 
L 5.078125 53.328125 
Q 6.6875 62.15625 12.390625 67.015625 
Q 18.109375 71.875 26.609375 71.875 
Q 32.46875 71.875 37.390625 69.359375 
Q 42.328125 66.84375 44.9375 62.5 
Q 47.5625 58.15625 47.5625 53.265625 
Q 47.5625 48.640625 45.0625 44.828125 
Q 42.578125 41.015625 37.703125 38.765625 
Q 44.046875 37.3125 47.5625 32.6875 
Q 51.078125 28.078125 51.078125 21.140625 
Q 51.078125 11.765625 44.234375 5.25 
Q 37.40625 -1.265625 26.953125 -1.265625 
Q 17.53125 -1.265625 11.296875 4.34375 
Q 5.078125 9.96875 4.203125 18.890625 
z
" id="ArialMT-51"/>
       </defs>
       <g style="fill:#262626;" transform="translate(403.806094 223.927016)scale(0.11 -0.11)">
        <use xlink:href="#ArialMT-8722"/>
        <use x="58.398438" xlink:href="#ArialMT-54"/>
        <use x="114.013672" xlink:href="#ArialMT-46"/>
        <use x="141.796875" xlink:href="#ArialMT-57"/>
        <use x="197.412109" xlink:href="#ArialMT-51"/>
       </g>
      </g>
     </g>
     <g id="ytick_4">
      <g id="line2d_7">
       <path clip-path="url(#p270c71d281)" d="M 394.306094 206.300797 
L 394.306094 206.300797 
" style="fill:none;stroke:#ffffff;stroke-linecap:round;"/>
      </g>
      <g id="line2d_8">
       <g>
        <use style="fill:#262626;stroke:#262626;stroke-width:1.25;" x="394.306094" xlink:href="#m514e2ac7a3" y="206.300797"/>
       </g>
      </g>
      <g id="text_4">
       <!-- −9.24 -->
       <g style="fill:#262626;" transform="translate(403.806094 210.237594)scale(0.11 -0.11)">
        <use xlink:href="#ArialMT-8722"/>
        <use x="58.398438" xlink:href="#ArialMT-57"/>
        <use x="114.013672" xlink:href="#ArialMT-46"/>
        <use x="141.796875" xlink:href="#ArialMT-50"/>
        <use x="197.412109" xlink:href="#ArialMT-52"/>
       </g>
      </g>
     </g>
     <g id="ytick_5">
      <g id="line2d_9">
       <path clip-path="url(#p270c71d281)" d="M 394.306094 192.611376 
L 394.306094 192.611376 
" style="fill:none;stroke:#ffffff;stroke-linecap:round;"/>
      </g>
      <g id="line2d_10">
       <g>
        <use style="fill:#262626;stroke:#262626;stroke-width:1.25;" x="394.306094" xlink:href="#m514e2ac7a3" y="192.611376"/>
       </g>
      </g>
      <g id="text_5">
       <!-- −13.86 -->
       <defs>
        <path d="M 37.25 0 
L 28.46875 0 
L 28.46875 56 
Q 25.296875 52.984375 20.140625 49.953125 
Q 14.984375 46.921875 10.890625 45.40625 
L 10.890625 53.90625 
Q 18.265625 57.375 23.78125 62.296875 
Q 29.296875 67.234375 31.59375 71.875 
L 37.25 71.875 
z
" id="ArialMT-49"/>
        <path d="M 17.671875 38.8125 
Q 12.203125 40.828125 9.5625 44.53125 
Q 6.9375 48.25 6.9375 53.421875 
Q 6.9375 61.234375 12.546875 66.546875 
Q 18.171875 71.875 27.484375 71.875 
Q 36.859375 71.875 42.578125 66.421875 
Q 48.296875 60.984375 48.296875 53.171875 
Q 48.296875 48.1875 45.671875 44.5 
Q 43.0625 40.828125 37.75 38.8125 
Q 44.34375 36.671875 47.78125 31.875 
Q 51.21875 27.09375 51.21875 20.453125 
Q 51.21875 11.28125 44.71875 5.03125 
Q 38.234375 -1.21875 27.640625 -1.21875 
Q 17.046875 -1.21875 10.546875 5.046875 
Q 4.046875 11.328125 4.046875 20.703125 
Q 4.046875 27.6875 7.59375 32.390625 
Q 11.140625 37.109375 17.671875 38.8125 
z
M 15.921875 53.71875 
Q 15.921875 48.640625 19.1875 45.40625 
Q 22.46875 42.1875 27.6875 42.1875 
Q 32.765625 42.1875 36.015625 45.375 
Q 39.265625 48.578125 39.265625 53.21875 
Q 39.265625 58.0625 35.90625 61.359375 
Q 32.5625 64.65625 27.59375 64.65625 
Q 22.5625 64.65625 19.234375 61.421875 
Q 15.921875 58.203125 15.921875 53.71875 
z
M 13.09375 20.65625 
Q 13.09375 16.890625 14.875 13.375 
Q 16.65625 9.859375 20.171875 7.921875 
Q 23.6875 6 27.734375 6 
Q 34.03125 6 38.125 10.046875 
Q 42.234375 14.109375 42.234375 20.359375 
Q 42.234375 26.703125 38.015625 30.859375 
Q 33.796875 35.015625 27.4375 35.015625 
Q 21.234375 35.015625 17.15625 30.90625 
Q 13.09375 26.8125 13.09375 20.65625 
z
" id="ArialMT-56"/>
       </defs>
       <g style="fill:#262626;" transform="translate(403.806094 196.548173)scale(0.11 -0.11)">
        <use xlink:href="#ArialMT-8722"/>
        <use x="58.398438" xlink:href="#ArialMT-49"/>
        <use x="114.013672" xlink:href="#ArialMT-51"/>
        <use x="169.628906" xlink:href="#ArialMT-46"/>
        <use x="197.412109" xlink:href="#ArialMT-56"/>
        <use x="253.027344" xlink:href="#ArialMT-54"/>
       </g>
      </g>
     </g>
     <g id="ytick_6">
      <g id="line2d_11">
       <path clip-path="url(#p270c71d281)" d="M 394.306094 178.921954 
L 394.306094 178.921954 
" style="fill:none;stroke:#ffffff;stroke-linecap:round;"/>
      </g>
      <g id="line2d_12">
       <g>
        <use style="fill:#262626;stroke:#262626;stroke-width:1.25;" x="394.306094" xlink:href="#m514e2ac7a3" y="178.921954"/>
       </g>
      </g>
      <g id="text_6">
       <!-- −27.73 -->
       <defs>
        <path d="M 4.734375 62.203125 
L 4.734375 70.65625 
L 51.078125 70.65625 
L 51.078125 63.8125 
Q 44.234375 56.546875 37.515625 44.484375 
Q 30.8125 32.421875 27.15625 19.671875 
Q 24.515625 10.6875 23.78125 0 
L 14.75 0 
Q 14.890625 8.453125 18.0625 20.40625 
Q 21.234375 32.375 27.171875 43.484375 
Q 33.109375 54.59375 39.796875 62.203125 
z
" id="ArialMT-55"/>
       </defs>
       <g style="fill:#262626;" transform="translate(403.806094 182.858751)scale(0.11 -0.11)">
        <use xlink:href="#ArialMT-8722"/>
        <use x="58.398438" xlink:href="#ArialMT-50"/>
        <use x="114.013672" xlink:href="#ArialMT-55"/>
        <use x="169.628906" xlink:href="#ArialMT-46"/>
        <use x="197.412109" xlink:href="#ArialMT-55"/>
        <use x="253.027344" xlink:href="#ArialMT-51"/>
       </g>
      </g>
     </g>
     <g id="ytick_7">
      <g id="line2d_13">
       <path clip-path="url(#p270c71d281)" d="M 394.306094 151.543111 
L 394.306094 151.543111 
" style="fill:none;stroke:#ffffff;stroke-linecap:round;"/>
      </g>
      <g id="line2d_14">
       <g>
        <use style="fill:#262626;stroke:#262626;stroke-width:1.25;" x="394.306094" xlink:href="#m514e2ac7a3" y="151.543111"/>
       </g>
      </g>
      <g id="text_7">
       <!-- 27.73 -->
       <g style="fill:#262626;" transform="translate(403.806094 155.479908)scale(0.11 -0.11)">
        <use xlink:href="#ArialMT-50"/>
        <use x="55.615234" xlink:href="#ArialMT-55"/>
        <use x="111.230469" xlink:href="#ArialMT-46"/>
        <use x="139.013672" xlink:href="#ArialMT-55"/>
        <use x="194.628906" xlink:href="#ArialMT-51"/>
       </g>
      </g>
     </g>
     <g id="ytick_8">
      <g id="line2d_15">
       <path clip-path="url(#p270c71d281)" d="M 394.306094 137.85369 
L 394.306094 137.85369 
" style="fill:none;stroke:#ffffff;stroke-linecap:round;"/>
      </g>
      <g id="line2d_16">
       <g>
        <use style="fill:#262626;stroke:#262626;stroke-width:1.25;" x="394.306094" xlink:href="#m514e2ac7a3" y="137.85369"/>
       </g>
      </g>
      <g id="text_8">
       <!-- 13.86 -->
       <g style="fill:#262626;" transform="translate(403.806094 141.790487)scale(0.11 -0.11)">
        <use xlink:href="#ArialMT-49"/>
        <use x="55.615234" xlink:href="#ArialMT-51"/>
        <use x="111.230469" xlink:href="#ArialMT-46"/>
        <use x="139.013672" xlink:href="#ArialMT-56"/>
        <use x="194.628906" xlink:href="#ArialMT-54"/>
       </g>
      </g>
     </g>
     <g id="ytick_9">
      <g id="line2d_17">
       <path clip-path="url(#p270c71d281)" d="M 394.306094 124.164268 
L 394.306094 124.164268 
" style="fill:none;stroke:#ffffff;stroke-linecap:round;"/>
      </g>
      <g id="line2d_18">
       <g>
        <use style="fill:#262626;stroke:#262626;stroke-width:1.25;" x="394.306094" xlink:href="#m514e2ac7a3" y="124.164268"/>
       </g>
      </g>
      <g id="text_9">
       <!-- 9.24 -->
       <g style="fill:#262626;" transform="translate(403.806094 128.101065)scale(0.11 -0.11)">
        <use xlink:href="#ArialMT-57"/>
        <use x="55.615234" xlink:href="#ArialMT-46"/>
        <use x="83.398438" xlink:href="#ArialMT-50"/>
        <use x="139.013672" xlink:href="#ArialMT-52"/>
       </g>
      </g>
     </g>
     <g id="ytick_10">
      <g id="line2d_19">
       <path clip-path="url(#p270c71d281)" d="M 394.306094 110.474847 
L 394.306094 110.474847 
" style="fill:none;stroke:#ffffff;stroke-linecap:round;"/>
      </g>
      <g id="line2d_20">
       <g>
        <use style="fill:#262626;stroke:#262626;stroke-width:1.25;" x="394.306094" xlink:href="#m514e2ac7a3" y="110.474847"/>
       </g>
      </g>
      <g id="text_10">
       <!-- 6.93 -->
       <g style="fill:#262626;" transform="translate(403.806094 114.411644)scale(0.11 -0.11)">
        <use xlink:href="#ArialMT-54"/>
        <use x="55.615234" xlink:href="#ArialMT-46"/>
        <use x="83.398438" xlink:href="#ArialMT-57"/>
        <use x="139.013672" xlink:href="#ArialMT-51"/>
       </g>
      </g>
     </g>
     <g id="ytick_11">
      <g id="line2d_21">
       <path clip-path="url(#p270c71d281)" d="M 394.306094 96.785425 
L 394.306094 96.785425 
" style="fill:none;stroke:#ffffff;stroke-linecap:round;"/>
      </g>
      <g id="line2d_22">
       <g>
        <use style="fill:#262626;stroke:#262626;stroke-width:1.25;" x="394.306094" xlink:href="#m514e2ac7a3" y="96.785425"/>
       </g>
      </g>
      <g id="text_11">
       <!-- 5.55 -->
       <g style="fill:#262626;" transform="translate(403.806094 100.722222)scale(0.11 -0.11)">
        <use xlink:href="#ArialMT-53"/>
        <use x="55.615234" xlink:href="#ArialMT-46"/>
        <use x="83.398438" xlink:href="#ArialMT-53"/>
        <use x="139.013672" xlink:href="#ArialMT-53"/>
       </g>
      </g>
     </g>
     <g id="ytick_12">
      <g id="line2d_23">
       <path clip-path="url(#p270c71d281)" d="M 394.306094 83.096004 
L 394.306094 83.096004 
" style="fill:none;stroke:#ffffff;stroke-linecap:round;"/>
      </g>
      <g id="line2d_24">
       <g>
        <use style="fill:#262626;stroke:#262626;stroke-width:1.25;" x="394.306094" xlink:href="#m514e2ac7a3" y="83.096004"/>
       </g>
      </g>
      <g id="text_12">
       <!-- 4.62 -->
       <g style="fill:#262626;" transform="translate(403.806094 87.032801)scale(0.11 -0.11)">
        <use xlink:href="#ArialMT-52"/>
        <use x="55.615234" xlink:href="#ArialMT-46"/>
        <use x="83.398438" xlink:href="#ArialMT-54"/>
        <use x="139.013672" xlink:href="#ArialMT-50"/>
       </g>
      </g>
     </g>
     <g id="ytick_13">
      <g id="line2d_25">
       <path clip-path="url(#p270c71d281)" d="M 394.306094 69.406582 
L 394.306094 69.406582 
" style="fill:none;stroke:#ffffff;stroke-linecap:round;"/>
      </g>
      <g id="line2d_26">
       <g>
        <use style="fill:#262626;stroke:#262626;stroke-width:1.25;" x="394.306094" xlink:href="#m514e2ac7a3" y="69.406582"/>
       </g>
      </g>
      <g id="text_13">
       <!-- 3.96 -->
       <g style="fill:#262626;" transform="translate(403.806094 73.343379)scale(0.11 -0.11)">
        <use xlink:href="#ArialMT-51"/>
        <use x="55.615234" xlink:href="#ArialMT-46"/>
        <use x="83.398438" xlink:href="#ArialMT-57"/>
        <use x="139.013672" xlink:href="#ArialMT-54"/>
       </g>
      </g>
     </g>
     <g id="ytick_14">
      <g id="line2d_27">
       <path clip-path="url(#p270c71d281)" d="M 394.306094 55.717161 
L 394.306094 55.717161 
" style="fill:none;stroke:#ffffff;stroke-linecap:round;"/>
      </g>
      <g id="line2d_28">
       <g>
        <use style="fill:#262626;stroke:#262626;stroke-width:1.25;" x="394.306094" xlink:href="#m514e2ac7a3" y="55.717161"/>
       </g>
      </g>
      <g id="text_14">
       <!-- 3.47 -->
       <g style="fill:#262626;" transform="translate(403.806094 59.653958)scale(0.11 -0.11)">
        <use xlink:href="#ArialMT-51"/>
        <use x="55.615234" xlink:href="#ArialMT-46"/>
        <use x="83.398438" xlink:href="#ArialMT-52"/>
        <use x="139.013672" xlink:href="#ArialMT-55"/>
       </g>
      </g>
     </g>
     <g id="ytick_15">
      <g id="line2d_29">
       <path clip-path="url(#p270c71d281)" d="M 394.306094 42.027739 
L 394.306094 42.027739 
" style="fill:none;stroke:#ffffff;stroke-linecap:round;"/>
      </g>
      <g id="line2d_30">
       <g>
        <use style="fill:#262626;stroke:#262626;stroke-width:1.25;" x="394.306094" xlink:href="#m514e2ac7a3" y="42.027739"/>
       </g>
      </g>
      <g id="text_15">
       <!-- 3.08 -->
       <defs>
        <path d="M 4.15625 35.296875 
Q 4.15625 48 6.765625 55.734375 
Q 9.375 63.484375 14.515625 67.671875 
Q 19.671875 71.875 27.484375 71.875 
Q 33.25 71.875 37.59375 69.546875 
Q 41.9375 67.234375 44.765625 62.859375 
Q 47.609375 58.5 49.21875 52.21875 
Q 50.828125 45.953125 50.828125 35.296875 
Q 50.828125 22.703125 48.234375 14.96875 
Q 45.65625 7.234375 40.5 3 
Q 35.359375 -1.21875 27.484375 -1.21875 
Q 17.140625 -1.21875 11.234375 6.203125 
Q 4.15625 15.140625 4.15625 35.296875 
z
M 13.1875 35.296875 
Q 13.1875 17.671875 17.3125 11.828125 
Q 21.4375 6 27.484375 6 
Q 33.546875 6 37.671875 11.859375 
Q 41.796875 17.71875 41.796875 35.296875 
Q 41.796875 52.984375 37.671875 58.78125 
Q 33.546875 64.59375 27.390625 64.59375 
Q 21.34375 64.59375 17.71875 59.46875 
Q 13.1875 52.9375 13.1875 35.296875 
z
" id="ArialMT-48"/>
       </defs>
       <g style="fill:#262626;" transform="translate(403.806094 45.964536)scale(0.11 -0.11)">
        <use xlink:href="#ArialMT-51"/>
        <use x="55.615234" xlink:href="#ArialMT-46"/>
        <use x="83.398438" xlink:href="#ArialMT-48"/>
        <use x="139.013672" xlink:href="#ArialMT-56"/>
       </g>
      </g>
     </g>
     <g id="text_16">
      <!-- Halving / doubling times (days) -->
      <defs>
       <path d="M 8.015625 0 
L 8.015625 71.578125 
L 17.484375 71.578125 
L 17.484375 42.1875 
L 54.6875 42.1875 
L 54.6875 71.578125 
L 64.15625 71.578125 
L 64.15625 0 
L 54.6875 0 
L 54.6875 33.734375 
L 17.484375 33.734375 
L 17.484375 0 
z
" id="ArialMT-72"/>
       <path d="M 40.4375 6.390625 
Q 35.546875 2.25 31.03125 0.53125 
Q 26.515625 -1.171875 21.34375 -1.171875 
Q 12.796875 -1.171875 8.203125 3 
Q 3.609375 7.171875 3.609375 13.671875 
Q 3.609375 17.484375 5.34375 20.625 
Q 7.078125 23.78125 9.890625 25.6875 
Q 12.703125 27.59375 16.21875 28.5625 
Q 18.796875 29.25 24.03125 29.890625 
Q 34.671875 31.15625 39.703125 32.90625 
Q 39.75 34.71875 39.75 35.203125 
Q 39.75 40.578125 37.25 42.78125 
Q 33.890625 45.75 27.25 45.75 
Q 21.046875 45.75 18.09375 43.578125 
Q 15.140625 41.40625 13.71875 35.890625 
L 5.125 37.0625 
Q 6.296875 42.578125 8.984375 45.96875 
Q 11.671875 49.359375 16.75 51.1875 
Q 21.828125 53.03125 28.515625 53.03125 
Q 35.15625 53.03125 39.296875 51.46875 
Q 43.453125 49.90625 45.40625 47.53125 
Q 47.359375 45.171875 48.140625 41.546875 
Q 48.578125 39.3125 48.578125 33.453125 
L 48.578125 21.734375 
Q 48.578125 9.46875 49.140625 6.21875 
Q 49.703125 2.984375 51.375 0 
L 42.1875 0 
Q 40.828125 2.734375 40.4375 6.390625 
z
M 39.703125 26.03125 
Q 34.90625 24.078125 25.34375 22.703125 
Q 19.921875 21.921875 17.671875 20.9375 
Q 15.4375 19.96875 14.203125 18.09375 
Q 12.984375 16.21875 12.984375 13.921875 
Q 12.984375 10.40625 15.640625 8.0625 
Q 18.3125 5.71875 23.4375 5.71875 
Q 28.515625 5.71875 32.46875 7.9375 
Q 36.421875 10.15625 38.28125 14.015625 
Q 39.703125 17 39.703125 22.796875 
z
" id="ArialMT-97"/>
       <path d="M 6.390625 0 
L 6.390625 71.578125 
L 15.1875 71.578125 
L 15.1875 0 
z
" id="ArialMT-108"/>
       <path d="M 21 0 
L 1.265625 51.859375 
L 10.546875 51.859375 
L 21.6875 20.796875 
Q 23.484375 15.765625 25 10.359375 
Q 26.171875 14.453125 28.265625 20.21875 
L 39.796875 51.859375 
L 48.828125 51.859375 
L 29.203125 0 
z
" id="ArialMT-118"/>
       <path d="M 6.640625 61.46875 
L 6.640625 71.578125 
L 15.4375 71.578125 
L 15.4375 61.46875 
z
M 6.640625 0 
L 6.640625 51.859375 
L 15.4375 51.859375 
L 15.4375 0 
z
" id="ArialMT-105"/>
       <path d="M 6.59375 0 
L 6.59375 51.859375 
L 14.5 51.859375 
L 14.5 44.484375 
Q 20.21875 53.03125 31 53.03125 
Q 35.6875 53.03125 39.625 51.34375 
Q 43.5625 49.65625 45.515625 46.921875 
Q 47.46875 44.1875 48.25 40.4375 
Q 48.734375 37.984375 48.734375 31.890625 
L 48.734375 0 
L 39.9375 0 
L 39.9375 31.546875 
Q 39.9375 36.921875 38.90625 39.578125 
Q 37.890625 42.234375 35.28125 43.8125 
Q 32.671875 45.40625 29.15625 45.40625 
Q 23.53125 45.40625 19.453125 41.84375 
Q 15.375 38.28125 15.375 28.328125 
L 15.375 0 
z
" id="ArialMT-110"/>
       <path d="M 4.984375 -4.296875 
L 13.53125 -5.5625 
Q 14.0625 -9.515625 16.5 -11.328125 
Q 19.78125 -13.765625 25.4375 -13.765625 
Q 31.546875 -13.765625 34.859375 -11.328125 
Q 38.1875 -8.890625 39.359375 -4.5 
Q 40.046875 -1.8125 39.984375 6.78125 
Q 34.234375 0 25.640625 0 
Q 14.9375 0 9.078125 7.71875 
Q 3.21875 15.4375 3.21875 26.21875 
Q 3.21875 33.640625 5.90625 39.90625 
Q 8.59375 46.1875 13.6875 49.609375 
Q 18.796875 53.03125 25.6875 53.03125 
Q 34.859375 53.03125 40.828125 45.609375 
L 40.828125 51.859375 
L 48.921875 51.859375 
L 48.921875 7.03125 
Q 48.921875 -5.078125 46.453125 -10.125 
Q 44 -15.1875 38.640625 -18.109375 
Q 33.296875 -21.046875 25.484375 -21.046875 
Q 16.21875 -21.046875 10.5 -16.875 
Q 4.78125 -12.703125 4.984375 -4.296875 
z
M 12.25 26.859375 
Q 12.25 16.65625 16.296875 11.96875 
Q 20.359375 7.28125 26.46875 7.28125 
Q 32.515625 7.28125 36.609375 11.9375 
Q 40.71875 16.609375 40.71875 26.5625 
Q 40.71875 36.078125 36.5 40.90625 
Q 32.28125 45.75 26.3125 45.75 
Q 20.453125 45.75 16.34375 40.984375 
Q 12.25 36.234375 12.25 26.859375 
z
" id="ArialMT-103"/>
       <path id="ArialMT-32"/>
       <path d="M 0 -1.21875 
L 20.75 72.796875 
L 27.78125 72.796875 
L 7.078125 -1.21875 
z
" id="ArialMT-47"/>
       <path d="M 40.234375 0 
L 40.234375 6.546875 
Q 35.296875 -1.171875 25.734375 -1.171875 
Q 19.53125 -1.171875 14.328125 2.25 
Q 9.125 5.671875 6.265625 11.796875 
Q 3.421875 17.921875 3.421875 25.875 
Q 3.421875 33.640625 6 39.96875 
Q 8.59375 46.296875 13.765625 49.65625 
Q 18.953125 53.03125 25.34375 53.03125 
Q 30.03125 53.03125 33.6875 51.046875 
Q 37.359375 49.078125 39.65625 45.90625 
L 39.65625 71.578125 
L 48.390625 71.578125 
L 48.390625 0 
z
M 12.453125 25.875 
Q 12.453125 15.921875 16.640625 10.984375 
Q 20.84375 6.0625 26.5625 6.0625 
Q 32.328125 6.0625 36.34375 10.765625 
Q 40.375 15.484375 40.375 25.140625 
Q 40.375 35.796875 36.265625 40.765625 
Q 32.171875 45.75 26.171875 45.75 
Q 20.3125 45.75 16.375 40.96875 
Q 12.453125 36.1875 12.453125 25.875 
z
" id="ArialMT-100"/>
       <path d="M 3.328125 25.921875 
Q 3.328125 40.328125 11.328125 47.265625 
Q 18.015625 53.03125 27.640625 53.03125 
Q 38.328125 53.03125 45.109375 46.015625 
Q 51.90625 39.015625 51.90625 26.65625 
Q 51.90625 16.65625 48.90625 10.90625 
Q 45.90625 5.171875 40.15625 2 
Q 34.421875 -1.171875 27.640625 -1.171875 
Q 16.75 -1.171875 10.03125 5.8125 
Q 3.328125 12.796875 3.328125 25.921875 
z
M 12.359375 25.921875 
Q 12.359375 15.96875 16.703125 11.015625 
Q 21.046875 6.0625 27.640625 6.0625 
Q 34.1875 6.0625 38.53125 11.03125 
Q 42.875 16.015625 42.875 26.21875 
Q 42.875 35.84375 38.5 40.796875 
Q 34.125 45.75 27.640625 45.75 
Q 21.046875 45.75 16.703125 40.8125 
Q 12.359375 35.890625 12.359375 25.921875 
z
" id="ArialMT-111"/>
       <path d="M 40.578125 0 
L 40.578125 7.625 
Q 34.515625 -1.171875 24.125 -1.171875 
Q 19.53125 -1.171875 15.546875 0.578125 
Q 11.578125 2.34375 9.640625 5 
Q 7.71875 7.671875 6.9375 11.53125 
Q 6.390625 14.109375 6.390625 19.734375 
L 6.390625 51.859375 
L 15.1875 51.859375 
L 15.1875 23.09375 
Q 15.1875 16.21875 15.71875 13.8125 
Q 16.546875 10.359375 19.234375 8.375 
Q 21.921875 6.390625 25.875 6.390625 
Q 29.828125 6.390625 33.296875 8.421875 
Q 36.765625 10.453125 38.203125 13.9375 
Q 39.65625 17.4375 39.65625 24.078125 
L 39.65625 51.859375 
L 48.4375 51.859375 
L 48.4375 0 
z
" id="ArialMT-117"/>
       <path d="M 14.703125 0 
L 6.546875 0 
L 6.546875 71.578125 
L 15.328125 71.578125 
L 15.328125 46.046875 
Q 20.90625 53.03125 29.546875 53.03125 
Q 34.328125 53.03125 38.59375 51.09375 
Q 42.875 49.171875 45.625 45.671875 
Q 48.390625 42.1875 49.953125 37.25 
Q 51.515625 32.328125 51.515625 26.703125 
Q 51.515625 13.375 44.921875 6.09375 
Q 38.328125 -1.171875 29.109375 -1.171875 
Q 19.921875 -1.171875 14.703125 6.5 
z
M 14.59375 26.3125 
Q 14.59375 17 17.140625 12.84375 
Q 21.296875 6.0625 28.375 6.0625 
Q 34.125 6.0625 38.328125 11.0625 
Q 42.53125 16.0625 42.53125 25.984375 
Q 42.53125 36.140625 38.5 40.96875 
Q 34.46875 45.796875 28.765625 45.796875 
Q 23 45.796875 18.796875 40.796875 
Q 14.59375 35.796875 14.59375 26.3125 
z
" id="ArialMT-98"/>
       <path d="M 25.78125 7.859375 
L 27.046875 0.09375 
Q 23.34375 -0.6875 20.40625 -0.6875 
Q 15.625 -0.6875 12.984375 0.828125 
Q 10.359375 2.34375 9.28125 4.8125 
Q 8.203125 7.28125 8.203125 15.1875 
L 8.203125 45.015625 
L 1.765625 45.015625 
L 1.765625 51.859375 
L 8.203125 51.859375 
L 8.203125 64.703125 
L 16.9375 69.96875 
L 16.9375 51.859375 
L 25.78125 51.859375 
L 25.78125 45.015625 
L 16.9375 45.015625 
L 16.9375 14.703125 
Q 16.9375 10.9375 17.40625 9.859375 
Q 17.875 8.796875 18.921875 8.15625 
Q 19.96875 7.515625 21.921875 7.515625 
Q 23.390625 7.515625 25.78125 7.859375 
z
" id="ArialMT-116"/>
       <path d="M 6.59375 0 
L 6.59375 51.859375 
L 14.453125 51.859375 
L 14.453125 44.578125 
Q 16.890625 48.390625 20.9375 50.703125 
Q 25 53.03125 30.171875 53.03125 
Q 35.9375 53.03125 39.625 50.640625 
Q 43.3125 48.25 44.828125 43.953125 
Q 50.984375 53.03125 60.84375 53.03125 
Q 68.5625 53.03125 72.703125 48.75 
Q 76.859375 44.484375 76.859375 35.59375 
L 76.859375 0 
L 68.109375 0 
L 68.109375 32.671875 
Q 68.109375 37.9375 67.25 40.25 
Q 66.40625 42.578125 64.15625 43.984375 
Q 61.921875 45.40625 58.890625 45.40625 
Q 53.421875 45.40625 49.796875 41.765625 
Q 46.1875 38.140625 46.1875 30.125 
L 46.1875 0 
L 37.40625 0 
L 37.40625 33.6875 
Q 37.40625 39.546875 35.25 42.46875 
Q 33.109375 45.40625 28.21875 45.40625 
Q 24.515625 45.40625 21.359375 43.453125 
Q 18.21875 41.5 16.796875 37.734375 
Q 15.375 33.984375 15.375 26.90625 
L 15.375 0 
z
" id="ArialMT-109"/>
       <path d="M 42.09375 16.703125 
L 51.171875 15.578125 
Q 49.03125 7.625 43.21875 3.21875 
Q 37.40625 -1.171875 28.375 -1.171875 
Q 17 -1.171875 10.328125 5.828125 
Q 3.65625 12.84375 3.65625 25.484375 
Q 3.65625 38.578125 10.390625 45.796875 
Q 17.140625 53.03125 27.875 53.03125 
Q 38.28125 53.03125 44.875 45.953125 
Q 51.46875 38.875 51.46875 26.03125 
Q 51.46875 25.25 51.421875 23.6875 
L 12.75 23.6875 
Q 13.234375 15.140625 17.578125 10.59375 
Q 21.921875 6.0625 28.421875 6.0625 
Q 33.25 6.0625 36.671875 8.59375 
Q 40.09375 11.140625 42.09375 16.703125 
z
M 13.234375 30.90625 
L 42.1875 30.90625 
Q 41.609375 37.453125 38.875 40.71875 
Q 34.671875 45.796875 27.984375 45.796875 
Q 21.921875 45.796875 17.796875 41.75 
Q 13.671875 37.703125 13.234375 30.90625 
z
" id="ArialMT-101"/>
       <path d="M 3.078125 15.484375 
L 11.765625 16.84375 
Q 12.5 11.625 15.84375 8.84375 
Q 19.1875 6.0625 25.203125 6.0625 
Q 31.25 6.0625 34.171875 8.515625 
Q 37.109375 10.984375 37.109375 14.3125 
Q 37.109375 17.28125 34.515625 19 
Q 32.71875 20.171875 25.53125 21.96875 
Q 15.875 24.421875 12.140625 26.203125 
Q 8.40625 27.984375 6.46875 31.125 
Q 4.546875 34.28125 4.546875 38.09375 
Q 4.546875 41.546875 6.125 44.5 
Q 7.71875 47.46875 10.453125 49.421875 
Q 12.5 50.921875 16.03125 51.96875 
Q 19.578125 53.03125 23.640625 53.03125 
Q 29.734375 53.03125 34.34375 51.265625 
Q 38.96875 49.515625 41.15625 46.5 
Q 43.359375 43.5 44.1875 38.484375 
L 35.59375 37.3125 
Q 35.015625 41.3125 32.203125 43.546875 
Q 29.390625 45.796875 24.265625 45.796875 
Q 18.21875 45.796875 15.625 43.796875 
Q 13.03125 41.796875 13.03125 39.109375 
Q 13.03125 37.40625 14.109375 36.03125 
Q 15.1875 34.625 17.484375 33.6875 
Q 18.796875 33.203125 25.25 31.453125 
Q 34.578125 28.953125 38.25 27.359375 
Q 41.9375 25.78125 44.03125 22.75 
Q 46.140625 19.734375 46.140625 15.234375 
Q 46.140625 10.84375 43.578125 6.953125 
Q 41.015625 3.078125 36.171875 0.953125 
Q 31.34375 -1.171875 25.25 -1.171875 
Q 15.140625 -1.171875 9.84375 3.03125 
Q 4.546875 7.234375 3.078125 15.484375 
z
" id="ArialMT-115"/>
       <path d="M 23.390625 -21.046875 
Q 16.109375 -11.859375 11.078125 0.4375 
Q 6.0625 12.75 6.0625 25.921875 
Q 6.0625 37.546875 9.8125 48.1875 
Q 14.203125 60.546875 23.390625 72.796875 
L 29.6875 72.796875 
Q 23.78125 62.640625 21.875 58.296875 
Q 18.890625 51.5625 17.1875 44.234375 
Q 15.09375 35.109375 15.09375 25.875 
Q 15.09375 2.390625 29.6875 -21.046875 
z
" id="ArialMT-40"/>
       <path d="M 6.203125 -19.96875 
L 5.21875 -11.71875 
Q 8.109375 -12.5 10.25 -12.5 
Q 13.1875 -12.5 14.9375 -11.515625 
Q 16.703125 -10.546875 17.828125 -8.796875 
Q 18.65625 -7.46875 20.515625 -2.25 
Q 20.75 -1.515625 21.296875 -0.09375 
L 1.609375 51.859375 
L 11.078125 51.859375 
L 21.875 21.828125 
Q 23.96875 16.109375 25.640625 9.8125 
Q 27.15625 15.875 29.25 21.625 
L 40.328125 51.859375 
L 49.125 51.859375 
L 29.390625 -0.875 
Q 26.21875 -9.421875 24.46875 -12.640625 
Q 22.125 -17 19.09375 -19.015625 
Q 16.0625 -21.046875 11.859375 -21.046875 
Q 9.328125 -21.046875 6.203125 -19.96875 
z
" id="ArialMT-121"/>
       <path d="M 12.359375 -21.046875 
L 6.0625 -21.046875 
Q 20.65625 2.390625 20.65625 25.875 
Q 20.65625 35.0625 18.5625 44.09375 
Q 16.890625 51.421875 13.921875 58.15625 
Q 12.015625 62.546875 6.0625 72.796875 
L 12.359375 72.796875 
Q 21.53125 60.546875 25.921875 48.1875 
Q 29.6875 37.546875 29.6875 25.921875 
Q 29.6875 12.75 24.625 0.4375 
Q 19.578125 -11.859375 12.359375 -21.046875 
z
" id="ArialMT-41"/>
      </defs>
      <g style="fill:#262626;" transform="translate(450.490469 225.696187)rotate(-90)scale(0.12 -0.12)">
       <use xlink:href="#ArialMT-72"/>
       <use x="72.216797" xlink:href="#ArialMT-97"/>
       <use x="127.832031" xlink:href="#ArialMT-108"/>
       <use x="150.048828" xlink:href="#ArialMT-118"/>
       <use x="200.048828" xlink:href="#ArialMT-105"/>
       <use x="222.265625" xlink:href="#ArialMT-110"/>
       <use x="277.880859" xlink:href="#ArialMT-103"/>
       <use x="333.496094" xlink:href="#ArialMT-32"/>
       <use x="361.279297" xlink:href="#ArialMT-47"/>
       <use x="389.0625" xlink:href="#ArialMT-32"/>
       <use x="416.845703" xlink:href="#ArialMT-100"/>
       <use x="472.460938" xlink:href="#ArialMT-111"/>
       <use x="528.076172" xlink:href="#ArialMT-117"/>
       <use x="583.691406" xlink:href="#ArialMT-98"/>
       <use x="639.306641" xlink:href="#ArialMT-108"/>
       <use x="661.523438" xlink:href="#ArialMT-105"/>
       <use x="683.740234" xlink:href="#ArialMT-110"/>
       <use x="739.355469" xlink:href="#ArialMT-103"/>
       <use x="794.970703" xlink:href="#ArialMT-32"/>
       <use x="822.753906" xlink:href="#ArialMT-116"/>
       <use x="850.537109" xlink:href="#ArialMT-105"/>
       <use x="872.753906" xlink:href="#ArialMT-109"/>
       <use x="956.054688" xlink:href="#ArialMT-101"/>
       <use x="1011.669922" xlink:href="#ArialMT-115"/>
       <use x="1061.669922" xlink:href="#ArialMT-32"/>
       <use x="1089.453125" xlink:href="#ArialMT-40"/>
       <use x="1122.753906" xlink:href="#ArialMT-100"/>
       <use x="1178.369141" xlink:href="#ArialMT-97"/>
       <use x="1233.984375" xlink:href="#ArialMT-121"/>
       <use x="1283.984375" xlink:href="#ArialMT-115"/>
       <use x="1333.984375" xlink:href="#ArialMT-41"/>
      </g>
     </g>
    </g>
    <g id="patch_4">
     <path d="M 394.306094 252.384 
L 394.306094 34.944 
" style="fill:none;stroke:#ffffff;stroke-linecap:square;stroke-linejoin:miter;stroke-width:1.25;"/>
    </g>
   </g>
   <g id="matplotlib.axis_3">
    <g id="xtick_1">
     <g id="line2d_31">
      <path clip-path="url(#p12ea93f344)" d="M 74.724276 252.384 
L 74.724276 34.944 
" style="fill:none;stroke:#ffffff;stroke-linecap:round;"/>
     </g>
     <g id="text_17">
      <!-- 0.0 -->
      <g style="fill:#262626;" transform="translate(67.079276 269.757594)scale(0.11 -0.11)">
       <use xlink:href="#ArialMT-48"/>
       <use x="55.615234" xlink:href="#ArialMT-46"/>
       <use x="83.398438" xlink:href="#ArialMT-48"/>
      </g>
     </g>
    </g>
    <g id="xtick_2">
     <g id="line2d_32">
      <path clip-path="url(#p12ea93f344)" d="M 142.360639 252.384 
L 142.360639 34.944 
" style="fill:none;stroke:#ffffff;stroke-linecap:round;"/>
     </g>
     <g id="text_18">
      <!-- 0.2 -->
      <g style="fill:#262626;" transform="translate(134.715639 269.757594)scale(0.11 -0.11)">
       <use xlink:href="#ArialMT-48"/>
       <use x="55.615234" xlink:href="#ArialMT-46"/>
       <use x="83.398438" xlink:href="#ArialMT-50"/>
      </g>
     </g>
    </g>
    <g id="xtick_3">
     <g id="line2d_33">
      <path clip-path="url(#p12ea93f344)" d="M 209.997003 252.384 
L 209.997003 34.944 
" style="fill:none;stroke:#ffffff;stroke-linecap:round;"/>
     </g>
     <g id="text_19">
      <!-- 0.4 -->
      <g style="fill:#262626;" transform="translate(202.352003 269.757594)scale(0.11 -0.11)">
       <use xlink:href="#ArialMT-48"/>
       <use x="55.615234" xlink:href="#ArialMT-46"/>
       <use x="83.398438" xlink:href="#ArialMT-52"/>
      </g>
     </g>
    </g>
    <g id="xtick_4">
     <g id="line2d_34">
      <path clip-path="url(#p12ea93f344)" d="M 277.633366 252.384 
L 277.633366 34.944 
" style="fill:none;stroke:#ffffff;stroke-linecap:round;"/>
     </g>
     <g id="text_20">
      <!-- 0.6 -->
      <g style="fill:#262626;" transform="translate(269.988366 269.757594)scale(0.11 -0.11)">
       <use xlink:href="#ArialMT-48"/>
       <use x="55.615234" xlink:href="#ArialMT-46"/>
       <use x="83.398438" xlink:href="#ArialMT-54"/>
      </g>
     </g>
    </g>
    <g id="xtick_5">
     <g id="line2d_35">
      <path clip-path="url(#p12ea93f344)" d="M 345.26973 252.384 
L 345.26973 34.944 
" style="fill:none;stroke:#ffffff;stroke-linecap:round;"/>
     </g>
     <g id="text_21">
      <!-- 0.8 -->
      <g style="fill:#262626;" transform="translate(337.62473 269.757594)scale(0.11 -0.11)">
       <use xlink:href="#ArialMT-48"/>
       <use x="55.615234" xlink:href="#ArialMT-46"/>
       <use x="83.398438" xlink:href="#ArialMT-56"/>
      </g>
     </g>
    </g>
    <g id="text_22">
     <!-- % reduction in global contacts -->
     <defs>
      <path d="M 5.8125 54.390625 
Q 5.8125 62.0625 9.671875 67.421875 
Q 13.53125 72.796875 20.84375 72.796875 
Q 27.59375 72.796875 32 67.984375 
Q 36.421875 63.1875 36.421875 53.859375 
Q 36.421875 44.78125 31.953125 39.875 
Q 27.484375 34.96875 20.953125 34.96875 
Q 14.453125 34.96875 10.125 39.796875 
Q 5.8125 44.625 5.8125 54.390625 
z
M 21.09375 66.75 
Q 17.828125 66.75 15.65625 63.90625 
Q 13.484375 61.078125 13.484375 53.515625 
Q 13.484375 46.625 15.671875 43.8125 
Q 17.875 41.015625 21.09375 41.015625 
Q 24.421875 41.015625 26.59375 43.84375 
Q 28.765625 46.6875 28.765625 54.203125 
Q 28.765625 61.140625 26.5625 63.9375 
Q 24.359375 66.75 21.09375 66.75 
z
M 21.140625 -2.640625 
L 60.296875 72.796875 
L 67.4375 72.796875 
L 28.421875 -2.640625 
z
M 52.09375 16.796875 
Q 52.09375 24.515625 55.953125 29.859375 
Q 59.8125 35.203125 67.1875 35.203125 
Q 73.921875 35.203125 78.34375 30.390625 
Q 82.765625 25.59375 82.765625 16.265625 
Q 82.765625 7.171875 78.296875 2.265625 
Q 73.828125 -2.640625 67.234375 -2.640625 
Q 60.75 -2.640625 56.421875 2.21875 
Q 52.09375 7.078125 52.09375 16.796875 
z
M 67.4375 29.15625 
Q 64.109375 29.15625 61.9375 26.3125 
Q 59.765625 23.484375 59.765625 15.921875 
Q 59.765625 9.078125 61.953125 6.25 
Q 64.15625 3.421875 67.390625 3.421875 
Q 70.75 3.421875 72.921875 6.25 
Q 75.09375 9.078125 75.09375 16.609375 
Q 75.09375 23.53125 72.890625 26.34375 
Q 70.703125 29.15625 67.4375 29.15625 
z
" id="ArialMT-37"/>
      <path d="M 6.5 0 
L 6.5 51.859375 
L 14.40625 51.859375 
L 14.40625 44 
Q 17.4375 49.515625 20 51.265625 
Q 22.5625 53.03125 25.640625 53.03125 
Q 30.078125 53.03125 34.671875 50.203125 
L 31.640625 42.046875 
Q 28.421875 43.953125 25.203125 43.953125 
Q 22.3125 43.953125 20.015625 42.21875 
Q 17.71875 40.484375 16.75 37.40625 
Q 15.28125 32.71875 15.28125 27.15625 
L 15.28125 0 
z
" id="ArialMT-114"/>
      <path d="M 40.4375 19 
L 49.078125 17.875 
Q 47.65625 8.9375 41.8125 3.875 
Q 35.984375 -1.171875 27.484375 -1.171875 
Q 16.84375 -1.171875 10.375 5.78125 
Q 3.90625 12.75 3.90625 25.734375 
Q 3.90625 34.125 6.6875 40.421875 
Q 9.46875 46.734375 15.15625 49.875 
Q 20.84375 53.03125 27.546875 53.03125 
Q 35.984375 53.03125 41.359375 48.75 
Q 46.734375 44.484375 48.25 36.625 
L 39.703125 35.296875 
Q 38.484375 40.53125 35.375 43.15625 
Q 32.28125 45.796875 27.875 45.796875 
Q 21.234375 45.796875 17.078125 41.03125 
Q 12.9375 36.28125 12.9375 25.984375 
Q 12.9375 15.53125 16.9375 10.796875 
Q 20.953125 6.0625 27.390625 6.0625 
Q 32.5625 6.0625 36.03125 9.234375 
Q 39.5 12.40625 40.4375 19 
z
" id="ArialMT-99"/>
     </defs>
     <g style="fill:#262626;" transform="translate(147.197031 284.679469)scale(0.12 -0.12)">
      <use xlink:href="#ArialMT-37"/>
      <use x="88.916016" xlink:href="#ArialMT-32"/>
      <use x="116.699219" xlink:href="#ArialMT-114"/>
      <use x="150" xlink:href="#ArialMT-101"/>
      <use x="205.615234" xlink:href="#ArialMT-100"/>
      <use x="261.230469" xlink:href="#ArialMT-117"/>
      <use x="316.845703" xlink:href="#ArialMT-99"/>
      <use x="366.845703" xlink:href="#ArialMT-116"/>
      <use x="394.628906" xlink:href="#ArialMT-105"/>
      <use x="416.845703" xlink:href="#ArialMT-111"/>
      <use x="472.460938" xlink:href="#ArialMT-110"/>
      <use x="528.076172" xlink:href="#ArialMT-32"/>
      <use x="555.859375" xlink:href="#ArialMT-105"/>
      <use x="578.076172" xlink:href="#ArialMT-110"/>
      <use x="633.691406" xlink:href="#ArialMT-32"/>
      <use x="661.474609" xlink:href="#ArialMT-103"/>
      <use x="717.089844" xlink:href="#ArialMT-108"/>
      <use x="739.306641" xlink:href="#ArialMT-111"/>
      <use x="794.921875" xlink:href="#ArialMT-98"/>
      <use x="850.537109" xlink:href="#ArialMT-97"/>
      <use x="906.152344" xlink:href="#ArialMT-108"/>
      <use x="928.369141" xlink:href="#ArialMT-32"/>
      <use x="956.152344" xlink:href="#ArialMT-99"/>
      <use x="1006.152344" xlink:href="#ArialMT-111"/>
      <use x="1061.767578" xlink:href="#ArialMT-110"/>
      <use x="1117.382812" xlink:href="#ArialMT-116"/>
      <use x="1145.166016" xlink:href="#ArialMT-97"/>
      <use x="1200.78125" xlink:href="#ArialMT-99"/>
      <use x="1250.78125" xlink:href="#ArialMT-116"/>
      <use x="1278.564453" xlink:href="#ArialMT-115"/>
     </g>
    </g>
   </g>
   <g id="matplotlib.axis_4">
    <g id="ytick_16">
     <g id="line2d_36">
      <path clip-path="url(#p12ea93f344)" d="M 59.506094 247.369062 
L 394.306094 247.369062 
" style="fill:none;stroke:#ffffff;stroke-linecap:round;"/>
     </g>
     <g id="text_23">
      <!-- −0.15 -->
      <g style="fill:#262626;" transform="translate(22.174375 251.305859)scale(0.11 -0.11)">
       <use xlink:href="#ArialMT-8722"/>
       <use x="58.398438" xlink:href="#ArialMT-48"/>
       <use x="114.013672" xlink:href="#ArialMT-46"/>
       <use x="141.796875" xlink:href="#ArialMT-49"/>
       <use x="197.412109" xlink:href="#ArialMT-53"/>
      </g>
     </g>
    </g>
    <g id="ytick_17">
     <g id="line2d_37">
      <path clip-path="url(#p12ea93f344)" d="M 59.506094 219.990219 
L 394.306094 219.990219 
" style="fill:none;stroke:#ffffff;stroke-linecap:round;"/>
     </g>
     <g id="text_24">
      <!-- −0.10 -->
      <g style="fill:#262626;" transform="translate(22.174375 223.927016)scale(0.11 -0.11)">
       <use xlink:href="#ArialMT-8722"/>
       <use x="58.398438" xlink:href="#ArialMT-48"/>
       <use x="114.013672" xlink:href="#ArialMT-46"/>
       <use x="141.796875" xlink:href="#ArialMT-49"/>
       <use x="197.412109" xlink:href="#ArialMT-48"/>
      </g>
     </g>
    </g>
    <g id="ytick_18">
     <g id="line2d_38">
      <path clip-path="url(#p12ea93f344)" d="M 59.506094 192.611376 
L 394.306094 192.611376 
" style="fill:none;stroke:#ffffff;stroke-linecap:round;"/>
     </g>
     <g id="text_25">
      <!-- −0.05 -->
      <g style="fill:#262626;" transform="translate(22.174375 196.548173)scale(0.11 -0.11)">
       <use xlink:href="#ArialMT-8722"/>
       <use x="58.398438" xlink:href="#ArialMT-48"/>
       <use x="114.013672" xlink:href="#ArialMT-46"/>
       <use x="141.796875" xlink:href="#ArialMT-48"/>
       <use x="197.412109" xlink:href="#ArialMT-53"/>
      </g>
     </g>
    </g>
    <g id="ytick_19">
     <g id="line2d_39">
      <path clip-path="url(#p12ea93f344)" d="M 59.506094 165.232533 
L 394.306094 165.232533 
" style="fill:none;stroke:#ffffff;stroke-linecap:round;"/>
     </g>
     <g id="text_26">
      <!-- 0.00 -->
      <g style="fill:#262626;" transform="translate(28.599063 169.16933)scale(0.11 -0.11)">
       <use xlink:href="#ArialMT-48"/>
       <use x="55.615234" xlink:href="#ArialMT-46"/>
       <use x="83.398438" xlink:href="#ArialMT-48"/>
       <use x="139.013672" xlink:href="#ArialMT-48"/>
      </g>
     </g>
    </g>
    <g id="ytick_20">
     <g id="line2d_40">
      <path clip-path="url(#p12ea93f344)" d="M 59.506094 137.85369 
L 394.306094 137.85369 
" style="fill:none;stroke:#ffffff;stroke-linecap:round;"/>
     </g>
     <g id="text_27">
      <!-- 0.05 -->
      <g style="fill:#262626;" transform="translate(28.599063 141.790487)scale(0.11 -0.11)">
       <use xlink:href="#ArialMT-48"/>
       <use x="55.615234" xlink:href="#ArialMT-46"/>
       <use x="83.398438" xlink:href="#ArialMT-48"/>
       <use x="139.013672" xlink:href="#ArialMT-53"/>
      </g>
     </g>
    </g>
    <g id="ytick_21">
     <g id="line2d_41">
      <path clip-path="url(#p12ea93f344)" d="M 59.506094 110.474847 
L 394.306094 110.474847 
" style="fill:none;stroke:#ffffff;stroke-linecap:round;"/>
     </g>
     <g id="text_28">
      <!-- 0.10 -->
      <g style="fill:#262626;" transform="translate(28.599063 114.411644)scale(0.11 -0.11)">
       <use xlink:href="#ArialMT-48"/>
       <use x="55.615234" xlink:href="#ArialMT-46"/>
       <use x="83.398438" xlink:href="#ArialMT-49"/>
       <use x="139.013672" xlink:href="#ArialMT-48"/>
      </g>
     </g>
    </g>
    <g id="ytick_22">
     <g id="line2d_42">
      <path clip-path="url(#p12ea93f344)" d="M 59.506094 83.096004 
L 394.306094 83.096004 
" style="fill:none;stroke:#ffffff;stroke-linecap:round;"/>
     </g>
     <g id="text_29">
      <!-- 0.15 -->
      <g style="fill:#262626;" transform="translate(28.599063 87.032801)scale(0.11 -0.11)">
       <use xlink:href="#ArialMT-48"/>
       <use x="55.615234" xlink:href="#ArialMT-46"/>
       <use x="83.398438" xlink:href="#ArialMT-49"/>
       <use x="139.013672" xlink:href="#ArialMT-53"/>
      </g>
     </g>
    </g>
    <g id="ytick_23">
     <g id="line2d_43">
      <path clip-path="url(#p12ea93f344)" d="M 59.506094 55.717161 
L 394.306094 55.717161 
" style="fill:none;stroke:#ffffff;stroke-linecap:round;"/>
     </g>
     <g id="text_30">
      <!-- 0.20 -->
      <g style="fill:#262626;" transform="translate(28.599063 59.653958)scale(0.11 -0.11)">
       <use xlink:href="#ArialMT-48"/>
       <use x="55.615234" xlink:href="#ArialMT-46"/>
       <use x="83.398438" xlink:href="#ArialMT-50"/>
       <use x="139.013672" xlink:href="#ArialMT-48"/>
      </g>
     </g>
    </g>
    <g id="text_31">
     <!-- Growth Rate -->
     <defs>
      <path d="M 41.21875 28.078125 
L 41.21875 36.46875 
L 71.53125 36.53125 
L 71.53125 9.96875 
Q 64.546875 4.390625 57.125 1.578125 
Q 49.703125 -1.21875 41.890625 -1.21875 
Q 31.34375 -1.21875 22.71875 3.296875 
Q 14.109375 7.8125 9.71875 16.359375 
Q 5.328125 24.90625 5.328125 35.453125 
Q 5.328125 45.90625 9.6875 54.953125 
Q 14.0625 64.015625 22.265625 68.40625 
Q 30.46875 72.796875 41.15625 72.796875 
Q 48.921875 72.796875 55.1875 70.28125 
Q 61.46875 67.78125 65.03125 63.28125 
Q 68.609375 58.796875 70.453125 51.5625 
L 61.921875 49.21875 
Q 60.296875 54.6875 57.90625 57.8125 
Q 55.515625 60.9375 51.0625 62.8125 
Q 46.625 64.703125 41.21875 64.703125 
Q 34.71875 64.703125 29.984375 62.71875 
Q 25.25 60.75 22.34375 57.515625 
Q 19.4375 54.296875 17.828125 50.4375 
Q 15.09375 43.796875 15.09375 36.03125 
Q 15.09375 26.46875 18.390625 20.015625 
Q 21.6875 13.578125 27.984375 10.453125 
Q 34.28125 7.328125 41.359375 7.328125 
Q 47.515625 7.328125 53.375 9.6875 
Q 59.234375 12.0625 62.25 14.75 
L 62.25 28.078125 
z
" id="ArialMT-71"/>
      <path d="M 16.15625 0 
L 0.296875 51.859375 
L 9.375 51.859375 
L 17.625 21.921875 
L 20.703125 10.796875 
Q 20.90625 11.625 23.390625 21.484375 
L 31.640625 51.859375 
L 40.671875 51.859375 
L 48.4375 21.78125 
L 51.03125 11.859375 
L 54 21.875 
L 62.890625 51.859375 
L 71.4375 51.859375 
L 55.21875 0 
L 46.09375 0 
L 37.84375 31.0625 
L 35.84375 39.890625 
L 25.34375 0 
z
" id="ArialMT-119"/>
      <path d="M 6.59375 0 
L 6.59375 71.578125 
L 15.375 71.578125 
L 15.375 45.90625 
Q 21.53125 53.03125 30.90625 53.03125 
Q 36.671875 53.03125 40.921875 50.75 
Q 45.171875 48.484375 47 44.484375 
Q 48.828125 40.484375 48.828125 32.859375 
L 48.828125 0 
L 40.046875 0 
L 40.046875 32.859375 
Q 40.046875 39.453125 37.1875 42.453125 
Q 34.328125 45.453125 29.109375 45.453125 
Q 25.203125 45.453125 21.75 43.421875 
Q 18.3125 41.40625 16.84375 37.9375 
Q 15.375 34.46875 15.375 28.375 
L 15.375 0 
z
" id="ArialMT-104"/>
      <path d="M 7.859375 0 
L 7.859375 71.578125 
L 39.59375 71.578125 
Q 49.171875 71.578125 54.140625 69.640625 
Q 59.125 67.71875 62.109375 62.828125 
Q 65.09375 57.953125 65.09375 52.046875 
Q 65.09375 44.4375 60.15625 39.203125 
Q 55.21875 33.984375 44.921875 32.5625 
Q 48.6875 30.765625 50.640625 29 
Q 54.78125 25.203125 58.5 19.484375 
L 70.953125 0 
L 59.03125 0 
L 49.5625 14.890625 
Q 45.40625 21.34375 42.71875 24.75 
Q 40.046875 28.171875 37.921875 29.53125 
Q 35.796875 30.90625 33.59375 31.453125 
Q 31.984375 31.78125 28.328125 31.78125 
L 17.328125 31.78125 
L 17.328125 0 
z
M 17.328125 39.984375 
L 37.703125 39.984375 
Q 44.1875 39.984375 47.84375 41.328125 
Q 51.515625 42.671875 53.421875 45.625 
Q 55.328125 48.578125 55.328125 52.046875 
Q 55.328125 57.125 51.640625 60.390625 
Q 47.953125 63.671875 39.984375 63.671875 
L 17.328125 63.671875 
z
" id="ArialMT-82"/>
     </defs>
     <g style="fill:#262626;" transform="translate(15.789375 177.341812)rotate(-90)scale(0.12 -0.12)">
      <use xlink:href="#ArialMT-71"/>
      <use x="77.783203" xlink:href="#ArialMT-114"/>
      <use x="111.083984" xlink:href="#ArialMT-111"/>
      <use x="166.699219" xlink:href="#ArialMT-119"/>
      <use x="238.916016" xlink:href="#ArialMT-116"/>
      <use x="266.699219" xlink:href="#ArialMT-104"/>
      <use x="322.314453" xlink:href="#ArialMT-32"/>
      <use x="350.097656" xlink:href="#ArialMT-82"/>
      <use x="422.314453" xlink:href="#ArialMT-97"/>
      <use x="477.929688" xlink:href="#ArialMT-116"/>
      <use x="505.712891" xlink:href="#ArialMT-101"/>
     </g>
    </g>
   </g>
   <g id="PathCollection_1">
    <defs>
     <path d="M 0 3 
C 0.795609 3 1.55874 2.683901 2.12132 2.12132 
C 2.683901 1.55874 3 0.795609 3 0 
C 3 -0.795609 2.683901 -1.55874 2.12132 -2.12132 
C 1.55874 -2.683901 0.795609 -3 0 -3 
C -0.795609 -3 -1.55874 -2.683901 -2.12132 -2.12132 
C -2.683901 -1.55874 -3 -0.795609 -3 0 
C -3 0.795609 -2.683901 1.55874 -2.12132 2.12132 
C -1.55874 2.683901 -0.795609 3 0 3 
z
" id="m762236c97d" style="stroke:#ffffff;stroke-width:0.75;"/>
    </defs>
    <g clip-path="url(#p12ea93f344)">
     <use style="fill:#4c72b0;stroke:#ffffff;stroke-width:0.75;" x="329.726064" xlink:href="#m762236c97d" y="205.921953"/>
     <use style="fill:#4c72b0;stroke:#ffffff;stroke-width:0.75;" x="119.087855" xlink:href="#m762236c97d" y="61.193766"/>
     <use style="fill:#4c72b0;stroke:#ffffff;stroke-width:0.75;" x="140.426224" xlink:href="#m762236c97d" y="93.563126"/>
     <use style="fill:#4c72b0;stroke:#ffffff;stroke-width:0.75;" x="316.507982" xlink:href="#m762236c97d" y="192.314001"/>
     <use style="fill:#4c72b0;stroke:#ffffff;stroke-width:0.75;" x="83.236486" xlink:href="#m762236c97d" y="48.903935"/>
     <use style="fill:#4c72b0;stroke:#ffffff;stroke-width:0.75;" x="284.03465" xlink:href="#m762236c97d" y="142.973933"/>
     <use style="fill:#4c72b0;stroke:#ffffff;stroke-width:0.75;" x="280.914919" xlink:href="#m762236c97d" y="147.204073"/>
     <use style="fill:#4c72b0;stroke:#ffffff;stroke-width:0.75;" x="280.028875" xlink:href="#m762236c97d" y="157.061072"/>
     <use style="fill:#4c72b0;stroke:#ffffff;stroke-width:0.75;" x="118.070035" xlink:href="#m762236c97d" y="68.519014"/>
     <use style="fill:#4c72b0;stroke:#ffffff;stroke-width:0.75;" x="277.710634" xlink:href="#m762236c97d" y="142.492038"/>
     <use style="fill:#4c72b0;stroke:#ffffff;stroke-width:0.75;" x="317.429039" xlink:href="#m762236c97d" y="186.107101"/>
     <use style="fill:#4c72b0;stroke:#ffffff;stroke-width:0.75;" x="195.295576" xlink:href="#m762236c97d" y="108.109773"/>
     <use style="fill:#4c72b0;stroke:#ffffff;stroke-width:0.75;" x="84.597164" xlink:href="#m762236c97d" y="60.475227"/>
     <use style="fill:#4c72b0;stroke:#ffffff;stroke-width:0.75;" x="353.551057" xlink:href="#m762236c97d" y="203.704551"/>
     <use style="fill:#4c72b0;stroke:#ffffff;stroke-width:0.75;" x="238.061946" xlink:href="#m762236c97d" y="129.733913"/>
     <use style="fill:#4c72b0;stroke:#ffffff;stroke-width:0.75;" x="158.126431" xlink:href="#m762236c97d" y="93.14625"/>
     <use style="fill:#4c72b0;stroke:#ffffff;stroke-width:0.75;" x="353.439477" xlink:href="#m762236c97d" y="221.799903"/>
     <use style="fill:#4c72b0;stroke:#ffffff;stroke-width:0.75;" x="287.652286" xlink:href="#m762236c97d" y="150.262437"/>
     <use style="fill:#4c72b0;stroke:#ffffff;stroke-width:0.75;" x="344.657557" xlink:href="#m762236c97d" y="200.810418"/>
     <use style="fill:#4c72b0;stroke:#ffffff;stroke-width:0.75;" x="114.577563" xlink:href="#m762236c97d" y="66.89633"/>
     <use style="fill:#4c72b0;stroke:#ffffff;stroke-width:0.75;" x="120.445052" xlink:href="#m762236c97d" y="82.867815"/>
     <use style="fill:#4c72b0;stroke:#ffffff;stroke-width:0.75;" x="338.846588" xlink:href="#m762236c97d" y="199.189093"/>
     <use style="fill:#4c72b0;stroke:#ffffff;stroke-width:0.75;" x="280.936798" xlink:href="#m762236c97d" y="148.345205"/>
     <use style="fill:#4c72b0;stroke:#ffffff;stroke-width:0.75;" x="131.316602" xlink:href="#m762236c97d" y="83.137308"/>
     <use style="fill:#4c72b0;stroke:#ffffff;stroke-width:0.75;" x="168.34049" xlink:href="#m762236c97d" y="86.263106"/>
     <use style="fill:#4c72b0;stroke:#ffffff;stroke-width:0.75;" x="279.126278" xlink:href="#m762236c97d" y="160.399977"/>
     <use style="fill:#4c72b0;stroke:#ffffff;stroke-width:0.75;" x="178.12727" xlink:href="#m762236c97d" y="111.176101"/>
     <use style="fill:#4c72b0;stroke:#ffffff;stroke-width:0.75;" x="302.035211" xlink:href="#m762236c97d" y="171.316027"/>
     <use style="fill:#4c72b0;stroke:#ffffff;stroke-width:0.75;" x="285.666903" xlink:href="#m762236c97d" y="166.58836"/>
     <use style="fill:#4c72b0;stroke:#ffffff;stroke-width:0.75;" x="148.335539" xlink:href="#m762236c97d" y="79.69197"/>
     <use style="fill:#4c72b0;stroke:#ffffff;stroke-width:0.75;" x="371.208688" xlink:href="#m762236c97d" y="230.456208"/>
     <use style="fill:#4c72b0;stroke:#ffffff;stroke-width:0.75;" x="154.038826" xlink:href="#m762236c97d" y="97.729064"/>
     <use style="fill:#4c72b0;stroke:#ffffff;stroke-width:0.75;" x="145.089141" xlink:href="#m762236c97d" y="97.935981"/>
     <use style="fill:#4c72b0;stroke:#ffffff;stroke-width:0.75;" x="87.965851" xlink:href="#m762236c97d" y="57.279059"/>
     <use style="fill:#4c72b0;stroke:#ffffff;stroke-width:0.75;" x="239.175806" xlink:href="#m762236c97d" y="149.187818"/>
     <use style="fill:#4c72b0;stroke:#ffffff;stroke-width:0.75;" x="143.881475" xlink:href="#m762236c97d" y="86.957302"/>
     <use style="fill:#4c72b0;stroke:#ffffff;stroke-width:0.75;" x="332.65265" xlink:href="#m762236c97d" y="196.604152"/>
     <use style="fill:#4c72b0;stroke:#ffffff;stroke-width:0.75;" x="232.886447" xlink:href="#m762236c97d" y="116.213222"/>
     <use style="fill:#4c72b0;stroke:#ffffff;stroke-width:0.75;" x="151.123145" xlink:href="#m762236c97d" y="87.194921"/>
     <use style="fill:#4c72b0;stroke:#ffffff;stroke-width:0.75;" x="130.479218" xlink:href="#m762236c97d" y="69.450185"/>
     <use style="fill:#4c72b0;stroke:#ffffff;stroke-width:0.75;" x="109.566859" xlink:href="#m762236c97d" y="71.473668"/>
     <use style="fill:#4c72b0;stroke:#ffffff;stroke-width:0.75;" x="157.064751" xlink:href="#m762236c97d" y="98.72759"/>
     <use style="fill:#4c72b0;stroke:#ffffff;stroke-width:0.75;" x="156.597373" xlink:href="#m762236c97d" y="94.755343"/>
     <use style="fill:#4c72b0;stroke:#ffffff;stroke-width:0.75;" x="222.647997" xlink:href="#m762236c97d" y="104.398387"/>
     <use style="fill:#4c72b0;stroke:#ffffff;stroke-width:0.75;" x="178.70749" xlink:href="#m762236c97d" y="99.433107"/>
     <use style="fill:#4c72b0;stroke:#ffffff;stroke-width:0.75;" x="146.55629" xlink:href="#m762236c97d" y="88.159774"/>
     <use style="fill:#4c72b0;stroke:#ffffff;stroke-width:0.75;" x="187.305707" xlink:href="#m762236c97d" y="88.418753"/>
     <use style="fill:#4c72b0;stroke:#ffffff;stroke-width:0.75;" x="270.994251" xlink:href="#m762236c97d" y="143.182052"/>
     <use style="fill:#4c72b0;stroke:#ffffff;stroke-width:0.75;" x="153.159703" xlink:href="#m762236c97d" y="88.659507"/>
     <use style="fill:#4c72b0;stroke:#ffffff;stroke-width:0.75;" x="172.985355" xlink:href="#m762236c97d" y="83.948905"/>
     <use style="fill:#4c72b0;stroke:#ffffff;stroke-width:0.75;" x="282.908858" xlink:href="#m762236c97d" y="163.269248"/>
     <use style="fill:#4c72b0;stroke:#ffffff;stroke-width:0.75;" x="141.112498" xlink:href="#m762236c97d" y="74.071883"/>
     <use style="fill:#4c72b0;stroke:#ffffff;stroke-width:0.75;" x="224.830849" xlink:href="#m762236c97d" y="115.445008"/>
     <use style="fill:#4c72b0;stroke:#ffffff;stroke-width:0.75;" x="142.773001" xlink:href="#m762236c97d" y="78.869075"/>
     <use style="fill:#4c72b0;stroke:#ffffff;stroke-width:0.75;" x="198.783535" xlink:href="#m762236c97d" y="116.263278"/>
     <use style="fill:#4c72b0;stroke:#ffffff;stroke-width:0.75;" x="259.748085" xlink:href="#m762236c97d" y="133.466523"/>
     <use style="fill:#4c72b0;stroke:#ffffff;stroke-width:0.75;" x="265.449788" xlink:href="#m762236c97d" y="149.763711"/>
     <use style="fill:#4c72b0;stroke:#ffffff;stroke-width:0.75;" x="168.524498" xlink:href="#m762236c97d" y="88.747054"/>
     <use style="fill:#4c72b0;stroke:#ffffff;stroke-width:0.75;" x="283.350483" xlink:href="#m762236c97d" y="151.792844"/>
     <use style="fill:#4c72b0;stroke:#ffffff;stroke-width:0.75;" x="355.136057" xlink:href="#m762236c97d" y="228.166208"/>
     <use style="fill:#4c72b0;stroke:#ffffff;stroke-width:0.75;" x="250.724727" xlink:href="#m762236c97d" y="141.77182"/>
     <use style="fill:#4c72b0;stroke:#ffffff;stroke-width:0.75;" x="230.894367" xlink:href="#m762236c97d" y="121.743102"/>
     <use style="fill:#4c72b0;stroke:#ffffff;stroke-width:0.75;" x="83.901027" xlink:href="#m762236c97d" y="66.496169"/>
     <use style="fill:#4c72b0;stroke:#ffffff;stroke-width:0.75;" x="147.252222" xlink:href="#m762236c97d" y="75.053945"/>
     <use style="fill:#4c72b0;stroke:#ffffff;stroke-width:0.75;" x="338.747903" xlink:href="#m762236c97d" y="211.383512"/>
     <use style="fill:#4c72b0;stroke:#ffffff;stroke-width:0.75;" x="101.877366" xlink:href="#m762236c97d" y="61.795845"/>
     <use style="fill:#4c72b0;stroke:#ffffff;stroke-width:0.75;" x="98.900589" xlink:href="#m762236c97d" y="63.024788"/>
     <use style="fill:#4c72b0;stroke:#ffffff;stroke-width:0.75;" x="76.141542" xlink:href="#m762236c97d" y="60.433661"/>
     <use style="fill:#4c72b0;stroke:#ffffff;stroke-width:0.75;" x="167.588784" xlink:href="#m762236c97d" y="84.199202"/>
     <use style="fill:#4c72b0;stroke:#ffffff;stroke-width:0.75;" x="357.927353" xlink:href="#m762236c97d" y="229.369718"/>
     <use style="fill:#4c72b0;stroke:#ffffff;stroke-width:0.75;" x="298.584962" xlink:href="#m762236c97d" y="177.37603"/>
     <use style="fill:#4c72b0;stroke:#ffffff;stroke-width:0.75;" x="314.095842" xlink:href="#m762236c97d" y="170.470224"/>
     <use style="fill:#4c72b0;stroke:#ffffff;stroke-width:0.75;" x="204.915199" xlink:href="#m762236c97d" y="114.946699"/>
     <use style="fill:#4c72b0;stroke:#ffffff;stroke-width:0.75;" x="198.765494" xlink:href="#m762236c97d" y="98.510633"/>
     <use style="fill:#4c72b0;stroke:#ffffff;stroke-width:0.75;" x="144.469323" xlink:href="#m762236c97d" y="79.113061"/>
     <use style="fill:#4c72b0;stroke:#ffffff;stroke-width:0.75;" x="338.441747" xlink:href="#m762236c97d" y="213.483644"/>
     <use style="fill:#4c72b0;stroke:#ffffff;stroke-width:0.75;" x="276.376767" xlink:href="#m762236c97d" y="162.079136"/>
     <use style="fill:#4c72b0;stroke:#ffffff;stroke-width:0.75;" x="337.769923" xlink:href="#m762236c97d" y="204.018287"/>
     <use style="fill:#4c72b0;stroke:#ffffff;stroke-width:0.75;" x="266.098995" xlink:href="#m762236c97d" y="138.535253"/>
     <use style="fill:#4c72b0;stroke:#ffffff;stroke-width:0.75;" x="198.366311" xlink:href="#m762236c97d" y="113.495776"/>
     <use style="fill:#4c72b0;stroke:#ffffff;stroke-width:0.75;" x="310.772823" xlink:href="#m762236c97d" y="166.774926"/>
     <use style="fill:#4c72b0;stroke:#ffffff;stroke-width:0.75;" x="96.87933" xlink:href="#m762236c97d" y="75.303362"/>
     <use style="fill:#4c72b0;stroke:#ffffff;stroke-width:0.75;" x="369.867045" xlink:href="#m762236c97d" y="231.064038"/>
     <use style="fill:#4c72b0;stroke:#ffffff;stroke-width:0.75;" x="168.368757" xlink:href="#m762236c97d" y="84.645664"/>
     <use style="fill:#4c72b0;stroke:#ffffff;stroke-width:0.75;" x="261.707576" xlink:href="#m762236c97d" y="139.277806"/>
     <use style="fill:#4c72b0;stroke:#ffffff;stroke-width:0.75;" x="123.337115" xlink:href="#m762236c97d" y="72.155695"/>
     <use style="fill:#4c72b0;stroke:#ffffff;stroke-width:0.75;" x="128.140016" xlink:href="#m762236c97d" y="75.117142"/>
     <use style="fill:#4c72b0;stroke:#ffffff;stroke-width:0.75;" x="263.910984" xlink:href="#m762236c97d" y="144.632167"/>
     <use style="fill:#4c72b0;stroke:#ffffff;stroke-width:0.75;" x="291.414794" xlink:href="#m762236c97d" y="158.436857"/>
     <use style="fill:#4c72b0;stroke:#ffffff;stroke-width:0.75;" x="171.712573" xlink:href="#m762236c97d" y="95.934483"/>
     <use style="fill:#4c72b0;stroke:#ffffff;stroke-width:0.75;" x="340.28047" xlink:href="#m762236c97d" y="205.70801"/>
     <use style="fill:#4c72b0;stroke:#ffffff;stroke-width:0.75;" x="185.442175" xlink:href="#m762236c97d" y="90.859979"/>
     <use style="fill:#4c72b0;stroke:#ffffff;stroke-width:0.75;" x="205.664386" xlink:href="#m762236c97d" y="117.123889"/>
     <use style="fill:#4c72b0;stroke:#ffffff;stroke-width:0.75;" x="280.672719" xlink:href="#m762236c97d" y="147.321124"/>
     <use style="fill:#4c72b0;stroke:#ffffff;stroke-width:0.75;" x="105.529561" xlink:href="#m762236c97d" y="64.428486"/>
     <use style="fill:#4c72b0;stroke:#ffffff;stroke-width:0.75;" x="340.028148" xlink:href="#m762236c97d" y="215.297156"/>
     <use style="fill:#4c72b0;stroke:#ffffff;stroke-width:0.75;" x="137.487226" xlink:href="#m762236c97d" y="75.115109"/>
     <use style="fill:#4c72b0;stroke:#ffffff;stroke-width:0.75;" x="203.822243" xlink:href="#m762236c97d" y="116.335608"/>
     <use style="fill:#4c72b0;stroke:#ffffff;stroke-width:0.75;" x="370.257165" xlink:href="#m762236c97d" y="242.500364"/>
     <use style="fill:#4c72b0;stroke:#ffffff;stroke-width:0.75;" x="110.209063" xlink:href="#m762236c97d" y="62.54648"/>
    </g>
   </g>
   <g id="line2d_44">
    <path clip-path="url(#p12ea93f344)" d="M 74.724276 44.827636 
L 80.935778 46.744299 
L 87.147281 48.749043 
L 93.358784 50.834193 
L 99.570287 52.99269 
L 105.781789 55.218095 
L 111.993292 57.504591 
L 118.204795 59.84698 
L 124.416298 62.240681 
L 130.627801 64.681736 
L 136.839303 67.166807 
L 143.050806 69.693173 
L 149.262309 72.258735 
L 155.473812 74.862012 
L 161.685315 77.502146 
L 167.896817 80.178895 
L 174.10832 82.892638 
L 180.319823 85.644376 
L 186.531326 88.435726 
L 192.742828 91.268928 
L 198.954331 94.146841 
L 205.165834 97.072941 
L 211.377337 100.051329 
L 217.58884 103.08672 
L 223.800342 106.184453 
L 230.011845 109.350486 
L 236.223348 112.591395 
L 242.434851 115.914377 
L 248.646353 119.32725 
L 254.857856 122.838449 
L 261.069359 126.45703 
L 267.280862 130.19267 
L 273.492365 134.055665 
L 279.703867 138.05693 
L 285.91537 142.208 
L 292.126873 146.521031 
L 298.338376 151.008798 
L 304.549879 155.684694 
L 310.761381 160.562735 
L 316.972884 165.657554 
L 323.184387 170.984406 
L 329.39589 176.559165 
L 335.607392 182.398324 
L 341.818895 188.518996 
L 348.030398 194.938914 
L 354.241901 201.676431 
L 360.453404 208.75052 
L 366.664906 216.180774 
L 372.876409 223.987404 
L 379.087912 232.191242 
" style="fill:none;stroke:#4c72b0;stroke-linecap:round;stroke-width:1.5;"/>
   </g>
   <g id="patch_5">
    <path d="M 59.506094 252.384 
L 59.506094 34.944 
" style="fill:none;stroke:#ffffff;stroke-linecap:square;stroke-linejoin:miter;stroke-width:1.25;"/>
   </g>
   <g id="patch_6">
    <path d="M 394.306094 252.384 
L 394.306094 34.944 
" style="fill:none;stroke:#ffffff;stroke-linecap:square;stroke-linejoin:miter;stroke-width:1.25;"/>
   </g>
   <g id="patch_7">
    <path d="M 59.506094 252.384 
L 394.306094 252.384 
" style="fill:none;stroke:#ffffff;stroke-linecap:square;stroke-linejoin:miter;stroke-width:1.25;"/>
   </g>
   <g id="patch_8">
    <path d="M 59.506094 34.944 
L 394.306094 34.944 
" style="fill:none;stroke:#ffffff;stroke-linecap:square;stroke-linejoin:miter;stroke-width:1.25;"/>
   </g>
   <g id="text_32">
    <!-- Growth Rate with contact tracing -->
    <g style="fill:#262626;" transform="translate(140.207031 15.935625)scale(0.12 -0.12)">
     <use xlink:href="#ArialMT-71"/>
     <use x="77.783203" xlink:href="#ArialMT-114"/>
     <use x="111.083984" xlink:href="#ArialMT-111"/>
     <use x="166.699219" xlink:href="#ArialMT-119"/>
     <use x="238.916016" xlink:href="#ArialMT-116"/>
     <use x="266.699219" xlink:href="#ArialMT-104"/>
     <use x="322.314453" xlink:href="#ArialMT-32"/>
     <use x="350.097656" xlink:href="#ArialMT-82"/>
     <use x="422.314453" xlink:href="#ArialMT-97"/>
     <use x="477.929688" xlink:href="#ArialMT-116"/>
     <use x="505.712891" xlink:href="#ArialMT-101"/>
     <use x="561.328125" xlink:href="#ArialMT-32"/>
     <use x="589.111328" xlink:href="#ArialMT-119"/>
     <use x="661.328125" xlink:href="#ArialMT-105"/>
     <use x="683.544922" xlink:href="#ArialMT-116"/>
     <use x="711.328125" xlink:href="#ArialMT-104"/>
     <use x="766.943359" xlink:href="#ArialMT-32"/>
     <use x="794.726562" xlink:href="#ArialMT-99"/>
     <use x="844.726562" xlink:href="#ArialMT-111"/>
     <use x="900.341797" xlink:href="#ArialMT-110"/>
     <use x="955.957031" xlink:href="#ArialMT-116"/>
     <use x="983.740234" xlink:href="#ArialMT-97"/>
     <use x="1039.355469" xlink:href="#ArialMT-99"/>
     <use x="1089.355469" xlink:href="#ArialMT-116"/>
     <use x="1117.138672" xlink:href="#ArialMT-32"/>
     <use x="1144.921875" xlink:href="#ArialMT-116"/>
     <use x="1172.705078" xlink:href="#ArialMT-114"/>
     <use x="1206.005859" xlink:href="#ArialMT-97"/>
     <use x="1261.621094" xlink:href="#ArialMT-99"/>
     <use x="1311.621094" xlink:href="#ArialMT-105"/>
     <use x="1333.837891" xlink:href="#ArialMT-110"/>
     <use x="1389.453125" xlink:href="#ArialMT-103"/>
    </g>
    <!-- (perfect recall) -->
    <defs>
     <path d="M 6.59375 -19.875 
L 6.59375 51.859375 
L 14.59375 51.859375 
L 14.59375 45.125 
Q 17.4375 49.078125 21 51.046875 
Q 24.5625 53.03125 29.640625 53.03125 
Q 36.28125 53.03125 41.359375 49.609375 
Q 46.4375 46.1875 49.015625 39.953125 
Q 51.609375 33.734375 51.609375 26.3125 
Q 51.609375 18.359375 48.75 11.984375 
Q 45.90625 5.609375 40.453125 2.21875 
Q 35.015625 -1.171875 29 -1.171875 
Q 24.609375 -1.171875 21.109375 0.6875 
Q 17.625 2.546875 15.375 5.375 
L 15.375 -19.875 
z
M 14.546875 25.640625 
Q 14.546875 15.625 18.59375 10.84375 
Q 22.65625 6.0625 28.421875 6.0625 
Q 34.28125 6.0625 38.453125 11.015625 
Q 42.625 15.96875 42.625 26.375 
Q 42.625 36.28125 38.546875 41.203125 
Q 34.46875 46.140625 28.8125 46.140625 
Q 23.1875 46.140625 18.859375 40.890625 
Q 14.546875 35.640625 14.546875 25.640625 
z
" id="ArialMT-112"/>
     <path d="M 8.6875 0 
L 8.6875 45.015625 
L 0.921875 45.015625 
L 0.921875 51.859375 
L 8.6875 51.859375 
L 8.6875 57.375 
Q 8.6875 62.59375 9.625 65.140625 
Q 10.890625 68.5625 14.078125 70.671875 
Q 17.28125 72.796875 23.046875 72.796875 
Q 26.765625 72.796875 31.25 71.921875 
L 29.9375 64.265625 
Q 27.203125 64.75 24.75 64.75 
Q 20.75 64.75 19.09375 63.03125 
Q 17.4375 61.328125 17.4375 56.640625 
L 17.4375 51.859375 
L 27.546875 51.859375 
L 27.546875 45.015625 
L 17.4375 45.015625 
L 17.4375 0 
z
" id="ArialMT-102"/>
    </defs>
    <g style="fill:#262626;" transform="translate(188.565156 28.944)scale(0.12 -0.12)">
     <use xlink:href="#ArialMT-40"/>
     <use x="33.300781" xlink:href="#ArialMT-112"/>
     <use x="88.916016" xlink:href="#ArialMT-101"/>
     <use x="144.53125" xlink:href="#ArialMT-114"/>
     <use x="177.832031" xlink:href="#ArialMT-102"/>
     <use x="205.615234" xlink:href="#ArialMT-101"/>
     <use x="261.230469" xlink:href="#ArialMT-99"/>
     <use x="311.230469" xlink:href="#ArialMT-116"/>
     <use x="339.013672" xlink:href="#ArialMT-32"/>
     <use x="366.796875" xlink:href="#ArialMT-114"/>
     <use x="400.097656" xlink:href="#ArialMT-101"/>
     <use x="455.712891" xlink:href="#ArialMT-99"/>
     <use x="505.712891" xlink:href="#ArialMT-97"/>
     <use x="561.328125" xlink:href="#ArialMT-108"/>
     <use x="583.544922" xlink:href="#ArialMT-108"/>
     <use x="605.761719" xlink:href="#ArialMT-41"/>
    </g>
   </g>
   <g id="legend_1">
    <g id="patch_9">
     <path d="M 67.206094 246.884 
L 305.376719 246.884 
Q 307.576719 246.884 307.576719 244.684 
L 307.576719 214.1315 
Q 307.576719 211.9315 305.376719 211.9315 
L 67.206094 211.9315 
Q 65.006094 211.9315 65.006094 214.1315 
L 65.006094 244.684 
Q 65.006094 246.884 67.206094 246.884 
z
" style="fill:#eaeaf2;opacity:0.8;stroke:#cccccc;stroke-linejoin:miter;"/>
    </g>
    <g id="line2d_45">
     <path d="M 69.406094 220.489156 
L 91.406094 220.489156 
" style="fill:none;stroke:#4c72b0;stroke-linecap:round;stroke-width:1.5;"/>
    </g>
    <g id="line2d_46"/>
    <g id="text_33">
     <!-- Growth rate without contact tracing -->
     <g style="fill:#262626;" transform="translate(100.206094 224.339156)scale(0.11 -0.11)">
      <use xlink:href="#ArialMT-71"/>
      <use x="77.783203" xlink:href="#ArialMT-114"/>
      <use x="111.083984" xlink:href="#ArialMT-111"/>
      <use x="166.699219" xlink:href="#ArialMT-119"/>
      <use x="238.916016" xlink:href="#ArialMT-116"/>
      <use x="266.699219" xlink:href="#ArialMT-104"/>
      <use x="322.314453" xlink:href="#ArialMT-32"/>
      <use x="350.097656" xlink:href="#ArialMT-114"/>
      <use x="383.398438" xlink:href="#ArialMT-97"/>
      <use x="439.013672" xlink:href="#ArialMT-116"/>
      <use x="466.796875" xlink:href="#ArialMT-101"/>
      <use x="522.412109" xlink:href="#ArialMT-32"/>
      <use x="550.195312" xlink:href="#ArialMT-119"/>
      <use x="622.412109" xlink:href="#ArialMT-105"/>
      <use x="644.628906" xlink:href="#ArialMT-116"/>
      <use x="672.412109" xlink:href="#ArialMT-104"/>
      <use x="728.027344" xlink:href="#ArialMT-111"/>
      <use x="783.642578" xlink:href="#ArialMT-117"/>
      <use x="839.257812" xlink:href="#ArialMT-116"/>
      <use x="867.041016" xlink:href="#ArialMT-32"/>
      <use x="894.824219" xlink:href="#ArialMT-99"/>
      <use x="944.824219" xlink:href="#ArialMT-111"/>
      <use x="1000.439453" xlink:href="#ArialMT-110"/>
      <use x="1056.054688" xlink:href="#ArialMT-116"/>
      <use x="1083.837891" xlink:href="#ArialMT-97"/>
      <use x="1139.453125" xlink:href="#ArialMT-99"/>
      <use x="1189.453125" xlink:href="#ArialMT-116"/>
      <use x="1217.236328" xlink:href="#ArialMT-32"/>
      <use x="1245.019531" xlink:href="#ArialMT-116"/>
      <use x="1272.802734" xlink:href="#ArialMT-114"/>
      <use x="1306.103516" xlink:href="#ArialMT-97"/>
      <use x="1361.71875" xlink:href="#ArialMT-99"/>
      <use x="1411.71875" xlink:href="#ArialMT-105"/>
      <use x="1433.935547" xlink:href="#ArialMT-110"/>
      <use x="1489.550781" xlink:href="#ArialMT-103"/>
     </g>
    </g>
    <g id="PathCollection_2">
     <g>
      <use style="fill:#4c72b0;stroke:#ffffff;stroke-width:0.75;" x="80.406094" xlink:href="#m762236c97d" y="237.281344"/>
     </g>
    </g>
    <g id="text_34">
     <!-- Observed growth rate with contact tracing -->
     <defs>
      <path d="M 4.828125 34.859375 
Q 4.828125 52.6875 14.390625 62.765625 
Q 23.96875 72.859375 39.109375 72.859375 
Q 49.03125 72.859375 56.984375 68.109375 
Q 64.9375 63.375 69.109375 54.90625 
Q 73.296875 46.4375 73.296875 35.6875 
Q 73.296875 24.8125 68.890625 16.21875 
Q 64.5 7.625 56.4375 3.203125 
Q 48.390625 -1.21875 39.0625 -1.21875 
Q 28.953125 -1.21875 20.984375 3.65625 
Q 13.03125 8.546875 8.921875 16.984375 
Q 4.828125 25.4375 4.828125 34.859375 
z
M 14.59375 34.71875 
Q 14.59375 21.78125 21.546875 14.328125 
Q 28.515625 6.890625 39.015625 6.890625 
Q 49.703125 6.890625 56.609375 14.40625 
Q 63.53125 21.921875 63.53125 35.75 
Q 63.53125 44.484375 60.578125 51 
Q 57.625 57.515625 51.921875 61.109375 
Q 46.234375 64.703125 39.15625 64.703125 
Q 29.109375 64.703125 21.84375 57.78125 
Q 14.59375 50.875 14.59375 34.71875 
z
" id="ArialMT-79"/>
     </defs>
     <g style="fill:#262626;" transform="translate(100.206094 240.168844)scale(0.11 -0.11)">
      <use xlink:href="#ArialMT-79"/>
      <use x="77.783203" xlink:href="#ArialMT-98"/>
      <use x="133.398438" xlink:href="#ArialMT-115"/>
      <use x="183.398438" xlink:href="#ArialMT-101"/>
      <use x="239.013672" xlink:href="#ArialMT-114"/>
      <use x="272.314453" xlink:href="#ArialMT-118"/>
      <use x="322.314453" xlink:href="#ArialMT-101"/>
      <use x="377.929688" xlink:href="#ArialMT-100"/>
      <use x="433.544922" xlink:href="#ArialMT-32"/>
      <use x="461.328125" xlink:href="#ArialMT-103"/>
      <use x="516.943359" xlink:href="#ArialMT-114"/>
      <use x="550.244141" xlink:href="#ArialMT-111"/>
      <use x="605.859375" xlink:href="#ArialMT-119"/>
      <use x="678.076172" xlink:href="#ArialMT-116"/>
      <use x="705.859375" xlink:href="#ArialMT-104"/>
      <use x="761.474609" xlink:href="#ArialMT-32"/>
      <use x="789.257812" xlink:href="#ArialMT-114"/>
      <use x="822.558594" xlink:href="#ArialMT-97"/>
      <use x="878.173828" xlink:href="#ArialMT-116"/>
      <use x="905.957031" xlink:href="#ArialMT-101"/>
      <use x="961.572266" xlink:href="#ArialMT-32"/>
      <use x="989.355469" xlink:href="#ArialMT-119"/>
      <use x="1061.572266" xlink:href="#ArialMT-105"/>
      <use x="1083.789062" xlink:href="#ArialMT-116"/>
      <use x="1111.572266" xlink:href="#ArialMT-104"/>
      <use x="1167.1875" xlink:href="#ArialMT-32"/>
      <use x="1194.970703" xlink:href="#ArialMT-99"/>
      <use x="1244.970703" xlink:href="#ArialMT-111"/>
      <use x="1300.585938" xlink:href="#ArialMT-110"/>
      <use x="1356.201172" xlink:href="#ArialMT-116"/>
      <use x="1383.984375" xlink:href="#ArialMT-97"/>
      <use x="1439.599609" xlink:href="#ArialMT-99"/>
      <use x="1489.599609" xlink:href="#ArialMT-116"/>
      <use x="1517.382812" xlink:href="#ArialMT-32"/>
      <use x="1545.166016" xlink:href="#ArialMT-116"/>
      <use x="1572.949219" xlink:href="#ArialMT-114"/>
      <use x="1606.25" xlink:href="#ArialMT-97"/>
      <use x="1661.865234" xlink:href="#ArialMT-99"/>
      <use x="1711.865234" xlink:href="#ArialMT-105"/>
      <use x="1734.082031" xlink:href="#ArialMT-110"/>
      <use x="1789.697266" xlink:href="#ArialMT-103"/>
     </g>
    </g>
   </g>
  </g>
 </g>
 <defs>
  <clipPath id="p270c71d281">
   <rect height="217.44" width="0" x="394.306094" y="34.944"/>
  </clipPath>
  <clipPath id="p12ea93f344">
   <rect height="217.44" width="334.8" x="59.506094" y="34.944"/>
  </clipPath>
 </defs>
</svg>
