<?xml version="1.0" encoding="utf-8" standalone="no"?>
<!DOCTYPE svg PUBLIC "-//W3C//DTD SVG 1.1//EN"
  "http://www.w3.org/Graphics/SVG/1.1/DTD/svg11.dtd">
<!-- Created with matplotlib (https://matplotlib.org/) -->
<svg height="288pt" version="1.1" viewBox="0 0 432 288" width="432pt" xmlns="http://www.w3.org/2000/svg" xmlns:xlink="http://www.w3.org/1999/xlink">
 <defs>
  <style type="text/css">
*{stroke-linecap:butt;stroke-linejoin:round;}
  </style>
 </defs>
 <g id="figure_1">
  <g id="patch_1">
   <path d="M 0 288 
L 432 288 
L 432 0 
L 0 0 
z
" style="fill:#ffffff;"/>
  </g>
  <g id="axes_1">
   <g id="patch_2">
    <path d="M 54 252 
L 388.8 252 
L 388.8 34.56 
L 54 34.56 
z
" style="fill:#eaeaf2;"/>
   </g>
   <g id="matplotlib.axis_1">
    <g id="xtick_1">
     <g id="line2d_1">
      <path clip-path="url(#p09a6ac3c37)" d="M 63.940853 252 
L 63.940853 34.56 
" style="fill:none;stroke:#ffffff;stroke-linecap:round;"/>
     </g>
     <g id="text_1">
      <!-- −0.150 -->
      <defs>
       <path d="M 52.828125 31.203125 
L 5.5625 31.203125 
L 5.5625 39.40625 
L 52.828125 39.40625 
z
" id="ArialMT-8722"/>
       <path d="M 4.15625 35.296875 
Q 4.15625 48 6.765625 55.734375 
Q 9.375 63.484375 14.515625 67.671875 
Q 19.671875 71.875 27.484375 71.875 
Q 33.25 71.875 37.59375 69.546875 
Q 41.9375 67.234375 44.765625 62.859375 
Q 47.609375 58.5 49.21875 52.21875 
Q 50.828125 45.953125 50.828125 35.296875 
Q 50.828125 22.703125 48.234375 14.96875 
Q 45.65625 7.234375 40.5 3 
Q 35.359375 -1.21875 27.484375 -1.21875 
Q 17.140625 -1.21875 11.234375 6.203125 
Q 4.15625 15.140625 4.15625 35.296875 
z
M 13.1875 35.296875 
Q 13.1875 17.671875 17.3125 11.828125 
Q 21.4375 6 27.484375 6 
Q 33.546875 6 37.671875 11.859375 
Q 41.796875 17.71875 41.796875 35.296875 
Q 41.796875 52.984375 37.671875 58.78125 
Q 33.546875 64.59375 27.390625 64.59375 
Q 21.34375 64.59375 17.71875 59.46875 
Q 13.1875 52.9375 13.1875 35.296875 
z
" id="ArialMT-48"/>
       <path d="M 9.078125 0 
L 9.078125 10.015625 
L 19.09375 10.015625 
L 19.09375 0 
z
" id="ArialMT-46"/>
       <path d="M 37.25 0 
L 28.46875 0 
L 28.46875 56 
Q 25.296875 52.984375 20.140625 49.953125 
Q 14.984375 46.921875 10.890625 45.40625 
L 10.890625 53.90625 
Q 18.265625 57.375 23.78125 62.296875 
Q 29.296875 67.234375 31.59375 71.875 
L 37.25 71.875 
z
" id="ArialMT-49"/>
       <path d="M 4.15625 18.75 
L 13.375 19.53125 
Q 14.40625 12.796875 18.140625 9.390625 
Q 21.875 6 27.15625 6 
Q 33.5 6 37.890625 10.78125 
Q 42.28125 15.578125 42.28125 23.484375 
Q 42.28125 31 38.0625 35.34375 
Q 33.84375 39.703125 27 39.703125 
Q 22.75 39.703125 19.328125 37.765625 
Q 15.921875 35.84375 13.96875 32.765625 
L 5.71875 33.84375 
L 12.640625 70.609375 
L 48.25 70.609375 
L 48.25 62.203125 
L 19.671875 62.203125 
L 15.828125 42.96875 
Q 22.265625 47.46875 29.34375 47.46875 
Q 38.71875 47.46875 45.15625 40.96875 
Q 51.609375 34.46875 51.609375 24.265625 
Q 51.609375 14.546875 45.953125 7.46875 
Q 39.0625 -1.21875 27.15625 -1.21875 
Q 17.390625 -1.21875 11.203125 4.25 
Q 5.03125 9.71875 4.15625 18.75 
z
" id="ArialMT-53"/>
      </defs>
      <g style="fill:#262626;" transform="translate(46.966478 269.373594)scale(0.11 -0.11)">
       <use xlink:href="#ArialMT-8722"/>
       <use x="58.398438" xlink:href="#ArialMT-48"/>
       <use x="114.013672" xlink:href="#ArialMT-46"/>
       <use x="141.796875" xlink:href="#ArialMT-49"/>
       <use x="197.412109" xlink:href="#ArialMT-53"/>
       <use x="253.027344" xlink:href="#ArialMT-48"/>
      </g>
     </g>
    </g>
    <g id="xtick_2">
     <g id="line2d_2">
      <path clip-path="url(#p09a6ac3c37)" d="M 101.920333 252 
L 101.920333 34.56 
" style="fill:none;stroke:#ffffff;stroke-linecap:round;"/>
     </g>
     <g id="text_2">
      <!-- −0.125 -->
      <defs>
       <path d="M 50.34375 8.453125 
L 50.34375 0 
L 3.03125 0 
Q 2.9375 3.171875 4.046875 6.109375 
Q 5.859375 10.9375 9.828125 15.625 
Q 13.8125 20.3125 21.34375 26.46875 
Q 33.015625 36.03125 37.109375 41.625 
Q 41.21875 47.21875 41.21875 52.203125 
Q 41.21875 57.421875 37.46875 61 
Q 33.734375 64.59375 27.734375 64.59375 
Q 21.390625 64.59375 17.578125 60.78125 
Q 13.765625 56.984375 13.71875 50.25 
L 4.6875 51.171875 
Q 5.609375 61.28125 11.65625 66.578125 
Q 17.71875 71.875 27.9375 71.875 
Q 38.234375 71.875 44.234375 66.15625 
Q 50.25 60.453125 50.25 52 
Q 50.25 47.703125 48.484375 43.546875 
Q 46.734375 39.40625 42.65625 34.8125 
Q 38.578125 30.21875 29.109375 22.21875 
Q 21.1875 15.578125 18.9375 13.203125 
Q 16.703125 10.84375 15.234375 8.453125 
z
" id="ArialMT-50"/>
      </defs>
      <g style="fill:#262626;" transform="translate(84.945958 269.373594)scale(0.11 -0.11)">
       <use xlink:href="#ArialMT-8722"/>
       <use x="58.398438" xlink:href="#ArialMT-48"/>
       <use x="114.013672" xlink:href="#ArialMT-46"/>
       <use x="141.796875" xlink:href="#ArialMT-49"/>
       <use x="197.412109" xlink:href="#ArialMT-50"/>
       <use x="253.027344" xlink:href="#ArialMT-53"/>
      </g>
     </g>
    </g>
    <g id="xtick_3">
     <g id="line2d_3">
      <path clip-path="url(#p09a6ac3c37)" d="M 139.899813 252 
L 139.899813 34.56 
" style="fill:none;stroke:#ffffff;stroke-linecap:round;"/>
     </g>
     <g id="text_3">
      <!-- −0.100 -->
      <g style="fill:#262626;" transform="translate(122.925438 269.373594)scale(0.11 -0.11)">
       <use xlink:href="#ArialMT-8722"/>
       <use x="58.398438" xlink:href="#ArialMT-48"/>
       <use x="114.013672" xlink:href="#ArialMT-46"/>
       <use x="141.796875" xlink:href="#ArialMT-49"/>
       <use x="197.412109" xlink:href="#ArialMT-48"/>
       <use x="253.027344" xlink:href="#ArialMT-48"/>
      </g>
     </g>
    </g>
    <g id="xtick_4">
     <g id="line2d_4">
      <path clip-path="url(#p09a6ac3c37)" d="M 177.879294 252 
L 177.879294 34.56 
" style="fill:none;stroke:#ffffff;stroke-linecap:round;"/>
     </g>
     <g id="text_4">
      <!-- −0.075 -->
      <defs>
       <path d="M 4.734375 62.203125 
L 4.734375 70.65625 
L 51.078125 70.65625 
L 51.078125 63.8125 
Q 44.234375 56.546875 37.515625 44.484375 
Q 30.8125 32.421875 27.15625 19.671875 
Q 24.515625 10.6875 23.78125 0 
L 14.75 0 
Q 14.890625 8.453125 18.0625 20.40625 
Q 21.234375 32.375 27.171875 43.484375 
Q 33.109375 54.59375 39.796875 62.203125 
z
" id="ArialMT-55"/>
      </defs>
      <g style="fill:#262626;" transform="translate(160.904919 269.373594)scale(0.11 -0.11)">
       <use xlink:href="#ArialMT-8722"/>
       <use x="58.398438" xlink:href="#ArialMT-48"/>
       <use x="114.013672" xlink:href="#ArialMT-46"/>
       <use x="141.796875" xlink:href="#ArialMT-48"/>
       <use x="197.412109" xlink:href="#ArialMT-55"/>
       <use x="253.027344" xlink:href="#ArialMT-53"/>
      </g>
     </g>
    </g>
    <g id="xtick_5">
     <g id="line2d_5">
      <path clip-path="url(#p09a6ac3c37)" d="M 215.858774 252 
L 215.858774 34.56 
" style="fill:none;stroke:#ffffff;stroke-linecap:round;"/>
     </g>
     <g id="text_5">
      <!-- −0.050 -->
      <g style="fill:#262626;" transform="translate(198.884399 269.373594)scale(0.11 -0.11)">
       <use xlink:href="#ArialMT-8722"/>
       <use x="58.398438" xlink:href="#ArialMT-48"/>
       <use x="114.013672" xlink:href="#ArialMT-46"/>
       <use x="141.796875" xlink:href="#ArialMT-48"/>
       <use x="197.412109" xlink:href="#ArialMT-53"/>
       <use x="253.027344" xlink:href="#ArialMT-48"/>
      </g>
     </g>
    </g>
    <g id="xtick_6">
     <g id="line2d_6">
      <path clip-path="url(#p09a6ac3c37)" d="M 253.838254 252 
L 253.838254 34.56 
" style="fill:none;stroke:#ffffff;stroke-linecap:round;"/>
     </g>
     <g id="text_6">
      <!-- −0.025 -->
      <g style="fill:#262626;" transform="translate(236.863879 269.373594)scale(0.11 -0.11)">
       <use xlink:href="#ArialMT-8722"/>
       <use x="58.398438" xlink:href="#ArialMT-48"/>
       <use x="114.013672" xlink:href="#ArialMT-46"/>
       <use x="141.796875" xlink:href="#ArialMT-48"/>
       <use x="197.412109" xlink:href="#ArialMT-50"/>
       <use x="253.027344" xlink:href="#ArialMT-53"/>
      </g>
     </g>
    </g>
    <g id="xtick_7">
     <g id="line2d_7">
      <path clip-path="url(#p09a6ac3c37)" d="M 291.817734 252 
L 291.817734 34.56 
" style="fill:none;stroke:#ffffff;stroke-linecap:round;"/>
     </g>
     <g id="text_7">
      <!-- 0.000 -->
      <g style="fill:#262626;" transform="translate(278.055702 269.373594)scale(0.11 -0.11)">
       <use xlink:href="#ArialMT-48"/>
       <use x="55.615234" xlink:href="#ArialMT-46"/>
       <use x="83.398438" xlink:href="#ArialMT-48"/>
       <use x="139.013672" xlink:href="#ArialMT-48"/>
       <use x="194.628906" xlink:href="#ArialMT-48"/>
      </g>
     </g>
    </g>
    <g id="xtick_8">
     <g id="line2d_8">
      <path clip-path="url(#p09a6ac3c37)" d="M 329.797214 252 
L 329.797214 34.56 
" style="fill:none;stroke:#ffffff;stroke-linecap:round;"/>
     </g>
     <g id="text_8">
      <!-- 0.025 -->
      <g style="fill:#262626;" transform="translate(316.035183 269.373594)scale(0.11 -0.11)">
       <use xlink:href="#ArialMT-48"/>
       <use x="55.615234" xlink:href="#ArialMT-46"/>
       <use x="83.398438" xlink:href="#ArialMT-48"/>
       <use x="139.013672" xlink:href="#ArialMT-50"/>
       <use x="194.628906" xlink:href="#ArialMT-53"/>
      </g>
     </g>
    </g>
    <g id="xtick_9">
     <g id="line2d_9">
      <path clip-path="url(#p09a6ac3c37)" d="M 367.776694 252 
L 367.776694 34.56 
" style="fill:none;stroke:#ffffff;stroke-linecap:round;"/>
     </g>
     <g id="text_9">
      <!-- 0.050 -->
      <g style="fill:#262626;" transform="translate(354.014663 269.373594)scale(0.11 -0.11)">
       <use xlink:href="#ArialMT-48"/>
       <use x="55.615234" xlink:href="#ArialMT-46"/>
       <use x="83.398438" xlink:href="#ArialMT-48"/>
       <use x="139.013672" xlink:href="#ArialMT-53"/>
       <use x="194.628906" xlink:href="#ArialMT-48"/>
      </g>
     </g>
    </g>
    <g id="text_10">
     <!-- Growth Rate -->
     <defs>
      <path d="M 41.21875 28.078125 
L 41.21875 36.46875 
L 71.53125 36.53125 
L 71.53125 9.96875 
Q 64.546875 4.390625 57.125 1.578125 
Q 49.703125 -1.21875 41.890625 -1.21875 
Q 31.34375 -1.21875 22.71875 3.296875 
Q 14.109375 7.8125 9.71875 16.359375 
Q 5.328125 24.90625 5.328125 35.453125 
Q 5.328125 45.90625 9.6875 54.953125 
Q 14.0625 64.015625 22.265625 68.40625 
Q 30.46875 72.796875 41.15625 72.796875 
Q 48.921875 72.796875 55.1875 70.28125 
Q 61.46875 67.78125 65.03125 63.28125 
Q 68.609375 58.796875 70.453125 51.5625 
L 61.921875 49.21875 
Q 60.296875 54.6875 57.90625 57.8125 
Q 55.515625 60.9375 51.0625 62.8125 
Q 46.625 64.703125 41.21875 64.703125 
Q 34.71875 64.703125 29.984375 62.71875 
Q 25.25 60.75 22.34375 57.515625 
Q 19.4375 54.296875 17.828125 50.4375 
Q 15.09375 43.796875 15.09375 36.03125 
Q 15.09375 26.46875 18.390625 20.015625 
Q 21.6875 13.578125 27.984375 10.453125 
Q 34.28125 7.328125 41.359375 7.328125 
Q 47.515625 7.328125 53.375 9.6875 
Q 59.234375 12.0625 62.25 14.75 
L 62.25 28.078125 
z
" id="ArialMT-71"/>
      <path d="M 6.5 0 
L 6.5 51.859375 
L 14.40625 51.859375 
L 14.40625 44 
Q 17.4375 49.515625 20 51.265625 
Q 22.5625 53.03125 25.640625 53.03125 
Q 30.078125 53.03125 34.671875 50.203125 
L 31.640625 42.046875 
Q 28.421875 43.953125 25.203125 43.953125 
Q 22.3125 43.953125 20.015625 42.21875 
Q 17.71875 40.484375 16.75 37.40625 
Q 15.28125 32.71875 15.28125 27.15625 
L 15.28125 0 
z
" id="ArialMT-114"/>
      <path d="M 3.328125 25.921875 
Q 3.328125 40.328125 11.328125 47.265625 
Q 18.015625 53.03125 27.640625 53.03125 
Q 38.328125 53.03125 45.109375 46.015625 
Q 51.90625 39.015625 51.90625 26.65625 
Q 51.90625 16.65625 48.90625 10.90625 
Q 45.90625 5.171875 40.15625 2 
Q 34.421875 -1.171875 27.640625 -1.171875 
Q 16.75 -1.171875 10.03125 5.8125 
Q 3.328125 12.796875 3.328125 25.921875 
z
M 12.359375 25.921875 
Q 12.359375 15.96875 16.703125 11.015625 
Q 21.046875 6.0625 27.640625 6.0625 
Q 34.1875 6.0625 38.53125 11.03125 
Q 42.875 16.015625 42.875 26.21875 
Q 42.875 35.84375 38.5 40.796875 
Q 34.125 45.75 27.640625 45.75 
Q 21.046875 45.75 16.703125 40.8125 
Q 12.359375 35.890625 12.359375 25.921875 
z
" id="ArialMT-111"/>
      <path d="M 16.15625 0 
L 0.296875 51.859375 
L 9.375 51.859375 
L 17.625 21.921875 
L 20.703125 10.796875 
Q 20.90625 11.625 23.390625 21.484375 
L 31.640625 51.859375 
L 40.671875 51.859375 
L 48.4375 21.78125 
L 51.03125 11.859375 
L 54 21.875 
L 62.890625 51.859375 
L 71.4375 51.859375 
L 55.21875 0 
L 46.09375 0 
L 37.84375 31.0625 
L 35.84375 39.890625 
L 25.34375 0 
z
" id="ArialMT-119"/>
      <path d="M 25.78125 7.859375 
L 27.046875 0.09375 
Q 23.34375 -0.6875 20.40625 -0.6875 
Q 15.625 -0.6875 12.984375 0.828125 
Q 10.359375 2.34375 9.28125 4.8125 
Q 8.203125 7.28125 8.203125 15.1875 
L 8.203125 45.015625 
L 1.765625 45.015625 
L 1.765625 51.859375 
L 8.203125 51.859375 
L 8.203125 64.703125 
L 16.9375 69.96875 
L 16.9375 51.859375 
L 25.78125 51.859375 
L 25.78125 45.015625 
L 16.9375 45.015625 
L 16.9375 14.703125 
Q 16.9375 10.9375 17.40625 9.859375 
Q 17.875 8.796875 18.921875 8.15625 
Q 19.96875 7.515625 21.921875 7.515625 
Q 23.390625 7.515625 25.78125 7.859375 
z
" id="ArialMT-116"/>
      <path d="M 6.59375 0 
L 6.59375 71.578125 
L 15.375 71.578125 
L 15.375 45.90625 
Q 21.53125 53.03125 30.90625 53.03125 
Q 36.671875 53.03125 40.921875 50.75 
Q 45.171875 48.484375 47 44.484375 
Q 48.828125 40.484375 48.828125 32.859375 
L 48.828125 0 
L 40.046875 0 
L 40.046875 32.859375 
Q 40.046875 39.453125 37.1875 42.453125 
Q 34.328125 45.453125 29.109375 45.453125 
Q 25.203125 45.453125 21.75 43.421875 
Q 18.3125 41.40625 16.84375 37.9375 
Q 15.375 34.46875 15.375 28.375 
L 15.375 0 
z
" id="ArialMT-104"/>
      <path id="ArialMT-32"/>
      <path d="M 7.859375 0 
L 7.859375 71.578125 
L 39.59375 71.578125 
Q 49.171875 71.578125 54.140625 69.640625 
Q 59.125 67.71875 62.109375 62.828125 
Q 65.09375 57.953125 65.09375 52.046875 
Q 65.09375 44.4375 60.15625 39.203125 
Q 55.21875 33.984375 44.921875 32.5625 
Q 48.6875 30.765625 50.640625 29 
Q 54.78125 25.203125 58.5 19.484375 
L 70.953125 0 
L 59.03125 0 
L 49.5625 14.890625 
Q 45.40625 21.34375 42.71875 24.75 
Q 40.046875 28.171875 37.921875 29.53125 
Q 35.796875 30.90625 33.59375 31.453125 
Q 31.984375 31.78125 28.328125 31.78125 
L 17.328125 31.78125 
L 17.328125 0 
z
M 17.328125 39.984375 
L 37.703125 39.984375 
Q 44.1875 39.984375 47.84375 41.328125 
Q 51.515625 42.671875 53.421875 45.625 
Q 55.328125 48.578125 55.328125 52.046875 
Q 55.328125 57.125 51.640625 60.390625 
Q 47.953125 63.671875 39.984375 63.671875 
L 17.328125 63.671875 
z
" id="ArialMT-82"/>
      <path d="M 40.4375 6.390625 
Q 35.546875 2.25 31.03125 0.53125 
Q 26.515625 -1.171875 21.34375 -1.171875 
Q 12.796875 -1.171875 8.203125 3 
Q 3.609375 7.171875 3.609375 13.671875 
Q 3.609375 17.484375 5.34375 20.625 
Q 7.078125 23.78125 9.890625 25.6875 
Q 12.703125 27.59375 16.21875 28.5625 
Q 18.796875 29.25 24.03125 29.890625 
Q 34.671875 31.15625 39.703125 32.90625 
Q 39.75 34.71875 39.75 35.203125 
Q 39.75 40.578125 37.25 42.78125 
Q 33.890625 45.75 27.25 45.75 
Q 21.046875 45.75 18.09375 43.578125 
Q 15.140625 41.40625 13.71875 35.890625 
L 5.125 37.0625 
Q 6.296875 42.578125 8.984375 45.96875 
Q 11.671875 49.359375 16.75 51.1875 
Q 21.828125 53.03125 28.515625 53.03125 
Q 35.15625 53.03125 39.296875 51.46875 
Q 43.453125 49.90625 45.40625 47.53125 
Q 47.359375 45.171875 48.140625 41.546875 
Q 48.578125 39.3125 48.578125 33.453125 
L 48.578125 21.734375 
Q 48.578125 9.46875 49.140625 6.21875 
Q 49.703125 2.984375 51.375 0 
L 42.1875 0 
Q 40.828125 2.734375 40.4375 6.390625 
z
M 39.703125 26.03125 
Q 34.90625 24.078125 25.34375 22.703125 
Q 19.921875 21.921875 17.671875 20.9375 
Q 15.4375 19.96875 14.203125 18.09375 
Q 12.984375 16.21875 12.984375 13.921875 
Q 12.984375 10.40625 15.640625 8.0625 
Q 18.3125 5.71875 23.4375 5.71875 
Q 28.515625 5.71875 32.46875 7.9375 
Q 36.421875 10.15625 38.28125 14.015625 
Q 39.703125 17 39.703125 22.796875 
z
" id="ArialMT-97"/>
      <path d="M 42.09375 16.703125 
L 51.171875 15.578125 
Q 49.03125 7.625 43.21875 3.21875 
Q 37.40625 -1.171875 28.375 -1.171875 
Q 17 -1.171875 10.328125 5.828125 
Q 3.65625 12.84375 3.65625 25.484375 
Q 3.65625 38.578125 10.390625 45.796875 
Q 17.140625 53.03125 27.875 53.03125 
Q 38.28125 53.03125 44.875 45.953125 
Q 51.46875 38.875 51.46875 26.03125 
Q 51.46875 25.25 51.421875 23.6875 
L 12.75 23.6875 
Q 13.234375 15.140625 17.578125 10.59375 
Q 21.921875 6.0625 28.421875 6.0625 
Q 33.25 6.0625 36.671875 8.59375 
Q 40.09375 11.140625 42.09375 16.703125 
z
M 13.234375 30.90625 
L 42.1875 30.90625 
Q 41.609375 37.453125 38.875 40.71875 
Q 34.671875 45.796875 27.984375 45.796875 
Q 21.921875 45.796875 17.796875 41.75 
Q 13.671875 37.703125 13.234375 30.90625 
z
" id="ArialMT-101"/>
     </defs>
     <g style="fill:#262626;" transform="translate(187.722188 284.149219)scale(0.12 -0.12)">
      <use xlink:href="#ArialMT-71"/>
      <use x="77.783203" xlink:href="#ArialMT-114"/>
      <use x="111.083984" xlink:href="#ArialMT-111"/>
      <use x="166.699219" xlink:href="#ArialMT-119"/>
      <use x="238.916016" xlink:href="#ArialMT-116"/>
      <use x="266.699219" xlink:href="#ArialMT-104"/>
      <use x="322.314453" xlink:href="#ArialMT-32"/>
      <use x="350.097656" xlink:href="#ArialMT-82"/>
      <use x="422.314453" xlink:href="#ArialMT-97"/>
      <use x="477.929688" xlink:href="#ArialMT-116"/>
      <use x="505.712891" xlink:href="#ArialMT-101"/>
     </g>
    </g>
   </g>
   <g id="matplotlib.axis_2">
    <g id="ytick_1">
     <g id="line2d_10">
      <path clip-path="url(#p09a6ac3c37)" d="M 54 252 
L 388.8 252 
" style="fill:none;stroke:#ffffff;stroke-linecap:round;"/>
     </g>
     <g id="text_11">
      <!-- 0 -->
      <g style="fill:#262626;" transform="translate(38.382969 255.936797)scale(0.11 -0.11)">
       <use xlink:href="#ArialMT-48"/>
      </g>
     </g>
    </g>
    <g id="ytick_2">
     <g id="line2d_11">
      <path clip-path="url(#p09a6ac3c37)" d="M 54 219.606986 
L 388.8 219.606986 
" style="fill:none;stroke:#ffffff;stroke-linecap:round;"/>
     </g>
     <g id="text_12">
      <!-- 2 -->
      <g style="fill:#262626;" transform="translate(38.382969 223.543783)scale(0.11 -0.11)">
       <use xlink:href="#ArialMT-50"/>
      </g>
     </g>
    </g>
    <g id="ytick_3">
     <g id="line2d_12">
      <path clip-path="url(#p09a6ac3c37)" d="M 54 187.213972 
L 388.8 187.213972 
" style="fill:none;stroke:#ffffff;stroke-linecap:round;"/>
     </g>
     <g id="text_13">
      <!-- 4 -->
      <defs>
       <path d="M 32.328125 0 
L 32.328125 17.140625 
L 1.265625 17.140625 
L 1.265625 25.203125 
L 33.9375 71.578125 
L 41.109375 71.578125 
L 41.109375 25.203125 
L 50.78125 25.203125 
L 50.78125 17.140625 
L 41.109375 17.140625 
L 41.109375 0 
z
M 32.328125 25.203125 
L 32.328125 57.46875 
L 9.90625 25.203125 
z
" id="ArialMT-52"/>
      </defs>
      <g style="fill:#262626;" transform="translate(38.382969 191.150769)scale(0.11 -0.11)">
       <use xlink:href="#ArialMT-52"/>
      </g>
     </g>
    </g>
    <g id="ytick_4">
     <g id="line2d_13">
      <path clip-path="url(#p09a6ac3c37)" d="M 54 154.820958 
L 388.8 154.820958 
" style="fill:none;stroke:#ffffff;stroke-linecap:round;"/>
     </g>
     <g id="text_14">
      <!-- 6 -->
      <defs>
       <path d="M 49.75 54.046875 
L 41.015625 53.375 
Q 39.84375 58.546875 37.703125 60.890625 
Q 34.125 64.65625 28.90625 64.65625 
Q 24.703125 64.65625 21.53125 62.3125 
Q 17.390625 59.28125 14.984375 53.46875 
Q 12.59375 47.65625 12.5 36.921875 
Q 15.671875 41.75 20.265625 44.09375 
Q 24.859375 46.4375 29.890625 46.4375 
Q 38.671875 46.4375 44.84375 39.96875 
Q 51.03125 33.5 51.03125 23.25 
Q 51.03125 16.5 48.125 10.71875 
Q 45.21875 4.9375 40.140625 1.859375 
Q 35.0625 -1.21875 28.609375 -1.21875 
Q 17.625 -1.21875 10.6875 6.859375 
Q 3.765625 14.9375 3.765625 33.5 
Q 3.765625 54.25 11.421875 63.671875 
Q 18.109375 71.875 29.4375 71.875 
Q 37.890625 71.875 43.28125 67.140625 
Q 48.6875 62.40625 49.75 54.046875 
z
M 13.875 23.1875 
Q 13.875 18.65625 15.796875 14.5 
Q 17.71875 10.359375 21.1875 8.171875 
Q 24.65625 6 28.46875 6 
Q 34.03125 6 38.03125 10.484375 
Q 42.046875 14.984375 42.046875 22.703125 
Q 42.046875 30.125 38.078125 34.390625 
Q 34.125 38.671875 28.125 38.671875 
Q 22.171875 38.671875 18.015625 34.390625 
Q 13.875 30.125 13.875 23.1875 
z
" id="ArialMT-54"/>
      </defs>
      <g style="fill:#262626;" transform="translate(38.382969 158.757755)scale(0.11 -0.11)">
       <use xlink:href="#ArialMT-54"/>
      </g>
     </g>
    </g>
    <g id="ytick_5">
     <g id="line2d_14">
      <path clip-path="url(#p09a6ac3c37)" d="M 54 122.427945 
L 388.8 122.427945 
" style="fill:none;stroke:#ffffff;stroke-linecap:round;"/>
     </g>
     <g id="text_15">
      <!-- 8 -->
      <defs>
       <path d="M 17.671875 38.8125 
Q 12.203125 40.828125 9.5625 44.53125 
Q 6.9375 48.25 6.9375 53.421875 
Q 6.9375 61.234375 12.546875 66.546875 
Q 18.171875 71.875 27.484375 71.875 
Q 36.859375 71.875 42.578125 66.421875 
Q 48.296875 60.984375 48.296875 53.171875 
Q 48.296875 48.1875 45.671875 44.5 
Q 43.0625 40.828125 37.75 38.8125 
Q 44.34375 36.671875 47.78125 31.875 
Q 51.21875 27.09375 51.21875 20.453125 
Q 51.21875 11.28125 44.71875 5.03125 
Q 38.234375 -1.21875 27.640625 -1.21875 
Q 17.046875 -1.21875 10.546875 5.046875 
Q 4.046875 11.328125 4.046875 20.703125 
Q 4.046875 27.6875 7.59375 32.390625 
Q 11.140625 37.109375 17.671875 38.8125 
z
M 15.921875 53.71875 
Q 15.921875 48.640625 19.1875 45.40625 
Q 22.46875 42.1875 27.6875 42.1875 
Q 32.765625 42.1875 36.015625 45.375 
Q 39.265625 48.578125 39.265625 53.21875 
Q 39.265625 58.0625 35.90625 61.359375 
Q 32.5625 64.65625 27.59375 64.65625 
Q 22.5625 64.65625 19.234375 61.421875 
Q 15.921875 58.203125 15.921875 53.71875 
z
M 13.09375 20.65625 
Q 13.09375 16.890625 14.875 13.375 
Q 16.65625 9.859375 20.171875 7.921875 
Q 23.6875 6 27.734375 6 
Q 34.03125 6 38.125 10.046875 
Q 42.234375 14.109375 42.234375 20.359375 
Q 42.234375 26.703125 38.015625 30.859375 
Q 33.796875 35.015625 27.4375 35.015625 
Q 21.234375 35.015625 17.15625 30.90625 
Q 13.09375 26.8125 13.09375 20.65625 
z
" id="ArialMT-56"/>
      </defs>
      <g style="fill:#262626;" transform="translate(38.382969 126.364741)scale(0.11 -0.11)">
       <use xlink:href="#ArialMT-56"/>
      </g>
     </g>
    </g>
    <g id="ytick_6">
     <g id="line2d_15">
      <path clip-path="url(#p09a6ac3c37)" d="M 54 90.034931 
L 388.8 90.034931 
" style="fill:none;stroke:#ffffff;stroke-linecap:round;"/>
     </g>
     <g id="text_16">
      <!-- 10 -->
      <g style="fill:#262626;" transform="translate(32.265937 93.971728)scale(0.11 -0.11)">
       <use xlink:href="#ArialMT-49"/>
       <use x="55.615234" xlink:href="#ArialMT-48"/>
      </g>
     </g>
    </g>
    <g id="ytick_7">
     <g id="line2d_16">
      <path clip-path="url(#p09a6ac3c37)" d="M 54 57.641917 
L 388.8 57.641917 
" style="fill:none;stroke:#ffffff;stroke-linecap:round;"/>
     </g>
     <g id="text_17">
      <!-- 12 -->
      <g style="fill:#262626;" transform="translate(32.265937 61.578714)scale(0.11 -0.11)">
       <use xlink:href="#ArialMT-49"/>
       <use x="55.615234" xlink:href="#ArialMT-50"/>
      </g>
     </g>
    </g>
    <g id="text_18">
     <!-- Density -->
     <defs>
      <path d="M 7.71875 0 
L 7.71875 71.578125 
L 32.375 71.578125 
Q 40.71875 71.578125 45.125 70.5625 
Q 51.265625 69.140625 55.609375 65.4375 
Q 61.28125 60.640625 64.078125 53.1875 
Q 66.890625 45.75 66.890625 36.1875 
Q 66.890625 28.03125 64.984375 21.734375 
Q 63.09375 15.4375 60.109375 11.296875 
Q 57.125 7.171875 53.578125 4.796875 
Q 50.046875 2.4375 45.046875 1.21875 
Q 40.046875 0 33.546875 0 
z
M 17.1875 8.453125 
L 32.46875 8.453125 
Q 39.546875 8.453125 43.578125 9.765625 
Q 47.609375 11.078125 50 13.484375 
Q 53.375 16.84375 55.25 22.53125 
Q 57.125 28.21875 57.125 36.328125 
Q 57.125 47.5625 53.4375 53.59375 
Q 49.75 59.625 44.484375 61.671875 
Q 40.671875 63.140625 32.234375 63.140625 
L 17.1875 63.140625 
z
" id="ArialMT-68"/>
      <path d="M 6.59375 0 
L 6.59375 51.859375 
L 14.5 51.859375 
L 14.5 44.484375 
Q 20.21875 53.03125 31 53.03125 
Q 35.6875 53.03125 39.625 51.34375 
Q 43.5625 49.65625 45.515625 46.921875 
Q 47.46875 44.1875 48.25 40.4375 
Q 48.734375 37.984375 48.734375 31.890625 
L 48.734375 0 
L 39.9375 0 
L 39.9375 31.546875 
Q 39.9375 36.921875 38.90625 39.578125 
Q 37.890625 42.234375 35.28125 43.8125 
Q 32.671875 45.40625 29.15625 45.40625 
Q 23.53125 45.40625 19.453125 41.84375 
Q 15.375 38.28125 15.375 28.328125 
L 15.375 0 
z
" id="ArialMT-110"/>
      <path d="M 3.078125 15.484375 
L 11.765625 16.84375 
Q 12.5 11.625 15.84375 8.84375 
Q 19.1875 6.0625 25.203125 6.0625 
Q 31.25 6.0625 34.171875 8.515625 
Q 37.109375 10.984375 37.109375 14.3125 
Q 37.109375 17.28125 34.515625 19 
Q 32.71875 20.171875 25.53125 21.96875 
Q 15.875 24.421875 12.140625 26.203125 
Q 8.40625 27.984375 6.46875 31.125 
Q 4.546875 34.28125 4.546875 38.09375 
Q 4.546875 41.546875 6.125 44.5 
Q 7.71875 47.46875 10.453125 49.421875 
Q 12.5 50.921875 16.03125 51.96875 
Q 19.578125 53.03125 23.640625 53.03125 
Q 29.734375 53.03125 34.34375 51.265625 
Q 38.96875 49.515625 41.15625 46.5 
Q 43.359375 43.5 44.1875 38.484375 
L 35.59375 37.3125 
Q 35.015625 41.3125 32.203125 43.546875 
Q 29.390625 45.796875 24.265625 45.796875 
Q 18.21875 45.796875 15.625 43.796875 
Q 13.03125 41.796875 13.03125 39.109375 
Q 13.03125 37.40625 14.109375 36.03125 
Q 15.1875 34.625 17.484375 33.6875 
Q 18.796875 33.203125 25.25 31.453125 
Q 34.578125 28.953125 38.25 27.359375 
Q 41.9375 25.78125 44.03125 22.75 
Q 46.140625 19.734375 46.140625 15.234375 
Q 46.140625 10.84375 43.578125 6.953125 
Q 41.015625 3.078125 36.171875 0.953125 
Q 31.34375 -1.171875 25.25 -1.171875 
Q 15.140625 -1.171875 9.84375 3.03125 
Q 4.546875 7.234375 3.078125 15.484375 
z
" id="ArialMT-115"/>
      <path d="M 6.640625 61.46875 
L 6.640625 71.578125 
L 15.4375 71.578125 
L 15.4375 61.46875 
z
M 6.640625 0 
L 6.640625 51.859375 
L 15.4375 51.859375 
L 15.4375 0 
z
" id="ArialMT-105"/>
      <path d="M 6.203125 -19.96875 
L 5.21875 -11.71875 
Q 8.109375 -12.5 10.25 -12.5 
Q 13.1875 -12.5 14.9375 -11.515625 
Q 16.703125 -10.546875 17.828125 -8.796875 
Q 18.65625 -7.46875 20.515625 -2.25 
Q 20.75 -1.515625 21.296875 -0.09375 
L 1.609375 51.859375 
L 11.078125 51.859375 
L 21.875 21.828125 
Q 23.96875 16.109375 25.640625 9.8125 
Q 27.15625 15.875 29.25 21.625 
L 40.328125 51.859375 
L 49.125 51.859375 
L 29.390625 -0.875 
Q 26.21875 -9.421875 24.46875 -12.640625 
Q 22.125 -17 19.09375 -19.015625 
Q 16.0625 -21.046875 11.859375 -21.046875 
Q 9.328125 -21.046875 6.203125 -19.96875 
z
" id="ArialMT-121"/>
     </defs>
     <g style="fill:#262626;" transform="translate(25.740312 163.28625)rotate(-90)scale(0.12 -0.12)">
      <use xlink:href="#ArialMT-68"/>
      <use x="72.216797" xlink:href="#ArialMT-101"/>
      <use x="127.832031" xlink:href="#ArialMT-110"/>
      <use x="183.447266" xlink:href="#ArialMT-115"/>
      <use x="233.447266" xlink:href="#ArialMT-105"/>
      <use x="255.664062" xlink:href="#ArialMT-116"/>
      <use x="283.447266" xlink:href="#ArialMT-121"/>
     </g>
    </g>
   </g>
   <g id="LineCollection_1">
    <path clip-path="url(#p09a6ac3c37)" d="M 192.454405 252 
L 192.454405 241.128 
" style="fill:none;stroke:#4c72b0;"/>
    <path clip-path="url(#p09a6ac3c37)" d="M 141.722529 252 
L 141.722529 241.128 
" style="fill:none;stroke:#4c72b0;"/>
    <path clip-path="url(#p09a6ac3c37)" d="M 264.161258 252 
L 264.161258 241.128 
" style="fill:none;stroke:#4c72b0;"/>
    <path clip-path="url(#p09a6ac3c37)" d="M 273.865983 252 
L 273.865983 241.128 
" style="fill:none;stroke:#4c72b0;"/>
    <path clip-path="url(#p09a6ac3c37)" d="M 212.669135 252 
L 212.669135 241.128 
" style="fill:none;stroke:#4c72b0;"/>
    <path clip-path="url(#p09a6ac3c37)" d="M 207.837249 252 
L 207.837249 241.128 
" style="fill:none;stroke:#4c72b0;"/>
    <path clip-path="url(#p09a6ac3c37)" d="M 218.897024 252 
L 218.897024 241.128 
" style="fill:none;stroke:#4c72b0;"/>
    <path clip-path="url(#p09a6ac3c37)" d="M 245.6417 252 
L 245.6417 241.128 
" style="fill:none;stroke:#4c72b0;"/>
    <path clip-path="url(#p09a6ac3c37)" d="M 155.154103 252 
L 155.154103 241.128 
" style="fill:none;stroke:#4c72b0;"/>
    <path clip-path="url(#p09a6ac3c37)" d="M 207.888242 252 
L 207.888242 241.128 
" style="fill:none;stroke:#4c72b0;"/>
    <path clip-path="url(#p09a6ac3c37)" d="M 176.152057 252 
L 176.152057 241.128 
" style="fill:none;stroke:#4c72b0;"/>
    <path clip-path="url(#p09a6ac3c37)" d="M 191.720706 252 
L 191.720706 241.128 
" style="fill:none;stroke:#4c72b0;"/>
    <path clip-path="url(#p09a6ac3c37)" d="M 245.95459 252 
L 245.95459 241.128 
" style="fill:none;stroke:#4c72b0;"/>
    <path clip-path="url(#p09a6ac3c37)" d="M 189.344566 252 
L 189.344566 241.128 
" style="fill:none;stroke:#4c72b0;"/>
    <path clip-path="url(#p09a6ac3c37)" d="M 268.275071 252 
L 268.275071 241.128 
" style="fill:none;stroke:#4c72b0;"/>
    <path clip-path="url(#p09a6ac3c37)" d="M 247.243457 252 
L 247.243457 241.128 
" style="fill:none;stroke:#4c72b0;"/>
    <path clip-path="url(#p09a6ac3c37)" d="M 269.497276 252 
L 269.497276 241.128 
" style="fill:none;stroke:#4c72b0;"/>
    <path clip-path="url(#p09a6ac3c37)" d="M 232.67506 252 
L 232.67506 241.128 
" style="fill:none;stroke:#4c72b0;"/>
    <path clip-path="url(#p09a6ac3c37)" d="M 158.189904 252 
L 158.189904 241.128 
" style="fill:none;stroke:#4c72b0;"/>
    <path clip-path="url(#p09a6ac3c37)" d="M 254.093753 252 
L 254.093753 241.128 
" style="fill:none;stroke:#4c72b0;"/>
    <path clip-path="url(#p09a6ac3c37)" d="M 224.192948 252 
L 224.192948 241.128 
" style="fill:none;stroke:#4c72b0;"/>
    <path clip-path="url(#p09a6ac3c37)" d="M 253.903953 252 
L 253.903953 241.128 
" style="fill:none;stroke:#4c72b0;"/>
    <path clip-path="url(#p09a6ac3c37)" d="M 211.616095 252 
L 211.616095 241.128 
" style="fill:none;stroke:#4c72b0;"/>
    <path clip-path="url(#p09a6ac3c37)" d="M 159.621929 252 
L 159.621929 241.128 
" style="fill:none;stroke:#4c72b0;"/>
    <path clip-path="url(#p09a6ac3c37)" d="M 181.492416 252 
L 181.492416 241.128 
" style="fill:none;stroke:#4c72b0;"/>
    <path clip-path="url(#p09a6ac3c37)" d="M 183.805595 252 
L 183.805595 241.128 
" style="fill:none;stroke:#4c72b0;"/>
    <path clip-path="url(#p09a6ac3c37)" d="M 155.821582 252 
L 155.821582 241.128 
" style="fill:none;stroke:#4c72b0;"/>
    <path clip-path="url(#p09a6ac3c37)" d="M 141.750227 252 
L 141.750227 241.128 
" style="fill:none;stroke:#4c72b0;"/>
    <path clip-path="url(#p09a6ac3c37)" d="M 270.151636 252 
L 270.151636 241.128 
" style="fill:none;stroke:#4c72b0;"/>
    <path clip-path="url(#p09a6ac3c37)" d="M 178.353745 252 
L 178.353745 241.128 
" style="fill:none;stroke:#4c72b0;"/>
    <path clip-path="url(#p09a6ac3c37)" d="M 173.402851 252 
L 173.402851 241.128 
" style="fill:none;stroke:#4c72b0;"/>
    <path clip-path="url(#p09a6ac3c37)" d="M 175.519267 252 
L 175.519267 241.128 
" style="fill:none;stroke:#4c72b0;"/>
    <path clip-path="url(#p09a6ac3c37)" d="M 212.068427 252 
L 212.068427 241.128 
" style="fill:none;stroke:#4c72b0;"/>
    <path clip-path="url(#p09a6ac3c37)" d="M 197.821084 252 
L 197.821084 241.128 
" style="fill:none;stroke:#4c72b0;"/>
    <path clip-path="url(#p09a6ac3c37)" d="M 204.187744 252 
L 204.187744 241.128 
" style="fill:none;stroke:#4c72b0;"/>
    <path clip-path="url(#p09a6ac3c37)" d="M 268.593994 252 
L 268.593994 241.128 
" style="fill:none;stroke:#4c72b0;"/>
    <path clip-path="url(#p09a6ac3c37)" d="M 215.984255 252 
L 215.984255 241.128 
" style="fill:none;stroke:#4c72b0;"/>
    <path clip-path="url(#p09a6ac3c37)" d="M 264.256047 252 
L 264.256047 241.128 
" style="fill:none;stroke:#4c72b0;"/>
    <path clip-path="url(#p09a6ac3c37)" d="M 223.55666 252 
L 223.55666 241.128 
" style="fill:none;stroke:#4c72b0;"/>
    <path clip-path="url(#p09a6ac3c37)" d="M 235.605168 252 
L 235.605168 241.128 
" style="fill:none;stroke:#4c72b0;"/>
    <path clip-path="url(#p09a6ac3c37)" d="M 245.479995 252 
L 245.479995 241.128 
" style="fill:none;stroke:#4c72b0;"/>
    <path clip-path="url(#p09a6ac3c37)" d="M 233.127305 252 
L 233.127305 241.128 
" style="fill:none;stroke:#4c72b0;"/>
    <path clip-path="url(#p09a6ac3c37)" d="M 132.090801 252 
L 132.090801 241.128 
" style="fill:none;stroke:#4c72b0;"/>
    <path clip-path="url(#p09a6ac3c37)" d="M 119.285985 252 
L 119.285985 241.128 
" style="fill:none;stroke:#4c72b0;"/>
    <path clip-path="url(#p09a6ac3c37)" d="M 231.137463 252 
L 231.137463 241.128 
" style="fill:none;stroke:#4c72b0;"/>
    <path clip-path="url(#p09a6ac3c37)" d="M 237.899774 252 
L 237.899774 241.128 
" style="fill:none;stroke:#4c72b0;"/>
    <path clip-path="url(#p09a6ac3c37)" d="M 230.757427 252 
L 230.757427 241.128 
" style="fill:none;stroke:#4c72b0;"/>
    <path clip-path="url(#p09a6ac3c37)" d="M 246.021109 252 
L 246.021109 241.128 
" style="fill:none;stroke:#4c72b0;"/>
    <path clip-path="url(#p09a6ac3c37)" d="M 207.501935 252 
L 207.501935 241.128 
" style="fill:none;stroke:#4c72b0;"/>
    <path clip-path="url(#p09a6ac3c37)" d="M 265.900857 252 
L 265.900857 241.128 
" style="fill:none;stroke:#4c72b0;"/>
    <path clip-path="url(#p09a6ac3c37)" d="M 178.182131 252 
L 178.182131 241.128 
" style="fill:none;stroke:#4c72b0;"/>
    <path clip-path="url(#p09a6ac3c37)" d="M 181.399095 252 
L 181.399095 241.128 
" style="fill:none;stroke:#4c72b0;"/>
    <path clip-path="url(#p09a6ac3c37)" d="M 183.998515 252 
L 183.998515 241.128 
" style="fill:none;stroke:#4c72b0;"/>
    <path clip-path="url(#p09a6ac3c37)" d="M 209.368034 252 
L 209.368034 241.128 
" style="fill:none;stroke:#4c72b0;"/>
    <path clip-path="url(#p09a6ac3c37)" d="M 236.406059 252 
L 236.406059 241.128 
" style="fill:none;stroke:#4c72b0;"/>
    <path clip-path="url(#p09a6ac3c37)" d="M 202.874402 252 
L 202.874402 241.128 
" style="fill:none;stroke:#4c72b0;"/>
    <path clip-path="url(#p09a6ac3c37)" d="M 261.589352 252 
L 261.589352 241.128 
" style="fill:none;stroke:#4c72b0;"/>
    <path clip-path="url(#p09a6ac3c37)" d="M 265.748844 252 
L 265.748844 241.128 
" style="fill:none;stroke:#4c72b0;"/>
    <path clip-path="url(#p09a6ac3c37)" d="M 264.165968 252 
L 264.165968 241.128 
" style="fill:none;stroke:#4c72b0;"/>
    <path clip-path="url(#p09a6ac3c37)" d="M 189.428477 252 
L 189.428477 241.128 
" style="fill:none;stroke:#4c72b0;"/>
    <path clip-path="url(#p09a6ac3c37)" d="M 227.330272 252 
L 227.330272 241.128 
" style="fill:none;stroke:#4c72b0;"/>
    <path clip-path="url(#p09a6ac3c37)" d="M 270.119385 252 
L 270.119385 241.128 
" style="fill:none;stroke:#4c72b0;"/>
    <path clip-path="url(#p09a6ac3c37)" d="M 173.690872 252 
L 173.690872 241.128 
" style="fill:none;stroke:#4c72b0;"/>
    <path clip-path="url(#p09a6ac3c37)" d="M 183.411575 252 
L 183.411575 241.128 
" style="fill:none;stroke:#4c72b0;"/>
    <path clip-path="url(#p09a6ac3c37)" d="M 233.839774 252 
L 233.839774 241.128 
" style="fill:none;stroke:#4c72b0;"/>
    <path clip-path="url(#p09a6ac3c37)" d="M 176.544771 252 
L 176.544771 241.128 
" style="fill:none;stroke:#4c72b0;"/>
    <path clip-path="url(#p09a6ac3c37)" d="M 215.118813 252 
L 215.118813 241.128 
" style="fill:none;stroke:#4c72b0;"/>
    <path clip-path="url(#p09a6ac3c37)" d="M 256.297703 252 
L 256.297703 241.128 
" style="fill:none;stroke:#4c72b0;"/>
    <path clip-path="url(#p09a6ac3c37)" d="M 211.046219 252 
L 211.046219 241.128 
" style="fill:none;stroke:#4c72b0;"/>
    <path clip-path="url(#p09a6ac3c37)" d="M 207.619763 252 
L 207.619763 241.128 
" style="fill:none;stroke:#4c72b0;"/>
    <path clip-path="url(#p09a6ac3c37)" d="M 222.693387 252 
L 222.693387 241.128 
" style="fill:none;stroke:#4c72b0;"/>
    <path clip-path="url(#p09a6ac3c37)" d="M 183.957648 252 
L 183.957648 241.128 
" style="fill:none;stroke:#4c72b0;"/>
    <path clip-path="url(#p09a6ac3c37)" d="M 231.703294 252 
L 231.703294 241.128 
" style="fill:none;stroke:#4c72b0;"/>
    <path clip-path="url(#p09a6ac3c37)" d="M 166.625144 252 
L 166.625144 241.128 
" style="fill:none;stroke:#4c72b0;"/>
    <path clip-path="url(#p09a6ac3c37)" d="M 268.735272 252 
L 268.735272 241.128 
" style="fill:none;stroke:#4c72b0;"/>
    <path clip-path="url(#p09a6ac3c37)" d="M 193.891779 252 
L 193.891779 241.128 
" style="fill:none;stroke:#4c72b0;"/>
    <path clip-path="url(#p09a6ac3c37)" d="M 260.248111 252 
L 260.248111 241.128 
" style="fill:none;stroke:#4c72b0;"/>
    <path clip-path="url(#p09a6ac3c37)" d="M 269.6207 252 
L 269.6207 241.128 
" style="fill:none;stroke:#4c72b0;"/>
    <path clip-path="url(#p09a6ac3c37)" d="M 225.633087 252 
L 225.633087 241.128 
" style="fill:none;stroke:#4c72b0;"/>
    <path clip-path="url(#p09a6ac3c37)" d="M 206.52768 252 
L 206.52768 241.128 
" style="fill:none;stroke:#4c72b0;"/>
    <path clip-path="url(#p09a6ac3c37)" d="M 209.437531 252 
L 209.437531 241.128 
" style="fill:none;stroke:#4c72b0;"/>
    <path clip-path="url(#p09a6ac3c37)" d="M 227.318628 252 
L 227.318628 241.128 
" style="fill:none;stroke:#4c72b0;"/>
    <path clip-path="url(#p09a6ac3c37)" d="M 206.11592 252 
L 206.11592 241.128 
" style="fill:none;stroke:#4c72b0;"/>
    <path clip-path="url(#p09a6ac3c37)" d="M 260.770769 252 
L 260.770769 241.128 
" style="fill:none;stroke:#4c72b0;"/>
    <path clip-path="url(#p09a6ac3c37)" d="M 273.632266 252 
L 273.632266 241.128 
" style="fill:none;stroke:#4c72b0;"/>
    <path clip-path="url(#p09a6ac3c37)" d="M 260.10044 252 
L 260.10044 241.128 
" style="fill:none;stroke:#4c72b0;"/>
    <path clip-path="url(#p09a6ac3c37)" d="M 119.536353 252 
L 119.536353 241.128 
" style="fill:none;stroke:#4c72b0;"/>
    <path clip-path="url(#p09a6ac3c37)" d="M 246.75921 252 
L 246.75921 241.128 
" style="fill:none;stroke:#4c72b0;"/>
    <path clip-path="url(#p09a6ac3c37)" d="M 160.158571 252 
L 160.158571 241.128 
" style="fill:none;stroke:#4c72b0;"/>
    <path clip-path="url(#p09a6ac3c37)" d="M 192.41835 252 
L 192.41835 241.128 
" style="fill:none;stroke:#4c72b0;"/>
    <path clip-path="url(#p09a6ac3c37)" d="M 171.347317 252 
L 171.347317 241.128 
" style="fill:none;stroke:#4c72b0;"/>
    <path clip-path="url(#p09a6ac3c37)" d="M 274.730852 252 
L 274.730852 241.128 
" style="fill:none;stroke:#4c72b0;"/>
    <path clip-path="url(#p09a6ac3c37)" d="M 216.653212 252 
L 216.653212 241.128 
" style="fill:none;stroke:#4c72b0;"/>
    <path clip-path="url(#p09a6ac3c37)" d="M 231.287774 252 
L 231.287774 241.128 
" style="fill:none;stroke:#4c72b0;"/>
    <path clip-path="url(#p09a6ac3c37)" d="M 148.69118 252 
L 148.69118 241.128 
" style="fill:none;stroke:#4c72b0;"/>
    <path clip-path="url(#p09a6ac3c37)" d="M 218.568299 252 
L 218.568299 241.128 
" style="fill:none;stroke:#4c72b0;"/>
    <path clip-path="url(#p09a6ac3c37)" d="M 159.379951 252 
L 159.379951 241.128 
" style="fill:none;stroke:#4c72b0;"/>
    <path clip-path="url(#p09a6ac3c37)" d="M 267.083231 252 
L 267.083231 241.128 
" style="fill:none;stroke:#4c72b0;"/>
    <path clip-path="url(#p09a6ac3c37)" d="M 240.099321 252 
L 240.099321 241.128 
" style="fill:none;stroke:#4c72b0;"/>
    <path clip-path="url(#p09a6ac3c37)" d="M 208.835737 252 
L 208.835737 241.128 
" style="fill:none;stroke:#4c72b0;"/>
   </g>
   <g id="LineCollection_2">
    <path clip-path="url(#p09a6ac3c37)" d="M 238.281141 252 
L 238.281141 241.128 
" style="fill:none;stroke:#dd8452;"/>
    <path clip-path="url(#p09a6ac3c37)" d="M 209.875976 252 
L 209.875976 241.128 
" style="fill:none;stroke:#dd8452;"/>
    <path clip-path="url(#p09a6ac3c37)" d="M 248.929097 252 
L 248.929097 241.128 
" style="fill:none;stroke:#dd8452;"/>
    <path clip-path="url(#p09a6ac3c37)" d="M 315.772823 252 
L 315.772823 241.128 
" style="fill:none;stroke:#dd8452;"/>
    <path clip-path="url(#p09a6ac3c37)" d="M 255.968757 252 
L 255.968757 241.128 
" style="fill:none;stroke:#dd8452;"/>
    <path clip-path="url(#p09a6ac3c37)" d="M 267.87744 252 
L 267.87744 241.128 
" style="fill:none;stroke:#dd8452;"/>
    <path clip-path="url(#p09a6ac3c37)" d="M 246.104875 252 
L 246.104875 241.128 
" style="fill:none;stroke:#dd8452;"/>
    <path clip-path="url(#p09a6ac3c37)" d="M 271.518082 252 
L 271.518082 241.128 
" style="fill:none;stroke:#dd8452;"/>
    <path clip-path="url(#p09a6ac3c37)" d="M 285.468209 252 
L 285.468209 241.128 
" style="fill:none;stroke:#dd8452;"/>
    <path clip-path="url(#p09a6ac3c37)" d="M 257.368461 252 
L 257.368461 241.128 
" style="fill:none;stroke:#dd8452;"/>
    <path clip-path="url(#p09a6ac3c37)" d="M 216.919142 252 
L 216.919142 241.128 
" style="fill:none;stroke:#dd8452;"/>
    <path clip-path="url(#p09a6ac3c37)" d="M 297.963005 252 
L 297.963005 241.128 
" style="fill:none;stroke:#dd8452;"/>
    <path clip-path="url(#p09a6ac3c37)" d="M 215.613159 252 
L 215.613159 241.128 
" style="fill:none;stroke:#dd8452;"/>
    <path clip-path="url(#p09a6ac3c37)" d="M 280.644878 252 
L 280.644878 241.128 
" style="fill:none;stroke:#dd8452;"/>
    <path clip-path="url(#p09a6ac3c37)" d="M 203.962783 252 
L 203.962783 241.128 
" style="fill:none;stroke:#dd8452;"/>
    <path clip-path="url(#p09a6ac3c37)" d="M 190.955325 252 
L 190.955325 241.128 
" style="fill:none;stroke:#dd8452;"/>
    <path clip-path="url(#p09a6ac3c37)" d="M 232.813924 252 
L 232.813924 241.128 
" style="fill:none;stroke:#dd8452;"/>
    <path clip-path="url(#p09a6ac3c37)" d="M 186.520604 252 
L 186.520604 241.128 
" style="fill:none;stroke:#dd8452;"/>
    <path clip-path="url(#p09a6ac3c37)" d="M 211.528367 252 
L 211.528367 241.128 
" style="fill:none;stroke:#dd8452;"/>
    <path clip-path="url(#p09a6ac3c37)" d="M 263.602302 252 
L 263.602302 241.128 
" style="fill:none;stroke:#dd8452;"/>
    <path clip-path="url(#p09a6ac3c37)" d="M 273.597467 252 
L 273.597467 241.128 
" style="fill:none;stroke:#dd8452;"/>
    <path clip-path="url(#p09a6ac3c37)" d="M 233.83636 252 
L 233.83636 241.128 
" style="fill:none;stroke:#dd8452;"/>
    <path clip-path="url(#p09a6ac3c37)" d="M 283.274547 252 
L 283.274547 241.128 
" style="fill:none;stroke:#dd8452;"/>
    <path clip-path="url(#p09a6ac3c37)" d="M 252.451145 252 
L 252.451145 241.128 
" style="fill:none;stroke:#dd8452;"/>
    <path clip-path="url(#p09a6ac3c37)" d="M 319.261257 252 
L 319.261257 241.128 
" style="fill:none;stroke:#dd8452;"/>
    <path clip-path="url(#p09a6ac3c37)" d="M 270.683172 252 
L 270.683172 241.128 
" style="fill:none;stroke:#dd8452;"/>
    <path clip-path="url(#p09a6ac3c37)" d="M 207.615791 252 
L 207.615791 241.128 
" style="fill:none;stroke:#dd8452;"/>
    <path clip-path="url(#p09a6ac3c37)" d="M 253.370129 252 
L 253.370129 241.128 
" style="fill:none;stroke:#dd8452;"/>
    <path clip-path="url(#p09a6ac3c37)" d="M 183.548803 252 
L 183.548803 241.128 
" style="fill:none;stroke:#dd8452;"/>
    <path clip-path="url(#p09a6ac3c37)" d="M 322.020135 252 
L 322.020135 241.128 
" style="fill:none;stroke:#dd8452;"/>
    <path clip-path="url(#p09a6ac3c37)" d="M 237.325333 252 
L 237.325333 241.128 
" style="fill:none;stroke:#dd8452;"/>
    <path clip-path="url(#p09a6ac3c37)" d="M 253.623952 252 
L 253.623952 241.128 
" style="fill:none;stroke:#dd8452;"/>
    <path clip-path="url(#p09a6ac3c37)" d="M 305.725694 252 
L 305.725694 241.128 
" style="fill:none;stroke:#dd8452;"/>
    <path clip-path="url(#p09a6ac3c37)" d="M 245.513636 252 
L 245.513636 241.128 
" style="fill:none;stroke:#dd8452;"/>
    <path clip-path="url(#p09a6ac3c37)" d="M 291.873703 252 
L 291.873703 241.128 
" style="fill:none;stroke:#dd8452;"/>
    <path clip-path="url(#p09a6ac3c37)" d="M 283.147796 252 
L 283.147796 241.128 
" style="fill:none;stroke:#dd8452;"/>
    <path clip-path="url(#p09a6ac3c37)" d="M 201.753864 252 
L 201.753864 241.128 
" style="fill:none;stroke:#dd8452;"/>
    <path clip-path="url(#p09a6ac3c37)" d="M 311.273473 252 
L 311.273473 241.128 
" style="fill:none;stroke:#dd8452;"/>
    <path clip-path="url(#p09a6ac3c37)" d="M 217.052324 252 
L 217.052324 241.128 
" style="fill:none;stroke:#dd8452;"/>
    <path clip-path="url(#p09a6ac3c37)" d="M 292.362558 252 
L 292.362558 241.128 
" style="fill:none;stroke:#dd8452;"/>
    <path clip-path="url(#p09a6ac3c37)" d="M 316.657033 252 
L 316.657033 241.128 
" style="fill:none;stroke:#dd8452;"/>
    <path clip-path="url(#p09a6ac3c37)" d="M 311.248948 252 
L 311.248948 241.128 
" style="fill:none;stroke:#dd8452;"/>
    <path clip-path="url(#p09a6ac3c37)" d="M 324.469062 252 
L 324.469062 241.128 
" style="fill:none;stroke:#dd8452;"/>
    <path clip-path="url(#p09a6ac3c37)" d="M 200.911426 252 
L 200.911426 241.128 
" style="fill:none;stroke:#dd8452;"/>
    <path clip-path="url(#p09a6ac3c37)" d="M 274.194842 252 
L 274.194842 241.128 
" style="fill:none;stroke:#dd8452;"/>
    <path clip-path="url(#p09a6ac3c37)" d="M 201.511377 252 
L 201.511377 241.128 
" style="fill:none;stroke:#dd8452;"/>
    <path clip-path="url(#p09a6ac3c37)" d="M 255.377006 252 
L 255.377006 241.128 
" style="fill:none;stroke:#dd8452;"/>
    <path clip-path="url(#p09a6ac3c37)" d="M 210.659659 252 
L 210.659659 241.128 
" style="fill:none;stroke:#dd8452;"/>
    <path clip-path="url(#p09a6ac3c37)" d="M 234.590417 252 
L 234.590417 241.128 
" style="fill:none;stroke:#dd8452;"/>
    <path clip-path="url(#p09a6ac3c37)" d="M 255.278977 252 
L 255.278977 241.128 
" style="fill:none;stroke:#dd8452;"/>
    <path clip-path="url(#p09a6ac3c37)" d="M 291.746691 252 
L 291.746691 241.128 
" style="fill:none;stroke:#dd8452;"/>
    <path clip-path="url(#p09a6ac3c37)" d="M 191.065748 252 
L 191.065748 241.128 
" style="fill:none;stroke:#dd8452;"/>
    <path clip-path="url(#p09a6ac3c37)" d="M 276.734607 252 
L 276.734607 241.128 
" style="fill:none;stroke:#dd8452;"/>
    <path clip-path="url(#p09a6ac3c37)" d="M 216.986434 252 
L 216.986434 241.128 
" style="fill:none;stroke:#dd8452;"/>
    <path clip-path="url(#p09a6ac3c37)" d="M 216.12394 252 
L 216.12394 241.128 
" style="fill:none;stroke:#dd8452;"/>
    <path clip-path="url(#p09a6ac3c37)" d="M 257.049144 252 
L 257.049144 241.128 
" style="fill:none;stroke:#dd8452;"/>
    <path clip-path="url(#p09a6ac3c37)" d="M 322.435986 252 
L 322.435986 241.128 
" style="fill:none;stroke:#dd8452;"/>
    <path clip-path="url(#p09a6ac3c37)" d="M 264.743324 252 
L 264.743324 241.128 
" style="fill:none;stroke:#dd8452;"/>
    <path clip-path="url(#p09a6ac3c37)" d="M 260.443758 252 
L 260.443758 241.128 
" style="fill:none;stroke:#dd8452;"/>
    <path clip-path="url(#p09a6ac3c37)" d="M 229.588045 252 
L 229.588045 241.128 
" style="fill:none;stroke:#dd8452;"/>
    <path clip-path="url(#p09a6ac3c37)" d="M 286.960108 252 
L 286.960108 241.128 
" style="fill:none;stroke:#dd8452;"/>
    <path clip-path="url(#p09a6ac3c37)" d="M 292.929614 252 
L 292.929614 241.128 
" style="fill:none;stroke:#dd8452;"/>
    <path clip-path="url(#p09a6ac3c37)" d="M 223.039707 252 
L 223.039707 241.128 
" style="fill:none;stroke:#dd8452;"/>
    <path clip-path="url(#p09a6ac3c37)" d="M 234.064283 252 
L 234.064283 241.128 
" style="fill:none;stroke:#dd8452;"/>
    <path clip-path="url(#p09a6ac3c37)" d="M 184.031231 252 
L 184.031231 241.128 
" style="fill:none;stroke:#dd8452;"/>
    <path clip-path="url(#p09a6ac3c37)" d="M 270.316012 252 
L 270.316012 241.128 
" style="fill:none;stroke:#dd8452;"/>
    <path clip-path="url(#p09a6ac3c37)" d="M 305.600158 252 
L 305.600158 241.128 
" style="fill:none;stroke:#dd8452;"/>
    <path clip-path="url(#p09a6ac3c37)" d="M 206.86586 252 
L 206.86586 241.128 
" style="fill:none;stroke:#dd8452;"/>
    <path clip-path="url(#p09a6ac3c37)" d="M 292.615192 252 
L 292.615192 241.128 
" style="fill:none;stroke:#dd8452;"/>
    <path clip-path="url(#p09a6ac3c37)" d="M 247.76962 252 
L 247.76962 241.128 
" style="fill:none;stroke:#dd8452;"/>
    <path clip-path="url(#p09a6ac3c37)" d="M 291.305112 252 
L 291.305112 241.128 
" style="fill:none;stroke:#dd8452;"/>
    <path clip-path="url(#p09a6ac3c37)" d="M 289.246911 252 
L 289.246911 241.128 
" style="fill:none;stroke:#dd8452;"/>
    <path clip-path="url(#p09a6ac3c37)" d="M 301.357253 252 
L 301.357253 241.128 
" style="fill:none;stroke:#dd8452;"/>
    <path clip-path="url(#p09a6ac3c37)" d="M 234.347222 252 
L 234.347222 241.128 
" style="fill:none;stroke:#dd8452;"/>
    <path clip-path="url(#p09a6ac3c37)" d="M 262.830438 252 
L 262.830438 241.128 
" style="fill:none;stroke:#dd8452;"/>
    <path clip-path="url(#p09a6ac3c37)" d="M 308.89951 252 
L 308.89951 241.128 
" style="fill:none;stroke:#dd8452;"/>
    <path clip-path="url(#p09a6ac3c37)" d="M 224.614734 252 
L 224.614734 241.128 
" style="fill:none;stroke:#dd8452;"/>
    <path clip-path="url(#p09a6ac3c37)" d="M 261.055685 252 
L 261.055685 241.128 
" style="fill:none;stroke:#dd8452;"/>
    <path clip-path="url(#p09a6ac3c37)" d="M 188.458909 252 
L 188.458909 241.128 
" style="fill:none;stroke:#dd8452;"/>
    <path clip-path="url(#p09a6ac3c37)" d="M 238.448574 252 
L 238.448574 241.128 
" style="fill:none;stroke:#dd8452;"/>
    <path clip-path="url(#p09a6ac3c37)" d="M 246.163952 252 
L 246.163952 241.128 
" style="fill:none;stroke:#dd8452;"/>
    <path clip-path="url(#p09a6ac3c37)" d="M 309.818428 252 
L 309.818428 241.128 
" style="fill:none;stroke:#dd8452;"/>
    <path clip-path="url(#p09a6ac3c37)" d="M 234.537895 252 
L 234.537895 241.128 
" style="fill:none;stroke:#dd8452;"/>
    <path clip-path="url(#p09a6ac3c37)" d="M 317.421111 252 
L 317.421111 241.128 
" style="fill:none;stroke:#dd8452;"/>
    <path clip-path="url(#p09a6ac3c37)" d="M 248.655224 252 
L 248.655224 241.128 
" style="fill:none;stroke:#dd8452;"/>
    <path clip-path="url(#p09a6ac3c37)" d="M 290.620874 252 
L 290.620874 241.128 
" style="fill:none;stroke:#dd8452;"/>
    <path clip-path="url(#p09a6ac3c37)" d="M 257.431622 252 
L 257.431622 241.128 
" style="fill:none;stroke:#dd8452;"/>
    <path clip-path="url(#p09a6ac3c37)" d="M 293.276598 252 
L 293.276598 241.128 
" style="fill:none;stroke:#dd8452;"/>
    <path clip-path="url(#p09a6ac3c37)" d="M 286.359731 252 
L 286.359731 241.128 
" style="fill:none;stroke:#dd8452;"/>
    <path clip-path="url(#p09a6ac3c37)" d="M 252.24736 252 
L 252.24736 241.128 
" style="fill:none;stroke:#dd8452;"/>
    <path clip-path="url(#p09a6ac3c37)" d="M 269.600993 252 
L 269.600993 241.128 
" style="fill:none;stroke:#dd8452;"/>
    <path clip-path="url(#p09a6ac3c37)" d="M 294.348438 252 
L 294.348438 241.128 
" style="fill:none;stroke:#dd8452;"/>
    <path clip-path="url(#p09a6ac3c37)" d="M 313.586614 252 
L 313.586614 241.128 
" style="fill:none;stroke:#dd8452;"/>
    <path clip-path="url(#p09a6ac3c37)" d="M 199.148665 252 
L 199.148665 241.128 
" style="fill:none;stroke:#dd8452;"/>
    <path clip-path="url(#p09a6ac3c37)" d="M 242.823518 252 
L 242.823518 241.128 
" style="fill:none;stroke:#dd8452;"/>
    <path clip-path="url(#p09a6ac3c37)" d="M 233.367485 252 
L 233.367485 241.128 
" style="fill:none;stroke:#dd8452;"/>
    <path clip-path="url(#p09a6ac3c37)" d="M 308.447591 252 
L 308.447591 241.128 
" style="fill:none;stroke:#dd8452;"/>
    <path clip-path="url(#p09a6ac3c37)" d="M 233.233851 252 
L 233.233851 241.128 
" style="fill:none;stroke:#dd8452;"/>
    <path clip-path="url(#p09a6ac3c37)" d="M 245.307718 252 
L 245.307718 241.128 
" style="fill:none;stroke:#dd8452;"/>
    <path clip-path="url(#p09a6ac3c37)" d="M 194.725994 252 
L 194.725994 241.128 
" style="fill:none;stroke:#dd8452;"/>
   </g>
   <g id="line2d_17">
    <path clip-path="url(#p09a6ac3c37)" d="M 69.218182 251.553605 
L 73.243071 251.582377 
L 77.26796 251.403824 
L 81.29285 251.003653 
L 85.317739 250.326928 
L 89.342629 249.296734 
L 93.367518 247.834006 
L 95.379963 246.920175 
L 97.392407 245.877772 
L 99.404852 244.70475 
L 103.429741 241.972211 
L 107.454631 238.757073 
L 111.47952 235.118424 
L 115.504409 231.111974 
L 119.529299 226.758689 
L 123.554188 222.022296 
L 127.579077 216.805735 
L 131.603967 210.969404 
L 133.616411 207.771817 
L 135.628856 204.365247 
L 137.641301 200.736145 
L 141.66619 192.776072 
L 145.691079 183.869998 
L 149.715969 174.075783 
L 153.740858 163.530692 
L 159.778192 146.789297 
L 167.827971 124.341313 
L 171.85286 113.816687 
L 175.877749 104.114795 
L 179.902639 95.337937 
L 183.927528 87.418185 
L 187.952417 80.153913 
L 191.977307 73.307587 
L 198.014641 63.548804 
L 202.03953 57.525204 
L 204.051975 54.773012 
L 206.064419 52.266388 
L 208.076864 50.063211 
L 210.089309 48.218495 
L 212.101753 46.779824 
L 214.114198 45.783402 
L 216.126643 45.251007 
L 218.139087 45.188023 
L 220.151532 45.582622 
L 222.163977 46.406065 
L 224.176421 47.613995 
L 226.188866 49.148623 
L 228.201311 50.941647 
L 232.2262 54.998882 
L 236.251089 59.17589 
L 240.275979 62.966157 
L 242.288423 64.624244 
L 246.313313 67.481369 
L 250.338202 70.062023 
L 252.350647 71.473606 
L 254.363091 73.12899 
L 256.375536 75.166166 
L 258.387981 77.725269 
L 260.400425 80.938608 
L 262.41287 84.920485 
L 264.425315 89.757704 
L 266.437759 95.501617 
L 268.450204 102.162493 
L 270.462649 109.706753 
L 272.475093 118.057378 
L 274.487538 127.097479 
L 278.512427 146.620076 
L 284.549761 176.730396 
L 288.574651 195.2432 
L 290.587095 203.598384 
L 292.59954 211.228366 
L 294.611985 218.080764 
L 296.624429 224.134579 
L 298.636874 229.396995 
L 300.649319 233.898934 
L 302.661763 237.689894 
L 304.674208 240.832555 
L 306.686653 243.397584 
L 308.699097 245.458968 
L 310.711542 247.090082 
L 312.723987 248.360615 
L 314.736431 249.334372 
L 316.748876 250.067868 
L 318.761321 250.609641 
L 320.773765 251.00011 
L 324.798655 251.450123 
L 324.798655 251.450123 
" style="fill:none;stroke:#4c72b0;stroke-linecap:round;stroke-width:1.5;"/>
   </g>
   <g id="line2d_18">
    <path clip-path="url(#p09a6ac3c37)" d="M 134.436047 251.56204 
L 138.202122 251.404314 
L 141.968197 250.982059 
L 145.734272 250.19067 
L 147.61731 249.606967 
L 149.500347 248.864333 
L 151.383385 247.933771 
L 153.266422 246.784003 
L 155.14946 245.382356 
L 157.032498 243.69589 
L 158.915535 241.692716 
L 160.798573 239.343499 
L 162.68161 236.623042 
L 164.564648 233.511892 
L 166.447685 229.997846 
L 168.330723 226.077266 
L 170.213761 221.756083 
L 172.096798 217.050409 
L 173.979836 211.986685 
L 177.745911 200.939858 
L 181.511986 189.007891 
L 190.927174 158.545111 
L 194.693249 147.340665 
L 198.459324 137.185607 
L 202.225399 128.176722 
L 205.991474 120.223265 
L 209.75755 113.069943 
L 221.055775 92.729351 
L 224.82185 85.334144 
L 230.470963 73.567325 
L 234.237038 65.733033 
L 238.003113 58.482219 
L 239.886151 55.250983 
L 241.769188 52.372302 
L 243.652226 49.90513 
L 245.535263 47.897968 
L 247.418301 46.386257 
L 249.301339 45.390366 
L 251.184376 44.914286 
L 253.067414 44.945125 
L 254.950451 45.453471 
L 256.833489 46.394639 
L 258.716526 47.710792 
L 260.599564 49.33385 
L 264.365639 53.199079 
L 270.014752 59.433961 
L 273.780827 63.203386 
L 277.546902 66.411516 
L 281.312977 69.136376 
L 286.96209 73.012584 
L 288.845127 74.468769 
L 290.728165 76.10454 
L 292.611203 77.974737 
L 294.49424 80.129066 
L 296.377278 82.611058 
L 298.260315 85.457579 
L 300.143353 88.698744 
L 302.02639 92.358032 
L 303.909428 96.452406 
L 305.792466 100.992253 
L 307.675503 105.981049 
L 309.558541 111.414729 
L 311.441578 117.280799 
L 315.207653 130.212121 
L 318.973729 144.472458 
L 324.622841 167.275135 
L 330.271954 189.833562 
L 334.038029 203.614916 
L 335.921067 209.914027 
L 337.804104 215.749684 
L 339.687142 221.087517 
L 341.570179 225.907746 
L 343.453217 230.204783 
L 345.336255 233.986139 
L 347.219292 237.27077 
L 349.10233 240.087025 
L 350.985367 242.470391 
L 352.868405 244.461176 
L 354.751442 246.102308 
L 356.63448 247.437341 
L 358.517518 248.508766 
L 360.400555 249.356648 
L 362.283593 250.017623 
L 364.16663 250.524207 
L 367.932705 251.18148 
L 371.698781 251.496052 
L 373.581818 251.556993 
L 373.581818 251.556993 
" style="fill:none;stroke:#dd8452;stroke-linecap:round;stroke-width:1.5;"/>
   </g>
   <g id="patch_3">
    <path d="M 54 252 
L 54 34.56 
" style="fill:none;stroke:#ffffff;stroke-linecap:square;stroke-linejoin:miter;stroke-width:1.25;"/>
   </g>
   <g id="patch_4">
    <path d="M 388.8 252 
L 388.8 34.56 
" style="fill:none;stroke:#ffffff;stroke-linecap:square;stroke-linejoin:miter;stroke-width:1.25;"/>
   </g>
   <g id="patch_5">
    <path d="M 54 252 
L 388.8 252 
" style="fill:none;stroke:#ffffff;stroke-linecap:square;stroke-linejoin:miter;stroke-width:1.25;"/>
   </g>
   <g id="patch_6">
    <path d="M 54 34.56 
L 388.8 34.56 
" style="fill:none;stroke:#ffffff;stroke-linecap:square;stroke-linejoin:miter;stroke-width:1.25;"/>
   </g>
   <g id="text_19">
    <!-- Growth rate - scenario B vs C -->
    <defs>
     <path d="M 3.171875 21.484375 
L 3.171875 30.328125 
L 30.171875 30.328125 
L 30.171875 21.484375 
z
" id="ArialMT-45"/>
     <path d="M 40.4375 19 
L 49.078125 17.875 
Q 47.65625 8.9375 41.8125 3.875 
Q 35.984375 -1.171875 27.484375 -1.171875 
Q 16.84375 -1.171875 10.375 5.78125 
Q 3.90625 12.75 3.90625 25.734375 
Q 3.90625 34.125 6.6875 40.421875 
Q 9.46875 46.734375 15.15625 49.875 
Q 20.84375 53.03125 27.546875 53.03125 
Q 35.984375 53.03125 41.359375 48.75 
Q 46.734375 44.484375 48.25 36.625 
L 39.703125 35.296875 
Q 38.484375 40.53125 35.375 43.15625 
Q 32.28125 45.796875 27.875 45.796875 
Q 21.234375 45.796875 17.078125 41.03125 
Q 12.9375 36.28125 12.9375 25.984375 
Q 12.9375 15.53125 16.9375 10.796875 
Q 20.953125 6.0625 27.390625 6.0625 
Q 32.5625 6.0625 36.03125 9.234375 
Q 39.5 12.40625 40.4375 19 
z
" id="ArialMT-99"/>
     <path d="M 7.328125 0 
L 7.328125 71.578125 
L 34.1875 71.578125 
Q 42.390625 71.578125 47.34375 69.40625 
Q 52.296875 67.234375 55.09375 62.71875 
Q 57.90625 58.203125 57.90625 53.265625 
Q 57.90625 48.6875 55.421875 44.625 
Q 52.9375 40.578125 47.90625 38.09375 
Q 54.390625 36.1875 57.875 31.59375 
Q 61.375 27 61.375 20.75 
Q 61.375 15.71875 59.25 11.390625 
Q 57.125 7.078125 54 4.734375 
Q 50.875 2.390625 46.15625 1.1875 
Q 41.453125 0 34.625 0 
z
M 16.796875 41.5 
L 32.28125 41.5 
Q 38.578125 41.5 41.3125 42.328125 
Q 44.921875 43.40625 46.75 45.890625 
Q 48.578125 48.390625 48.578125 52.15625 
Q 48.578125 55.71875 46.875 58.421875 
Q 45.171875 61.140625 41.984375 62.140625 
Q 38.8125 63.140625 31.109375 63.140625 
L 16.796875 63.140625 
z
M 16.796875 8.453125 
L 34.625 8.453125 
Q 39.203125 8.453125 41.0625 8.796875 
Q 44.34375 9.375 46.53125 10.734375 
Q 48.734375 12.109375 50.140625 14.71875 
Q 51.5625 17.328125 51.5625 20.75 
Q 51.5625 24.75 49.515625 27.703125 
Q 47.46875 30.671875 43.828125 31.859375 
Q 40.1875 33.0625 33.34375 33.0625 
L 16.796875 33.0625 
z
" id="ArialMT-66"/>
     <path d="M 21 0 
L 1.265625 51.859375 
L 10.546875 51.859375 
L 21.6875 20.796875 
Q 23.484375 15.765625 25 10.359375 
Q 26.171875 14.453125 28.265625 20.21875 
L 39.796875 51.859375 
L 48.828125 51.859375 
L 29.203125 0 
z
" id="ArialMT-118"/>
     <path d="M 58.796875 25.09375 
L 68.265625 22.703125 
Q 65.28125 11.03125 57.546875 4.90625 
Q 49.8125 -1.21875 38.625 -1.21875 
Q 27.046875 -1.21875 19.796875 3.484375 
Q 12.546875 8.203125 8.765625 17.140625 
Q 4.984375 26.078125 4.984375 36.328125 
Q 4.984375 47.515625 9.25 55.828125 
Q 13.53125 64.15625 21.40625 68.46875 
Q 29.296875 72.796875 38.765625 72.796875 
Q 49.515625 72.796875 56.828125 67.328125 
Q 64.15625 61.859375 67.046875 51.953125 
L 57.71875 49.75 
Q 55.21875 57.5625 50.484375 61.125 
Q 45.75 64.703125 38.578125 64.703125 
Q 30.328125 64.703125 24.78125 60.734375 
Q 19.234375 56.78125 16.984375 50.109375 
Q 14.75 43.453125 14.75 36.375 
Q 14.75 27.25 17.40625 20.4375 
Q 20.0625 13.625 25.671875 10.25 
Q 31.296875 6.890625 37.84375 6.890625 
Q 45.796875 6.890625 51.3125 11.46875 
Q 56.84375 16.0625 58.796875 25.09375 
z
" id="ArialMT-67"/>
    </defs>
    <g style="fill:#262626;" transform="translate(142.712813 28.56)scale(0.12 -0.12)">
     <use xlink:href="#ArialMT-71"/>
     <use x="77.783203" xlink:href="#ArialMT-114"/>
     <use x="111.083984" xlink:href="#ArialMT-111"/>
     <use x="166.699219" xlink:href="#ArialMT-119"/>
     <use x="238.916016" xlink:href="#ArialMT-116"/>
     <use x="266.699219" xlink:href="#ArialMT-104"/>
     <use x="322.314453" xlink:href="#ArialMT-32"/>
     <use x="350.097656" xlink:href="#ArialMT-114"/>
     <use x="383.398438" xlink:href="#ArialMT-97"/>
     <use x="439.013672" xlink:href="#ArialMT-116"/>
     <use x="466.796875" xlink:href="#ArialMT-101"/>
     <use x="522.412109" xlink:href="#ArialMT-32"/>
     <use x="550.195312" xlink:href="#ArialMT-45"/>
     <use x="583.496094" xlink:href="#ArialMT-32"/>
     <use x="611.279297" xlink:href="#ArialMT-115"/>
     <use x="661.279297" xlink:href="#ArialMT-99"/>
     <use x="711.279297" xlink:href="#ArialMT-101"/>
     <use x="766.894531" xlink:href="#ArialMT-110"/>
     <use x="822.509766" xlink:href="#ArialMT-97"/>
     <use x="878.125" xlink:href="#ArialMT-114"/>
     <use x="911.425781" xlink:href="#ArialMT-105"/>
     <use x="933.642578" xlink:href="#ArialMT-111"/>
     <use x="989.257812" xlink:href="#ArialMT-32"/>
     <use x="1017.041016" xlink:href="#ArialMT-66"/>
     <use x="1083.740234" xlink:href="#ArialMT-32"/>
     <use x="1111.523438" xlink:href="#ArialMT-118"/>
     <use x="1161.523438" xlink:href="#ArialMT-115"/>
     <use x="1211.523438" xlink:href="#ArialMT-32"/>
     <use x="1239.306641" xlink:href="#ArialMT-67"/>
    </g>
   </g>
   <g id="legend_1">
    <g id="patch_7">
     <path d="M 293.314844 74.479688 
L 381.1 74.479688 
Q 383.3 74.479688 383.3 72.279688 
L 383.3 42.26 
Q 383.3 40.06 381.1 40.06 
L 293.314844 40.06 
Q 291.114844 40.06 291.114844 42.26 
L 291.114844 72.279688 
Q 291.114844 74.479688 293.314844 74.479688 
z
" style="fill:#eaeaf2;opacity:0.8;stroke:#cccccc;stroke-linejoin:miter;"/>
    </g>
    <g id="line2d_19">
     <path d="M 295.514844 48.483594 
L 317.514844 48.483594 
" style="fill:none;stroke:#4c72b0;"/>
    </g>
    <g id="text_20">
     <!-- Scenario 1 -->
     <defs>
      <path d="M 4.5 23 
L 13.421875 23.78125 
Q 14.0625 18.40625 16.375 14.96875 
Q 18.703125 11.53125 23.578125 9.40625 
Q 28.46875 7.28125 34.578125 7.28125 
Q 39.984375 7.28125 44.140625 8.890625 
Q 48.296875 10.5 50.3125 13.296875 
Q 52.34375 16.109375 52.34375 19.4375 
Q 52.34375 22.796875 50.390625 25.3125 
Q 48.4375 27.828125 43.953125 29.546875 
Q 41.0625 30.671875 31.203125 33.03125 
Q 21.34375 35.40625 17.390625 37.5 
Q 12.25 40.1875 9.734375 44.15625 
Q 7.234375 48.140625 7.234375 53.078125 
Q 7.234375 58.5 10.296875 63.203125 
Q 13.375 67.921875 19.28125 70.359375 
Q 25.203125 72.796875 32.421875 72.796875 
Q 40.375 72.796875 46.453125 70.234375 
Q 52.546875 67.671875 55.8125 62.6875 
Q 59.078125 57.71875 59.328125 51.421875 
L 50.25 50.734375 
Q 49.515625 57.515625 45.28125 60.984375 
Q 41.0625 64.453125 32.8125 64.453125 
Q 24.21875 64.453125 20.28125 61.296875 
Q 16.359375 58.15625 16.359375 53.71875 
Q 16.359375 49.859375 19.140625 47.359375 
Q 21.875 44.875 33.421875 42.265625 
Q 44.96875 39.65625 49.265625 37.703125 
Q 55.515625 34.8125 58.484375 30.390625 
Q 61.46875 25.984375 61.46875 20.21875 
Q 61.46875 14.5 58.203125 9.4375 
Q 54.9375 4.390625 48.796875 1.578125 
Q 42.671875 -1.21875 35.015625 -1.21875 
Q 25.296875 -1.21875 18.71875 1.609375 
Q 12.15625 4.4375 8.421875 10.125 
Q 4.6875 15.828125 4.5 23 
z
" id="ArialMT-83"/>
     </defs>
     <g style="fill:#262626;" transform="translate(326.314844 52.333594)scale(0.11 -0.11)">
      <use xlink:href="#ArialMT-83"/>
      <use x="66.699219" xlink:href="#ArialMT-99"/>
      <use x="116.699219" xlink:href="#ArialMT-101"/>
      <use x="172.314453" xlink:href="#ArialMT-110"/>
      <use x="227.929688" xlink:href="#ArialMT-97"/>
      <use x="283.544922" xlink:href="#ArialMT-114"/>
      <use x="316.845703" xlink:href="#ArialMT-105"/>
      <use x="339.0625" xlink:href="#ArialMT-111"/>
      <use x="394.677734" xlink:href="#ArialMT-32"/>
      <use x="422.460938" xlink:href="#ArialMT-49"/>
     </g>
    </g>
    <g id="line2d_20">
     <path d="M 295.514844 64.043438 
L 317.514844 64.043438 
" style="fill:none;stroke:#dd8452;"/>
    </g>
    <g id="text_21">
     <!-- Scenario 2 -->
     <g style="fill:#262626;" transform="translate(326.314844 67.893438)scale(0.11 -0.11)">
      <use xlink:href="#ArialMT-83"/>
      <use x="66.699219" xlink:href="#ArialMT-99"/>
      <use x="116.699219" xlink:href="#ArialMT-101"/>
      <use x="172.314453" xlink:href="#ArialMT-110"/>
      <use x="227.929688" xlink:href="#ArialMT-97"/>
      <use x="283.544922" xlink:href="#ArialMT-114"/>
      <use x="316.845703" xlink:href="#ArialMT-105"/>
      <use x="339.0625" xlink:href="#ArialMT-111"/>
      <use x="394.677734" xlink:href="#ArialMT-32"/>
      <use x="422.460938" xlink:href="#ArialMT-50"/>
     </g>
    </g>
   </g>
  </g>
 </g>
 <defs>
  <clipPath id="p09a6ac3c37">
   <rect height="217.44" width="334.8" x="54" y="34.56"/>
  </clipPath>
 </defs>
</svg>
