<?xml version="1.0" encoding="utf-8" standalone="no"?>
<!DOCTYPE svg PUBLIC "-//W3C//DTD SVG 1.1//EN"
  "http://www.w3.org/Graphics/SVG/1.1/DTD/svg11.dtd">
<!-- Created with matplotlib (https://matplotlib.org/) -->
<svg height="288pt" version="1.1" viewBox="0 0 432 288" width="432pt" xmlns="http://www.w3.org/2000/svg" xmlns:xlink="http://www.w3.org/1999/xlink">
 <defs>
  <style type="text/css">
*{stroke-linecap:butt;stroke-linejoin:round;}
  </style>
 </defs>
 <g id="figure_1">
  <g id="patch_1">
   <path d="M 0 288 
L 432 288 
L 432 0 
L 0 0 
z
" style="fill:#ffffff;"/>
  </g>
  <g id="axes_1">
   <g id="patch_2">
    <path d="M 54 252 
L 388.8 252 
L 388.8 34.56 
L 54 34.56 
z
" style="fill:#eaeaf2;"/>
   </g>
   <g id="matplotlib.axis_1">
    <g id="xtick_1">
     <g id="line2d_1">
      <path clip-path="url(#p00766ddf8a)" d="M 62.933559 252 
L 62.933559 34.56 
" style="fill:none;stroke:#ffffff;stroke-linecap:round;"/>
     </g>
     <g id="text_1">
      <!-- −0.150 -->
      <defs>
       <path d="M 52.828125 31.203125 
L 5.5625 31.203125 
L 5.5625 39.40625 
L 52.828125 39.40625 
z
" id="ArialMT-8722"/>
       <path d="M 4.15625 35.296875 
Q 4.15625 48 6.765625 55.734375 
Q 9.375 63.484375 14.515625 67.671875 
Q 19.671875 71.875 27.484375 71.875 
Q 33.25 71.875 37.59375 69.546875 
Q 41.9375 67.234375 44.765625 62.859375 
Q 47.609375 58.5 49.21875 52.21875 
Q 50.828125 45.953125 50.828125 35.296875 
Q 50.828125 22.703125 48.234375 14.96875 
Q 45.65625 7.234375 40.5 3 
Q 35.359375 -1.21875 27.484375 -1.21875 
Q 17.140625 -1.21875 11.234375 6.203125 
Q 4.15625 15.140625 4.15625 35.296875 
z
M 13.1875 35.296875 
Q 13.1875 17.671875 17.3125 11.828125 
Q 21.4375 6 27.484375 6 
Q 33.546875 6 37.671875 11.859375 
Q 41.796875 17.71875 41.796875 35.296875 
Q 41.796875 52.984375 37.671875 58.78125 
Q 33.546875 64.59375 27.390625 64.59375 
Q 21.34375 64.59375 17.71875 59.46875 
Q 13.1875 52.9375 13.1875 35.296875 
z
" id="ArialMT-48"/>
       <path d="M 9.078125 0 
L 9.078125 10.015625 
L 19.09375 10.015625 
L 19.09375 0 
z
" id="ArialMT-46"/>
       <path d="M 37.25 0 
L 28.46875 0 
L 28.46875 56 
Q 25.296875 52.984375 20.140625 49.953125 
Q 14.984375 46.921875 10.890625 45.40625 
L 10.890625 53.90625 
Q 18.265625 57.375 23.78125 62.296875 
Q 29.296875 67.234375 31.59375 71.875 
L 37.25 71.875 
z
" id="ArialMT-49"/>
       <path d="M 4.15625 18.75 
L 13.375 19.53125 
Q 14.40625 12.796875 18.140625 9.390625 
Q 21.875 6 27.15625 6 
Q 33.5 6 37.890625 10.78125 
Q 42.28125 15.578125 42.28125 23.484375 
Q 42.28125 31 38.0625 35.34375 
Q 33.84375 39.703125 27 39.703125 
Q 22.75 39.703125 19.328125 37.765625 
Q 15.921875 35.84375 13.96875 32.765625 
L 5.71875 33.84375 
L 12.640625 70.609375 
L 48.25 70.609375 
L 48.25 62.203125 
L 19.671875 62.203125 
L 15.828125 42.96875 
Q 22.265625 47.46875 29.34375 47.46875 
Q 38.71875 47.46875 45.15625 40.96875 
Q 51.609375 34.46875 51.609375 24.265625 
Q 51.609375 14.546875 45.953125 7.46875 
Q 39.0625 -1.21875 27.15625 -1.21875 
Q 17.390625 -1.21875 11.203125 4.25 
Q 5.03125 9.71875 4.15625 18.75 
z
" id="ArialMT-53"/>
      </defs>
      <g style="fill:#262626;" transform="translate(45.959184 269.373594)scale(0.11 -0.11)">
       <use xlink:href="#ArialMT-8722"/>
       <use x="58.398438" xlink:href="#ArialMT-48"/>
       <use x="114.013672" xlink:href="#ArialMT-46"/>
       <use x="141.796875" xlink:href="#ArialMT-49"/>
       <use x="197.412109" xlink:href="#ArialMT-53"/>
       <use x="253.027344" xlink:href="#ArialMT-48"/>
      </g>
     </g>
    </g>
    <g id="xtick_2">
     <g id="line2d_2">
      <path clip-path="url(#p00766ddf8a)" d="M 108.162259 252 
L 108.162259 34.56 
" style="fill:none;stroke:#ffffff;stroke-linecap:round;"/>
     </g>
     <g id="text_2">
      <!-- −0.125 -->
      <defs>
       <path d="M 50.34375 8.453125 
L 50.34375 0 
L 3.03125 0 
Q 2.9375 3.171875 4.046875 6.109375 
Q 5.859375 10.9375 9.828125 15.625 
Q 13.8125 20.3125 21.34375 26.46875 
Q 33.015625 36.03125 37.109375 41.625 
Q 41.21875 47.21875 41.21875 52.203125 
Q 41.21875 57.421875 37.46875 61 
Q 33.734375 64.59375 27.734375 64.59375 
Q 21.390625 64.59375 17.578125 60.78125 
Q 13.765625 56.984375 13.71875 50.25 
L 4.6875 51.171875 
Q 5.609375 61.28125 11.65625 66.578125 
Q 17.71875 71.875 27.9375 71.875 
Q 38.234375 71.875 44.234375 66.15625 
Q 50.25 60.453125 50.25 52 
Q 50.25 47.703125 48.484375 43.546875 
Q 46.734375 39.40625 42.65625 34.8125 
Q 38.578125 30.21875 29.109375 22.21875 
Q 21.1875 15.578125 18.9375 13.203125 
Q 16.703125 10.84375 15.234375 8.453125 
z
" id="ArialMT-50"/>
      </defs>
      <g style="fill:#262626;" transform="translate(91.187884 269.373594)scale(0.11 -0.11)">
       <use xlink:href="#ArialMT-8722"/>
       <use x="58.398438" xlink:href="#ArialMT-48"/>
       <use x="114.013672" xlink:href="#ArialMT-46"/>
       <use x="141.796875" xlink:href="#ArialMT-49"/>
       <use x="197.412109" xlink:href="#ArialMT-50"/>
       <use x="253.027344" xlink:href="#ArialMT-53"/>
      </g>
     </g>
    </g>
    <g id="xtick_3">
     <g id="line2d_3">
      <path clip-path="url(#p00766ddf8a)" d="M 153.39096 252 
L 153.39096 34.56 
" style="fill:none;stroke:#ffffff;stroke-linecap:round;"/>
     </g>
     <g id="text_3">
      <!-- −0.100 -->
      <g style="fill:#262626;" transform="translate(136.416585 269.373594)scale(0.11 -0.11)">
       <use xlink:href="#ArialMT-8722"/>
       <use x="58.398438" xlink:href="#ArialMT-48"/>
       <use x="114.013672" xlink:href="#ArialMT-46"/>
       <use x="141.796875" xlink:href="#ArialMT-49"/>
       <use x="197.412109" xlink:href="#ArialMT-48"/>
       <use x="253.027344" xlink:href="#ArialMT-48"/>
      </g>
     </g>
    </g>
    <g id="xtick_4">
     <g id="line2d_4">
      <path clip-path="url(#p00766ddf8a)" d="M 198.61966 252 
L 198.61966 34.56 
" style="fill:none;stroke:#ffffff;stroke-linecap:round;"/>
     </g>
     <g id="text_4">
      <!-- −0.075 -->
      <defs>
       <path d="M 4.734375 62.203125 
L 4.734375 70.65625 
L 51.078125 70.65625 
L 51.078125 63.8125 
Q 44.234375 56.546875 37.515625 44.484375 
Q 30.8125 32.421875 27.15625 19.671875 
Q 24.515625 10.6875 23.78125 0 
L 14.75 0 
Q 14.890625 8.453125 18.0625 20.40625 
Q 21.234375 32.375 27.171875 43.484375 
Q 33.109375 54.59375 39.796875 62.203125 
z
" id="ArialMT-55"/>
      </defs>
      <g style="fill:#262626;" transform="translate(181.645285 269.373594)scale(0.11 -0.11)">
       <use xlink:href="#ArialMT-8722"/>
       <use x="58.398438" xlink:href="#ArialMT-48"/>
       <use x="114.013672" xlink:href="#ArialMT-46"/>
       <use x="141.796875" xlink:href="#ArialMT-48"/>
       <use x="197.412109" xlink:href="#ArialMT-55"/>
       <use x="253.027344" xlink:href="#ArialMT-53"/>
      </g>
     </g>
    </g>
    <g id="xtick_5">
     <g id="line2d_5">
      <path clip-path="url(#p00766ddf8a)" d="M 243.848361 252 
L 243.848361 34.56 
" style="fill:none;stroke:#ffffff;stroke-linecap:round;"/>
     </g>
     <g id="text_5">
      <!-- −0.050 -->
      <g style="fill:#262626;" transform="translate(226.873986 269.373594)scale(0.11 -0.11)">
       <use xlink:href="#ArialMT-8722"/>
       <use x="58.398438" xlink:href="#ArialMT-48"/>
       <use x="114.013672" xlink:href="#ArialMT-46"/>
       <use x="141.796875" xlink:href="#ArialMT-48"/>
       <use x="197.412109" xlink:href="#ArialMT-53"/>
       <use x="253.027344" xlink:href="#ArialMT-48"/>
      </g>
     </g>
    </g>
    <g id="xtick_6">
     <g id="line2d_6">
      <path clip-path="url(#p00766ddf8a)" d="M 289.077061 252 
L 289.077061 34.56 
" style="fill:none;stroke:#ffffff;stroke-linecap:round;"/>
     </g>
     <g id="text_6">
      <!-- −0.025 -->
      <g style="fill:#262626;" transform="translate(272.102686 269.373594)scale(0.11 -0.11)">
       <use xlink:href="#ArialMT-8722"/>
       <use x="58.398438" xlink:href="#ArialMT-48"/>
       <use x="114.013672" xlink:href="#ArialMT-46"/>
       <use x="141.796875" xlink:href="#ArialMT-48"/>
       <use x="197.412109" xlink:href="#ArialMT-50"/>
       <use x="253.027344" xlink:href="#ArialMT-53"/>
      </g>
     </g>
    </g>
    <g id="xtick_7">
     <g id="line2d_7">
      <path clip-path="url(#p00766ddf8a)" d="M 334.305762 252 
L 334.305762 34.56 
" style="fill:none;stroke:#ffffff;stroke-linecap:round;"/>
     </g>
     <g id="text_7">
      <!-- 0.000 -->
      <g style="fill:#262626;" transform="translate(320.543731 269.373594)scale(0.11 -0.11)">
       <use xlink:href="#ArialMT-48"/>
       <use x="55.615234" xlink:href="#ArialMT-46"/>
       <use x="83.398438" xlink:href="#ArialMT-48"/>
       <use x="139.013672" xlink:href="#ArialMT-48"/>
       <use x="194.628906" xlink:href="#ArialMT-48"/>
      </g>
     </g>
    </g>
    <g id="xtick_8">
     <g id="line2d_8">
      <path clip-path="url(#p00766ddf8a)" d="M 379.534462 252 
L 379.534462 34.56 
" style="fill:none;stroke:#ffffff;stroke-linecap:round;"/>
     </g>
     <g id="text_8">
      <!-- 0.025 -->
      <g style="fill:#262626;" transform="translate(365.772431 269.373594)scale(0.11 -0.11)">
       <use xlink:href="#ArialMT-48"/>
       <use x="55.615234" xlink:href="#ArialMT-46"/>
       <use x="83.398438" xlink:href="#ArialMT-48"/>
       <use x="139.013672" xlink:href="#ArialMT-50"/>
       <use x="194.628906" xlink:href="#ArialMT-53"/>
      </g>
     </g>
    </g>
    <g id="text_9">
     <!-- Growth Rate -->
     <defs>
      <path d="M 41.21875 28.078125 
L 41.21875 36.46875 
L 71.53125 36.53125 
L 71.53125 9.96875 
Q 64.546875 4.390625 57.125 1.578125 
Q 49.703125 -1.21875 41.890625 -1.21875 
Q 31.34375 -1.21875 22.71875 3.296875 
Q 14.109375 7.8125 9.71875 16.359375 
Q 5.328125 24.90625 5.328125 35.453125 
Q 5.328125 45.90625 9.6875 54.953125 
Q 14.0625 64.015625 22.265625 68.40625 
Q 30.46875 72.796875 41.15625 72.796875 
Q 48.921875 72.796875 55.1875 70.28125 
Q 61.46875 67.78125 65.03125 63.28125 
Q 68.609375 58.796875 70.453125 51.5625 
L 61.921875 49.21875 
Q 60.296875 54.6875 57.90625 57.8125 
Q 55.515625 60.9375 51.0625 62.8125 
Q 46.625 64.703125 41.21875 64.703125 
Q 34.71875 64.703125 29.984375 62.71875 
Q 25.25 60.75 22.34375 57.515625 
Q 19.4375 54.296875 17.828125 50.4375 
Q 15.09375 43.796875 15.09375 36.03125 
Q 15.09375 26.46875 18.390625 20.015625 
Q 21.6875 13.578125 27.984375 10.453125 
Q 34.28125 7.328125 41.359375 7.328125 
Q 47.515625 7.328125 53.375 9.6875 
Q 59.234375 12.0625 62.25 14.75 
L 62.25 28.078125 
z
" id="ArialMT-71"/>
      <path d="M 6.5 0 
L 6.5 51.859375 
L 14.40625 51.859375 
L 14.40625 44 
Q 17.4375 49.515625 20 51.265625 
Q 22.5625 53.03125 25.640625 53.03125 
Q 30.078125 53.03125 34.671875 50.203125 
L 31.640625 42.046875 
Q 28.421875 43.953125 25.203125 43.953125 
Q 22.3125 43.953125 20.015625 42.21875 
Q 17.71875 40.484375 16.75 37.40625 
Q 15.28125 32.71875 15.28125 27.15625 
L 15.28125 0 
z
" id="ArialMT-114"/>
      <path d="M 3.328125 25.921875 
Q 3.328125 40.328125 11.328125 47.265625 
Q 18.015625 53.03125 27.640625 53.03125 
Q 38.328125 53.03125 45.109375 46.015625 
Q 51.90625 39.015625 51.90625 26.65625 
Q 51.90625 16.65625 48.90625 10.90625 
Q 45.90625 5.171875 40.15625 2 
Q 34.421875 -1.171875 27.640625 -1.171875 
Q 16.75 -1.171875 10.03125 5.8125 
Q 3.328125 12.796875 3.328125 25.921875 
z
M 12.359375 25.921875 
Q 12.359375 15.96875 16.703125 11.015625 
Q 21.046875 6.0625 27.640625 6.0625 
Q 34.1875 6.0625 38.53125 11.03125 
Q 42.875 16.015625 42.875 26.21875 
Q 42.875 35.84375 38.5 40.796875 
Q 34.125 45.75 27.640625 45.75 
Q 21.046875 45.75 16.703125 40.8125 
Q 12.359375 35.890625 12.359375 25.921875 
z
" id="ArialMT-111"/>
      <path d="M 16.15625 0 
L 0.296875 51.859375 
L 9.375 51.859375 
L 17.625 21.921875 
L 20.703125 10.796875 
Q 20.90625 11.625 23.390625 21.484375 
L 31.640625 51.859375 
L 40.671875 51.859375 
L 48.4375 21.78125 
L 51.03125 11.859375 
L 54 21.875 
L 62.890625 51.859375 
L 71.4375 51.859375 
L 55.21875 0 
L 46.09375 0 
L 37.84375 31.0625 
L 35.84375 39.890625 
L 25.34375 0 
z
" id="ArialMT-119"/>
      <path d="M 25.78125 7.859375 
L 27.046875 0.09375 
Q 23.34375 -0.6875 20.40625 -0.6875 
Q 15.625 -0.6875 12.984375 0.828125 
Q 10.359375 2.34375 9.28125 4.8125 
Q 8.203125 7.28125 8.203125 15.1875 
L 8.203125 45.015625 
L 1.765625 45.015625 
L 1.765625 51.859375 
L 8.203125 51.859375 
L 8.203125 64.703125 
L 16.9375 69.96875 
L 16.9375 51.859375 
L 25.78125 51.859375 
L 25.78125 45.015625 
L 16.9375 45.015625 
L 16.9375 14.703125 
Q 16.9375 10.9375 17.40625 9.859375 
Q 17.875 8.796875 18.921875 8.15625 
Q 19.96875 7.515625 21.921875 7.515625 
Q 23.390625 7.515625 25.78125 7.859375 
z
" id="ArialMT-116"/>
      <path d="M 6.59375 0 
L 6.59375 71.578125 
L 15.375 71.578125 
L 15.375 45.90625 
Q 21.53125 53.03125 30.90625 53.03125 
Q 36.671875 53.03125 40.921875 50.75 
Q 45.171875 48.484375 47 44.484375 
Q 48.828125 40.484375 48.828125 32.859375 
L 48.828125 0 
L 40.046875 0 
L 40.046875 32.859375 
Q 40.046875 39.453125 37.1875 42.453125 
Q 34.328125 45.453125 29.109375 45.453125 
Q 25.203125 45.453125 21.75 43.421875 
Q 18.3125 41.40625 16.84375 37.9375 
Q 15.375 34.46875 15.375 28.375 
L 15.375 0 
z
" id="ArialMT-104"/>
      <path id="ArialMT-32"/>
      <path d="M 7.859375 0 
L 7.859375 71.578125 
L 39.59375 71.578125 
Q 49.171875 71.578125 54.140625 69.640625 
Q 59.125 67.71875 62.109375 62.828125 
Q 65.09375 57.953125 65.09375 52.046875 
Q 65.09375 44.4375 60.15625 39.203125 
Q 55.21875 33.984375 44.921875 32.5625 
Q 48.6875 30.765625 50.640625 29 
Q 54.78125 25.203125 58.5 19.484375 
L 70.953125 0 
L 59.03125 0 
L 49.5625 14.890625 
Q 45.40625 21.34375 42.71875 24.75 
Q 40.046875 28.171875 37.921875 29.53125 
Q 35.796875 30.90625 33.59375 31.453125 
Q 31.984375 31.78125 28.328125 31.78125 
L 17.328125 31.78125 
L 17.328125 0 
z
M 17.328125 39.984375 
L 37.703125 39.984375 
Q 44.1875 39.984375 47.84375 41.328125 
Q 51.515625 42.671875 53.421875 45.625 
Q 55.328125 48.578125 55.328125 52.046875 
Q 55.328125 57.125 51.640625 60.390625 
Q 47.953125 63.671875 39.984375 63.671875 
L 17.328125 63.671875 
z
" id="ArialMT-82"/>
      <path d="M 40.4375 6.390625 
Q 35.546875 2.25 31.03125 0.53125 
Q 26.515625 -1.171875 21.34375 -1.171875 
Q 12.796875 -1.171875 8.203125 3 
Q 3.609375 7.171875 3.609375 13.671875 
Q 3.609375 17.484375 5.34375 20.625 
Q 7.078125 23.78125 9.890625 25.6875 
Q 12.703125 27.59375 16.21875 28.5625 
Q 18.796875 29.25 24.03125 29.890625 
Q 34.671875 31.15625 39.703125 32.90625 
Q 39.75 34.71875 39.75 35.203125 
Q 39.75 40.578125 37.25 42.78125 
Q 33.890625 45.75 27.25 45.75 
Q 21.046875 45.75 18.09375 43.578125 
Q 15.140625 41.40625 13.71875 35.890625 
L 5.125 37.0625 
Q 6.296875 42.578125 8.984375 45.96875 
Q 11.671875 49.359375 16.75 51.1875 
Q 21.828125 53.03125 28.515625 53.03125 
Q 35.15625 53.03125 39.296875 51.46875 
Q 43.453125 49.90625 45.40625 47.53125 
Q 47.359375 45.171875 48.140625 41.546875 
Q 48.578125 39.3125 48.578125 33.453125 
L 48.578125 21.734375 
Q 48.578125 9.46875 49.140625 6.21875 
Q 49.703125 2.984375 51.375 0 
L 42.1875 0 
Q 40.828125 2.734375 40.4375 6.390625 
z
M 39.703125 26.03125 
Q 34.90625 24.078125 25.34375 22.703125 
Q 19.921875 21.921875 17.671875 20.9375 
Q 15.4375 19.96875 14.203125 18.09375 
Q 12.984375 16.21875 12.984375 13.921875 
Q 12.984375 10.40625 15.640625 8.0625 
Q 18.3125 5.71875 23.4375 5.71875 
Q 28.515625 5.71875 32.46875 7.9375 
Q 36.421875 10.15625 38.28125 14.015625 
Q 39.703125 17 39.703125 22.796875 
z
" id="ArialMT-97"/>
      <path d="M 42.09375 16.703125 
L 51.171875 15.578125 
Q 49.03125 7.625 43.21875 3.21875 
Q 37.40625 -1.171875 28.375 -1.171875 
Q 17 -1.171875 10.328125 5.828125 
Q 3.65625 12.84375 3.65625 25.484375 
Q 3.65625 38.578125 10.390625 45.796875 
Q 17.140625 53.03125 27.875 53.03125 
Q 38.28125 53.03125 44.875 45.953125 
Q 51.46875 38.875 51.46875 26.03125 
Q 51.46875 25.25 51.421875 23.6875 
L 12.75 23.6875 
Q 13.234375 15.140625 17.578125 10.59375 
Q 21.921875 6.0625 28.421875 6.0625 
Q 33.25 6.0625 36.671875 8.59375 
Q 40.09375 11.140625 42.09375 16.703125 
z
M 13.234375 30.90625 
L 42.1875 30.90625 
Q 41.609375 37.453125 38.875 40.71875 
Q 34.671875 45.796875 27.984375 45.796875 
Q 21.921875 45.796875 17.796875 41.75 
Q 13.671875 37.703125 13.234375 30.90625 
z
" id="ArialMT-101"/>
     </defs>
     <g style="fill:#262626;" transform="translate(187.722188 284.149219)scale(0.12 -0.12)">
      <use xlink:href="#ArialMT-71"/>
      <use x="77.783203" xlink:href="#ArialMT-114"/>
      <use x="111.083984" xlink:href="#ArialMT-111"/>
      <use x="166.699219" xlink:href="#ArialMT-119"/>
      <use x="238.916016" xlink:href="#ArialMT-116"/>
      <use x="266.699219" xlink:href="#ArialMT-104"/>
      <use x="322.314453" xlink:href="#ArialMT-32"/>
      <use x="350.097656" xlink:href="#ArialMT-82"/>
      <use x="422.314453" xlink:href="#ArialMT-97"/>
      <use x="477.929688" xlink:href="#ArialMT-116"/>
      <use x="505.712891" xlink:href="#ArialMT-101"/>
     </g>
    </g>
   </g>
   <g id="matplotlib.axis_2">
    <g id="ytick_1">
     <g id="line2d_9">
      <path clip-path="url(#p00766ddf8a)" d="M 54 252 
L 388.8 252 
" style="fill:none;stroke:#ffffff;stroke-linecap:round;"/>
     </g>
     <g id="text_10">
      <!-- 0 -->
      <g style="fill:#262626;" transform="translate(38.382969 255.936797)scale(0.11 -0.11)">
       <use xlink:href="#ArialMT-48"/>
      </g>
     </g>
    </g>
    <g id="ytick_2">
     <g id="line2d_10">
      <path clip-path="url(#p00766ddf8a)" d="M 54 219.564111 
L 388.8 219.564111 
" style="fill:none;stroke:#ffffff;stroke-linecap:round;"/>
     </g>
     <g id="text_11">
      <!-- 2 -->
      <g style="fill:#262626;" transform="translate(38.382969 223.500908)scale(0.11 -0.11)">
       <use xlink:href="#ArialMT-50"/>
      </g>
     </g>
    </g>
    <g id="ytick_3">
     <g id="line2d_11">
      <path clip-path="url(#p00766ddf8a)" d="M 54 187.128221 
L 388.8 187.128221 
" style="fill:none;stroke:#ffffff;stroke-linecap:round;"/>
     </g>
     <g id="text_12">
      <!-- 4 -->
      <defs>
       <path d="M 32.328125 0 
L 32.328125 17.140625 
L 1.265625 17.140625 
L 1.265625 25.203125 
L 33.9375 71.578125 
L 41.109375 71.578125 
L 41.109375 25.203125 
L 50.78125 25.203125 
L 50.78125 17.140625 
L 41.109375 17.140625 
L 41.109375 0 
z
M 32.328125 25.203125 
L 32.328125 57.46875 
L 9.90625 25.203125 
z
" id="ArialMT-52"/>
      </defs>
      <g style="fill:#262626;" transform="translate(38.382969 191.065018)scale(0.11 -0.11)">
       <use xlink:href="#ArialMT-52"/>
      </g>
     </g>
    </g>
    <g id="ytick_4">
     <g id="line2d_12">
      <path clip-path="url(#p00766ddf8a)" d="M 54 154.692332 
L 388.8 154.692332 
" style="fill:none;stroke:#ffffff;stroke-linecap:round;"/>
     </g>
     <g id="text_13">
      <!-- 6 -->
      <defs>
       <path d="M 49.75 54.046875 
L 41.015625 53.375 
Q 39.84375 58.546875 37.703125 60.890625 
Q 34.125 64.65625 28.90625 64.65625 
Q 24.703125 64.65625 21.53125 62.3125 
Q 17.390625 59.28125 14.984375 53.46875 
Q 12.59375 47.65625 12.5 36.921875 
Q 15.671875 41.75 20.265625 44.09375 
Q 24.859375 46.4375 29.890625 46.4375 
Q 38.671875 46.4375 44.84375 39.96875 
Q 51.03125 33.5 51.03125 23.25 
Q 51.03125 16.5 48.125 10.71875 
Q 45.21875 4.9375 40.140625 1.859375 
Q 35.0625 -1.21875 28.609375 -1.21875 
Q 17.625 -1.21875 10.6875 6.859375 
Q 3.765625 14.9375 3.765625 33.5 
Q 3.765625 54.25 11.421875 63.671875 
Q 18.109375 71.875 29.4375 71.875 
Q 37.890625 71.875 43.28125 67.140625 
Q 48.6875 62.40625 49.75 54.046875 
z
M 13.875 23.1875 
Q 13.875 18.65625 15.796875 14.5 
Q 17.71875 10.359375 21.1875 8.171875 
Q 24.65625 6 28.46875 6 
Q 34.03125 6 38.03125 10.484375 
Q 42.046875 14.984375 42.046875 22.703125 
Q 42.046875 30.125 38.078125 34.390625 
Q 34.125 38.671875 28.125 38.671875 
Q 22.171875 38.671875 18.015625 34.390625 
Q 13.875 30.125 13.875 23.1875 
z
" id="ArialMT-54"/>
      </defs>
      <g style="fill:#262626;" transform="translate(38.382969 158.629129)scale(0.11 -0.11)">
       <use xlink:href="#ArialMT-54"/>
      </g>
     </g>
    </g>
    <g id="ytick_5">
     <g id="line2d_13">
      <path clip-path="url(#p00766ddf8a)" d="M 54 122.256443 
L 388.8 122.256443 
" style="fill:none;stroke:#ffffff;stroke-linecap:round;"/>
     </g>
     <g id="text_14">
      <!-- 8 -->
      <defs>
       <path d="M 17.671875 38.8125 
Q 12.203125 40.828125 9.5625 44.53125 
Q 6.9375 48.25 6.9375 53.421875 
Q 6.9375 61.234375 12.546875 66.546875 
Q 18.171875 71.875 27.484375 71.875 
Q 36.859375 71.875 42.578125 66.421875 
Q 48.296875 60.984375 48.296875 53.171875 
Q 48.296875 48.1875 45.671875 44.5 
Q 43.0625 40.828125 37.75 38.8125 
Q 44.34375 36.671875 47.78125 31.875 
Q 51.21875 27.09375 51.21875 20.453125 
Q 51.21875 11.28125 44.71875 5.03125 
Q 38.234375 -1.21875 27.640625 -1.21875 
Q 17.046875 -1.21875 10.546875 5.046875 
Q 4.046875 11.328125 4.046875 20.703125 
Q 4.046875 27.6875 7.59375 32.390625 
Q 11.140625 37.109375 17.671875 38.8125 
z
M 15.921875 53.71875 
Q 15.921875 48.640625 19.1875 45.40625 
Q 22.46875 42.1875 27.6875 42.1875 
Q 32.765625 42.1875 36.015625 45.375 
Q 39.265625 48.578125 39.265625 53.21875 
Q 39.265625 58.0625 35.90625 61.359375 
Q 32.5625 64.65625 27.59375 64.65625 
Q 22.5625 64.65625 19.234375 61.421875 
Q 15.921875 58.203125 15.921875 53.71875 
z
M 13.09375 20.65625 
Q 13.09375 16.890625 14.875 13.375 
Q 16.65625 9.859375 20.171875 7.921875 
Q 23.6875 6 27.734375 6 
Q 34.03125 6 38.125 10.046875 
Q 42.234375 14.109375 42.234375 20.359375 
Q 42.234375 26.703125 38.015625 30.859375 
Q 33.796875 35.015625 27.4375 35.015625 
Q 21.234375 35.015625 17.15625 30.90625 
Q 13.09375 26.8125 13.09375 20.65625 
z
" id="ArialMT-56"/>
      </defs>
      <g style="fill:#262626;" transform="translate(38.382969 126.193239)scale(0.11 -0.11)">
       <use xlink:href="#ArialMT-56"/>
      </g>
     </g>
    </g>
    <g id="ytick_6">
     <g id="line2d_14">
      <path clip-path="url(#p00766ddf8a)" d="M 54 89.820553 
L 388.8 89.820553 
" style="fill:none;stroke:#ffffff;stroke-linecap:round;"/>
     </g>
     <g id="text_15">
      <!-- 10 -->
      <g style="fill:#262626;" transform="translate(32.265937 93.75735)scale(0.11 -0.11)">
       <use xlink:href="#ArialMT-49"/>
       <use x="55.615234" xlink:href="#ArialMT-48"/>
      </g>
     </g>
    </g>
    <g id="ytick_7">
     <g id="line2d_15">
      <path clip-path="url(#p00766ddf8a)" d="M 54 57.384664 
L 388.8 57.384664 
" style="fill:none;stroke:#ffffff;stroke-linecap:round;"/>
     </g>
     <g id="text_16">
      <!-- 12 -->
      <g style="fill:#262626;" transform="translate(32.265937 61.321461)scale(0.11 -0.11)">
       <use xlink:href="#ArialMT-49"/>
       <use x="55.615234" xlink:href="#ArialMT-50"/>
      </g>
     </g>
    </g>
    <g id="text_17">
     <!-- Density -->
     <defs>
      <path d="M 7.71875 0 
L 7.71875 71.578125 
L 32.375 71.578125 
Q 40.71875 71.578125 45.125 70.5625 
Q 51.265625 69.140625 55.609375 65.4375 
Q 61.28125 60.640625 64.078125 53.1875 
Q 66.890625 45.75 66.890625 36.1875 
Q 66.890625 28.03125 64.984375 21.734375 
Q 63.09375 15.4375 60.109375 11.296875 
Q 57.125 7.171875 53.578125 4.796875 
Q 50.046875 2.4375 45.046875 1.21875 
Q 40.046875 0 33.546875 0 
z
M 17.1875 8.453125 
L 32.46875 8.453125 
Q 39.546875 8.453125 43.578125 9.765625 
Q 47.609375 11.078125 50 13.484375 
Q 53.375 16.84375 55.25 22.53125 
Q 57.125 28.21875 57.125 36.328125 
Q 57.125 47.5625 53.4375 53.59375 
Q 49.75 59.625 44.484375 61.671875 
Q 40.671875 63.140625 32.234375 63.140625 
L 17.1875 63.140625 
z
" id="ArialMT-68"/>
      <path d="M 6.59375 0 
L 6.59375 51.859375 
L 14.5 51.859375 
L 14.5 44.484375 
Q 20.21875 53.03125 31 53.03125 
Q 35.6875 53.03125 39.625 51.34375 
Q 43.5625 49.65625 45.515625 46.921875 
Q 47.46875 44.1875 48.25 40.4375 
Q 48.734375 37.984375 48.734375 31.890625 
L 48.734375 0 
L 39.9375 0 
L 39.9375 31.546875 
Q 39.9375 36.921875 38.90625 39.578125 
Q 37.890625 42.234375 35.28125 43.8125 
Q 32.671875 45.40625 29.15625 45.40625 
Q 23.53125 45.40625 19.453125 41.84375 
Q 15.375 38.28125 15.375 28.328125 
L 15.375 0 
z
" id="ArialMT-110"/>
      <path d="M 3.078125 15.484375 
L 11.765625 16.84375 
Q 12.5 11.625 15.84375 8.84375 
Q 19.1875 6.0625 25.203125 6.0625 
Q 31.25 6.0625 34.171875 8.515625 
Q 37.109375 10.984375 37.109375 14.3125 
Q 37.109375 17.28125 34.515625 19 
Q 32.71875 20.171875 25.53125 21.96875 
Q 15.875 24.421875 12.140625 26.203125 
Q 8.40625 27.984375 6.46875 31.125 
Q 4.546875 34.28125 4.546875 38.09375 
Q 4.546875 41.546875 6.125 44.5 
Q 7.71875 47.46875 10.453125 49.421875 
Q 12.5 50.921875 16.03125 51.96875 
Q 19.578125 53.03125 23.640625 53.03125 
Q 29.734375 53.03125 34.34375 51.265625 
Q 38.96875 49.515625 41.15625 46.5 
Q 43.359375 43.5 44.1875 38.484375 
L 35.59375 37.3125 
Q 35.015625 41.3125 32.203125 43.546875 
Q 29.390625 45.796875 24.265625 45.796875 
Q 18.21875 45.796875 15.625 43.796875 
Q 13.03125 41.796875 13.03125 39.109375 
Q 13.03125 37.40625 14.109375 36.03125 
Q 15.1875 34.625 17.484375 33.6875 
Q 18.796875 33.203125 25.25 31.453125 
Q 34.578125 28.953125 38.25 27.359375 
Q 41.9375 25.78125 44.03125 22.75 
Q 46.140625 19.734375 46.140625 15.234375 
Q 46.140625 10.84375 43.578125 6.953125 
Q 41.015625 3.078125 36.171875 0.953125 
Q 31.34375 -1.171875 25.25 -1.171875 
Q 15.140625 -1.171875 9.84375 3.03125 
Q 4.546875 7.234375 3.078125 15.484375 
z
" id="ArialMT-115"/>
      <path d="M 6.640625 61.46875 
L 6.640625 71.578125 
L 15.4375 71.578125 
L 15.4375 61.46875 
z
M 6.640625 0 
L 6.640625 51.859375 
L 15.4375 51.859375 
L 15.4375 0 
z
" id="ArialMT-105"/>
      <path d="M 6.203125 -19.96875 
L 5.21875 -11.71875 
Q 8.109375 -12.5 10.25 -12.5 
Q 13.1875 -12.5 14.9375 -11.515625 
Q 16.703125 -10.546875 17.828125 -8.796875 
Q 18.65625 -7.46875 20.515625 -2.25 
Q 20.75 -1.515625 21.296875 -0.09375 
L 1.609375 51.859375 
L 11.078125 51.859375 
L 21.875 21.828125 
Q 23.96875 16.109375 25.640625 9.8125 
Q 27.15625 15.875 29.25 21.625 
L 40.328125 51.859375 
L 49.125 51.859375 
L 29.390625 -0.875 
Q 26.21875 -9.421875 24.46875 -12.640625 
Q 22.125 -17 19.09375 -19.015625 
Q 16.0625 -21.046875 11.859375 -21.046875 
Q 9.328125 -21.046875 6.203125 -19.96875 
z
" id="ArialMT-121"/>
     </defs>
     <g style="fill:#262626;" transform="translate(25.740312 163.28625)rotate(-90)scale(0.12 -0.12)">
      <use xlink:href="#ArialMT-68"/>
      <use x="72.216797" xlink:href="#ArialMT-101"/>
      <use x="127.832031" xlink:href="#ArialMT-110"/>
      <use x="183.447266" xlink:href="#ArialMT-115"/>
      <use x="233.447266" xlink:href="#ArialMT-105"/>
      <use x="255.664062" xlink:href="#ArialMT-116"/>
      <use x="283.447266" xlink:href="#ArialMT-121"/>
     </g>
    </g>
   </g>
   <g id="LineCollection_1">
    <path clip-path="url(#p00766ddf8a)" d="M 215.976753 252 
L 215.976753 241.128 
" style="fill:none;stroke:#4c72b0;"/>
    <path clip-path="url(#p00766ddf8a)" d="M 155.561581 252 
L 155.561581 241.128 
" style="fill:none;stroke:#4c72b0;"/>
    <path clip-path="url(#p00766ddf8a)" d="M 301.370439 252 
L 301.370439 241.128 
" style="fill:none;stroke:#4c72b0;"/>
    <path clip-path="url(#p00766ddf8a)" d="M 312.927524 252 
L 312.927524 241.128 
" style="fill:none;stroke:#4c72b0;"/>
    <path clip-path="url(#p00766ddf8a)" d="M 240.04991 252 
L 240.04991 241.128 
" style="fill:none;stroke:#4c72b0;"/>
    <path clip-path="url(#p00766ddf8a)" d="M 234.295751 252 
L 234.295751 241.128 
" style="fill:none;stroke:#4c72b0;"/>
    <path clip-path="url(#p00766ddf8a)" d="M 247.466529 252 
L 247.466529 241.128 
" style="fill:none;stroke:#4c72b0;"/>
    <path clip-path="url(#p00766ddf8a)" d="M 279.316014 252 
L 279.316014 241.128 
" style="fill:none;stroke:#4c72b0;"/>
    <path clip-path="url(#p00766ddf8a)" d="M 171.556866 252 
L 171.556866 241.128 
" style="fill:none;stroke:#4c72b0;"/>
    <path clip-path="url(#p00766ddf8a)" d="M 234.356477 252 
L 234.356477 241.128 
" style="fill:none;stroke:#4c72b0;"/>
    <path clip-path="url(#p00766ddf8a)" d="M 196.562743 252 
L 196.562743 241.128 
" style="fill:none;stroke:#4c72b0;"/>
    <path clip-path="url(#p00766ddf8a)" d="M 215.103011 252 
L 215.103011 241.128 
" style="fill:none;stroke:#4c72b0;"/>
    <path clip-path="url(#p00766ddf8a)" d="M 279.688626 252 
L 279.688626 241.128 
" style="fill:none;stroke:#4c72b0;"/>
    <path clip-path="url(#p00766ddf8a)" d="M 212.273333 252 
L 212.273333 241.128 
" style="fill:none;stroke:#4c72b0;"/>
    <path clip-path="url(#p00766ddf8a)" d="M 306.269464 252 
L 306.269464 241.128 
" style="fill:none;stroke:#4c72b0;"/>
    <path clip-path="url(#p00766ddf8a)" d="M 281.223503 252 
L 281.223503 241.128 
" style="fill:none;stroke:#4c72b0;"/>
    <path clip-path="url(#p00766ddf8a)" d="M 307.724953 252 
L 307.724953 241.128 
" style="fill:none;stroke:#4c72b0;"/>
    <path clip-path="url(#p00766ddf8a)" d="M 263.874406 252 
L 263.874406 241.128 
" style="fill:none;stroke:#4c72b0;"/>
    <path clip-path="url(#p00766ddf8a)" d="M 175.172117 252 
L 175.172117 241.128 
" style="fill:none;stroke:#4c72b0;"/>
    <path clip-path="url(#p00766ddf8a)" d="M 289.381329 252 
L 289.381329 241.128 
" style="fill:none;stroke:#4c72b0;"/>
    <path clip-path="url(#p00766ddf8a)" d="M 253.773296 252 
L 253.773296 241.128 
" style="fill:none;stroke:#4c72b0;"/>
    <path clip-path="url(#p00766ddf8a)" d="M 289.155301 252 
L 289.155301 241.128 
" style="fill:none;stroke:#4c72b0;"/>
    <path clip-path="url(#p00766ddf8a)" d="M 238.795873 252 
L 238.795873 241.128 
" style="fill:none;stroke:#4c72b0;"/>
    <path clip-path="url(#p00766ddf8a)" d="M 176.877475 252 
L 176.877475 241.128 
" style="fill:none;stroke:#4c72b0;"/>
    <path clip-path="url(#p00766ddf8a)" d="M 202.922427 252 
L 202.922427 241.128 
" style="fill:none;stroke:#4c72b0;"/>
    <path clip-path="url(#p00766ddf8a)" d="M 205.677127 252 
L 205.677127 241.128 
" style="fill:none;stroke:#4c72b0;"/>
    <path clip-path="url(#p00766ddf8a)" d="M 172.351749 252 
L 172.351749 241.128 
" style="fill:none;stroke:#4c72b0;"/>
    <path clip-path="url(#p00766ddf8a)" d="M 155.594565 252 
L 155.594565 241.128 
" style="fill:none;stroke:#4c72b0;"/>
    <path clip-path="url(#p00766ddf8a)" d="M 308.504212 252 
L 308.504212 241.128 
" style="fill:none;stroke:#4c72b0;"/>
    <path clip-path="url(#p00766ddf8a)" d="M 199.184671 252 
L 199.184671 241.128 
" style="fill:none;stroke:#4c72b0;"/>
    <path clip-path="url(#p00766ddf8a)" d="M 193.28879 252 
L 193.28879 241.128 
" style="fill:none;stroke:#4c72b0;"/>
    <path clip-path="url(#p00766ddf8a)" d="M 195.809171 252 
L 195.809171 241.128 
" style="fill:none;stroke:#4c72b0;"/>
    <path clip-path="url(#p00766ddf8a)" d="M 239.334543 252 
L 239.334543 241.128 
" style="fill:none;stroke:#4c72b0;"/>
    <path clip-path="url(#p00766ddf8a)" d="M 222.36778 252 
L 222.36778 241.128 
" style="fill:none;stroke:#4c72b0;"/>
    <path clip-path="url(#p00766ddf8a)" d="M 229.949658 252 
L 229.949658 241.128 
" style="fill:none;stroke:#4c72b0;"/>
    <path clip-path="url(#p00766ddf8a)" d="M 306.64926 252 
L 306.64926 241.128 
" style="fill:none;stroke:#4c72b0;"/>
    <path clip-path="url(#p00766ddf8a)" d="M 243.997793 252 
L 243.997793 241.128 
" style="fill:none;stroke:#4c72b0;"/>
    <path clip-path="url(#p00766ddf8a)" d="M 301.48332 252 
L 301.48332 241.128 
" style="fill:none;stroke:#4c72b0;"/>
    <path clip-path="url(#p00766ddf8a)" d="M 253.015559 252 
L 253.015559 241.128 
" style="fill:none;stroke:#4c72b0;"/>
    <path clip-path="url(#p00766ddf8a)" d="M 267.363789 252 
L 267.363789 241.128 
" style="fill:none;stroke:#4c72b0;"/>
    <path clip-path="url(#p00766ddf8a)" d="M 279.123445 252 
L 279.123445 241.128 
" style="fill:none;stroke:#4c72b0;"/>
    <path clip-path="url(#p00766ddf8a)" d="M 264.412972 252 
L 264.412972 241.128 
" style="fill:none;stroke:#4c72b0;"/>
    <path clip-path="url(#p00766ddf8a)" d="M 144.091425 252 
L 144.091425 241.128 
" style="fill:none;stroke:#4c72b0;"/>
    <path clip-path="url(#p00766ddf8a)" d="M 128.842528 252 
L 128.842528 241.128 
" style="fill:none;stroke:#4c72b0;"/>
    <path clip-path="url(#p00766ddf8a)" d="M 262.043324 252 
L 262.043324 241.128 
" style="fill:none;stroke:#4c72b0;"/>
    <path clip-path="url(#p00766ddf8a)" d="M 270.096372 252 
L 270.096372 241.128 
" style="fill:none;stroke:#4c72b0;"/>
    <path clip-path="url(#p00766ddf8a)" d="M 261.590751 252 
L 261.590751 241.128 
" style="fill:none;stroke:#4c72b0;"/>
    <path clip-path="url(#p00766ddf8a)" d="M 279.767842 252 
L 279.767842 241.128 
" style="fill:none;stroke:#4c72b0;"/>
    <path clip-path="url(#p00766ddf8a)" d="M 233.896436 252 
L 233.896436 241.128 
" style="fill:none;stroke:#4c72b0;"/>
    <path clip-path="url(#p00766ddf8a)" d="M 303.442078 252 
L 303.442078 241.128 
" style="fill:none;stroke:#4c72b0;"/>
    <path clip-path="url(#p00766ddf8a)" d="M 198.980301 252 
L 198.980301 241.128 
" style="fill:none;stroke:#4c72b0;"/>
    <path clip-path="url(#p00766ddf8a)" d="M 202.811293 252 
L 202.811293 241.128 
" style="fill:none;stroke:#4c72b0;"/>
    <path clip-path="url(#p00766ddf8a)" d="M 205.90687 252 
L 205.90687 241.128 
" style="fill:none;stroke:#4c72b0;"/>
    <path clip-path="url(#p00766ddf8a)" d="M 236.11872 252 
L 236.11872 241.128 
" style="fill:none;stroke:#4c72b0;"/>
    <path clip-path="url(#p00766ddf8a)" d="M 268.317548 252 
L 268.317548 241.128 
" style="fill:none;stroke:#4c72b0;"/>
    <path clip-path="url(#p00766ddf8a)" d="M 228.385636 252 
L 228.385636 241.128 
" style="fill:none;stroke:#4c72b0;"/>
    <path clip-path="url(#p00766ddf8a)" d="M 298.307627 252 
L 298.307627 241.128 
" style="fill:none;stroke:#4c72b0;"/>
    <path clip-path="url(#p00766ddf8a)" d="M 303.261051 252 
L 303.261051 241.128 
" style="fill:none;stroke:#4c72b0;"/>
    <path clip-path="url(#p00766ddf8a)" d="M 301.376048 252 
L 301.376048 241.128 
" style="fill:none;stroke:#4c72b0;"/>
    <path clip-path="url(#p00766ddf8a)" d="M 212.37326 252 
L 212.37326 241.128 
" style="fill:none;stroke:#4c72b0;"/>
    <path clip-path="url(#p00766ddf8a)" d="M 257.509448 252 
L 257.509448 241.128 
" style="fill:none;stroke:#4c72b0;"/>
    <path clip-path="url(#p00766ddf8a)" d="M 308.465805 252 
L 308.465805 241.128 
" style="fill:none;stroke:#4c72b0;"/>
    <path clip-path="url(#p00766ddf8a)" d="M 193.631786 252 
L 193.631786 241.128 
" style="fill:none;stroke:#4c72b0;"/>
    <path clip-path="url(#p00766ddf8a)" d="M 205.2079 252 
L 205.2079 241.128 
" style="fill:none;stroke:#4c72b0;"/>
    <path clip-path="url(#p00766ddf8a)" d="M 265.261431 252 
L 265.261431 241.128 
" style="fill:none;stroke:#4c72b0;"/>
    <path clip-path="url(#p00766ddf8a)" d="M 197.030415 252 
L 197.030415 241.128 
" style="fill:none;stroke:#4c72b0;"/>
    <path clip-path="url(#p00766ddf8a)" d="M 242.967162 252 
L 242.967162 241.128 
" style="fill:none;stroke:#4c72b0;"/>
    <path clip-path="url(#p00766ddf8a)" d="M 292.005951 252 
L 292.005951 241.128 
" style="fill:none;stroke:#4c72b0;"/>
    <path clip-path="url(#p00766ddf8a)" d="M 238.117224 252 
L 238.117224 241.128 
" style="fill:none;stroke:#4c72b0;"/>
    <path clip-path="url(#p00766ddf8a)" d="M 234.036753 252 
L 234.036753 241.128 
" style="fill:none;stroke:#4c72b0;"/>
    <path clip-path="url(#p00766ddf8a)" d="M 251.987511 252 
L 251.987511 241.128 
" style="fill:none;stroke:#4c72b0;"/>
    <path clip-path="url(#p00766ddf8a)" d="M 205.858203 252 
L 205.858203 241.128 
" style="fill:none;stroke:#4c72b0;"/>
    <path clip-path="url(#p00766ddf8a)" d="M 262.717157 252 
L 262.717157 241.128 
" style="fill:none;stroke:#4c72b0;"/>
    <path clip-path="url(#p00766ddf8a)" d="M 185.217409 252 
L 185.217409 241.128 
" style="fill:none;stroke:#4c72b0;"/>
    <path clip-path="url(#p00766ddf8a)" d="M 306.817504 252 
L 306.817504 241.128 
" style="fill:none;stroke:#4c72b0;"/>
    <path clip-path="url(#p00766ddf8a)" d="M 217.688481 252 
L 217.688481 241.128 
" style="fill:none;stroke:#4c72b0;"/>
    <path clip-path="url(#p00766ddf8a)" d="M 296.710381 252 
L 296.710381 241.128 
" style="fill:none;stroke:#4c72b0;"/>
    <path clip-path="url(#p00766ddf8a)" d="M 307.871935 252 
L 307.871935 241.128 
" style="fill:none;stroke:#4c72b0;"/>
    <path clip-path="url(#p00766ddf8a)" d="M 255.488318 252 
L 255.488318 241.128 
" style="fill:none;stroke:#4c72b0;"/>
    <path clip-path="url(#p00766ddf8a)" d="M 232.736223 252 
L 232.736223 241.128 
" style="fill:none;stroke:#4c72b0;"/>
    <path clip-path="url(#p00766ddf8a)" d="M 236.201482 252 
L 236.201482 241.128 
" style="fill:none;stroke:#4c72b0;"/>
    <path clip-path="url(#p00766ddf8a)" d="M 257.495581 252 
L 257.495581 241.128 
" style="fill:none;stroke:#4c72b0;"/>
    <path clip-path="url(#p00766ddf8a)" d="M 232.245869 252 
L 232.245869 241.128 
" style="fill:none;stroke:#4c72b0;"/>
    <path clip-path="url(#p00766ddf8a)" d="M 297.3328 252 
L 297.3328 241.128 
" style="fill:none;stroke:#4c72b0;"/>
    <path clip-path="url(#p00766ddf8a)" d="M 312.649197 252 
L 312.649197 241.128 
" style="fill:none;stroke:#4c72b0;"/>
    <path clip-path="url(#p00766ddf8a)" d="M 296.534524 252 
L 296.534524 241.128 
" style="fill:none;stroke:#4c72b0;"/>
    <path clip-path="url(#p00766ddf8a)" d="M 129.140685 252 
L 129.140685 241.128 
" style="fill:none;stroke:#4c72b0;"/>
    <path clip-path="url(#p00766ddf8a)" d="M 280.646826 252 
L 280.646826 241.128 
" style="fill:none;stroke:#4c72b0;"/>
    <path clip-path="url(#p00766ddf8a)" d="M 177.516548 252 
L 177.516548 241.128 
" style="fill:none;stroke:#4c72b0;"/>
    <path clip-path="url(#p00766ddf8a)" d="M 215.933816 252 
L 215.933816 241.128 
" style="fill:none;stroke:#4c72b0;"/>
    <path clip-path="url(#p00766ddf8a)" d="M 190.840912 252 
L 190.840912 241.128 
" style="fill:none;stroke:#4c72b0;"/>
    <path clip-path="url(#p00766ddf8a)" d="M 313.957472 252 
L 313.957472 241.128 
" style="fill:none;stroke:#4c72b0;"/>
    <path clip-path="url(#p00766ddf8a)" d="M 244.794435 252 
L 244.794435 241.128 
" style="fill:none;stroke:#4c72b0;"/>
    <path clip-path="url(#p00766ddf8a)" d="M 262.222326 252 
L 262.222326 241.128 
" style="fill:none;stroke:#4c72b0;"/>
    <path clip-path="url(#p00766ddf8a)" d="M 163.860353 252 
L 163.860353 241.128 
" style="fill:none;stroke:#4c72b0;"/>
    <path clip-path="url(#p00766ddf8a)" d="M 247.075059 252 
L 247.075059 241.128 
" style="fill:none;stroke:#4c72b0;"/>
    <path clip-path="url(#p00766ddf8a)" d="M 176.58931 252 
L 176.58931 241.128 
" style="fill:none;stroke:#4c72b0;"/>
    <path clip-path="url(#p00766ddf8a)" d="M 304.850134 252 
L 304.850134 241.128 
" style="fill:none;stroke:#4c72b0;"/>
    <path clip-path="url(#p00766ddf8a)" d="M 272.715751 252 
L 272.715751 241.128 
" style="fill:none;stroke:#4c72b0;"/>
    <path clip-path="url(#p00766ddf8a)" d="M 235.484823 252 
L 235.484823 241.128 
" style="fill:none;stroke:#4c72b0;"/>
   </g>
   <g id="line2d_16">
    <path clip-path="url(#p00766ddf8a)" d="M 69.218182 251.553014 
L 74.01131 251.581824 
L 78.804438 251.403035 
L 83.597566 251.002335 
L 88.390694 250.324713 
L 93.183822 249.293156 
L 95.580387 248.61943 
L 97.976951 247.828492 
L 100.373515 246.913452 
L 102.770079 245.869668 
L 105.166643 244.695094 
L 107.563207 243.390413 
L 112.356335 240.406242 
L 117.149463 236.966874 
L 121.942591 233.133773 
L 126.735719 228.94899 
L 131.528848 224.406661 
L 136.321976 219.439071 
L 141.115104 213.924225 
L 143.511668 210.915096 
L 145.908232 207.713276 
L 148.304796 204.302198 
L 150.70136 200.668292 
L 153.097924 196.801858 
L 155.494488 192.697683 
L 157.891052 188.355433 
L 162.68418 178.980632 
L 167.477309 168.775502 
L 172.270437 157.915869 
L 189.046385 118.812782 
L 193.839513 108.663085 
L 198.632641 99.409381 
L 203.42577 91.068558 
L 208.218898 83.496839 
L 213.012026 76.459245 
L 220.201718 66.486133 
L 224.994846 60.213471 
L 227.39141 57.267796 
L 229.787974 54.511962 
L 232.184538 52.00202 
L 234.581102 49.795927 
L 236.977666 47.948769 
L 239.37423 46.508194 
L 241.770795 45.510453 
L 244.167359 44.977354 
L 246.563923 44.914286 
L 248.960487 45.309408 
L 251.357051 46.13394 
L 253.753615 47.343469 
L 256.150179 48.880128 
L 258.546743 50.675525 
L 263.339871 54.738131 
L 268.132999 58.920667 
L 272.926127 62.715951 
L 275.322691 64.376233 
L 277.719256 65.873448 
L 282.512384 68.524864 
L 287.305512 71.234661 
L 289.702076 72.892236 
L 292.09864 74.932108 
L 294.495204 77.494598 
L 296.891768 80.712191 
L 299.288332 84.699339 
L 301.684896 89.542959 
L 304.08146 95.294475 
L 306.478024 101.964168 
L 308.874588 109.518414 
L 311.271152 117.880091 
L 313.667717 126.932158 
L 318.460845 146.480595 
L 325.650537 176.630768 
L 328.047101 186.161025 
L 330.443665 195.168077 
L 332.840229 203.53432 
L 335.236793 211.174401 
L 337.633357 218.035868 
L 340.029921 224.097696 
L 342.426485 229.367078 
L 344.823049 233.874976 
L 347.219613 237.670953 
L 349.616178 240.817773 
L 352.012742 243.386198 
L 354.409306 245.45031 
L 356.80587 247.083583 
L 359.202434 248.355798 
L 361.598998 249.330843 
L 363.995562 250.065311 
L 366.392126 250.607801 
L 368.78869 250.998787 
L 373.581818 251.449395 
L 373.581818 251.449395 
" style="fill:none;stroke:#4c72b0;stroke-linecap:round;stroke-width:1.5;"/>
   </g>
   <g id="patch_3">
    <path d="M 54 252 
L 54 34.56 
" style="fill:none;stroke:#ffffff;stroke-linecap:square;stroke-linejoin:miter;stroke-width:1.25;"/>
   </g>
   <g id="patch_4">
    <path d="M 388.8 252 
L 388.8 34.56 
" style="fill:none;stroke:#ffffff;stroke-linecap:square;stroke-linejoin:miter;stroke-width:1.25;"/>
   </g>
   <g id="patch_5">
    <path d="M 54 252 
L 388.8 252 
" style="fill:none;stroke:#ffffff;stroke-linecap:square;stroke-linejoin:miter;stroke-width:1.25;"/>
   </g>
   <g id="patch_6">
    <path d="M 54 34.56 
L 388.8 34.56 
" style="fill:none;stroke:#ffffff;stroke-linecap:square;stroke-linejoin:miter;stroke-width:1.25;"/>
   </g>
   <g id="text_18">
    <!-- Growth rate - scenario B -->
    <defs>
     <path d="M 3.171875 21.484375 
L 3.171875 30.328125 
L 30.171875 30.328125 
L 30.171875 21.484375 
z
" id="ArialMT-45"/>
     <path d="M 40.4375 19 
L 49.078125 17.875 
Q 47.65625 8.9375 41.8125 3.875 
Q 35.984375 -1.171875 27.484375 -1.171875 
Q 16.84375 -1.171875 10.375 5.78125 
Q 3.90625 12.75 3.90625 25.734375 
Q 3.90625 34.125 6.6875 40.421875 
Q 9.46875 46.734375 15.15625 49.875 
Q 20.84375 53.03125 27.546875 53.03125 
Q 35.984375 53.03125 41.359375 48.75 
Q 46.734375 44.484375 48.25 36.625 
L 39.703125 35.296875 
Q 38.484375 40.53125 35.375 43.15625 
Q 32.28125 45.796875 27.875 45.796875 
Q 21.234375 45.796875 17.078125 41.03125 
Q 12.9375 36.28125 12.9375 25.984375 
Q 12.9375 15.53125 16.9375 10.796875 
Q 20.953125 6.0625 27.390625 6.0625 
Q 32.5625 6.0625 36.03125 9.234375 
Q 39.5 12.40625 40.4375 19 
z
" id="ArialMT-99"/>
     <path d="M 7.328125 0 
L 7.328125 71.578125 
L 34.1875 71.578125 
Q 42.390625 71.578125 47.34375 69.40625 
Q 52.296875 67.234375 55.09375 62.71875 
Q 57.90625 58.203125 57.90625 53.265625 
Q 57.90625 48.6875 55.421875 44.625 
Q 52.9375 40.578125 47.90625 38.09375 
Q 54.390625 36.1875 57.875 31.59375 
Q 61.375 27 61.375 20.75 
Q 61.375 15.71875 59.25 11.390625 
Q 57.125 7.078125 54 4.734375 
Q 50.875 2.390625 46.15625 1.1875 
Q 41.453125 0 34.625 0 
z
M 16.796875 41.5 
L 32.28125 41.5 
Q 38.578125 41.5 41.3125 42.328125 
Q 44.921875 43.40625 46.75 45.890625 
Q 48.578125 48.390625 48.578125 52.15625 
Q 48.578125 55.71875 46.875 58.421875 
Q 45.171875 61.140625 41.984375 62.140625 
Q 38.8125 63.140625 31.109375 63.140625 
L 16.796875 63.140625 
z
M 16.796875 8.453125 
L 34.625 8.453125 
Q 39.203125 8.453125 41.0625 8.796875 
Q 44.34375 9.375 46.53125 10.734375 
Q 48.734375 12.109375 50.140625 14.71875 
Q 51.5625 17.328125 51.5625 20.75 
Q 51.5625 24.75 49.515625 27.703125 
Q 47.46875 30.671875 43.828125 31.859375 
Q 40.1875 33.0625 33.34375 33.0625 
L 16.796875 33.0625 
z
" id="ArialMT-66"/>
    </defs>
    <g style="fill:#262626;" transform="translate(156.379687 28.56)scale(0.12 -0.12)">
     <use xlink:href="#ArialMT-71"/>
     <use x="77.783203" xlink:href="#ArialMT-114"/>
     <use x="111.083984" xlink:href="#ArialMT-111"/>
     <use x="166.699219" xlink:href="#ArialMT-119"/>
     <use x="238.916016" xlink:href="#ArialMT-116"/>
     <use x="266.699219" xlink:href="#ArialMT-104"/>
     <use x="322.314453" xlink:href="#ArialMT-32"/>
     <use x="350.097656" xlink:href="#ArialMT-114"/>
     <use x="383.398438" xlink:href="#ArialMT-97"/>
     <use x="439.013672" xlink:href="#ArialMT-116"/>
     <use x="466.796875" xlink:href="#ArialMT-101"/>
     <use x="522.412109" xlink:href="#ArialMT-32"/>
     <use x="550.195312" xlink:href="#ArialMT-45"/>
     <use x="583.496094" xlink:href="#ArialMT-32"/>
     <use x="611.279297" xlink:href="#ArialMT-115"/>
     <use x="661.279297" xlink:href="#ArialMT-99"/>
     <use x="711.279297" xlink:href="#ArialMT-101"/>
     <use x="766.894531" xlink:href="#ArialMT-110"/>
     <use x="822.509766" xlink:href="#ArialMT-97"/>
     <use x="878.125" xlink:href="#ArialMT-114"/>
     <use x="911.425781" xlink:href="#ArialMT-105"/>
     <use x="933.642578" xlink:href="#ArialMT-111"/>
     <use x="989.257812" xlink:href="#ArialMT-32"/>
     <use x="1017.041016" xlink:href="#ArialMT-66"/>
    </g>
   </g>
  </g>
 </g>
 <defs>
  <clipPath id="p00766ddf8a">
   <rect height="217.44" width="334.8" x="54" y="34.56"/>
  </clipPath>
 </defs>
</svg>
