<?xml version="1.0" encoding="utf-8" standalone="no"?>
<!DOCTYPE svg PUBLIC "-//W3C//DTD SVG 1.1//EN"
  "http://www.w3.org/Graphics/SVG/1.1/DTD/svg11.dtd">
<!-- Created with matplotlib (https://matplotlib.org/) -->
<svg height="696.062656pt" version="1.1" viewBox="0 0 892.575 696.062656" width="892.575pt" xmlns="http://www.w3.org/2000/svg" xmlns:xlink="http://www.w3.org/1999/xlink">
 <metadata>
  <rdf:RDF xmlns:cc="http://creativecommons.org/ns#" xmlns:dc="http://purl.org/dc/elements/1.1/" xmlns:rdf="http://www.w3.org/1999/02/22-rdf-syntax-ns#">
   <cc:Work>
    <dc:type rdf:resource="http://purl.org/dc/dcmitype/StillImage"/>
    <dc:date>2021-01-18T11:23:31.364896</dc:date>
    <dc:format>image/svg+xml</dc:format>
    <dc:creator>
     <cc:Agent>
      <dc:title>Matplotlib v3.3.2, https://matplotlib.org/</dc:title>
     </cc:Agent>
    </dc:creator>
   </cc:Work>
  </rdf:RDF>
 </metadata>
 <defs>
  <style type="text/css">*{stroke-linecap:butt;stroke-linejoin:round;}</style>
 </defs>
 <g id="figure_1">
  <g id="patch_1">
   <path d="M 0 696.062656 
L 892.575 696.062656 
L 892.575 0 
L 0 0 
z
" style="fill:#ffffff;"/>
  </g>
  <g id="axes_1">
   <g id="patch_2">
    <path d="M 111.4875 622.777109 
L 781.0875 622.777109 
L 781.0875 133.537109 
L 111.4875 133.537109 
z
" style="fill:#eaeaf2;"/>
   </g>
   <g id="axes_2">
    <g id="patch_3">
     <path d="M 111.4875 133.537109 
L 781.0875 133.537109 
L 781.0875 133.537109 
L 111.4875 133.537109 
z
" style="fill:#eaeaf2;"/>
    </g>
    <g id="matplotlib.axis_1">
     <g id="xtick_1">
      <g id="line2d_1">
       <path clip-path="url(#p0b8f364849)" d="M 404.847201 133.537109 
L 404.847201 133.537109 
" style="fill:none;stroke:#ffffff;stroke-linecap:round;"/>
      </g>
      <g id="line2d_2">
       <defs>
        <path d="M 0 0 
L 0 -6 
" id="m298171d435" style="stroke:#262626;stroke-width:1.25;"/>
       </defs>
       <g>
        <use style="fill:#262626;stroke:#262626;stroke-width:1.25;" x="404.847201" xlink:href="#m298171d435" y="133.537109"/>
       </g>
      </g>
      <g id="text_1">
       <!-- −28 -->
       <g style="fill:#262626;" transform="translate(381.523763 118.571484)scale(0.275 -0.275)">
        <defs>
         <path d="M 52.828125 31.203125 
L 5.5625 31.203125 
L 5.5625 39.40625 
L 52.828125 39.40625 
z
" id="ArialMT-8722"/>
         <path d="M 50.34375 8.453125 
L 50.34375 0 
L 3.03125 0 
Q 2.9375 3.171875 4.046875 6.109375 
Q 5.859375 10.9375 9.828125 15.625 
Q 13.8125 20.3125 21.34375 26.46875 
Q 33.015625 36.03125 37.109375 41.625 
Q 41.21875 47.21875 41.21875 52.203125 
Q 41.21875 57.421875 37.46875 61 
Q 33.734375 64.59375 27.734375 64.59375 
Q 21.390625 64.59375 17.578125 60.78125 
Q 13.765625 56.984375 13.71875 50.25 
L 4.6875 51.171875 
Q 5.609375 61.28125 11.65625 66.578125 
Q 17.71875 71.875 27.9375 71.875 
Q 38.234375 71.875 44.234375 66.15625 
Q 50.25 60.453125 50.25 52 
Q 50.25 47.703125 48.484375 43.546875 
Q 46.734375 39.40625 42.65625 34.8125 
Q 38.578125 30.21875 29.109375 22.21875 
Q 21.1875 15.578125 18.9375 13.203125 
Q 16.703125 10.84375 15.234375 8.453125 
z
" id="ArialMT-50"/>
         <path d="M 17.671875 38.8125 
Q 12.203125 40.828125 9.5625 44.53125 
Q 6.9375 48.25 6.9375 53.421875 
Q 6.9375 61.234375 12.546875 66.546875 
Q 18.171875 71.875 27.484375 71.875 
Q 36.859375 71.875 42.578125 66.421875 
Q 48.296875 60.984375 48.296875 53.171875 
Q 48.296875 48.1875 45.671875 44.5 
Q 43.0625 40.828125 37.75 38.8125 
Q 44.34375 36.671875 47.78125 31.875 
Q 51.21875 27.09375 51.21875 20.453125 
Q 51.21875 11.28125 44.71875 5.03125 
Q 38.234375 -1.21875 27.640625 -1.21875 
Q 17.046875 -1.21875 10.546875 5.046875 
Q 4.046875 11.328125 4.046875 20.703125 
Q 4.046875 27.6875 7.59375 32.390625 
Q 11.140625 37.109375 17.671875 38.8125 
z
M 15.921875 53.71875 
Q 15.921875 48.640625 19.1875 45.40625 
Q 22.46875 42.1875 27.6875 42.1875 
Q 32.765625 42.1875 36.015625 45.375 
Q 39.265625 48.578125 39.265625 53.21875 
Q 39.265625 58.0625 35.90625 61.359375 
Q 32.5625 64.65625 27.59375 64.65625 
Q 22.5625 64.65625 19.234375 61.421875 
Q 15.921875 58.203125 15.921875 53.71875 
z
M 13.09375 20.65625 
Q 13.09375 16.890625 14.875 13.375 
Q 16.65625 9.859375 20.171875 7.921875 
Q 23.6875 6 27.734375 6 
Q 34.03125 6 38.125 10.046875 
Q 42.234375 14.109375 42.234375 20.359375 
Q 42.234375 26.703125 38.015625 30.859375 
Q 33.796875 35.015625 27.4375 35.015625 
Q 21.234375 35.015625 17.15625 30.90625 
Q 13.09375 26.8125 13.09375 20.65625 
z
" id="ArialMT-56"/>
        </defs>
        <use xlink:href="#ArialMT-8722"/>
        <use x="58.398438" xlink:href="#ArialMT-50"/>
        <use x="114.013672" xlink:href="#ArialMT-56"/>
       </g>
      </g>
     </g>
     <g id="xtick_2">
      <g id="line2d_3">
       <path clip-path="url(#p0b8f364849)" d="M 349.593468 133.537109 
L 349.593468 133.537109 
" style="fill:none;stroke:#ffffff;stroke-linecap:round;"/>
      </g>
      <g id="line2d_4">
       <g>
        <use style="fill:#262626;stroke:#262626;stroke-width:1.25;" x="349.593468" xlink:href="#m298171d435" y="133.537109"/>
       </g>
      </g>
      <g id="text_2">
       <!-- −12 -->
       <g style="fill:#262626;" transform="translate(326.270031 118.571484)scale(0.275 -0.275)">
        <defs>
         <path d="M 37.25 0 
L 28.46875 0 
L 28.46875 56 
Q 25.296875 52.984375 20.140625 49.953125 
Q 14.984375 46.921875 10.890625 45.40625 
L 10.890625 53.90625 
Q 18.265625 57.375 23.78125 62.296875 
Q 29.296875 67.234375 31.59375 71.875 
L 37.25 71.875 
z
" id="ArialMT-49"/>
        </defs>
        <use xlink:href="#ArialMT-8722"/>
        <use x="58.398438" xlink:href="#ArialMT-49"/>
        <use x="114.013672" xlink:href="#ArialMT-50"/>
       </g>
      </g>
     </g>
     <g id="xtick_3">
      <g id="line2d_5">
       <path clip-path="url(#p0b8f364849)" d="M 280.526303 133.537109 
L 280.526303 133.537109 
" style="fill:none;stroke:#ffffff;stroke-linecap:round;"/>
      </g>
      <g id="line2d_6">
       <g>
        <use style="fill:#262626;stroke:#262626;stroke-width:1.25;" x="280.526303" xlink:href="#m298171d435" y="133.537109"/>
       </g>
      </g>
      <g id="text_3">
       <!-- −7 -->
       <g style="fill:#262626;" transform="translate(264.849154 118.571484)scale(0.275 -0.275)">
        <defs>
         <path d="M 4.734375 62.203125 
L 4.734375 70.65625 
L 51.078125 70.65625 
L 51.078125 63.8125 
Q 44.234375 56.546875 37.515625 44.484375 
Q 30.8125 32.421875 27.15625 19.671875 
Q 24.515625 10.6875 23.78125 0 
L 14.75 0 
Q 14.890625 8.453125 18.0625 20.40625 
Q 21.234375 32.375 27.171875 43.484375 
Q 33.109375 54.59375 39.796875 62.203125 
z
" id="ArialMT-55"/>
        </defs>
        <use xlink:href="#ArialMT-8722"/>
        <use x="58.398438" xlink:href="#ArialMT-55"/>
       </g>
      </g>
     </g>
     <g id="xtick_4">
      <g id="line2d_7">
       <path clip-path="url(#p0b8f364849)" d="M 214.221824 133.537109 
L 214.221824 133.537109 
" style="fill:none;stroke:#ffffff;stroke-linecap:round;"/>
      </g>
      <g id="line2d_8">
       <g>
        <use style="fill:#262626;stroke:#262626;stroke-width:1.25;" x="214.221824" xlink:href="#m298171d435" y="133.537109"/>
       </g>
      </g>
      <g id="text_4">
       <!-- −5 -->
       <g style="fill:#262626;" transform="translate(198.544676 118.571484)scale(0.275 -0.275)">
        <defs>
         <path d="M 4.15625 18.75 
L 13.375 19.53125 
Q 14.40625 12.796875 18.140625 9.390625 
Q 21.875 6 27.15625 6 
Q 33.5 6 37.890625 10.78125 
Q 42.28125 15.578125 42.28125 23.484375 
Q 42.28125 31 38.0625 35.34375 
Q 33.84375 39.703125 27 39.703125 
Q 22.75 39.703125 19.328125 37.765625 
Q 15.921875 35.84375 13.96875 32.765625 
L 5.71875 33.84375 
L 12.640625 70.609375 
L 48.25 70.609375 
L 48.25 62.203125 
L 19.671875 62.203125 
L 15.828125 42.96875 
Q 22.265625 47.46875 29.34375 47.46875 
Q 38.71875 47.46875 45.15625 40.96875 
Q 51.609375 34.46875 51.609375 24.265625 
Q 51.609375 14.546875 45.953125 7.46875 
Q 39.0625 -1.21875 27.15625 -1.21875 
Q 17.390625 -1.21875 11.203125 4.25 
Q 5.03125 9.71875 4.15625 18.75 
z
" id="ArialMT-53"/>
        </defs>
        <use xlink:href="#ArialMT-8722"/>
        <use x="58.398438" xlink:href="#ArialMT-53"/>
       </g>
      </g>
     </g>
     <g id="xtick_5">
      <g id="line2d_9">
       <path clip-path="url(#p0b8f364849)" d="M 156.205405 133.537109 
L 156.205405 133.537109 
" style="fill:none;stroke:#ffffff;stroke-linecap:round;"/>
      </g>
      <g id="line2d_10">
       <g>
        <use style="fill:#262626;stroke:#262626;stroke-width:1.25;" x="156.205405" xlink:href="#m298171d435" y="133.537109"/>
       </g>
      </g>
      <g id="text_5">
       <!-- −4 -->
       <g style="fill:#262626;" transform="translate(140.528256 118.571484)scale(0.275 -0.275)">
        <defs>
         <path d="M 32.328125 0 
L 32.328125 17.140625 
L 1.265625 17.140625 
L 1.265625 25.203125 
L 33.9375 71.578125 
L 41.109375 71.578125 
L 41.109375 25.203125 
L 50.78125 25.203125 
L 50.78125 17.140625 
L 41.109375 17.140625 
L 41.109375 0 
z
M 32.328125 25.203125 
L 32.328125 57.46875 
L 9.90625 25.203125 
z
" id="ArialMT-52"/>
        </defs>
        <use xlink:href="#ArialMT-8722"/>
        <use x="58.398438" xlink:href="#ArialMT-52"/>
       </g>
      </g>
     </g>
     <g id="xtick_6">
      <g id="line2d_11">
       <path clip-path="url(#p0b8f364849)" d="M 736.369595 133.537109 
L 736.369595 133.537109 
" style="fill:none;stroke:#ffffff;stroke-linecap:round;"/>
      </g>
      <g id="line2d_12">
       <g>
        <use style="fill:#262626;stroke:#262626;stroke-width:1.25;" x="736.369595" xlink:href="#m298171d435" y="133.537109"/>
       </g>
      </g>
      <g id="text_6">
       <!-- 4 -->
       <g style="fill:#262626;" transform="translate(728.723306 118.571484)scale(0.275 -0.275)">
        <use xlink:href="#ArialMT-52"/>
       </g>
      </g>
     </g>
     <g id="xtick_7">
      <g id="line2d_13">
       <path clip-path="url(#p0b8f364849)" d="M 678.353176 133.537109 
L 678.353176 133.537109 
" style="fill:none;stroke:#ffffff;stroke-linecap:round;"/>
      </g>
      <g id="line2d_14">
       <g>
        <use style="fill:#262626;stroke:#262626;stroke-width:1.25;" x="678.353176" xlink:href="#m298171d435" y="133.537109"/>
       </g>
      </g>
      <g id="text_7">
       <!-- 5 -->
       <g style="fill:#262626;" transform="translate(670.706887 118.571484)scale(0.275 -0.275)">
        <use xlink:href="#ArialMT-53"/>
       </g>
      </g>
     </g>
     <g id="xtick_8">
      <g id="line2d_15">
       <path clip-path="url(#p0b8f364849)" d="M 612.048697 133.537109 
L 612.048697 133.537109 
" style="fill:none;stroke:#ffffff;stroke-linecap:round;"/>
      </g>
      <g id="line2d_16">
       <g>
        <use style="fill:#262626;stroke:#262626;stroke-width:1.25;" x="612.048697" xlink:href="#m298171d435" y="133.537109"/>
       </g>
      </g>
      <g id="text_8">
       <!-- 7 -->
       <g style="fill:#262626;" transform="translate(604.402408 118.571484)scale(0.275 -0.275)">
        <use xlink:href="#ArialMT-55"/>
       </g>
      </g>
     </g>
     <g id="xtick_9">
      <g id="line2d_17">
       <path clip-path="url(#p0b8f364849)" d="M 542.981532 133.537109 
L 542.981532 133.537109 
" style="fill:none;stroke:#ffffff;stroke-linecap:round;"/>
      </g>
      <g id="line2d_18">
       <g>
        <use style="fill:#262626;stroke:#262626;stroke-width:1.25;" x="542.981532" xlink:href="#m298171d435" y="133.537109"/>
       </g>
      </g>
      <g id="text_9">
       <!-- 12 -->
       <g style="fill:#262626;" transform="translate(527.688954 118.571484)scale(0.275 -0.275)">
        <use xlink:href="#ArialMT-49"/>
        <use x="55.615234" xlink:href="#ArialMT-50"/>
       </g>
      </g>
     </g>
     <g id="xtick_10">
      <g id="line2d_19">
       <path clip-path="url(#p0b8f364849)" d="M 487.727799 133.537109 
L 487.727799 133.537109 
" style="fill:none;stroke:#ffffff;stroke-linecap:round;"/>
      </g>
      <g id="line2d_20">
       <g>
        <use style="fill:#262626;stroke:#262626;stroke-width:1.25;" x="487.727799" xlink:href="#m298171d435" y="133.537109"/>
       </g>
      </g>
      <g id="text_10">
       <!-- 28 -->
       <g style="fill:#262626;" transform="translate(472.435221 118.571484)scale(0.275 -0.275)">
        <use xlink:href="#ArialMT-50"/>
        <use x="55.615234" xlink:href="#ArialMT-56"/>
       </g>
      </g>
     </g>
    </g>
    <g id="matplotlib.axis_2"/>
    <g id="patch_4">
     <path d="M 111.4875 133.537109 
L 781.0875 133.537109 
" style="fill:none;stroke:#ffffff;stroke-linecap:square;stroke-linejoin:miter;stroke-width:1.25;"/>
    </g>
   </g>
   <g id="matplotlib.axis_3">
    <g id="xtick_11">
     <g id="line2d_21">
      <path clip-path="url(#p9be24c2cd4)" d="M 111.4875 622.777109 
L 111.4875 133.537109 
" style="fill:none;stroke:#ffffff;stroke-linecap:round;"/>
     </g>
     <g id="text_11">
      <!-- −0.20 -->
      <g style="fill:#262626;" transform="translate(76.697852 651.961094)scale(0.275 -0.275)">
       <defs>
        <path d="M 4.15625 35.296875 
Q 4.15625 48 6.765625 55.734375 
Q 9.375 63.484375 14.515625 67.671875 
Q 19.671875 71.875 27.484375 71.875 
Q 33.25 71.875 37.59375 69.546875 
Q 41.9375 67.234375 44.765625 62.859375 
Q 47.609375 58.5 49.21875 52.21875 
Q 50.828125 45.953125 50.828125 35.296875 
Q 50.828125 22.703125 48.234375 14.96875 
Q 45.65625 7.234375 40.5 3 
Q 35.359375 -1.21875 27.484375 -1.21875 
Q 17.140625 -1.21875 11.234375 6.203125 
Q 4.15625 15.140625 4.15625 35.296875 
z
M 13.1875 35.296875 
Q 13.1875 17.671875 17.3125 11.828125 
Q 21.4375 6 27.484375 6 
Q 33.546875 6 37.671875 11.859375 
Q 41.796875 17.71875 41.796875 35.296875 
Q 41.796875 52.984375 37.671875 58.78125 
Q 33.546875 64.59375 27.390625 64.59375 
Q 21.34375 64.59375 17.71875 59.46875 
Q 13.1875 52.9375 13.1875 35.296875 
z
" id="ArialMT-48"/>
        <path d="M 9.078125 0 
L 9.078125 10.015625 
L 19.09375 10.015625 
L 19.09375 0 
z
" id="ArialMT-46"/>
       </defs>
       <use xlink:href="#ArialMT-8722"/>
       <use x="58.398438" xlink:href="#ArialMT-48"/>
       <use x="114.013672" xlink:href="#ArialMT-46"/>
       <use x="141.796875" xlink:href="#ArialMT-50"/>
       <use x="197.412109" xlink:href="#ArialMT-48"/>
      </g>
     </g>
    </g>
    <g id="xtick_12">
     <g id="line2d_22">
      <path clip-path="url(#p9be24c2cd4)" d="M 195.1875 622.777109 
L 195.1875 133.537109 
" style="fill:none;stroke:#ffffff;stroke-linecap:round;"/>
     </g>
     <g id="text_12">
      <!-- −0.15 -->
      <g style="fill:#262626;" transform="translate(160.397852 651.961094)scale(0.275 -0.275)">
       <use xlink:href="#ArialMT-8722"/>
       <use x="58.398438" xlink:href="#ArialMT-48"/>
       <use x="114.013672" xlink:href="#ArialMT-46"/>
       <use x="141.796875" xlink:href="#ArialMT-49"/>
       <use x="197.412109" xlink:href="#ArialMT-53"/>
      </g>
     </g>
    </g>
    <g id="xtick_13">
     <g id="line2d_23">
      <path clip-path="url(#p9be24c2cd4)" d="M 278.8875 622.777109 
L 278.8875 133.537109 
" style="fill:none;stroke:#ffffff;stroke-linecap:round;"/>
     </g>
     <g id="text_13">
      <!-- −0.10 -->
      <g style="fill:#262626;" transform="translate(244.097852 651.961094)scale(0.275 -0.275)">
       <use xlink:href="#ArialMT-8722"/>
       <use x="58.398438" xlink:href="#ArialMT-48"/>
       <use x="114.013672" xlink:href="#ArialMT-46"/>
       <use x="141.796875" xlink:href="#ArialMT-49"/>
       <use x="197.412109" xlink:href="#ArialMT-48"/>
      </g>
     </g>
    </g>
    <g id="xtick_14">
     <g id="line2d_24">
      <path clip-path="url(#p9be24c2cd4)" d="M 362.5875 622.777109 
L 362.5875 133.537109 
" style="fill:none;stroke:#ffffff;stroke-linecap:round;"/>
     </g>
     <g id="text_14">
      <!-- −0.05 -->
      <g style="fill:#262626;" transform="translate(327.797852 651.961094)scale(0.275 -0.275)">
       <use xlink:href="#ArialMT-8722"/>
       <use x="58.398438" xlink:href="#ArialMT-48"/>
       <use x="114.013672" xlink:href="#ArialMT-46"/>
       <use x="141.796875" xlink:href="#ArialMT-48"/>
       <use x="197.412109" xlink:href="#ArialMT-53"/>
      </g>
     </g>
    </g>
    <g id="xtick_15">
     <g id="line2d_25">
      <path clip-path="url(#p9be24c2cd4)" d="M 446.2875 622.777109 
L 446.2875 133.537109 
" style="fill:none;stroke:#ffffff;stroke-linecap:round;"/>
     </g>
     <g id="text_15">
      <!-- 0.00 -->
      <g style="fill:#262626;" transform="translate(419.528711 651.961094)scale(0.275 -0.275)">
       <use xlink:href="#ArialMT-48"/>
       <use x="55.615234" xlink:href="#ArialMT-46"/>
       <use x="83.398438" xlink:href="#ArialMT-48"/>
       <use x="139.013672" xlink:href="#ArialMT-48"/>
      </g>
     </g>
    </g>
    <g id="xtick_16">
     <g id="line2d_26">
      <path clip-path="url(#p9be24c2cd4)" d="M 529.9875 622.777109 
L 529.9875 133.537109 
" style="fill:none;stroke:#ffffff;stroke-linecap:round;"/>
     </g>
     <g id="text_16">
      <!-- 0.05 -->
      <g style="fill:#262626;" transform="translate(503.228711 651.961094)scale(0.275 -0.275)">
       <use xlink:href="#ArialMT-48"/>
       <use x="55.615234" xlink:href="#ArialMT-46"/>
       <use x="83.398438" xlink:href="#ArialMT-48"/>
       <use x="139.013672" xlink:href="#ArialMT-53"/>
      </g>
     </g>
    </g>
    <g id="xtick_17">
     <g id="line2d_27">
      <path clip-path="url(#p9be24c2cd4)" d="M 613.6875 622.777109 
L 613.6875 133.537109 
" style="fill:none;stroke:#ffffff;stroke-linecap:round;"/>
     </g>
     <g id="text_17">
      <!-- 0.10 -->
      <g style="fill:#262626;" transform="translate(586.928711 651.961094)scale(0.275 -0.275)">
       <use xlink:href="#ArialMT-48"/>
       <use x="55.615234" xlink:href="#ArialMT-46"/>
       <use x="83.398438" xlink:href="#ArialMT-49"/>
       <use x="139.013672" xlink:href="#ArialMT-48"/>
      </g>
     </g>
    </g>
    <g id="xtick_18">
     <g id="line2d_28">
      <path clip-path="url(#p9be24c2cd4)" d="M 697.3875 622.777109 
L 697.3875 133.537109 
" style="fill:none;stroke:#ffffff;stroke-linecap:round;"/>
     </g>
     <g id="text_18">
      <!-- 0.15 -->
      <g style="fill:#262626;" transform="translate(670.628711 651.961094)scale(0.275 -0.275)">
       <use xlink:href="#ArialMT-48"/>
       <use x="55.615234" xlink:href="#ArialMT-46"/>
       <use x="83.398438" xlink:href="#ArialMT-49"/>
       <use x="139.013672" xlink:href="#ArialMT-53"/>
      </g>
     </g>
    </g>
    <g id="xtick_19">
     <g id="line2d_29">
      <path clip-path="url(#p9be24c2cd4)" d="M 781.0875 622.777109 
L 781.0875 133.537109 
" style="fill:none;stroke:#ffffff;stroke-linecap:round;"/>
     </g>
     <g id="text_19">
      <!-- 0.20 -->
      <g style="fill:#262626;" transform="translate(754.328711 651.961094)scale(0.275 -0.275)">
       <use xlink:href="#ArialMT-48"/>
       <use x="55.615234" xlink:href="#ArialMT-46"/>
       <use x="83.398438" xlink:href="#ArialMT-50"/>
       <use x="139.013672" xlink:href="#ArialMT-48"/>
      </g>
     </g>
    </g>
    <g id="text_20">
     <!-- Growth rate -->
     <g style="fill:#262626;" transform="translate(367.93125 682.900156)scale(0.3 -0.3)">
      <defs>
       <path d="M 41.21875 28.078125 
L 41.21875 36.46875 
L 71.53125 36.53125 
L 71.53125 9.96875 
Q 64.546875 4.390625 57.125 1.578125 
Q 49.703125 -1.21875 41.890625 -1.21875 
Q 31.34375 -1.21875 22.71875 3.296875 
Q 14.109375 7.8125 9.71875 16.359375 
Q 5.328125 24.90625 5.328125 35.453125 
Q 5.328125 45.90625 9.6875 54.953125 
Q 14.0625 64.015625 22.265625 68.40625 
Q 30.46875 72.796875 41.15625 72.796875 
Q 48.921875 72.796875 55.1875 70.28125 
Q 61.46875 67.78125 65.03125 63.28125 
Q 68.609375 58.796875 70.453125 51.5625 
L 61.921875 49.21875 
Q 60.296875 54.6875 57.90625 57.8125 
Q 55.515625 60.9375 51.0625 62.8125 
Q 46.625 64.703125 41.21875 64.703125 
Q 34.71875 64.703125 29.984375 62.71875 
Q 25.25 60.75 22.34375 57.515625 
Q 19.4375 54.296875 17.828125 50.4375 
Q 15.09375 43.796875 15.09375 36.03125 
Q 15.09375 26.46875 18.390625 20.015625 
Q 21.6875 13.578125 27.984375 10.453125 
Q 34.28125 7.328125 41.359375 7.328125 
Q 47.515625 7.328125 53.375 9.6875 
Q 59.234375 12.0625 62.25 14.75 
L 62.25 28.078125 
z
" id="ArialMT-71"/>
       <path d="M 6.5 0 
L 6.5 51.859375 
L 14.40625 51.859375 
L 14.40625 44 
Q 17.4375 49.515625 20 51.265625 
Q 22.5625 53.03125 25.640625 53.03125 
Q 30.078125 53.03125 34.671875 50.203125 
L 31.640625 42.046875 
Q 28.421875 43.953125 25.203125 43.953125 
Q 22.3125 43.953125 20.015625 42.21875 
Q 17.71875 40.484375 16.75 37.40625 
Q 15.28125 32.71875 15.28125 27.15625 
L 15.28125 0 
z
" id="ArialMT-114"/>
       <path d="M 3.328125 25.921875 
Q 3.328125 40.328125 11.328125 47.265625 
Q 18.015625 53.03125 27.640625 53.03125 
Q 38.328125 53.03125 45.109375 46.015625 
Q 51.90625 39.015625 51.90625 26.65625 
Q 51.90625 16.65625 48.90625 10.90625 
Q 45.90625 5.171875 40.15625 2 
Q 34.421875 -1.171875 27.640625 -1.171875 
Q 16.75 -1.171875 10.03125 5.8125 
Q 3.328125 12.796875 3.328125 25.921875 
z
M 12.359375 25.921875 
Q 12.359375 15.96875 16.703125 11.015625 
Q 21.046875 6.0625 27.640625 6.0625 
Q 34.1875 6.0625 38.53125 11.03125 
Q 42.875 16.015625 42.875 26.21875 
Q 42.875 35.84375 38.5 40.796875 
Q 34.125 45.75 27.640625 45.75 
Q 21.046875 45.75 16.703125 40.8125 
Q 12.359375 35.890625 12.359375 25.921875 
z
" id="ArialMT-111"/>
       <path d="M 16.15625 0 
L 0.296875 51.859375 
L 9.375 51.859375 
L 17.625 21.921875 
L 20.703125 10.796875 
Q 20.90625 11.625 23.390625 21.484375 
L 31.640625 51.859375 
L 40.671875 51.859375 
L 48.4375 21.78125 
L 51.03125 11.859375 
L 54 21.875 
L 62.890625 51.859375 
L 71.4375 51.859375 
L 55.21875 0 
L 46.09375 0 
L 37.84375 31.0625 
L 35.84375 39.890625 
L 25.34375 0 
z
" id="ArialMT-119"/>
       <path d="M 25.78125 7.859375 
L 27.046875 0.09375 
Q 23.34375 -0.6875 20.40625 -0.6875 
Q 15.625 -0.6875 12.984375 0.828125 
Q 10.359375 2.34375 9.28125 4.8125 
Q 8.203125 7.28125 8.203125 15.1875 
L 8.203125 45.015625 
L 1.765625 45.015625 
L 1.765625 51.859375 
L 8.203125 51.859375 
L 8.203125 64.703125 
L 16.9375 69.96875 
L 16.9375 51.859375 
L 25.78125 51.859375 
L 25.78125 45.015625 
L 16.9375 45.015625 
L 16.9375 14.703125 
Q 16.9375 10.9375 17.40625 9.859375 
Q 17.875 8.796875 18.921875 8.15625 
Q 19.96875 7.515625 21.921875 7.515625 
Q 23.390625 7.515625 25.78125 7.859375 
z
" id="ArialMT-116"/>
       <path d="M 6.59375 0 
L 6.59375 71.578125 
L 15.375 71.578125 
L 15.375 45.90625 
Q 21.53125 53.03125 30.90625 53.03125 
Q 36.671875 53.03125 40.921875 50.75 
Q 45.171875 48.484375 47 44.484375 
Q 48.828125 40.484375 48.828125 32.859375 
L 48.828125 0 
L 40.046875 0 
L 40.046875 32.859375 
Q 40.046875 39.453125 37.1875 42.453125 
Q 34.328125 45.453125 29.109375 45.453125 
Q 25.203125 45.453125 21.75 43.421875 
Q 18.3125 41.40625 16.84375 37.9375 
Q 15.375 34.46875 15.375 28.375 
L 15.375 0 
z
" id="ArialMT-104"/>
       <path id="ArialMT-32"/>
       <path d="M 40.4375 6.390625 
Q 35.546875 2.25 31.03125 0.53125 
Q 26.515625 -1.171875 21.34375 -1.171875 
Q 12.796875 -1.171875 8.203125 3 
Q 3.609375 7.171875 3.609375 13.671875 
Q 3.609375 17.484375 5.34375 20.625 
Q 7.078125 23.78125 9.890625 25.6875 
Q 12.703125 27.59375 16.21875 28.5625 
Q 18.796875 29.25 24.03125 29.890625 
Q 34.671875 31.15625 39.703125 32.90625 
Q 39.75 34.71875 39.75 35.203125 
Q 39.75 40.578125 37.25 42.78125 
Q 33.890625 45.75 27.25 45.75 
Q 21.046875 45.75 18.09375 43.578125 
Q 15.140625 41.40625 13.71875 35.890625 
L 5.125 37.0625 
Q 6.296875 42.578125 8.984375 45.96875 
Q 11.671875 49.359375 16.75 51.1875 
Q 21.828125 53.03125 28.515625 53.03125 
Q 35.15625 53.03125 39.296875 51.46875 
Q 43.453125 49.90625 45.40625 47.53125 
Q 47.359375 45.171875 48.140625 41.546875 
Q 48.578125 39.3125 48.578125 33.453125 
L 48.578125 21.734375 
Q 48.578125 9.46875 49.140625 6.21875 
Q 49.703125 2.984375 51.375 0 
L 42.1875 0 
Q 40.828125 2.734375 40.4375 6.390625 
z
M 39.703125 26.03125 
Q 34.90625 24.078125 25.34375 22.703125 
Q 19.921875 21.921875 17.671875 20.9375 
Q 15.4375 19.96875 14.203125 18.09375 
Q 12.984375 16.21875 12.984375 13.921875 
Q 12.984375 10.40625 15.640625 8.0625 
Q 18.3125 5.71875 23.4375 5.71875 
Q 28.515625 5.71875 32.46875 7.9375 
Q 36.421875 10.15625 38.28125 14.015625 
Q 39.703125 17 39.703125 22.796875 
z
" id="ArialMT-97"/>
       <path d="M 42.09375 16.703125 
L 51.171875 15.578125 
Q 49.03125 7.625 43.21875 3.21875 
Q 37.40625 -1.171875 28.375 -1.171875 
Q 17 -1.171875 10.328125 5.828125 
Q 3.65625 12.84375 3.65625 25.484375 
Q 3.65625 38.578125 10.390625 45.796875 
Q 17.140625 53.03125 27.875 53.03125 
Q 38.28125 53.03125 44.875 45.953125 
Q 51.46875 38.875 51.46875 26.03125 
Q 51.46875 25.25 51.421875 23.6875 
L 12.75 23.6875 
Q 13.234375 15.140625 17.578125 10.59375 
Q 21.921875 6.0625 28.421875 6.0625 
Q 33.25 6.0625 36.671875 8.59375 
Q 40.09375 11.140625 42.09375 16.703125 
z
M 13.234375 30.90625 
L 42.1875 30.90625 
Q 41.609375 37.453125 38.875 40.71875 
Q 34.671875 45.796875 27.984375 45.796875 
Q 21.921875 45.796875 17.796875 41.75 
Q 13.671875 37.703125 13.234375 30.90625 
z
" id="ArialMT-101"/>
      </defs>
      <use xlink:href="#ArialMT-71"/>
      <use x="77.783203" xlink:href="#ArialMT-114"/>
      <use x="111.083984" xlink:href="#ArialMT-111"/>
      <use x="166.699219" xlink:href="#ArialMT-119"/>
      <use x="238.916016" xlink:href="#ArialMT-116"/>
      <use x="266.699219" xlink:href="#ArialMT-104"/>
      <use x="322.314453" xlink:href="#ArialMT-32"/>
      <use x="350.097656" xlink:href="#ArialMT-114"/>
      <use x="383.398438" xlink:href="#ArialMT-97"/>
      <use x="439.013672" xlink:href="#ArialMT-116"/>
      <use x="466.796875" xlink:href="#ArialMT-101"/>
     </g>
    </g>
   </g>
   <g id="matplotlib.axis_4">
    <g id="ytick_1">
     <g id="line2d_30">
      <path clip-path="url(#p9be24c2cd4)" d="M 111.4875 622.777109 
L 781.0875 622.777109 
" style="fill:none;stroke:#ffffff;stroke-linecap:round;"/>
     </g>
     <g id="text_21">
      <!-- 0 -->
      <g style="fill:#262626;" transform="translate(86.694922 632.619102)scale(0.275 -0.275)">
       <use xlink:href="#ArialMT-48"/>
      </g>
     </g>
    </g>
    <g id="ytick_2">
     <g id="line2d_31">
      <path clip-path="url(#p9be24c2cd4)" d="M 111.4875 541.237109 
L 781.0875 541.237109 
" style="fill:none;stroke:#ffffff;stroke-linecap:round;"/>
     </g>
     <g id="text_22">
      <!-- 5 -->
      <g style="fill:#262626;" transform="translate(86.694922 551.079102)scale(0.275 -0.275)">
       <use xlink:href="#ArialMT-53"/>
      </g>
     </g>
    </g>
    <g id="ytick_3">
     <g id="line2d_32">
      <path clip-path="url(#p9be24c2cd4)" d="M 111.4875 459.697109 
L 781.0875 459.697109 
" style="fill:none;stroke:#ffffff;stroke-linecap:round;"/>
     </g>
     <g id="text_23">
      <!-- 10 -->
      <g style="fill:#262626;" transform="translate(71.402344 469.539102)scale(0.275 -0.275)">
       <use xlink:href="#ArialMT-49"/>
       <use x="55.615234" xlink:href="#ArialMT-48"/>
      </g>
     </g>
    </g>
    <g id="ytick_4">
     <g id="line2d_33">
      <path clip-path="url(#p9be24c2cd4)" d="M 111.4875 378.157109 
L 781.0875 378.157109 
" style="fill:none;stroke:#ffffff;stroke-linecap:round;"/>
     </g>
     <g id="text_24">
      <!-- 15 -->
      <g style="fill:#262626;" transform="translate(71.402344 387.999102)scale(0.275 -0.275)">
       <use xlink:href="#ArialMT-49"/>
       <use x="55.615234" xlink:href="#ArialMT-53"/>
      </g>
     </g>
    </g>
    <g id="ytick_5">
     <g id="line2d_34">
      <path clip-path="url(#p9be24c2cd4)" d="M 111.4875 296.617109 
L 781.0875 296.617109 
" style="fill:none;stroke:#ffffff;stroke-linecap:round;"/>
     </g>
     <g id="text_25">
      <!-- 20 -->
      <g style="fill:#262626;" transform="translate(71.402344 306.459102)scale(0.275 -0.275)">
       <use xlink:href="#ArialMT-50"/>
       <use x="55.615234" xlink:href="#ArialMT-48"/>
      </g>
     </g>
    </g>
    <g id="ytick_6">
     <g id="line2d_35">
      <path clip-path="url(#p9be24c2cd4)" d="M 111.4875 215.077109 
L 781.0875 215.077109 
" style="fill:none;stroke:#ffffff;stroke-linecap:round;"/>
     </g>
     <g id="text_26">
      <!-- 25 -->
      <g style="fill:#262626;" transform="translate(71.402344 224.919102)scale(0.275 -0.275)">
       <use xlink:href="#ArialMT-50"/>
       <use x="55.615234" xlink:href="#ArialMT-53"/>
      </g>
     </g>
    </g>
    <g id="ytick_7">
     <g id="line2d_36">
      <path clip-path="url(#p9be24c2cd4)" d="M 111.4875 133.537109 
L 781.0875 133.537109 
" style="fill:none;stroke:#ffffff;stroke-linecap:round;"/>
     </g>
     <g id="text_27">
      <!-- 30 -->
      <g style="fill:#262626;" transform="translate(71.402344 143.379102)scale(0.275 -0.275)">
       <defs>
        <path d="M 4.203125 18.890625 
L 12.984375 20.0625 
Q 14.5 12.59375 18.140625 9.296875 
Q 21.78125 6 27 6 
Q 33.203125 6 37.46875 10.296875 
Q 41.75 14.59375 41.75 20.953125 
Q 41.75 27 37.796875 30.921875 
Q 33.84375 34.859375 27.734375 34.859375 
Q 25.25 34.859375 21.53125 33.890625 
L 22.515625 41.609375 
Q 23.390625 41.5 23.921875 41.5 
Q 29.546875 41.5 34.03125 44.421875 
Q 38.53125 47.359375 38.53125 53.46875 
Q 38.53125 58.296875 35.25 61.46875 
Q 31.984375 64.65625 26.8125 64.65625 
Q 21.6875 64.65625 18.265625 61.421875 
Q 14.84375 58.203125 13.875 51.765625 
L 5.078125 53.328125 
Q 6.6875 62.15625 12.390625 67.015625 
Q 18.109375 71.875 26.609375 71.875 
Q 32.46875 71.875 37.390625 69.359375 
Q 42.328125 66.84375 44.9375 62.5 
Q 47.5625 58.15625 47.5625 53.265625 
Q 47.5625 48.640625 45.0625 44.828125 
Q 42.578125 41.015625 37.703125 38.765625 
Q 44.046875 37.3125 47.5625 32.6875 
Q 51.078125 28.078125 51.078125 21.140625 
Q 51.078125 11.765625 44.234375 5.25 
Q 37.40625 -1.265625 26.953125 -1.265625 
Q 17.53125 -1.265625 11.296875 4.34375 
Q 5.078125 9.96875 4.203125 18.890625 
z
" id="ArialMT-51"/>
       </defs>
       <use xlink:href="#ArialMT-51"/>
       <use x="55.615234" xlink:href="#ArialMT-48"/>
      </g>
     </g>
    </g>
    <g id="text_28">
     <!-- Density -->
     <g style="fill:#262626;" transform="translate(61.088281 428.172734)rotate(-90)scale(0.3 -0.3)">
      <defs>
       <path d="M 7.71875 0 
L 7.71875 71.578125 
L 32.375 71.578125 
Q 40.71875 71.578125 45.125 70.5625 
Q 51.265625 69.140625 55.609375 65.4375 
Q 61.28125 60.640625 64.078125 53.1875 
Q 66.890625 45.75 66.890625 36.1875 
Q 66.890625 28.03125 64.984375 21.734375 
Q 63.09375 15.4375 60.109375 11.296875 
Q 57.125 7.171875 53.578125 4.796875 
Q 50.046875 2.4375 45.046875 1.21875 
Q 40.046875 0 33.546875 0 
z
M 17.1875 8.453125 
L 32.46875 8.453125 
Q 39.546875 8.453125 43.578125 9.765625 
Q 47.609375 11.078125 50 13.484375 
Q 53.375 16.84375 55.25 22.53125 
Q 57.125 28.21875 57.125 36.328125 
Q 57.125 47.5625 53.4375 53.59375 
Q 49.75 59.625 44.484375 61.671875 
Q 40.671875 63.140625 32.234375 63.140625 
L 17.1875 63.140625 
z
" id="ArialMT-68"/>
       <path d="M 6.59375 0 
L 6.59375 51.859375 
L 14.5 51.859375 
L 14.5 44.484375 
Q 20.21875 53.03125 31 53.03125 
Q 35.6875 53.03125 39.625 51.34375 
Q 43.5625 49.65625 45.515625 46.921875 
Q 47.46875 44.1875 48.25 40.4375 
Q 48.734375 37.984375 48.734375 31.890625 
L 48.734375 0 
L 39.9375 0 
L 39.9375 31.546875 
Q 39.9375 36.921875 38.90625 39.578125 
Q 37.890625 42.234375 35.28125 43.8125 
Q 32.671875 45.40625 29.15625 45.40625 
Q 23.53125 45.40625 19.453125 41.84375 
Q 15.375 38.28125 15.375 28.328125 
L 15.375 0 
z
" id="ArialMT-110"/>
       <path d="M 3.078125 15.484375 
L 11.765625 16.84375 
Q 12.5 11.625 15.84375 8.84375 
Q 19.1875 6.0625 25.203125 6.0625 
Q 31.25 6.0625 34.171875 8.515625 
Q 37.109375 10.984375 37.109375 14.3125 
Q 37.109375 17.28125 34.515625 19 
Q 32.71875 20.171875 25.53125 21.96875 
Q 15.875 24.421875 12.140625 26.203125 
Q 8.40625 27.984375 6.46875 31.125 
Q 4.546875 34.28125 4.546875 38.09375 
Q 4.546875 41.546875 6.125 44.5 
Q 7.71875 47.46875 10.453125 49.421875 
Q 12.5 50.921875 16.03125 51.96875 
Q 19.578125 53.03125 23.640625 53.03125 
Q 29.734375 53.03125 34.34375 51.265625 
Q 38.96875 49.515625 41.15625 46.5 
Q 43.359375 43.5 44.1875 38.484375 
L 35.59375 37.3125 
Q 35.015625 41.3125 32.203125 43.546875 
Q 29.390625 45.796875 24.265625 45.796875 
Q 18.21875 45.796875 15.625 43.796875 
Q 13.03125 41.796875 13.03125 39.109375 
Q 13.03125 37.40625 14.109375 36.03125 
Q 15.1875 34.625 17.484375 33.6875 
Q 18.796875 33.203125 25.25 31.453125 
Q 34.578125 28.953125 38.25 27.359375 
Q 41.9375 25.78125 44.03125 22.75 
Q 46.140625 19.734375 46.140625 15.234375 
Q 46.140625 10.84375 43.578125 6.953125 
Q 41.015625 3.078125 36.171875 0.953125 
Q 31.34375 -1.171875 25.25 -1.171875 
Q 15.140625 -1.171875 9.84375 3.03125 
Q 4.546875 7.234375 3.078125 15.484375 
z
" id="ArialMT-115"/>
       <path d="M 6.640625 61.46875 
L 6.640625 71.578125 
L 15.4375 71.578125 
L 15.4375 61.46875 
z
M 6.640625 0 
L 6.640625 51.859375 
L 15.4375 51.859375 
L 15.4375 0 
z
" id="ArialMT-105"/>
       <path d="M 6.203125 -19.96875 
L 5.21875 -11.71875 
Q 8.109375 -12.5 10.25 -12.5 
Q 13.1875 -12.5 14.9375 -11.515625 
Q 16.703125 -10.546875 17.828125 -8.796875 
Q 18.65625 -7.46875 20.515625 -2.25 
Q 20.75 -1.515625 21.296875 -0.09375 
L 1.609375 51.859375 
L 11.078125 51.859375 
L 21.875 21.828125 
Q 23.96875 16.109375 25.640625 9.8125 
Q 27.15625 15.875 29.25 21.625 
L 40.328125 51.859375 
L 49.125 51.859375 
L 29.390625 -0.875 
Q 26.21875 -9.421875 24.46875 -12.640625 
Q 22.125 -17 19.09375 -19.015625 
Q 16.0625 -21.046875 11.859375 -21.046875 
Q 9.328125 -21.046875 6.203125 -19.96875 
z
" id="ArialMT-121"/>
      </defs>
      <use xlink:href="#ArialMT-68"/>
      <use x="72.216797" xlink:href="#ArialMT-101"/>
      <use x="127.832031" xlink:href="#ArialMT-110"/>
      <use x="183.447266" xlink:href="#ArialMT-115"/>
      <use x="233.447266" xlink:href="#ArialMT-105"/>
      <use x="255.664062" xlink:href="#ArialMT-116"/>
      <use x="283.447266" xlink:href="#ArialMT-121"/>
     </g>
    </g>
   </g>
   <g id="line2d_37">
    <path clip-path="url(#p9be24c2cd4)" d="M 152.232022 622.658676 
L 158.305202 622.390245 
L 161.94911 622.04538 
L 165.593017 621.464985 
L 168.022289 620.895645 
L 170.451561 620.139364 
L 172.880833 619.159196 
L 175.310105 617.918748 
L 177.739377 616.384268 
L 180.168649 614.526475 
L 182.597921 612.321814 
L 185.027193 609.752873 
L 187.456465 606.807928 
L 189.885737 603.479817 
L 192.315009 599.764566 
L 194.744281 595.66035 
L 197.173553 591.167289 
L 199.602824 586.288404 
L 202.032096 581.031624 
L 205.676004 572.474066 
L 209.319912 563.195841 
L 212.96382 553.336183 
L 217.822364 539.555468 
L 223.895544 521.637352 
L 228.754088 506.655257 
L 232.397996 494.806092 
L 236.041903 482.256447 
L 239.685811 468.965947 
L 244.544355 450.372003 
L 250.617535 427.052766 
L 254.261443 413.999191 
L 256.690715 406.049544 
L 259.119987 398.888168 
L 261.549259 392.653231 
L 263.978531 387.459227 
L 265.193167 385.281088 
L 266.407803 383.393787 
L 267.622439 381.80361 
L 268.837074 380.514805 
L 270.05171 379.5295 
L 271.266346 378.847615 
L 272.480982 378.466799 
L 273.695618 378.382372 
L 274.910254 378.587293 
L 276.12489 379.072152 
L 277.339526 379.825186 
L 278.554162 380.832326 
L 279.768798 382.077274 
L 280.983434 383.541608 
L 283.412706 387.044907 
L 285.841978 391.157781 
L 289.485886 398.010424 
L 294.34443 407.22602 
L 296.773702 411.353359 
L 299.202974 414.884746 
L 300.41761 416.374478 
L 301.632246 417.65879 
L 302.846881 418.726704 
L 304.061517 419.571993 
L 305.276153 420.193683 
L 306.490789 420.596465 
L 307.705425 420.791014 
L 308.920061 420.794163 
L 310.134697 420.628934 
L 312.563969 419.91533 
L 317.422513 418.096369 
L 318.637149 417.841412 
L 319.851785 417.770588 
L 321.066421 417.935686 
L 322.281057 418.386309 
L 323.495693 419.168644 
L 324.710329 420.324317 
L 325.924965 421.889359 
L 327.139601 423.893321 
L 328.354237 426.35856 
L 329.568873 429.299726 
L 330.783509 432.723449 
L 331.998145 436.628242 
L 333.212781 441.004604 
L 335.642053 451.095964 
L 338.071324 462.77704 
L 340.500596 475.73492 
L 344.144504 496.731455 
L 351.43232 539.318533 
L 353.861592 552.353662 
L 356.290864 564.349229 
L 358.720136 575.135839 
L 361.149408 584.617569 
L 363.57868 592.766855 
L 366.007952 599.615469 
L 368.437224 605.242856 
L 369.65186 607.633255 
L 370.866495 609.763117 
L 372.081131 611.649964 
L 373.295767 613.311894 
L 374.510403 614.767233 
L 375.725039 616.034234 
L 376.939675 617.1308 
L 379.368947 618.881172 
L 381.798219 620.146904 
L 384.227491 621.040383 
L 386.656763 621.655913 
L 389.086035 622.069655 
L 392.729943 622.437632 
L 393.944579 622.514438 
L 393.944579 622.514438 
" style="fill:none;stroke:#4c72b0;stroke-linecap:round;stroke-width:5;"/>
   </g>
   <g id="line2d_38">
    <path clip-path="url(#p9be24c2cd4)" d="M 253.870944 622.581763 
L 257.915697 622.274816 
L 260.949261 621.813141 
L 262.971637 621.327495 
L 264.994013 620.64261 
L 267.016389 619.699018 
L 269.038766 618.428903 
L 271.061142 616.758488 
L 273.083518 614.611775 
L 275.105894 611.915533 
L 277.12827 608.605175 
L 279.150647 604.630906 
L 281.173023 599.96329 
L 283.195399 594.597297 
L 285.217775 588.553917 
L 287.240151 581.878699 
L 290.273716 570.827535 
L 293.30728 558.764668 
L 297.352032 541.515792 
L 301.396785 523.198816 
L 305.441537 503.723221 
L 308.475101 488.16147 
L 311.508666 471.678545 
L 315.553418 448.461042 
L 321.620547 413.149866 
L 324.654111 396.845998 
L 326.676487 387.010991 
L 328.698863 378.21897 
L 330.72124 370.586819 
L 332.743616 364.159164 
L 334.765992 358.908475 
L 336.788368 354.745573 
L 337.799556 353.031931 
L 338.810744 351.538909 
L 339.821932 350.247522 
L 340.833121 349.139333 
L 342.855497 347.40608 
L 344.877873 346.229505 
L 345.889061 345.828269 
L 346.900249 345.546788 
L 347.911437 345.385568 
L 348.922625 345.348287 
L 349.933813 345.441465 
L 350.945001 345.674014 
L 351.95619 346.056694 
L 352.967378 346.601499 
L 353.978566 347.321003 
L 354.989754 348.227693 
L 356.000942 349.333308 
L 357.01213 350.648226 
L 358.023318 352.180891 
L 359.034506 353.937317 
L 361.056882 358.130935 
L 363.079259 363.21488 
L 365.101635 369.118385 
L 367.124011 375.713123 
L 370.157575 386.490333 
L 375.213516 404.754468 
L 377.235892 411.361231 
L 379.258268 417.169626 
L 381.280644 421.963867 
L 382.291832 423.930544 
L 383.303021 425.59351 
L 384.314209 426.947434 
L 385.325397 427.993313 
L 386.336585 428.738791 
L 387.347773 429.198357 
L 388.358961 429.393387 
L 389.370149 429.35204 
L 390.381337 429.108986 
L 392.403713 428.186187 
L 395.437278 426.468376 
L 396.448466 426.032348 
L 397.459654 425.763177 
L 398.470842 425.719421 
L 399.48203 425.957442 
L 400.493218 426.530127 
L 401.504406 427.48566 
L 402.515594 428.866378 
L 403.526783 430.707756 
L 404.537971 433.037538 
L 405.549159 435.875045 
L 406.560347 439.230691 
L 407.571535 443.105706 
L 409.593911 452.372793 
L 411.616287 463.50626 
L 413.638663 476.20879 
L 416.672228 497.317696 
L 423.750544 547.964754 
L 425.772921 560.872119 
L 427.795297 572.525385 
L 429.817673 582.77149 
L 431.840049 591.550879 
L 433.862425 598.885775 
L 435.884802 604.863391 
L 437.907178 609.616835 
L 438.918366 611.583938 
L 439.929554 613.306157 
L 440.940742 614.804935 
L 441.95193 616.101465 
L 443.974306 618.16935 
L 445.996683 619.66314 
L 448.019059 620.716944 
L 450.041435 621.442998 
L 452.063811 621.931582 
L 455.097375 622.367496 
L 455.097375 622.367496 
" style="fill:none;stroke:#dd8452;stroke-linecap:round;stroke-width:5;"/>
   </g>
   <g id="line2d_39">
    <path clip-path="url(#p9be24c2cd4)" d="M 275.030959 622.697615 
L 282.706922 622.460688 
L 287.82423 622.076113 
L 291.662211 621.581221 
L 295.500192 620.836563 
L 298.058846 620.165622 
L 300.6175 619.328351 
L 303.176155 618.29983 
L 305.734809 617.051924 
L 308.293463 615.551304 
L 310.852117 613.757205 
L 313.410771 611.619565 
L 315.969425 609.078357 
L 318.528079 606.065012 
L 321.086733 602.506568 
L 323.645387 598.332765 
L 326.204041 593.485665 
L 328.762696 587.930634 
L 331.32135 581.66701 
L 333.880004 574.736432 
L 336.438658 567.226972 
L 340.276639 555.179275 
L 347.952601 530.571431 
L 350.511255 522.944499 
L 353.06991 515.890033 
L 355.628564 509.52383 
L 358.187218 503.91525 
L 360.745872 499.086634 
L 363.304526 495.016424 
L 365.86318 491.644475 
L 368.421834 488.878053 
L 370.980488 486.597508 
L 373.539142 484.661361 
L 381.215105 479.287221 
L 383.773759 477.07245 
L 386.332413 474.382827 
L 388.891067 471.09676 
L 391.449721 467.132128 
L 394.008375 462.453637 
L 396.567029 457.075449 
L 399.125683 451.05856 
L 401.684338 444.503522 
L 405.522319 433.950998 
L 415.756935 405.203761 
L 418.315589 398.67922 
L 420.874243 392.67793 
L 423.432898 387.299992 
L 425.991552 382.620597 
L 428.550206 378.684581 
L 429.829533 377.000238 
L 431.10886 375.5035 
L 432.388187 374.190961 
L 433.667514 373.057777 
L 434.946841 372.098134 
L 436.226168 371.30582 
L 437.505495 370.674898 
L 438.784822 370.20044 
L 440.064149 369.879289 
L 441.343476 369.710821 
L 442.622803 369.697639 
L 443.90213 369.846175 
L 445.181457 370.167137 
L 446.460784 370.675773 
L 447.740112 371.391911 
L 449.019439 372.339758 
L 450.298766 373.547439 
L 451.578093 375.046289 
L 452.85742 376.869906 
L 454.136747 379.052998 
L 455.416074 381.63007 
L 456.695401 384.634001 
L 457.974728 388.094568 
L 459.254055 392.036996 
L 460.533382 396.480592 
L 461.812709 401.437524 
L 463.092036 406.911814 
L 465.65069 419.383648 
L 468.209344 433.744525 
L 470.767998 449.696944 
L 474.60598 475.660321 
L 481.002615 519.947972 
L 483.561269 536.494492 
L 486.119923 551.737174 
L 488.678577 565.39844 
L 491.237231 577.320689 
L 493.795885 587.459695 
L 495.075212 591.873705 
L 496.35454 595.86795 
L 497.633867 599.460367 
L 498.913194 602.671958 
L 500.192521 605.526027 
L 501.471848 608.047453 
L 502.751175 610.262034 
L 504.030502 612.195885 
L 505.309829 613.87493 
L 506.589156 615.324463 
L 507.868483 616.568801 
L 509.14781 617.631003 
L 510.427137 618.532672 
L 512.985791 619.932793 
L 515.544445 620.909134 
L 518.103099 621.575099 
L 520.661754 622.019437 
L 524.499735 622.412554 
L 529.617043 622.649603 
L 529.617043 622.649603 
" style="fill:none;stroke:#55a868;stroke-linecap:round;stroke-width:5;"/>
   </g>
   <g id="line2d_40">
    <path clip-path="url(#p9be24c2cd4)" d="M 357.509314 622.684677 
L 363.875401 622.424336 
L 368.119459 622.013176 
L 371.302502 621.493229 
L 374.485546 620.722191 
L 377.668589 619.633235 
L 379.790618 618.69657 
L 381.912647 617.565606 
L 384.034676 616.214513 
L 386.156705 614.611135 
L 388.278734 612.713694 
L 390.400763 610.467619 
L 392.522792 607.803304 
L 394.644821 604.635691 
L 396.76685 600.866385 
L 398.888879 596.388646 
L 401.010908 591.095053 
L 403.132937 584.887051 
L 405.254966 577.685096 
L 407.376995 569.437894 
L 409.499024 560.129309 
L 411.621053 549.781939 
L 413.743082 538.457037 
L 416.926125 519.856438 
L 420.109169 499.72573 
L 425.414241 464.297383 
L 430.719314 429.102753 
L 433.902357 409.457318 
L 436.024386 397.434316 
L 438.146415 386.526121 
L 440.268444 376.935417 
L 442.390473 368.835657 
L 443.451488 365.387447 
L 444.512502 362.356269 
L 445.573517 359.749106 
L 446.634531 357.568579 
L 447.695546 355.812715 
L 448.75656 354.474815 
L 449.817575 353.543442 
L 450.878589 353.002536 
L 451.939604 352.831659 
L 453.000618 353.006382 
L 454.061633 353.498787 
L 455.122647 354.278107 
L 456.183662 355.311448 
L 457.244676 356.56461 
L 459.366705 359.592241 
L 461.488734 363.094324 
L 481.648009 398.5089 
L 485.892067 406.077412 
L 488.014096 409.380058 
L 489.075111 410.810487 
L 490.136125 412.054217 
L 491.19714 413.083699 
L 492.258154 413.874448 
L 493.319169 414.406216 
L 494.380183 414.664085 
L 495.441198 414.639454 
L 496.502212 414.330877 
L 497.563227 413.744733 
L 498.624241 412.895689 
L 499.685256 411.806954 
L 501.807285 409.045788 
L 507.112357 401.113333 
L 508.173372 399.862036 
L 509.234386 398.888969 
L 510.295401 398.265876 
L 511.356415 398.061601 
L 512.41743 398.340336 
L 513.478444 399.159941 
L 514.539459 400.570366 
L 515.600473 402.61225 
L 516.661488 405.315731 
L 517.722502 408.699511 
L 518.783517 412.770217 
L 519.844531 417.522077 
L 520.905546 422.936932 
L 523.027575 435.62344 
L 525.149604 450.457795 
L 527.271633 466.923579 
L 531.515691 502.265215 
L 534.698734 528.381923 
L 536.820763 544.567449 
L 538.942792 559.298544 
L 541.064821 572.319146 
L 543.18685 583.506759 
L 545.308879 592.85845 
L 547.430908 600.468005 
L 548.491923 603.668548 
L 549.552937 606.498653 
L 550.613952 608.985028 
L 551.674966 611.155399 
L 552.735981 613.037837 
L 553.796995 614.660177 
L 554.85801 616.049524 
L 555.919024 617.231855 
L 556.980039 618.231712 
L 559.102067 619.773729 
L 561.224096 620.836572 
L 563.346125 621.55121 
L 565.468154 622.020002 
L 568.651198 622.425007 
L 568.651198 622.425007 
" style="fill:none;stroke:#c44e52;stroke-linecap:round;stroke-width:5;"/>
   </g>
   <g id="line2d_41">
    <path clip-path="url(#p9be24c2cd4)" d="M 441.973985 622.670193 
L 448.214751 622.394804 
L 451.959211 622.027566 
L 455.70367 621.404436 
L 458.199977 620.798562 
L 460.696283 620.009861 
L 463.19259 619.021171 
L 465.688896 617.829278 
L 469.433356 615.700871 
L 475.674122 611.675539 
L 479.418581 609.415965 
L 481.914888 608.160293 
L 484.411194 607.187604 
L 486.907501 606.535893 
L 489.403807 606.205603 
L 491.900113 606.157773 
L 495.644573 606.445894 
L 500.637186 606.942869 
L 503.133492 606.985009 
L 505.629799 606.754468 
L 508.126105 606.169229 
L 510.622412 605.161462 
L 511.870565 604.480439 
L 513.118718 603.671755 
L 514.366871 602.728074 
L 515.615024 601.641689 
L 516.863178 600.404384 
L 518.111331 599.007362 
L 519.359484 597.441245 
L 521.85579 593.7619 
L 524.352097 589.284883 
L 526.848403 583.932468 
L 529.34471 577.642133 
L 531.841016 570.378812 
L 534.337322 562.145538 
L 536.833629 552.990512 
L 539.329935 543.009504 
L 543.074395 526.808711 
L 549.315161 498.1825 
L 553.059621 481.315307 
L 555.555927 470.711055 
L 558.052233 460.893086 
L 560.54854 452.067975 
L 563.044846 444.398955 
L 564.292999 441.032397 
L 565.541153 437.986596 
L 566.789306 435.261165 
L 568.037459 432.849574 
L 569.285612 430.738825 
L 570.533766 428.909291 
L 571.781919 427.334738 
L 573.030072 425.982547 
L 575.526378 423.785693 
L 580.518991 420.060496 
L 581.767144 418.956515 
L 583.015298 417.675956 
L 584.263451 416.169115 
L 585.511604 414.390759 
L 586.759757 412.30138 
L 588.00791 409.868346 
L 589.256064 407.066921 
L 590.504217 403.881143 
L 591.75237 400.304543 
L 593.000523 396.340677 
L 595.49683 387.317428 
L 597.993136 377.048418 
L 601.737596 360.21522 
L 605.482055 343.374577 
L 607.978362 333.231546 
L 609.226515 328.729176 
L 610.474668 324.704221 
L 611.722821 321.22046 
L 612.970975 318.331847 
L 614.219128 316.08124 
L 615.467281 314.4996 
L 616.715434 313.605718 
L 617.963587 313.406502 
L 619.211741 313.897798 
L 620.459894 315.065721 
L 621.708047 316.888389 
L 622.9562 319.337969 
L 624.204353 322.382878 
L 625.452507 325.990009 
L 626.70066 330.126814 
L 627.948813 334.7631 
L 630.44512 345.432979 
L 632.941426 357.845202 
L 635.437732 371.916754 
L 637.934039 387.604797 
L 640.430345 404.853117 
L 642.926652 423.533188 
L 646.671111 453.659894 
L 654.16003 515.713843 
L 656.656337 534.817438 
L 659.152643 552.238766 
L 661.64895 567.614559 
L 664.145256 580.743922 
L 665.393409 586.448568 
L 666.641563 591.589465 
L 667.889716 596.18405 
L 669.137869 600.256512 
L 670.386022 603.836476 
L 671.634175 606.957663 
L 672.882329 609.656579 
L 674.130482 611.971292 
L 675.378635 613.940323 
L 676.626788 615.601692 
L 677.874941 616.992115 
L 679.123095 618.146378 
L 680.371248 619.09687 
L 681.619401 619.873274 
L 684.115707 621.008081 
L 686.612014 621.730297 
L 689.10832 622.1755 
L 690.356473 622.326021 
L 690.356473 622.326021 
" style="fill:none;stroke:#8172b3;stroke-linecap:round;stroke-width:5;"/>
   </g>
   <g id="patch_5">
    <path d="M 111.4875 622.777109 
L 111.4875 133.537109 
" style="fill:none;stroke:#ffffff;stroke-linecap:square;stroke-linejoin:miter;stroke-width:1.25;"/>
   </g>
   <g id="patch_6">
    <path d="M 781.0875 622.777109 
L 781.0875 133.537109 
" style="fill:none;stroke:#ffffff;stroke-linecap:square;stroke-linejoin:miter;stroke-width:1.25;"/>
   </g>
   <g id="patch_7">
    <path d="M 111.4875 622.777109 
L 781.0875 622.777109 
" style="fill:none;stroke:#ffffff;stroke-linecap:square;stroke-linejoin:miter;stroke-width:1.25;"/>
   </g>
   <g id="patch_8">
    <path d="M 111.4875 133.537109 
L 781.0875 133.537109 
" style="fill:none;stroke:#ffffff;stroke-linecap:square;stroke-linejoin:miter;stroke-width:1.25;"/>
   </g>
   <g id="text_29">
    <!-- Growth rate distribution for different lockdown relaxation scenarios -->
    <g style="fill:#262626;" transform="translate(7.2 28.673437)scale(0.3 -0.3)">
     <defs>
      <path d="M 40.234375 0 
L 40.234375 6.546875 
Q 35.296875 -1.171875 25.734375 -1.171875 
Q 19.53125 -1.171875 14.328125 2.25 
Q 9.125 5.671875 6.265625 11.796875 
Q 3.421875 17.921875 3.421875 25.875 
Q 3.421875 33.640625 6 39.96875 
Q 8.59375 46.296875 13.765625 49.65625 
Q 18.953125 53.03125 25.34375 53.03125 
Q 30.03125 53.03125 33.6875 51.046875 
Q 37.359375 49.078125 39.65625 45.90625 
L 39.65625 71.578125 
L 48.390625 71.578125 
L 48.390625 0 
z
M 12.453125 25.875 
Q 12.453125 15.921875 16.640625 10.984375 
Q 20.84375 6.0625 26.5625 6.0625 
Q 32.328125 6.0625 36.34375 10.765625 
Q 40.375 15.484375 40.375 25.140625 
Q 40.375 35.796875 36.265625 40.765625 
Q 32.171875 45.75 26.171875 45.75 
Q 20.3125 45.75 16.375 40.96875 
Q 12.453125 36.1875 12.453125 25.875 
z
" id="ArialMT-100"/>
      <path d="M 14.703125 0 
L 6.546875 0 
L 6.546875 71.578125 
L 15.328125 71.578125 
L 15.328125 46.046875 
Q 20.90625 53.03125 29.546875 53.03125 
Q 34.328125 53.03125 38.59375 51.09375 
Q 42.875 49.171875 45.625 45.671875 
Q 48.390625 42.1875 49.953125 37.25 
Q 51.515625 32.328125 51.515625 26.703125 
Q 51.515625 13.375 44.921875 6.09375 
Q 38.328125 -1.171875 29.109375 -1.171875 
Q 19.921875 -1.171875 14.703125 6.5 
z
M 14.59375 26.3125 
Q 14.59375 17 17.140625 12.84375 
Q 21.296875 6.0625 28.375 6.0625 
Q 34.125 6.0625 38.328125 11.0625 
Q 42.53125 16.0625 42.53125 25.984375 
Q 42.53125 36.140625 38.5 40.96875 
Q 34.46875 45.796875 28.765625 45.796875 
Q 23 45.796875 18.796875 40.796875 
Q 14.59375 35.796875 14.59375 26.3125 
z
" id="ArialMT-98"/>
      <path d="M 40.578125 0 
L 40.578125 7.625 
Q 34.515625 -1.171875 24.125 -1.171875 
Q 19.53125 -1.171875 15.546875 0.578125 
Q 11.578125 2.34375 9.640625 5 
Q 7.71875 7.671875 6.9375 11.53125 
Q 6.390625 14.109375 6.390625 19.734375 
L 6.390625 51.859375 
L 15.1875 51.859375 
L 15.1875 23.09375 
Q 15.1875 16.21875 15.71875 13.8125 
Q 16.546875 10.359375 19.234375 8.375 
Q 21.921875 6.390625 25.875 6.390625 
Q 29.828125 6.390625 33.296875 8.421875 
Q 36.765625 10.453125 38.203125 13.9375 
Q 39.65625 17.4375 39.65625 24.078125 
L 39.65625 51.859375 
L 48.4375 51.859375 
L 48.4375 0 
z
" id="ArialMT-117"/>
      <path d="M 8.6875 0 
L 8.6875 45.015625 
L 0.921875 45.015625 
L 0.921875 51.859375 
L 8.6875 51.859375 
L 8.6875 57.375 
Q 8.6875 62.59375 9.625 65.140625 
Q 10.890625 68.5625 14.078125 70.671875 
Q 17.28125 72.796875 23.046875 72.796875 
Q 26.765625 72.796875 31.25 71.921875 
L 29.9375 64.265625 
Q 27.203125 64.75 24.75 64.75 
Q 20.75 64.75 19.09375 63.03125 
Q 17.4375 61.328125 17.4375 56.640625 
L 17.4375 51.859375 
L 27.546875 51.859375 
L 27.546875 45.015625 
L 17.4375 45.015625 
L 17.4375 0 
z
" id="ArialMT-102"/>
      <path d="M 6.390625 0 
L 6.390625 71.578125 
L 15.1875 71.578125 
L 15.1875 0 
z
" id="ArialMT-108"/>
      <path d="M 40.4375 19 
L 49.078125 17.875 
Q 47.65625 8.9375 41.8125 3.875 
Q 35.984375 -1.171875 27.484375 -1.171875 
Q 16.84375 -1.171875 10.375 5.78125 
Q 3.90625 12.75 3.90625 25.734375 
Q 3.90625 34.125 6.6875 40.421875 
Q 9.46875 46.734375 15.15625 49.875 
Q 20.84375 53.03125 27.546875 53.03125 
Q 35.984375 53.03125 41.359375 48.75 
Q 46.734375 44.484375 48.25 36.625 
L 39.703125 35.296875 
Q 38.484375 40.53125 35.375 43.15625 
Q 32.28125 45.796875 27.875 45.796875 
Q 21.234375 45.796875 17.078125 41.03125 
Q 12.9375 36.28125 12.9375 25.984375 
Q 12.9375 15.53125 16.9375 10.796875 
Q 20.953125 6.0625 27.390625 6.0625 
Q 32.5625 6.0625 36.03125 9.234375 
Q 39.5 12.40625 40.4375 19 
z
" id="ArialMT-99"/>
      <path d="M 6.640625 0 
L 6.640625 71.578125 
L 15.4375 71.578125 
L 15.4375 30.765625 
L 36.234375 51.859375 
L 47.609375 51.859375 
L 27.78125 32.625 
L 49.609375 0 
L 38.765625 0 
L 21.625 26.515625 
L 15.4375 20.5625 
L 15.4375 0 
z
" id="ArialMT-107"/>
      <path d="M 0.734375 0 
L 19.671875 26.953125 
L 2.15625 51.859375 
L 13.140625 51.859375 
L 21.09375 39.703125 
Q 23.34375 36.234375 24.703125 33.890625 
Q 26.859375 37.109375 28.65625 39.59375 
L 37.40625 51.859375 
L 47.90625 51.859375 
L 29.984375 27.4375 
L 49.265625 0 
L 38.484375 0 
L 27.828125 16.109375 
L 25 20.453125 
L 11.375 0 
z
" id="ArialMT-120"/>
     </defs>
     <use xlink:href="#ArialMT-71"/>
     <use x="77.783203" xlink:href="#ArialMT-114"/>
     <use x="111.083984" xlink:href="#ArialMT-111"/>
     <use x="166.699219" xlink:href="#ArialMT-119"/>
     <use x="238.916016" xlink:href="#ArialMT-116"/>
     <use x="266.699219" xlink:href="#ArialMT-104"/>
     <use x="322.314453" xlink:href="#ArialMT-32"/>
     <use x="350.097656" xlink:href="#ArialMT-114"/>
     <use x="383.398438" xlink:href="#ArialMT-97"/>
     <use x="439.013672" xlink:href="#ArialMT-116"/>
     <use x="466.796875" xlink:href="#ArialMT-101"/>
     <use x="522.412109" xlink:href="#ArialMT-32"/>
     <use x="550.195312" xlink:href="#ArialMT-100"/>
     <use x="605.810547" xlink:href="#ArialMT-105"/>
     <use x="628.027344" xlink:href="#ArialMT-115"/>
     <use x="678.027344" xlink:href="#ArialMT-116"/>
     <use x="705.810547" xlink:href="#ArialMT-114"/>
     <use x="739.111328" xlink:href="#ArialMT-105"/>
     <use x="761.328125" xlink:href="#ArialMT-98"/>
     <use x="816.943359" xlink:href="#ArialMT-117"/>
     <use x="872.558594" xlink:href="#ArialMT-116"/>
     <use x="900.341797" xlink:href="#ArialMT-105"/>
     <use x="922.558594" xlink:href="#ArialMT-111"/>
     <use x="978.173828" xlink:href="#ArialMT-110"/>
     <use x="1033.789062" xlink:href="#ArialMT-32"/>
     <use x="1061.572266" xlink:href="#ArialMT-102"/>
     <use x="1089.355469" xlink:href="#ArialMT-111"/>
     <use x="1144.970703" xlink:href="#ArialMT-114"/>
     <use x="1178.271484" xlink:href="#ArialMT-32"/>
     <use x="1206.054688" xlink:href="#ArialMT-100"/>
     <use x="1261.669922" xlink:href="#ArialMT-105"/>
     <use x="1283.886719" xlink:href="#ArialMT-102"/>
     <use x="1309.919922" xlink:href="#ArialMT-102"/>
     <use x="1337.703125" xlink:href="#ArialMT-101"/>
     <use x="1393.318359" xlink:href="#ArialMT-114"/>
     <use x="1426.619141" xlink:href="#ArialMT-101"/>
     <use x="1482.234375" xlink:href="#ArialMT-110"/>
     <use x="1537.849609" xlink:href="#ArialMT-116"/>
     <use x="1565.632812" xlink:href="#ArialMT-32"/>
     <use x="1593.416016" xlink:href="#ArialMT-108"/>
     <use x="1615.632812" xlink:href="#ArialMT-111"/>
     <use x="1671.248047" xlink:href="#ArialMT-99"/>
     <use x="1721.248047" xlink:href="#ArialMT-107"/>
     <use x="1771.248047" xlink:href="#ArialMT-100"/>
     <use x="1826.863281" xlink:href="#ArialMT-111"/>
     <use x="1882.478516" xlink:href="#ArialMT-119"/>
     <use x="1954.695312" xlink:href="#ArialMT-110"/>
     <use x="2010.310547" xlink:href="#ArialMT-32"/>
     <use x="2038.09375" xlink:href="#ArialMT-114"/>
     <use x="2071.394531" xlink:href="#ArialMT-101"/>
     <use x="2127.009766" xlink:href="#ArialMT-108"/>
     <use x="2149.226562" xlink:href="#ArialMT-97"/>
     <use x="2204.841797" xlink:href="#ArialMT-120"/>
     <use x="2254.841797" xlink:href="#ArialMT-97"/>
     <use x="2310.457031" xlink:href="#ArialMT-116"/>
     <use x="2338.240234" xlink:href="#ArialMT-105"/>
     <use x="2360.457031" xlink:href="#ArialMT-111"/>
     <use x="2416.072266" xlink:href="#ArialMT-110"/>
     <use x="2471.6875" xlink:href="#ArialMT-32"/>
     <use x="2499.470703" xlink:href="#ArialMT-115"/>
     <use x="2549.470703" xlink:href="#ArialMT-99"/>
     <use x="2599.470703" xlink:href="#ArialMT-101"/>
     <use x="2655.085938" xlink:href="#ArialMT-110"/>
     <use x="2710.701172" xlink:href="#ArialMT-97"/>
     <use x="2766.316406" xlink:href="#ArialMT-114"/>
     <use x="2799.617188" xlink:href="#ArialMT-105"/>
     <use x="2821.833984" xlink:href="#ArialMT-111"/>
     <use x="2877.449219" xlink:href="#ArialMT-115"/>
    </g>
    <!--  -->
    <g style="fill:#262626;" transform="translate(446.2875 60.404062)scale(0.3 -0.3)"/>
    <!-- Halving / doubling time (days) -->
    <g style="fill:#262626;" transform="translate(248.707031 92.573437)scale(0.3 -0.3)">
     <defs>
      <path d="M 8.015625 0 
L 8.015625 71.578125 
L 17.484375 71.578125 
L 17.484375 42.1875 
L 54.6875 42.1875 
L 54.6875 71.578125 
L 64.15625 71.578125 
L 64.15625 0 
L 54.6875 0 
L 54.6875 33.734375 
L 17.484375 33.734375 
L 17.484375 0 
z
" id="ArialMT-72"/>
      <path d="M 21 0 
L 1.265625 51.859375 
L 10.546875 51.859375 
L 21.6875 20.796875 
Q 23.484375 15.765625 25 10.359375 
Q 26.171875 14.453125 28.265625 20.21875 
L 39.796875 51.859375 
L 48.828125 51.859375 
L 29.203125 0 
z
" id="ArialMT-118"/>
      <path d="M 4.984375 -4.296875 
L 13.53125 -5.5625 
Q 14.0625 -9.515625 16.5 -11.328125 
Q 19.78125 -13.765625 25.4375 -13.765625 
Q 31.546875 -13.765625 34.859375 -11.328125 
Q 38.1875 -8.890625 39.359375 -4.5 
Q 40.046875 -1.8125 39.984375 6.78125 
Q 34.234375 0 25.640625 0 
Q 14.9375 0 9.078125 7.71875 
Q 3.21875 15.4375 3.21875 26.21875 
Q 3.21875 33.640625 5.90625 39.90625 
Q 8.59375 46.1875 13.6875 49.609375 
Q 18.796875 53.03125 25.6875 53.03125 
Q 34.859375 53.03125 40.828125 45.609375 
L 40.828125 51.859375 
L 48.921875 51.859375 
L 48.921875 7.03125 
Q 48.921875 -5.078125 46.453125 -10.125 
Q 44 -15.1875 38.640625 -18.109375 
Q 33.296875 -21.046875 25.484375 -21.046875 
Q 16.21875 -21.046875 10.5 -16.875 
Q 4.78125 -12.703125 4.984375 -4.296875 
z
M 12.25 26.859375 
Q 12.25 16.65625 16.296875 11.96875 
Q 20.359375 7.28125 26.46875 7.28125 
Q 32.515625 7.28125 36.609375 11.9375 
Q 40.71875 16.609375 40.71875 26.5625 
Q 40.71875 36.078125 36.5 40.90625 
Q 32.28125 45.75 26.3125 45.75 
Q 20.453125 45.75 16.34375 40.984375 
Q 12.25 36.234375 12.25 26.859375 
z
" id="ArialMT-103"/>
      <path d="M 0 -1.21875 
L 20.75 72.796875 
L 27.78125 72.796875 
L 7.078125 -1.21875 
z
" id="ArialMT-47"/>
      <path d="M 6.59375 0 
L 6.59375 51.859375 
L 14.453125 51.859375 
L 14.453125 44.578125 
Q 16.890625 48.390625 20.9375 50.703125 
Q 25 53.03125 30.171875 53.03125 
Q 35.9375 53.03125 39.625 50.640625 
Q 43.3125 48.25 44.828125 43.953125 
Q 50.984375 53.03125 60.84375 53.03125 
Q 68.5625 53.03125 72.703125 48.75 
Q 76.859375 44.484375 76.859375 35.59375 
L 76.859375 0 
L 68.109375 0 
L 68.109375 32.671875 
Q 68.109375 37.9375 67.25 40.25 
Q 66.40625 42.578125 64.15625 43.984375 
Q 61.921875 45.40625 58.890625 45.40625 
Q 53.421875 45.40625 49.796875 41.765625 
Q 46.1875 38.140625 46.1875 30.125 
L 46.1875 0 
L 37.40625 0 
L 37.40625 33.6875 
Q 37.40625 39.546875 35.25 42.46875 
Q 33.109375 45.40625 28.21875 45.40625 
Q 24.515625 45.40625 21.359375 43.453125 
Q 18.21875 41.5 16.796875 37.734375 
Q 15.375 33.984375 15.375 26.90625 
L 15.375 0 
z
" id="ArialMT-109"/>
      <path d="M 23.390625 -21.046875 
Q 16.109375 -11.859375 11.078125 0.4375 
Q 6.0625 12.75 6.0625 25.921875 
Q 6.0625 37.546875 9.8125 48.1875 
Q 14.203125 60.546875 23.390625 72.796875 
L 29.6875 72.796875 
Q 23.78125 62.640625 21.875 58.296875 
Q 18.890625 51.5625 17.1875 44.234375 
Q 15.09375 35.109375 15.09375 25.875 
Q 15.09375 2.390625 29.6875 -21.046875 
z
" id="ArialMT-40"/>
      <path d="M 12.359375 -21.046875 
L 6.0625 -21.046875 
Q 20.65625 2.390625 20.65625 25.875 
Q 20.65625 35.0625 18.5625 44.09375 
Q 16.890625 51.421875 13.921875 58.15625 
Q 12.015625 62.546875 6.0625 72.796875 
L 12.359375 72.796875 
Q 21.53125 60.546875 25.921875 48.1875 
Q 29.6875 37.546875 29.6875 25.921875 
Q 29.6875 12.75 24.625 0.4375 
Q 19.578125 -11.859375 12.359375 -21.046875 
z
" id="ArialMT-41"/>
     </defs>
     <use xlink:href="#ArialMT-72"/>
     <use x="72.216797" xlink:href="#ArialMT-97"/>
     <use x="127.832031" xlink:href="#ArialMT-108"/>
     <use x="150.048828" xlink:href="#ArialMT-118"/>
     <use x="200.048828" xlink:href="#ArialMT-105"/>
     <use x="222.265625" xlink:href="#ArialMT-110"/>
     <use x="277.880859" xlink:href="#ArialMT-103"/>
     <use x="333.496094" xlink:href="#ArialMT-32"/>
     <use x="361.279297" xlink:href="#ArialMT-47"/>
     <use x="389.0625" xlink:href="#ArialMT-32"/>
     <use x="416.845703" xlink:href="#ArialMT-100"/>
     <use x="472.460938" xlink:href="#ArialMT-111"/>
     <use x="528.076172" xlink:href="#ArialMT-117"/>
     <use x="583.691406" xlink:href="#ArialMT-98"/>
     <use x="639.306641" xlink:href="#ArialMT-108"/>
     <use x="661.523438" xlink:href="#ArialMT-105"/>
     <use x="683.740234" xlink:href="#ArialMT-110"/>
     <use x="739.355469" xlink:href="#ArialMT-103"/>
     <use x="794.970703" xlink:href="#ArialMT-32"/>
     <use x="822.753906" xlink:href="#ArialMT-116"/>
     <use x="850.537109" xlink:href="#ArialMT-105"/>
     <use x="872.753906" xlink:href="#ArialMT-109"/>
     <use x="956.054688" xlink:href="#ArialMT-101"/>
     <use x="1011.669922" xlink:href="#ArialMT-32"/>
     <use x="1039.453125" xlink:href="#ArialMT-40"/>
     <use x="1072.753906" xlink:href="#ArialMT-100"/>
     <use x="1128.369141" xlink:href="#ArialMT-97"/>
     <use x="1183.984375" xlink:href="#ArialMT-121"/>
     <use x="1233.984375" xlink:href="#ArialMT-115"/>
     <use x="1283.984375" xlink:href="#ArialMT-41"/>
    </g>
   </g>
   <g id="legend_1">
    <g id="patch_9">
     <path d="M 130.7375 350.035156 
L 354.767969 350.035156 
Q 360.267969 350.035156 360.267969 344.535156 
L 360.267969 152.787109 
Q 360.267969 147.287109 354.767969 147.287109 
L 130.7375 147.287109 
Q 125.2375 147.287109 125.2375 152.787109 
L 125.2375 344.535156 
Q 125.2375 350.035156 130.7375 350.035156 
z
" style="fill:#eaeaf2;opacity:0.8;stroke:#cccccc;stroke-linejoin:miter;"/>
    </g>
    <g id="line2d_42">
     <path d="M 136.2375 168.346094 
L 191.2375 168.346094 
" style="fill:none;stroke:#4c72b0;stroke-linecap:round;stroke-width:4;"/>
    </g>
    <g id="line2d_43"/>
    <g id="text_30">
     <!-- Scenario A -->
     <g style="fill:#262626;" transform="translate(213.2375 177.971094)scale(0.275 -0.275)">
      <defs>
       <path d="M 4.5 23 
L 13.421875 23.78125 
Q 14.0625 18.40625 16.375 14.96875 
Q 18.703125 11.53125 23.578125 9.40625 
Q 28.46875 7.28125 34.578125 7.28125 
Q 39.984375 7.28125 44.140625 8.890625 
Q 48.296875 10.5 50.3125 13.296875 
Q 52.34375 16.109375 52.34375 19.4375 
Q 52.34375 22.796875 50.390625 25.3125 
Q 48.4375 27.828125 43.953125 29.546875 
Q 41.0625 30.671875 31.203125 33.03125 
Q 21.34375 35.40625 17.390625 37.5 
Q 12.25 40.1875 9.734375 44.15625 
Q 7.234375 48.140625 7.234375 53.078125 
Q 7.234375 58.5 10.296875 63.203125 
Q 13.375 67.921875 19.28125 70.359375 
Q 25.203125 72.796875 32.421875 72.796875 
Q 40.375 72.796875 46.453125 70.234375 
Q 52.546875 67.671875 55.8125 62.6875 
Q 59.078125 57.71875 59.328125 51.421875 
L 50.25 50.734375 
Q 49.515625 57.515625 45.28125 60.984375 
Q 41.0625 64.453125 32.8125 64.453125 
Q 24.21875 64.453125 20.28125 61.296875 
Q 16.359375 58.15625 16.359375 53.71875 
Q 16.359375 49.859375 19.140625 47.359375 
Q 21.875 44.875 33.421875 42.265625 
Q 44.96875 39.65625 49.265625 37.703125 
Q 55.515625 34.8125 58.484375 30.390625 
Q 61.46875 25.984375 61.46875 20.21875 
Q 61.46875 14.5 58.203125 9.4375 
Q 54.9375 4.390625 48.796875 1.578125 
Q 42.671875 -1.21875 35.015625 -1.21875 
Q 25.296875 -1.21875 18.71875 1.609375 
Q 12.15625 4.4375 8.421875 10.125 
Q 4.6875 15.828125 4.5 23 
z
" id="ArialMT-83"/>
       <path d="M -0.140625 0 
L 27.34375 71.578125 
L 37.546875 71.578125 
L 66.84375 0 
L 56.0625 0 
L 47.703125 21.6875 
L 17.78125 21.6875 
L 9.90625 0 
z
M 20.515625 29.390625 
L 44.78125 29.390625 
L 37.3125 49.21875 
Q 33.890625 58.25 32.234375 64.0625 
Q 30.859375 57.171875 28.375 50.390625 
z
" id="ArialMT-65"/>
      </defs>
      <use xlink:href="#ArialMT-83"/>
      <use x="66.699219" xlink:href="#ArialMT-99"/>
      <use x="116.699219" xlink:href="#ArialMT-101"/>
      <use x="172.314453" xlink:href="#ArialMT-110"/>
      <use x="227.929688" xlink:href="#ArialMT-97"/>
      <use x="283.544922" xlink:href="#ArialMT-114"/>
      <use x="316.845703" xlink:href="#ArialMT-105"/>
      <use x="339.0625" xlink:href="#ArialMT-111"/>
      <use x="394.677734" xlink:href="#ArialMT-32"/>
      <use x="416.960938" xlink:href="#ArialMT-65"/>
     </g>
    </g>
    <g id="line2d_44">
     <path d="M 136.2375 207.245703 
L 191.2375 207.245703 
" style="fill:none;stroke:#dd8452;stroke-linecap:round;stroke-width:4;"/>
    </g>
    <g id="line2d_45"/>
    <g id="text_31">
     <!-- Scenario B -->
     <g style="fill:#262626;" transform="translate(213.2375 216.870703)scale(0.275 -0.275)">
      <defs>
       <path d="M 7.328125 0 
L 7.328125 71.578125 
L 34.1875 71.578125 
Q 42.390625 71.578125 47.34375 69.40625 
Q 52.296875 67.234375 55.09375 62.71875 
Q 57.90625 58.203125 57.90625 53.265625 
Q 57.90625 48.6875 55.421875 44.625 
Q 52.9375 40.578125 47.90625 38.09375 
Q 54.390625 36.1875 57.875 31.59375 
Q 61.375 27 61.375 20.75 
Q 61.375 15.71875 59.25 11.390625 
Q 57.125 7.078125 54 4.734375 
Q 50.875 2.390625 46.15625 1.1875 
Q 41.453125 0 34.625 0 
z
M 16.796875 41.5 
L 32.28125 41.5 
Q 38.578125 41.5 41.3125 42.328125 
Q 44.921875 43.40625 46.75 45.890625 
Q 48.578125 48.390625 48.578125 52.15625 
Q 48.578125 55.71875 46.875 58.421875 
Q 45.171875 61.140625 41.984375 62.140625 
Q 38.8125 63.140625 31.109375 63.140625 
L 16.796875 63.140625 
z
M 16.796875 8.453125 
L 34.625 8.453125 
Q 39.203125 8.453125 41.0625 8.796875 
Q 44.34375 9.375 46.53125 10.734375 
Q 48.734375 12.109375 50.140625 14.71875 
Q 51.5625 17.328125 51.5625 20.75 
Q 51.5625 24.75 49.515625 27.703125 
Q 47.46875 30.671875 43.828125 31.859375 
Q 40.1875 33.0625 33.34375 33.0625 
L 16.796875 33.0625 
z
" id="ArialMT-66"/>
      </defs>
      <use xlink:href="#ArialMT-83"/>
      <use x="66.699219" xlink:href="#ArialMT-99"/>
      <use x="116.699219" xlink:href="#ArialMT-101"/>
      <use x="172.314453" xlink:href="#ArialMT-110"/>
      <use x="227.929688" xlink:href="#ArialMT-97"/>
      <use x="283.544922" xlink:href="#ArialMT-114"/>
      <use x="316.845703" xlink:href="#ArialMT-105"/>
      <use x="339.0625" xlink:href="#ArialMT-111"/>
      <use x="394.677734" xlink:href="#ArialMT-32"/>
      <use x="422.460938" xlink:href="#ArialMT-66"/>
     </g>
    </g>
    <g id="line2d_46">
     <path d="M 136.2375 246.145313 
L 191.2375 246.145313 
" style="fill:none;stroke:#55a868;stroke-linecap:round;stroke-width:4;"/>
    </g>
    <g id="line2d_47"/>
    <g id="text_32">
     <!-- Scenario C -->
     <g style="fill:#262626;" transform="translate(213.2375 255.770313)scale(0.275 -0.275)">
      <defs>
       <path d="M 58.796875 25.09375 
L 68.265625 22.703125 
Q 65.28125 11.03125 57.546875 4.90625 
Q 49.8125 -1.21875 38.625 -1.21875 
Q 27.046875 -1.21875 19.796875 3.484375 
Q 12.546875 8.203125 8.765625 17.140625 
Q 4.984375 26.078125 4.984375 36.328125 
Q 4.984375 47.515625 9.25 55.828125 
Q 13.53125 64.15625 21.40625 68.46875 
Q 29.296875 72.796875 38.765625 72.796875 
Q 49.515625 72.796875 56.828125 67.328125 
Q 64.15625 61.859375 67.046875 51.953125 
L 57.71875 49.75 
Q 55.21875 57.5625 50.484375 61.125 
Q 45.75 64.703125 38.578125 64.703125 
Q 30.328125 64.703125 24.78125 60.734375 
Q 19.234375 56.78125 16.984375 50.109375 
Q 14.75 43.453125 14.75 36.375 
Q 14.75 27.25 17.40625 20.4375 
Q 20.0625 13.625 25.671875 10.25 
Q 31.296875 6.890625 37.84375 6.890625 
Q 45.796875 6.890625 51.3125 11.46875 
Q 56.84375 16.0625 58.796875 25.09375 
z
" id="ArialMT-67"/>
      </defs>
      <use xlink:href="#ArialMT-83"/>
      <use x="66.699219" xlink:href="#ArialMT-99"/>
      <use x="116.699219" xlink:href="#ArialMT-101"/>
      <use x="172.314453" xlink:href="#ArialMT-110"/>
      <use x="227.929688" xlink:href="#ArialMT-97"/>
      <use x="283.544922" xlink:href="#ArialMT-114"/>
      <use x="316.845703" xlink:href="#ArialMT-105"/>
      <use x="339.0625" xlink:href="#ArialMT-111"/>
      <use x="394.677734" xlink:href="#ArialMT-32"/>
      <use x="422.460938" xlink:href="#ArialMT-67"/>
     </g>
    </g>
    <g id="line2d_48">
     <path d="M 136.2375 285.044922 
L 191.2375 285.044922 
" style="fill:none;stroke:#c44e52;stroke-linecap:round;stroke-width:4;"/>
    </g>
    <g id="line2d_49"/>
    <g id="text_33">
     <!-- Scenario D -->
     <g style="fill:#262626;" transform="translate(213.2375 294.669922)scale(0.275 -0.275)">
      <use xlink:href="#ArialMT-83"/>
      <use x="66.699219" xlink:href="#ArialMT-99"/>
      <use x="116.699219" xlink:href="#ArialMT-101"/>
      <use x="172.314453" xlink:href="#ArialMT-110"/>
      <use x="227.929688" xlink:href="#ArialMT-97"/>
      <use x="283.544922" xlink:href="#ArialMT-114"/>
      <use x="316.845703" xlink:href="#ArialMT-105"/>
      <use x="339.0625" xlink:href="#ArialMT-111"/>
      <use x="394.677734" xlink:href="#ArialMT-32"/>
      <use x="422.460938" xlink:href="#ArialMT-68"/>
     </g>
    </g>
    <g id="line2d_50">
     <path d="M 136.2375 323.944531 
L 191.2375 323.944531 
" style="fill:none;stroke:#8172b3;stroke-linecap:round;stroke-width:4;"/>
    </g>
    <g id="line2d_51"/>
    <g id="text_34">
     <!-- Scenario E -->
     <g style="fill:#262626;" transform="translate(213.2375 333.569531)scale(0.275 -0.275)">
      <defs>
       <path d="M 7.90625 0 
L 7.90625 71.578125 
L 59.671875 71.578125 
L 59.671875 63.140625 
L 17.390625 63.140625 
L 17.390625 41.21875 
L 56.984375 41.21875 
L 56.984375 32.8125 
L 17.390625 32.8125 
L 17.390625 8.453125 
L 61.328125 8.453125 
L 61.328125 0 
z
" id="ArialMT-69"/>
      </defs>
      <use xlink:href="#ArialMT-83"/>
      <use x="66.699219" xlink:href="#ArialMT-99"/>
      <use x="116.699219" xlink:href="#ArialMT-101"/>
      <use x="172.314453" xlink:href="#ArialMT-110"/>
      <use x="227.929688" xlink:href="#ArialMT-97"/>
      <use x="283.544922" xlink:href="#ArialMT-114"/>
      <use x="316.845703" xlink:href="#ArialMT-105"/>
      <use x="339.0625" xlink:href="#ArialMT-111"/>
      <use x="394.677734" xlink:href="#ArialMT-32"/>
      <use x="422.460938" xlink:href="#ArialMT-69"/>
     </g>
    </g>
   </g>
  </g>
 </g>
 <defs>
  <clipPath id="p0b8f364849">
   <rect height="0" width="669.6" x="111.4875" y="133.537109"/>
  </clipPath>
  <clipPath id="p9be24c2cd4">
   <rect height="489.24" width="669.6" x="111.4875" y="133.537109"/>
  </clipPath>
 </defs>
</svg>
